<?xml version="1.0" encoding="utf-8" standalone="no"?>
<!DOCTYPE svg PUBLIC "-//W3C//DTD SVG 1.1//EN"
  "http://www.w3.org/Graphics/SVG/1.1/DTD/svg11.dtd">
<svg xmlns:xlink="http://www.w3.org/1999/xlink" width="1000.280625pt" height="330.541644pt" viewBox="0 0 1000.280625 330.541644" xmlns="http://www.w3.org/2000/svg" version="1.1">
 <metadata>
  <rdf:RDF xmlns:dc="http://purl.org/dc/elements/1.1/" xmlns:cc="http://creativecommons.org/ns#" xmlns:rdf="http://www.w3.org/1999/02/22-rdf-syntax-ns#">
   <cc:Work>
    <dc:type rdf:resource="http://purl.org/dc/dcmitype/StillImage"/>
    <dc:date>2025-08-20T15:21:01.680880</dc:date>
    <dc:format>image/svg+xml</dc:format>
    <dc:creator>
     <cc:Agent>
      <dc:title>Matplotlib v3.6.2, https://matplotlib.org/</dc:title>
     </cc:Agent>
    </dc:creator>
   </cc:Work>
  </rdf:RDF>
 </metadata>
 <defs>
  <style type="text/css">*{stroke-linejoin: round; stroke-linecap: butt}</style>
 </defs>
 <g id="figure_1">
  <g id="axes_1">
   <g id="patch_1">
    <path d="M 40.600625 273.99006 
L 985.445625 273.99006 
L 985.445625 31.48286 
L 40.600625 31.48286 
z
" style="fill: #ffffff"/>
   </g>
   <g id="matplotlib.axis_1">
    <g id="xtick_1">
     <g id="text_1">
      <!-- 0 -->
      <g transform="translate(38.055625 287.06881) scale(0.08 -0.08)">
       <defs>
        <path id="DejaVuSans-30" d="M 2034 4250 
Q 1547 4250 1301 3770 
Q 1056 3291 1056 2328 
Q 1056 1369 1301 889 
Q 1547 409 2034 409 
Q 2525 409 2770 889 
Q 3016 1369 3016 2328 
Q 3016 3291 2770 3770 
Q 2525 4250 2034 4250 
z
M 2034 4750 
Q 2819 4750 3233 4129 
Q 3647 3509 3647 2328 
Q 3647 1150 3233 529 
Q 2819 -91 2034 -91 
Q 1250 -91 836 529 
Q 422 1150 422 2328 
Q 422 3509 836 4129 
Q 1250 4750 2034 4750 
z
" transform="scale(0.015625)"/>
       </defs>
       <use xlink:href="#DejaVuSans-30"/>
      </g>
     </g>
    </g>
    <g id="xtick_2">
     <g id="text_2">
      <!-- 20 -->
      <g transform="translate(224.479625 287.06881) scale(0.08 -0.08)">
       <defs>
        <path id="DejaVuSans-32" d="M 1228 531 
L 3431 531 
L 3431 0 
L 469 0 
L 469 531 
Q 828 903 1448 1529 
Q 2069 2156 2228 2338 
Q 2531 2678 2651 2914 
Q 2772 3150 2772 3378 
Q 2772 3750 2511 3984 
Q 2250 4219 1831 4219 
Q 1534 4219 1204 4116 
Q 875 4013 500 3803 
L 500 4441 
Q 881 4594 1212 4672 
Q 1544 4750 1819 4750 
Q 2544 4750 2975 4387 
Q 3406 4025 3406 3419 
Q 3406 3131 3298 2873 
Q 3191 2616 2906 2266 
Q 2828 2175 2409 1742 
Q 1991 1309 1228 531 
z
" transform="scale(0.015625)"/>
       </defs>
       <use xlink:href="#DejaVuSans-32"/>
       <use xlink:href="#DejaVuSans-30" x="63.623047"/>
      </g>
     </g>
    </g>
    <g id="xtick_3">
     <g id="text_3">
      <!-- 40 -->
      <g transform="translate(413.448625 287.06881) scale(0.08 -0.08)">
       <defs>
        <path id="DejaVuSans-34" d="M 2419 4116 
L 825 1625 
L 2419 1625 
L 2419 4116 
z
M 2253 4666 
L 3047 4666 
L 3047 1625 
L 3713 1625 
L 3713 1100 
L 3047 1100 
L 3047 0 
L 2419 0 
L 2419 1100 
L 313 1100 
L 313 1709 
L 2253 4666 
z
" transform="scale(0.015625)"/>
       </defs>
       <use xlink:href="#DejaVuSans-34"/>
       <use xlink:href="#DejaVuSans-30" x="63.623047"/>
      </g>
     </g>
    </g>
    <g id="xtick_4">
     <g id="text_4">
      <!-- 60 -->
      <g transform="translate(602.417625 287.06881) scale(0.08 -0.08)">
       <defs>
        <path id="DejaVuSans-36" d="M 2113 2584 
Q 1688 2584 1439 2293 
Q 1191 2003 1191 1497 
Q 1191 994 1439 701 
Q 1688 409 2113 409 
Q 2538 409 2786 701 
Q 3034 994 3034 1497 
Q 3034 2003 2786 2293 
Q 2538 2584 2113 2584 
z
M 3366 4563 
L 3366 3988 
Q 3128 4100 2886 4159 
Q 2644 4219 2406 4219 
Q 1781 4219 1451 3797 
Q 1122 3375 1075 2522 
Q 1259 2794 1537 2939 
Q 1816 3084 2150 3084 
Q 2853 3084 3261 2657 
Q 3669 2231 3669 1497 
Q 3669 778 3244 343 
Q 2819 -91 2113 -91 
Q 1303 -91 875 529 
Q 447 1150 447 2328 
Q 447 3434 972 4092 
Q 1497 4750 2381 4750 
Q 2619 4750 2861 4703 
Q 3103 4656 3366 4563 
z
" transform="scale(0.015625)"/>
       </defs>
       <use xlink:href="#DejaVuSans-36"/>
       <use xlink:href="#DejaVuSans-30" x="63.623047"/>
      </g>
     </g>
    </g>
    <g id="xtick_5">
     <g id="text_5">
      <!-- 80 -->
      <g transform="translate(791.386625 287.06881) scale(0.08 -0.08)">
       <defs>
        <path id="DejaVuSans-38" d="M 2034 2216 
Q 1584 2216 1326 1975 
Q 1069 1734 1069 1313 
Q 1069 891 1326 650 
Q 1584 409 2034 409 
Q 2484 409 2743 651 
Q 3003 894 3003 1313 
Q 3003 1734 2745 1975 
Q 2488 2216 2034 2216 
z
M 1403 2484 
Q 997 2584 770 2862 
Q 544 3141 544 3541 
Q 544 4100 942 4425 
Q 1341 4750 2034 4750 
Q 2731 4750 3128 4425 
Q 3525 4100 3525 3541 
Q 3525 3141 3298 2862 
Q 3072 2584 2669 2484 
Q 3125 2378 3379 2068 
Q 3634 1759 3634 1313 
Q 3634 634 3220 271 
Q 2806 -91 2034 -91 
Q 1263 -91 848 271 
Q 434 634 434 1313 
Q 434 1759 690 2068 
Q 947 2378 1403 2484 
z
M 1172 3481 
Q 1172 3119 1398 2916 
Q 1625 2713 2034 2713 
Q 2441 2713 2670 2916 
Q 2900 3119 2900 3481 
Q 2900 3844 2670 4047 
Q 2441 4250 2034 4250 
Q 1625 4250 1398 4047 
Q 1172 3844 1172 3481 
z
" transform="scale(0.015625)"/>
       </defs>
       <use xlink:href="#DejaVuSans-38"/>
       <use xlink:href="#DejaVuSans-30" x="63.623047"/>
      </g>
     </g>
    </g>
    <g id="xtick_6">
     <g id="text_6">
      <!-- 100 -->
      <g transform="translate(977.810625 287.06881) scale(0.08 -0.08)">
       <defs>
        <path id="DejaVuSans-31" d="M 794 531 
L 1825 531 
L 1825 4091 
L 703 3866 
L 703 4441 
L 1819 4666 
L 2450 4666 
L 2450 531 
L 3481 531 
L 3481 0 
L 794 0 
L 794 531 
z
" transform="scale(0.015625)"/>
       </defs>
       <use xlink:href="#DejaVuSans-31"/>
       <use xlink:href="#DejaVuSans-30" x="63.623047"/>
       <use xlink:href="#DejaVuSans-30" x="127.246094"/>
      </g>
     </g>
    </g>
    <g id="text_7">
     <!-- % GC -->
     <g transform="translate(499.317656 300.330997) scale(0.1 -0.1)">
      <defs>
       <path id="DejaVuSans-25" d="M 4653 2053 
Q 4381 2053 4226 1822 
Q 4072 1591 4072 1178 
Q 4072 772 4226 539 
Q 4381 306 4653 306 
Q 4919 306 5073 539 
Q 5228 772 5228 1178 
Q 5228 1588 5073 1820 
Q 4919 2053 4653 2053 
z
M 4653 2450 
Q 5147 2450 5437 2106 
Q 5728 1763 5728 1178 
Q 5728 594 5436 251 
Q 5144 -91 4653 -91 
Q 4153 -91 3862 251 
Q 3572 594 3572 1178 
Q 3572 1766 3864 2108 
Q 4156 2450 4653 2450 
z
M 1428 4353 
Q 1159 4353 1004 4120 
Q 850 3888 850 3481 
Q 850 3069 1003 2837 
Q 1156 2606 1428 2606 
Q 1700 2606 1854 2837 
Q 2009 3069 2009 3481 
Q 2009 3884 1853 4118 
Q 1697 4353 1428 4353 
z
M 4250 4750 
L 4750 4750 
L 1831 -91 
L 1331 -91 
L 4250 4750 
z
M 1428 4750 
Q 1922 4750 2215 4408 
Q 2509 4066 2509 3481 
Q 2509 2891 2217 2550 
Q 1925 2209 1428 2209 
Q 931 2209 642 2551 
Q 353 2894 353 3481 
Q 353 4063 643 4406 
Q 934 4750 1428 4750 
z
" transform="scale(0.015625)"/>
       <path id="DejaVuSans-20" transform="scale(0.015625)"/>
       <path id="DejaVuSans-47" d="M 3809 666 
L 3809 1919 
L 2778 1919 
L 2778 2438 
L 4434 2438 
L 4434 434 
Q 4069 175 3628 42 
Q 3188 -91 2688 -91 
Q 1594 -91 976 548 
Q 359 1188 359 2328 
Q 359 3472 976 4111 
Q 1594 4750 2688 4750 
Q 3144 4750 3555 4637 
Q 3966 4525 4313 4306 
L 4313 3634 
Q 3963 3931 3569 4081 
Q 3175 4231 2741 4231 
Q 1884 4231 1454 3753 
Q 1025 3275 1025 2328 
Q 1025 1384 1454 906 
Q 1884 428 2741 428 
Q 3075 428 3337 486 
Q 3600 544 3809 666 
z
" transform="scale(0.015625)"/>
       <path id="DejaVuSans-43" d="M 4122 4306 
L 4122 3641 
Q 3803 3938 3442 4084 
Q 3081 4231 2675 4231 
Q 1875 4231 1450 3742 
Q 1025 3253 1025 2328 
Q 1025 1406 1450 917 
Q 1875 428 2675 428 
Q 3081 428 3442 575 
Q 3803 722 4122 1019 
L 4122 359 
Q 3791 134 3420 21 
Q 3050 -91 2638 -91 
Q 1578 -91 968 557 
Q 359 1206 359 2328 
Q 359 3453 968 4101 
Q 1578 4750 2638 4750 
Q 3056 4750 3426 4639 
Q 3797 4528 4122 4306 
z
" transform="scale(0.015625)"/>
      </defs>
      <use xlink:href="#DejaVuSans-25"/>
      <use xlink:href="#DejaVuSans-20" x="95.019531"/>
      <use xlink:href="#DejaVuSans-47" x="126.806641"/>
      <use xlink:href="#DejaVuSans-43" x="204.296875"/>
     </g>
    </g>
   </g>
   <g id="matplotlib.axis_2">
    <g id="ytick_1">
     <g id="line2d_1">
      <path d="M 40.600625 273.99006 
L 985.445625 273.99006 
" clip-path="url(#p023132e6a0)" style="fill: none; stroke: #dedede; stroke-linecap: square"/>
     </g>
     <g id="text_8">
      <!-- 0.0 -->
      <g transform="translate(20.878125 277.029435) scale(0.08 -0.08)">
       <defs>
        <path id="DejaVuSans-2e" d="M 684 794 
L 1344 794 
L 1344 0 
L 684 0 
L 684 794 
z
" transform="scale(0.015625)"/>
       </defs>
       <use xlink:href="#DejaVuSans-30"/>
       <use xlink:href="#DejaVuSans-2e" x="63.623047"/>
       <use xlink:href="#DejaVuSans-30" x="95.410156"/>
      </g>
     </g>
    </g>
    <g id="ytick_2">
     <g id="line2d_2">
      <path d="M 40.600625 242.09815 
L 985.445625 242.09815 
" clip-path="url(#p023132e6a0)" style="fill: none; stroke: #dedede; stroke-linecap: square"/>
     </g>
     <g id="text_9">
      <!-- 0.5 -->
      <g transform="translate(20.878125 245.137525) scale(0.08 -0.08)">
       <defs>
        <path id="DejaVuSans-35" d="M 691 4666 
L 3169 4666 
L 3169 4134 
L 1269 4134 
L 1269 2991 
Q 1406 3038 1543 3061 
Q 1681 3084 1819 3084 
Q 2600 3084 3056 2656 
Q 3513 2228 3513 1497 
Q 3513 744 3044 326 
Q 2575 -91 1722 -91 
Q 1428 -91 1123 -41 
Q 819 9 494 109 
L 494 744 
Q 775 591 1075 516 
Q 1375 441 1709 441 
Q 2250 441 2565 725 
Q 2881 1009 2881 1497 
Q 2881 1984 2565 2268 
Q 2250 2553 1709 2553 
Q 1456 2553 1204 2497 
Q 953 2441 691 2322 
L 691 4666 
z
" transform="scale(0.015625)"/>
       </defs>
       <use xlink:href="#DejaVuSans-30"/>
       <use xlink:href="#DejaVuSans-2e" x="63.623047"/>
       <use xlink:href="#DejaVuSans-35" x="95.410156"/>
      </g>
     </g>
    </g>
    <g id="ytick_3">
     <g id="line2d_3">
      <path d="M 40.600625 210.20624 
L 985.445625 210.20624 
" clip-path="url(#p023132e6a0)" style="fill: none; stroke: #dedede; stroke-linecap: square"/>
     </g>
     <g id="text_10">
      <!-- 1.0 -->
      <g transform="translate(20.878125 213.245615) scale(0.08 -0.08)">
       <use xlink:href="#DejaVuSans-31"/>
       <use xlink:href="#DejaVuSans-2e" x="63.623047"/>
       <use xlink:href="#DejaVuSans-30" x="95.410156"/>
      </g>
     </g>
    </g>
    <g id="ytick_4">
     <g id="line2d_4">
      <path d="M 40.600625 178.314329 
L 985.445625 178.314329 
" clip-path="url(#p023132e6a0)" style="fill: none; stroke: #dedede; stroke-linecap: square"/>
     </g>
     <g id="text_11">
      <!-- 1.5 -->
      <g transform="translate(20.878125 181.353704) scale(0.08 -0.08)">
       <use xlink:href="#DejaVuSans-31"/>
       <use xlink:href="#DejaVuSans-2e" x="63.623047"/>
       <use xlink:href="#DejaVuSans-35" x="95.410156"/>
      </g>
     </g>
    </g>
    <g id="ytick_5">
     <g id="line2d_5">
      <path d="M 40.600625 146.422419 
L 985.445625 146.422419 
" clip-path="url(#p023132e6a0)" style="fill: none; stroke: #dedede; stroke-linecap: square"/>
     </g>
     <g id="text_12">
      <!-- 2.0 -->
      <g transform="translate(20.878125 149.461794) scale(0.08 -0.08)">
       <use xlink:href="#DejaVuSans-32"/>
       <use xlink:href="#DejaVuSans-2e" x="63.623047"/>
       <use xlink:href="#DejaVuSans-30" x="95.410156"/>
      </g>
     </g>
    </g>
    <g id="ytick_6">
     <g id="line2d_6">
      <path d="M 40.600625 114.530509 
L 985.445625 114.530509 
" clip-path="url(#p023132e6a0)" style="fill: none; stroke: #dedede; stroke-linecap: square"/>
     </g>
     <g id="text_13">
      <!-- 2.5 -->
      <g transform="translate(20.878125 117.569884) scale(0.08 -0.08)">
       <use xlink:href="#DejaVuSans-32"/>
       <use xlink:href="#DejaVuSans-2e" x="63.623047"/>
       <use xlink:href="#DejaVuSans-35" x="95.410156"/>
      </g>
     </g>
    </g>
    <g id="ytick_7">
     <g id="line2d_7">
      <path d="M 40.600625 82.638599 
L 985.445625 82.638599 
" clip-path="url(#p023132e6a0)" style="fill: none; stroke: #dedede; stroke-linecap: square"/>
     </g>
     <g id="text_14">
      <!-- 3.0 -->
      <g transform="translate(20.878125 85.677974) scale(0.08 -0.08)">
       <defs>
        <path id="DejaVuSans-33" d="M 2597 2516 
Q 3050 2419 3304 2112 
Q 3559 1806 3559 1356 
Q 3559 666 3084 287 
Q 2609 -91 1734 -91 
Q 1441 -91 1130 -33 
Q 819 25 488 141 
L 488 750 
Q 750 597 1062 519 
Q 1375 441 1716 441 
Q 2309 441 2620 675 
Q 2931 909 2931 1356 
Q 2931 1769 2642 2001 
Q 2353 2234 1838 2234 
L 1294 2234 
L 1294 2753 
L 1863 2753 
Q 2328 2753 2575 2939 
Q 2822 3125 2822 3475 
Q 2822 3834 2567 4026 
Q 2313 4219 1838 4219 
Q 1578 4219 1281 4162 
Q 984 4106 628 3988 
L 628 4550 
Q 988 4650 1302 4700 
Q 1616 4750 1894 4750 
Q 2613 4750 3031 4423 
Q 3450 4097 3450 3541 
Q 3450 3153 3228 2886 
Q 3006 2619 2597 2516 
z
" transform="scale(0.015625)"/>
       </defs>
       <use xlink:href="#DejaVuSans-33"/>
       <use xlink:href="#DejaVuSans-2e" x="63.623047"/>
       <use xlink:href="#DejaVuSans-30" x="95.410156"/>
      </g>
     </g>
    </g>
    <g id="ytick_8">
     <g id="line2d_8">
      <path d="M 40.600625 50.746688 
L 985.445625 50.746688 
" clip-path="url(#p023132e6a0)" style="fill: none; stroke: #dedede; stroke-linecap: square"/>
     </g>
     <g id="text_15">
      <!-- 3.5 -->
      <g transform="translate(20.878125 53.786063) scale(0.08 -0.08)">
       <use xlink:href="#DejaVuSans-33"/>
       <use xlink:href="#DejaVuSans-2e" x="63.623047"/>
       <use xlink:href="#DejaVuSans-35" x="95.410156"/>
      </g>
     </g>
    </g>
    <g id="text_16">
     <!-- Percentage -->
     <g transform="translate(14.798438 180.859116) rotate(-90) scale(0.1 -0.1)">
      <defs>
       <path id="DejaVuSans-50" d="M 1259 4147 
L 1259 2394 
L 2053 2394 
Q 2494 2394 2734 2622 
Q 2975 2850 2975 3272 
Q 2975 3691 2734 3919 
Q 2494 4147 2053 4147 
L 1259 4147 
z
M 628 4666 
L 2053 4666 
Q 2838 4666 3239 4311 
Q 3641 3956 3641 3272 
Q 3641 2581 3239 2228 
Q 2838 1875 2053 1875 
L 1259 1875 
L 1259 0 
L 628 0 
L 628 4666 
z
" transform="scale(0.015625)"/>
       <path id="DejaVuSans-65" d="M 3597 1894 
L 3597 1613 
L 953 1613 
Q 991 1019 1311 708 
Q 1631 397 2203 397 
Q 2534 397 2845 478 
Q 3156 559 3463 722 
L 3463 178 
Q 3153 47 2828 -22 
Q 2503 -91 2169 -91 
Q 1331 -91 842 396 
Q 353 884 353 1716 
Q 353 2575 817 3079 
Q 1281 3584 2069 3584 
Q 2775 3584 3186 3129 
Q 3597 2675 3597 1894 
z
M 3022 2063 
Q 3016 2534 2758 2815 
Q 2500 3097 2075 3097 
Q 1594 3097 1305 2825 
Q 1016 2553 972 2059 
L 3022 2063 
z
" transform="scale(0.015625)"/>
       <path id="DejaVuSans-72" d="M 2631 2963 
Q 2534 3019 2420 3045 
Q 2306 3072 2169 3072 
Q 1681 3072 1420 2755 
Q 1159 2438 1159 1844 
L 1159 0 
L 581 0 
L 581 3500 
L 1159 3500 
L 1159 2956 
Q 1341 3275 1631 3429 
Q 1922 3584 2338 3584 
Q 2397 3584 2469 3576 
Q 2541 3569 2628 3553 
L 2631 2963 
z
" transform="scale(0.015625)"/>
       <path id="DejaVuSans-63" d="M 3122 3366 
L 3122 2828 
Q 2878 2963 2633 3030 
Q 2388 3097 2138 3097 
Q 1578 3097 1268 2742 
Q 959 2388 959 1747 
Q 959 1106 1268 751 
Q 1578 397 2138 397 
Q 2388 397 2633 464 
Q 2878 531 3122 666 
L 3122 134 
Q 2881 22 2623 -34 
Q 2366 -91 2075 -91 
Q 1284 -91 818 406 
Q 353 903 353 1747 
Q 353 2603 823 3093 
Q 1294 3584 2113 3584 
Q 2378 3584 2631 3529 
Q 2884 3475 3122 3366 
z
" transform="scale(0.015625)"/>
       <path id="DejaVuSans-6e" d="M 3513 2113 
L 3513 0 
L 2938 0 
L 2938 2094 
Q 2938 2591 2744 2837 
Q 2550 3084 2163 3084 
Q 1697 3084 1428 2787 
Q 1159 2491 1159 1978 
L 1159 0 
L 581 0 
L 581 3500 
L 1159 3500 
L 1159 2956 
Q 1366 3272 1645 3428 
Q 1925 3584 2291 3584 
Q 2894 3584 3203 3211 
Q 3513 2838 3513 2113 
z
" transform="scale(0.015625)"/>
       <path id="DejaVuSans-74" d="M 1172 4494 
L 1172 3500 
L 2356 3500 
L 2356 3053 
L 1172 3053 
L 1172 1153 
Q 1172 725 1289 603 
Q 1406 481 1766 481 
L 2356 481 
L 2356 0 
L 1766 0 
Q 1100 0 847 248 
Q 594 497 594 1153 
L 594 3053 
L 172 3053 
L 172 3500 
L 594 3500 
L 594 4494 
L 1172 4494 
z
" transform="scale(0.015625)"/>
       <path id="DejaVuSans-61" d="M 2194 1759 
Q 1497 1759 1228 1600 
Q 959 1441 959 1056 
Q 959 750 1161 570 
Q 1363 391 1709 391 
Q 2188 391 2477 730 
Q 2766 1069 2766 1631 
L 2766 1759 
L 2194 1759 
z
M 3341 1997 
L 3341 0 
L 2766 0 
L 2766 531 
Q 2569 213 2275 61 
Q 1981 -91 1556 -91 
Q 1019 -91 701 211 
Q 384 513 384 1019 
Q 384 1609 779 1909 
Q 1175 2209 1959 2209 
L 2766 2209 
L 2766 2266 
Q 2766 2663 2505 2880 
Q 2244 3097 1772 3097 
Q 1472 3097 1187 3025 
Q 903 2953 641 2809 
L 641 3341 
Q 956 3463 1253 3523 
Q 1550 3584 1831 3584 
Q 2591 3584 2966 3190 
Q 3341 2797 3341 1997 
z
" transform="scale(0.015625)"/>
       <path id="DejaVuSans-67" d="M 2906 1791 
Q 2906 2416 2648 2759 
Q 2391 3103 1925 3103 
Q 1463 3103 1205 2759 
Q 947 2416 947 1791 
Q 947 1169 1205 825 
Q 1463 481 1925 481 
Q 2391 481 2648 825 
Q 2906 1169 2906 1791 
z
M 3481 434 
Q 3481 -459 3084 -895 
Q 2688 -1331 1869 -1331 
Q 1566 -1331 1297 -1286 
Q 1028 -1241 775 -1147 
L 775 -588 
Q 1028 -725 1275 -790 
Q 1522 -856 1778 -856 
Q 2344 -856 2625 -561 
Q 2906 -266 2906 331 
L 2906 616 
Q 2728 306 2450 153 
Q 2172 0 1784 0 
Q 1141 0 747 490 
Q 353 981 353 1791 
Q 353 2603 747 3093 
Q 1141 3584 1784 3584 
Q 2172 3584 2450 3431 
Q 2728 3278 2906 2969 
L 2906 3500 
L 3481 3500 
L 3481 434 
z
" transform="scale(0.015625)"/>
      </defs>
      <use xlink:href="#DejaVuSans-50"/>
      <use xlink:href="#DejaVuSans-65" x="56.677734"/>
      <use xlink:href="#DejaVuSans-72" x="118.201172"/>
      <use xlink:href="#DejaVuSans-63" x="157.064453"/>
      <use xlink:href="#DejaVuSans-65" x="212.044922"/>
      <use xlink:href="#DejaVuSans-6e" x="273.568359"/>
      <use xlink:href="#DejaVuSans-74" x="336.947266"/>
      <use xlink:href="#DejaVuSans-61" x="376.15625"/>
      <use xlink:href="#DejaVuSans-67" x="437.435547"/>
      <use xlink:href="#DejaVuSans-65" x="500.912109"/>
     </g>
    </g>
   </g>
   <g id="line2d_9">
    <path d="M 40.600625 273.744824 
L 50.049075 273.795382 
L 59.497525 273.863374 
L 68.945975 273.899985 
L 78.394425 273.918 
L 87.842875 273.908121 
L 97.291325 273.887781 
L 106.739775 273.852914 
L 116.188225 273.816303 
L 125.636675 273.729134 
L 135.085125 273.62918 
L 144.533575 273.478667 
L 153.982025 273.333967 
L 163.430475 273.025388 
L 172.878925 272.688915 
L 182.327375 271.920664 
L 191.775825 271.128586 
L 201.224275 269.680997 
L 210.672725 268.154374 
L 220.121175 265.458521 
L 229.569625 262.751046 
L 239.018075 258.397817 
L 248.466525 254.019018 
L 257.914975 247.347089 
L 267.363425 240.723974 
L 276.811875 232.360381 
L 286.260325 223.77596 
L 295.708775 213.161659 
L 305.157225 202.420671 
L 314.605675 190.07519 
L 324.054125 177.788403 
L 333.502575 163.670481 
L 342.951025 149.384033 
L 352.399475 136.402217 
L 361.847925 123.522679 
L 371.296375 111.201024 
L 380.744825 98.893897 
L 390.193275 88.380131 
L 399.641725 77.9053 
L 409.090175 69.706167 
L 418.538625 61.616285 
L 427.987075 59.169737 
L 437.435525 56.794086 
L 446.883975 59.781083 
L 456.332425 63.019709 
L 465.780875 68.611903 
L 475.229325 74.315673 
L 484.677775 81.427517 
L 494.126225 88.497519 
L 503.574675 97.23652 
L 513.023125 105.953439 
L 522.471575 114.708712 
L 531.920025 123.451781 
L 541.368475 131.783993 
L 550.816925 140.108069 
L 560.265375 146.574861 
L 569.713825 153.046301 
L 579.162275 154.091169 
L 588.610725 155.21507 
L 598.059175 156.064098 
L 607.507625 157.064219 
L 616.956075 160.941505 
L 626.404525 164.982087 
L 635.852975 180.05887 
L 645.301425 195.441325 
L 654.749875 212.54392 
L 664.198325 229.683125 
L 673.646775 234.201976 
L 683.095225 238.253599 
L 692.543675 239.339146 
L 701.992125 240.241057 
L 711.440575 238.821361 
L 720.889025 237.591114 
L 730.337475 228.256456 
L 739.785925 218.910757 
L 749.234375 241.570096 
L 758.682825 264.604844 
L 768.131275 267.528499 
L 777.579725 270.025024 
L 787.028175 270.837441 
L 796.476625 271.581285 
L 805.925075 271.987493 
L 815.373525 272.262948 
L 824.821975 272.52155 
L 834.270425 272.817925 
L 843.718875 272.96495 
L 853.167325 273.100934 
L 862.615775 273.215416 
L 872.064225 273.285733 
L 881.512675 273.404864 
L 890.961125 273.586176 
L 900.409575 273.669277 
L 909.858025 273.693685 
L 919.306475 273.791314 
L 928.754925 273.884876 
L 938.203375 273.90231 
L 947.651825 273.902891 
L 957.100275 273.935434 
L 966.548725 273.974951 
L 975.997175 273.981924 
L 985.445625 273.981924 
" clip-path="url(#p023132e6a0)" style="fill: none; stroke: #f0ad4e; stroke-linecap: square"/>
   </g>
   <g id="line2d_10">
    <path d="M 40.600625 266.203843 
L 50.049075 267.533742 
L 59.497525 268.739911 
L 68.945975 269.294701 
L 78.394425 270.059433 
L 87.842875 270.181567 
L 97.291325 270.14804 
L 106.739775 270.057039 
L 116.188225 270.030696 
L 125.636675 269.907764 
L 135.085125 269.720972 
L 144.533575 269.412844 
L 153.982025 269.122277 
L 163.430475 268.217052 
L 172.878925 267.319011 
L 182.327375 265.684975 
L 191.775825 264.009429 
L 201.224275 261.170023 
L 210.672725 258.226044 
L 220.121175 252.993457 
L 229.569625 247.704992 
L 239.018075 240.019356 
L 248.466525 232.306579 
L 257.914975 222.184657 
L 267.363425 212.109033 
L 276.811875 199.842988 
L 286.260325 187.166637 
L 295.708775 173.787818 
L 305.157225 160.349929 
L 314.605675 145.926988 
L 324.054125 131.603031 
L 333.502575 117.632703 
L 342.951025 103.611286 
L 352.399475 92.469188 
L 361.847925 81.221721 
L 371.296375 71.94276 
L 380.744825 63.145948 
L 390.193275 59.517063 
L 399.641725 55.718947 
L 409.090175 55.111472 
L 418.538625 54.840064 
L 427.987075 58.301315 
L 437.435525 61.84718 
L 446.883975 69.451394 
L 456.332425 77.150601 
L 465.780875 85.968967 
L 475.229325 94.836026 
L 484.677775 103.301561 
L 494.126225 111.734368 
L 503.574675 122.725594 
L 513.023125 133.855717 
L 522.471575 144.34883 
L 531.920025 154.830767 
L 541.368475 162.501236 
L 550.816925 170.28426 
L 560.265375 178.048126 
L 569.713825 185.677086 
L 579.162275 191.567438 
L 588.610725 197.623828 
L 598.059175 203.989942 
L 607.507625 210.417523 
L 616.956075 214.344158 
L 626.404525 217.945902 
L 635.852975 216.512229 
L 645.301425 215.13204 
L 654.749875 220.930592 
L 664.198325 226.971815 
L 673.646775 229.281178 
L 683.095225 231.466811 
L 692.543675 229.394531 
L 701.992125 227.84511 
L 711.440575 235.581037 
L 720.889025 243.327341 
L 730.337475 254.091063 
L 739.785925 264.455656 
L 749.234375 267.529751 
L 758.682825 270.458563 
L 768.131275 271.310305 
L 777.579725 272.067853 
L 787.028175 272.479754 
L 796.476625 272.832585 
L 805.925075 273.088027 
L 815.373525 273.284399 
L 824.821975 273.441656 
L 834.270425 273.605299 
L 843.718875 273.707476 
L 853.167325 273.772934 
L 862.615775 273.804864 
L 872.064225 273.832803 
L 881.512675 273.859146 
L 890.961125 273.882295 
L 900.409575 273.912629 
L 909.858025 273.943761 
L 919.306475 273.963717 
L 928.754925 273.972498 
L 938.203375 273.973297 
L 947.651825 273.973297 
L 957.100275 273.977288 
L 966.548725 273.982876 
L 975.997175 273.984472 
L 985.445625 273.98527 
" clip-path="url(#p023132e6a0)" style="fill: none; stroke: #f0ad4e; stroke-linecap: square"/>
   </g>
   <g id="line2d_11">
    <path d="M 40.600625 273.806158 
L 50.049075 273.828196 
L 59.497525 273.856313 
L 68.945975 273.876831 
L 78.394425 273.89051 
L 87.842875 273.874551 
L 97.291325 273.855553 
L 106.739775 273.830475 
L 116.188225 273.790199 
L 125.636675 273.690649 
L 135.085125 273.584259 
L 144.533575 273.421635 
L 153.982025 273.259011 
L 163.430475 272.812174 
L 172.878925 272.345579 
L 182.327375 271.449626 
L 191.775825 270.536194 
L 201.224275 268.899313 
L 210.672725 267.196317 
L 220.121175 263.984108 
L 229.569625 260.731623 
L 239.018075 255.617318 
L 248.466525 250.468056 
L 257.914975 243.020017 
L 267.363425 235.504344 
L 276.811875 225.975626 
L 286.260325 216.42259 
L 295.708775 204.444629 
L 305.157225 192.255408 
L 314.605675 178.504539 
L 324.054125 164.802305 
L 333.502575 150.331025 
L 342.951025 135.691801 
L 352.399475 121.689396 
L 361.847925 107.722708 
L 371.296375 96.144468 
L 380.744825 84.628542 
L 390.193275 75.580858 
L 399.641725 66.683638 
L 409.090175 60.05176 
L 418.538625 53.527791 
L 427.987075 51.896989 
L 437.435525 50.371057 
L 446.883975 55.063603 
L 456.332425 59.867098 
L 465.780875 66.237562 
L 475.229325 72.903637 
L 484.677775 81.114642 
L 494.126225 89.122747 
L 503.574675 98.671223 
L 513.023125 108.334448 
L 522.471575 117.530319 
L 531.920025 126.661595 
L 541.368475 134.628664 
L 550.816925 142.715802 
L 560.265375 150.733786 
L 569.713825 158.716054 
L 579.162275 161.520182 
L 588.610725 164.32963 
L 598.059175 165.746133 
L 607.507625 167.43469 
L 616.956075 174.491367 
L 626.404525 181.611118 
L 635.852975 195.282196 
L 645.301425 208.98595 
L 654.749875 222.361415 
L 664.198325 235.777157 
L 673.646775 239.940035 
L 683.095225 243.766264 
L 692.543675 245.456341 
L 701.992125 247.100822 
L 711.440575 247.236849 
L 720.889025 247.43367 
L 730.337475 242.064029 
L 739.785925 236.800778 
L 749.234375 252.124696 
L 758.682825 267.494209 
L 768.131275 269.552849 
L 777.579725 271.30068 
L 787.028175 271.809831 
L 796.476625 272.33646 
L 805.925075 272.673867 
L 815.373525 272.921603 
L 824.821975 273.088787 
L 834.270425 273.273449 
L 843.718875 273.36616 
L 853.167325 273.439873 
L 862.615775 273.518146 
L 872.064225 273.57818 
L 881.512675 273.658732 
L 890.961125 273.765882 
L 900.409575 273.809957 
L 909.858025 273.828196 
L 919.306475 273.879111 
L 928.754925 273.923186 
L 938.203375 273.930786 
L 947.651825 273.930786 
L 957.100275 273.954343 
L 966.548725 273.983221 
L 975.997175 273.98854 
L 985.445625 273.98854 
" clip-path="url(#p023132e6a0)" style="fill: none; stroke: #f0ad4e; stroke-linecap: square"/>
   </g>
   <g id="line2d_12">
    <path d="M 40.600625 273.854776 
L 50.049075 273.864439 
L 59.497525 273.864439 
L 68.945975 273.855912 
L 78.394425 273.854207 
L 87.842875 273.827491 
L 97.291325 273.788839 
L 106.739775 273.725175 
L 116.188225 273.660944 
L 125.636675 273.593301 
L 135.085125 273.520543 
L 144.533575 273.327848 
L 153.982025 273.132879 
L 163.430475 272.653131 
L 172.878925 272.13132 
L 182.327375 271.255949 
L 191.775825 270.382853 
L 201.224275 268.607671 
L 210.672725 266.793267 
L 220.121175 263.539619 
L 229.569625 260.200139 
L 239.018075 254.937686 
L 248.466525 249.696266 
L 257.914975 242.161262 
L 267.363425 234.533605 
L 276.811875 226.236915 
L 286.260325 215.966095 
L 295.708775 203.974093 
L 305.157225 191.640469 
L 314.605675 177.573726 
L 324.054125 163.168204 
L 333.502575 148.039648 
L 342.951025 132.699071 
L 352.399475 118.112222 
L 361.847925 103.93009 
L 371.296375 92.220593 
L 380.744825 81.018698 
L 390.193275 71.155437 
L 399.641725 61.680976 
L 409.090175 55.272585 
L 418.538625 49.460469 
L 427.987075 47.569896 
L 437.435525 47.261243 
L 446.883975 51.827947 
L 456.332425 57.148378 
L 465.780875 64.214434 
L 475.229325 71.77388 
L 484.677775 81.36373 
L 494.126225 91.163328 
L 503.574675 100.738968 
L 513.023125 110.225365 
L 522.471575 120.547911 
L 531.920025 130.746541 
L 541.368475 139.833338 
L 550.816925 148.94685 
L 560.265375 155.978232 
L 569.713825 162.40595 
L 579.162275 165.651072 
L 588.610725 168.772846 
L 598.059175 171.615525 
L 607.507625 173.936962 
L 616.956075 178.445118 
L 626.404525 185.33951 
L 635.852975 199.5296 
L 645.301425 213.546322 
L 654.749875 226.232368 
L 664.198325 238.367612 
L 673.646775 242.335767 
L 683.095225 244.026823 
L 692.543675 243.949518 
L 701.992125 245.05453 
L 711.440575 246.708639 
L 720.889025 245.5843 
L 730.337475 237.749169 
L 739.785925 234.699584 
L 749.234375 251.594227 
L 758.682825 265.966781 
L 768.131275 268.778766 
L 777.579725 271.309381 
L 787.028175 271.848814 
L 796.476625 272.351867 
L 805.925075 272.64631 
L 815.373525 272.871405 
L 824.821975 273.072058 
L 834.270425 273.267027 
L 843.718875 273.347175 
L 853.167325 273.429596 
L 862.615775 273.513154 
L 872.064225 273.581933 
L 881.512675 273.664923 
L 890.961125 273.782017 
L 900.409575 273.846249 
L 909.858025 273.863302 
L 919.306475 273.908207 
L 928.754925 273.946291 
L 938.203375 273.950839 
L 947.651825 273.953113 
L 957.100275 273.963344 
L 966.548725 273.979828 
L 975.997175 273.986649 
L 985.445625 273.986649 
" clip-path="url(#p023132e6a0)" style="fill: none; stroke: #f0ad4e; stroke-linecap: square"/>
   </g>
   <g id="line2d_13">
    <path d="M 40.600625 273.871279 
L 50.049075 273.879928 
L 59.497525 273.881082 
L 68.945975 273.863784 
L 78.394425 273.849368 
L 87.842875 273.828611 
L 97.291325 273.804393 
L 106.739775 273.765761 
L 116.188225 273.727705 
L 125.636675 273.635448 
L 135.085125 273.5282 
L 144.533575 273.339073 
L 153.982025 273.151677 
L 163.430475 272.693276 
L 172.878925 272.192783 
L 182.327375 271.277711 
L 191.775825 270.371289 
L 201.224275 268.639168 
L 210.672725 266.822863 
L 220.121175 263.563316 
L 229.569625 260.291085 
L 239.018075 255.004196 
L 248.466525 249.702315 
L 257.914975 241.944098 
L 267.363425 234.139753 
L 276.811875 225.781867 
L 286.260325 215.35916 
L 295.708775 202.894119 
L 305.157225 190.056014 
L 314.605675 175.22747 
L 324.054125 160.207493 
L 333.502575 144.739494 
L 342.951025 128.881134 
L 352.399475 114.030103 
L 361.847925 99.659959 
L 371.296375 86.721525 
L 380.744825 74.150389 
L 390.193275 64.525702 
L 399.641725 55.850684 
L 409.090175 49.760008 
L 418.538625 44.038359 
L 427.987075 43.160767 
L 437.435525 43.72065 
L 446.883975 47.777065 
L 456.332425 52.59748 
L 465.780875 60.82563 
L 475.229325 69.554272 
L 484.677775 79.215285 
L 494.126225 88.903974 
L 503.574675 99.472563 
L 513.023125 110.085549 
L 522.471575 120.105787 
L 531.920025 130.372234 
L 541.368475 139.885059 
L 550.816925 149.325809 
L 560.265375 157.660053 
L 569.713825 164.976014 
L 579.162275 167.954755 
L 588.610725 171.029788 
L 598.059175 175.155971 
L 607.507625 178.920623 
L 616.956075 184.588648 
L 626.404525 192.392993 
L 635.852975 204.894361 
L 645.301425 216.924065 
L 654.749875 228.720822 
L 664.198325 240.305388 
L 673.646775 245.03297 
L 683.095225 247.769536 
L 692.543675 248.704212 
L 701.992125 250.406349 
L 711.440575 251.380235 
L 720.889025 249.941606 
L 730.337475 242.967572 
L 739.785925 239.985372 
L 749.234375 254.664575 
L 758.682825 267.364872 
L 768.131275 269.816595 
L 777.579725 271.947149 
L 787.028175 272.361728 
L 796.476625 272.759585 
L 805.925075 273.009832 
L 815.373525 273.211644 
L 824.821975 273.324082 
L 834.270425 273.425564 
L 843.718875 273.49245 
L 853.167325 273.561643 
L 862.615775 273.629682 
L 872.064225 273.670044 
L 881.512675 273.728858 
L 890.961125 273.823421 
L 900.409575 273.872433 
L 909.858025 273.886848 
L 919.306475 273.923174 
L 928.754925 273.954311 
L 938.203375 273.956617 
L 947.651825 273.956617 
L 957.100275 273.965266 
L 966.548725 273.977951 
L 975.997175 273.981988 
L 985.445625 273.981988 
" clip-path="url(#p023132e6a0)" style="fill: none; stroke: #f0ad4e; stroke-linecap: square"/>
   </g>
   <g id="line2d_14">
    <path d="M 40.600625 273.866147 
L 50.049075 273.878336 
L 59.497525 273.876304 
L 68.945975 273.861069 
L 78.394425 273.854975 
L 87.842875 273.82806 
L 97.291325 273.790987 
L 106.739775 273.742235 
L 116.188225 273.696022 
L 125.636675 273.611213 
L 135.085125 273.519294 
L 144.533575 273.322253 
L 153.982025 273.124196 
L 163.430475 272.633116 
L 172.878925 272.100393 
L 182.327375 271.180698 
L 191.775825 270.235611 
L 201.224275 268.37032 
L 210.672725 266.46034 
L 220.121175 263.139585 
L 229.569625 259.829495 
L 239.018075 254.248351 
L 248.466525 248.647909 
L 257.914975 240.749499 
L 267.363425 232.693151 
L 276.811875 223.393106 
L 286.260325 212.563453 
L 295.708775 199.981757 
L 305.157225 187.279703 
L 314.605675 172.770253 
L 324.054125 157.913949 
L 333.502575 141.770782 
L 342.951025 125.547377 
L 352.399475 111.033864 
L 361.847925 96.92459 
L 371.296375 84.406374 
L 380.744825 72.253801 
L 390.193275 63.507301 
L 399.641725 55.036049 
L 409.090175 49.016641 
L 418.538625 43.586833 
L 427.987075 43.03075 
L 437.435525 43.57109 
L 446.883975 48.283322 
L 456.332425 53.459719 
L 465.780875 62.126996 
L 475.229325 71.480364 
L 484.677775 81.765107 
L 494.126225 91.970119 
L 503.574675 101.867381 
L 513.023125 111.635652 
L 522.471575 122.16822 
L 531.920025 132.508318 
L 541.368475 142.253229 
L 550.816925 152.103262 
L 560.265375 159.745214 
L 569.713825 166.917923 
L 579.162275 170.361067 
L 588.610725 173.906795 
L 598.059175 177.652611 
L 607.507625 181.052081 
L 616.956075 187.708319 
L 626.404525 195.824084 
L 635.852975 207.606442 
L 645.301425 219.17754 
L 654.749875 230.366743 
L 664.198325 241.17913 
L 673.646775 244.512581 
L 683.095225 246.380918 
L 692.543675 246.977121 
L 701.992125 248.554975 
L 711.440575 250.31565 
L 720.889025 250.189198 
L 730.337475 243.810748 
L 739.785925 240.158883 
L 749.234375 254.11936 
L 758.682825 266.76352 
L 768.131275 269.290016 
L 777.579725 271.545834 
L 787.028175 272.007459 
L 796.476625 272.436075 
L 805.925075 272.696088 
L 815.373525 272.896176 
L 824.821975 273.084076 
L 834.270425 273.257757 
L 843.718875 273.347137 
L 853.167325 273.439055 
L 862.615775 273.521833 
L 872.064225 273.594962 
L 881.512675 273.675708 
L 890.961125 273.772705 
L 900.409575 273.820442 
L 909.858025 273.840756 
L 919.306475 273.891539 
L 928.754925 273.941308 
L 938.203375 273.954003 
L 947.651825 273.957051 
L 957.100275 273.96416 
L 966.548725 273.974317 
L 975.997175 273.977872 
L 985.445625 273.977872 
" clip-path="url(#p023132e6a0)" style="fill: none; stroke: #f0ad4e; stroke-linecap: square"/>
   </g>
   <g id="line2d_15">
    <path d="M 40.600625 273.99006 
L 985.445625 273.99006 
" clip-path="url(#p023132e6a0)" style="fill: none; stroke: #dedede; stroke-width: 2; stroke-linecap: square"/>
   </g>
   <g id="text_17">
    <!-- FastQC: Per Sequence GC Content -->
    <g transform="translate(376.386875 19.3575) scale(0.16 -0.16)">
     <defs>
      <path id="DejaVuSans-46" d="M 628 4666 
L 3309 4666 
L 3309 4134 
L 1259 4134 
L 1259 2759 
L 3109 2759 
L 3109 2228 
L 1259 2228 
L 1259 0 
L 628 0 
L 628 4666 
z
" transform="scale(0.015625)"/>
      <path id="DejaVuSans-73" d="M 2834 3397 
L 2834 2853 
Q 2591 2978 2328 3040 
Q 2066 3103 1784 3103 
Q 1356 3103 1142 2972 
Q 928 2841 928 2578 
Q 928 2378 1081 2264 
Q 1234 2150 1697 2047 
L 1894 2003 
Q 2506 1872 2764 1633 
Q 3022 1394 3022 966 
Q 3022 478 2636 193 
Q 2250 -91 1575 -91 
Q 1294 -91 989 -36 
Q 684 19 347 128 
L 347 722 
Q 666 556 975 473 
Q 1284 391 1588 391 
Q 1994 391 2212 530 
Q 2431 669 2431 922 
Q 2431 1156 2273 1281 
Q 2116 1406 1581 1522 
L 1381 1569 
Q 847 1681 609 1914 
Q 372 2147 372 2553 
Q 372 3047 722 3315 
Q 1072 3584 1716 3584 
Q 2034 3584 2315 3537 
Q 2597 3491 2834 3397 
z
" transform="scale(0.015625)"/>
      <path id="DejaVuSans-51" d="M 2522 4238 
Q 1834 4238 1429 3725 
Q 1025 3213 1025 2328 
Q 1025 1447 1429 934 
Q 1834 422 2522 422 
Q 3209 422 3611 934 
Q 4013 1447 4013 2328 
Q 4013 3213 3611 3725 
Q 3209 4238 2522 4238 
z
M 3406 84 
L 4238 -825 
L 3475 -825 
L 2784 -78 
Q 2681 -84 2626 -87 
Q 2572 -91 2522 -91 
Q 1538 -91 948 567 
Q 359 1225 359 2328 
Q 359 3434 948 4092 
Q 1538 4750 2522 4750 
Q 3503 4750 4090 4092 
Q 4678 3434 4678 2328 
Q 4678 1516 4351 937 
Q 4025 359 3406 84 
z
" transform="scale(0.015625)"/>
      <path id="DejaVuSans-3a" d="M 750 794 
L 1409 794 
L 1409 0 
L 750 0 
L 750 794 
z
M 750 3309 
L 1409 3309 
L 1409 2516 
L 750 2516 
L 750 3309 
z
" transform="scale(0.015625)"/>
      <path id="DejaVuSans-53" d="M 3425 4513 
L 3425 3897 
Q 3066 4069 2747 4153 
Q 2428 4238 2131 4238 
Q 1616 4238 1336 4038 
Q 1056 3838 1056 3469 
Q 1056 3159 1242 3001 
Q 1428 2844 1947 2747 
L 2328 2669 
Q 3034 2534 3370 2195 
Q 3706 1856 3706 1288 
Q 3706 609 3251 259 
Q 2797 -91 1919 -91 
Q 1588 -91 1214 -16 
Q 841 59 441 206 
L 441 856 
Q 825 641 1194 531 
Q 1563 422 1919 422 
Q 2459 422 2753 634 
Q 3047 847 3047 1241 
Q 3047 1584 2836 1778 
Q 2625 1972 2144 2069 
L 1759 2144 
Q 1053 2284 737 2584 
Q 422 2884 422 3419 
Q 422 4038 858 4394 
Q 1294 4750 2059 4750 
Q 2388 4750 2728 4690 
Q 3069 4631 3425 4513 
z
" transform="scale(0.015625)"/>
      <path id="DejaVuSans-71" d="M 947 1747 
Q 947 1113 1208 752 
Q 1469 391 1925 391 
Q 2381 391 2643 752 
Q 2906 1113 2906 1747 
Q 2906 2381 2643 2742 
Q 2381 3103 1925 3103 
Q 1469 3103 1208 2742 
Q 947 2381 947 1747 
z
M 2906 525 
Q 2725 213 2448 61 
Q 2172 -91 1784 -91 
Q 1150 -91 751 415 
Q 353 922 353 1747 
Q 353 2572 751 3078 
Q 1150 3584 1784 3584 
Q 2172 3584 2448 3432 
Q 2725 3281 2906 2969 
L 2906 3500 
L 3481 3500 
L 3481 -1331 
L 2906 -1331 
L 2906 525 
z
" transform="scale(0.015625)"/>
      <path id="DejaVuSans-75" d="M 544 1381 
L 544 3500 
L 1119 3500 
L 1119 1403 
Q 1119 906 1312 657 
Q 1506 409 1894 409 
Q 2359 409 2629 706 
Q 2900 1003 2900 1516 
L 2900 3500 
L 3475 3500 
L 3475 0 
L 2900 0 
L 2900 538 
Q 2691 219 2414 64 
Q 2138 -91 1772 -91 
Q 1169 -91 856 284 
Q 544 659 544 1381 
z
M 1991 3584 
L 1991 3584 
z
" transform="scale(0.015625)"/>
      <path id="DejaVuSans-6f" d="M 1959 3097 
Q 1497 3097 1228 2736 
Q 959 2375 959 1747 
Q 959 1119 1226 758 
Q 1494 397 1959 397 
Q 2419 397 2687 759 
Q 2956 1122 2956 1747 
Q 2956 2369 2687 2733 
Q 2419 3097 1959 3097 
z
M 1959 3584 
Q 2709 3584 3137 3096 
Q 3566 2609 3566 1747 
Q 3566 888 3137 398 
Q 2709 -91 1959 -91 
Q 1206 -91 779 398 
Q 353 888 353 1747 
Q 353 2609 779 3096 
Q 1206 3584 1959 3584 
z
" transform="scale(0.015625)"/>
     </defs>
     <use xlink:href="#DejaVuSans-46"/>
     <use xlink:href="#DejaVuSans-61" x="48.394531"/>
     <use xlink:href="#DejaVuSans-73" x="109.673828"/>
     <use xlink:href="#DejaVuSans-74" x="161.773438"/>
     <use xlink:href="#DejaVuSans-51" x="200.982422"/>
     <use xlink:href="#DejaVuSans-43" x="279.693359"/>
     <use xlink:href="#DejaVuSans-3a" x="349.517578"/>
     <use xlink:href="#DejaVuSans-20" x="383.208984"/>
     <use xlink:href="#DejaVuSans-50" x="414.996094"/>
     <use xlink:href="#DejaVuSans-65" x="471.673828"/>
     <use xlink:href="#DejaVuSans-72" x="533.197266"/>
     <use xlink:href="#DejaVuSans-20" x="574.310547"/>
     <use xlink:href="#DejaVuSans-53" x="606.097656"/>
     <use xlink:href="#DejaVuSans-65" x="669.574219"/>
     <use xlink:href="#DejaVuSans-71" x="731.097656"/>
     <use xlink:href="#DejaVuSans-75" x="794.574219"/>
     <use xlink:href="#DejaVuSans-65" x="857.953125"/>
     <use xlink:href="#DejaVuSans-6e" x="919.476562"/>
     <use xlink:href="#DejaVuSans-63" x="982.855469"/>
     <use xlink:href="#DejaVuSans-65" x="1037.835938"/>
     <use xlink:href="#DejaVuSans-20" x="1099.359375"/>
     <use xlink:href="#DejaVuSans-47" x="1131.146484"/>
     <use xlink:href="#DejaVuSans-43" x="1208.636719"/>
     <use xlink:href="#DejaVuSans-20" x="1278.460938"/>
     <use xlink:href="#DejaVuSans-43" x="1310.248047"/>
     <use xlink:href="#DejaVuSans-6f" x="1380.072266"/>
     <use xlink:href="#DejaVuSans-6e" x="1441.253906"/>
     <use xlink:href="#DejaVuSans-74" x="1504.632812"/>
     <use xlink:href="#DejaVuSans-65" x="1543.841797"/>
     <use xlink:href="#DejaVuSans-6e" x="1605.365234"/>
     <use xlink:href="#DejaVuSans-74" x="1668.744141"/>
    </g>
   </g>
   <g id="legend_1">
    <g id="line2d_16">
     <path d="M 47.800625 303.490394 
L 55.800625 303.490394 
L 63.800625 303.490394 
" style="fill: none; stroke: #f0ad4e; stroke-linecap: square"/>
    </g>
    <g id="text_18">
     <!-- SRR5961980_T1 -->
     <g transform="translate(70.200625 306.290394) scale(0.08 -0.08)">
      <defs>
       <path id="DejaVuSans-52" d="M 2841 2188 
Q 3044 2119 3236 1894 
Q 3428 1669 3622 1275 
L 4263 0 
L 3584 0 
L 2988 1197 
Q 2756 1666 2539 1819 
Q 2322 1972 1947 1972 
L 1259 1972 
L 1259 0 
L 628 0 
L 628 4666 
L 2053 4666 
Q 2853 4666 3247 4331 
Q 3641 3997 3641 3322 
Q 3641 2881 3436 2590 
Q 3231 2300 2841 2188 
z
M 1259 4147 
L 1259 2491 
L 2053 2491 
Q 2509 2491 2742 2702 
Q 2975 2913 2975 3322 
Q 2975 3731 2742 3939 
Q 2509 4147 2053 4147 
L 1259 4147 
z
" transform="scale(0.015625)"/>
       <path id="DejaVuSans-39" d="M 703 97 
L 703 672 
Q 941 559 1184 500 
Q 1428 441 1663 441 
Q 2288 441 2617 861 
Q 2947 1281 2994 2138 
Q 2813 1869 2534 1725 
Q 2256 1581 1919 1581 
Q 1219 1581 811 2004 
Q 403 2428 403 3163 
Q 403 3881 828 4315 
Q 1253 4750 1959 4750 
Q 2769 4750 3195 4129 
Q 3622 3509 3622 2328 
Q 3622 1225 3098 567 
Q 2575 -91 1691 -91 
Q 1453 -91 1209 -44 
Q 966 3 703 97 
z
M 1959 2075 
Q 2384 2075 2632 2365 
Q 2881 2656 2881 3163 
Q 2881 3666 2632 3958 
Q 2384 4250 1959 4250 
Q 1534 4250 1286 3958 
Q 1038 3666 1038 3163 
Q 1038 2656 1286 2365 
Q 1534 2075 1959 2075 
z
" transform="scale(0.015625)"/>
       <path id="DejaVuSans-5f" d="M 3263 -1063 
L 3263 -1509 
L -63 -1509 
L -63 -1063 
L 3263 -1063 
z
" transform="scale(0.015625)"/>
       <path id="DejaVuSans-54" d="M -19 4666 
L 3928 4666 
L 3928 4134 
L 2272 4134 
L 2272 0 
L 1638 0 
L 1638 4134 
L -19 4134 
L -19 4666 
z
" transform="scale(0.015625)"/>
      </defs>
      <use xlink:href="#DejaVuSans-53"/>
      <use xlink:href="#DejaVuSans-52" x="63.476562"/>
      <use xlink:href="#DejaVuSans-52" x="132.958984"/>
      <use xlink:href="#DejaVuSans-35" x="202.441406"/>
      <use xlink:href="#DejaVuSans-39" x="266.064453"/>
      <use xlink:href="#DejaVuSans-36" x="329.6875"/>
      <use xlink:href="#DejaVuSans-31" x="393.310547"/>
      <use xlink:href="#DejaVuSans-39" x="456.933594"/>
      <use xlink:href="#DejaVuSans-38" x="520.556641"/>
      <use xlink:href="#DejaVuSans-30" x="584.179688"/>
      <use xlink:href="#DejaVuSans-5f" x="647.802734"/>
      <use xlink:href="#DejaVuSans-54" x="697.802734"/>
      <use xlink:href="#DejaVuSans-31" x="758.886719"/>
     </g>
    </g>
    <g id="line2d_17">
     <path d="M 47.800625 315.455394 
L 55.800625 315.455394 
L 63.800625 315.455394 
" style="fill: none; stroke: #f0ad4e; stroke-linecap: square"/>
    </g>
    <g id="text_19">
     <!-- SRR5961981_T1 -->
     <g transform="translate(70.200625 318.255394) scale(0.08 -0.08)">
      <use xlink:href="#DejaVuSans-53"/>
      <use xlink:href="#DejaVuSans-52" x="63.476562"/>
      <use xlink:href="#DejaVuSans-52" x="132.958984"/>
      <use xlink:href="#DejaVuSans-35" x="202.441406"/>
      <use xlink:href="#DejaVuSans-39" x="266.064453"/>
      <use xlink:href="#DejaVuSans-36" x="329.6875"/>
      <use xlink:href="#DejaVuSans-31" x="393.310547"/>
      <use xlink:href="#DejaVuSans-39" x="456.933594"/>
      <use xlink:href="#DejaVuSans-38" x="520.556641"/>
      <use xlink:href="#DejaVuSans-31" x="584.179688"/>
      <use xlink:href="#DejaVuSans-5f" x="647.802734"/>
      <use xlink:href="#DejaVuSans-54" x="697.802734"/>
      <use xlink:href="#DejaVuSans-31" x="758.886719"/>
     </g>
    </g>
    <g id="line2d_18">
     <path d="M 258.36125 303.490394 
L 266.36125 303.490394 
L 274.36125 303.490394 
" style="fill: none; stroke: #f0ad4e; stroke-linecap: square"/>
    </g>
    <g id="text_20">
     <!-- SRR5961982_T1 -->
     <g transform="translate(280.76125 306.290394) scale(0.08 -0.08)">
      <use xlink:href="#DejaVuSans-53"/>
      <use xlink:href="#DejaVuSans-52" x="63.476562"/>
      <use xlink:href="#DejaVuSans-52" x="132.958984"/>
      <use xlink:href="#DejaVuSans-35" x="202.441406"/>
      <use xlink:href="#DejaVuSans-39" x="266.064453"/>
      <use xlink:href="#DejaVuSans-36" x="329.6875"/>
      <use xlink:href="#DejaVuSans-31" x="393.310547"/>
      <use xlink:href="#DejaVuSans-39" x="456.933594"/>
      <use xlink:href="#DejaVuSans-38" x="520.556641"/>
      <use xlink:href="#DejaVuSans-32" x="584.179688"/>
      <use xlink:href="#DejaVuSans-5f" x="647.802734"/>
      <use xlink:href="#DejaVuSans-54" x="697.802734"/>
      <use xlink:href="#DejaVuSans-31" x="758.886719"/>
     </g>
    </g>
    <g id="line2d_19">
     <path d="M 468.921875 303.490394 
L 476.921875 303.490394 
L 484.921875 303.490394 
" style="fill: none; stroke: #f0ad4e; stroke-linecap: square"/>
    </g>
    <g id="text_21">
     <!-- SRR5962008_T1 -->
     <g transform="translate(491.321875 306.290394) scale(0.08 -0.08)">
      <use xlink:href="#DejaVuSans-53"/>
      <use xlink:href="#DejaVuSans-52" x="63.476562"/>
      <use xlink:href="#DejaVuSans-52" x="132.958984"/>
      <use xlink:href="#DejaVuSans-35" x="202.441406"/>
      <use xlink:href="#DejaVuSans-39" x="266.064453"/>
      <use xlink:href="#DejaVuSans-36" x="329.6875"/>
      <use xlink:href="#DejaVuSans-32" x="393.310547"/>
      <use xlink:href="#DejaVuSans-30" x="456.933594"/>
      <use xlink:href="#DejaVuSans-30" x="520.556641"/>
      <use xlink:href="#DejaVuSans-38" x="584.179688"/>
      <use xlink:href="#DejaVuSans-5f" x="647.802734"/>
      <use xlink:href="#DejaVuSans-54" x="697.802734"/>
      <use xlink:href="#DejaVuSans-31" x="758.886719"/>
     </g>
    </g>
    <g id="line2d_20">
     <path d="M 679.4825 303.490394 
L 687.4825 303.490394 
L 695.4825 303.490394 
" style="fill: none; stroke: #f0ad4e; stroke-linecap: square"/>
    </g>
    <g id="text_22">
     <!-- SRR5962009_T1 -->
     <g transform="translate(701.8825 306.290394) scale(0.08 -0.08)">
      <use xlink:href="#DejaVuSans-53"/>
      <use xlink:href="#DejaVuSans-52" x="63.476562"/>
      <use xlink:href="#DejaVuSans-52" x="132.958984"/>
      <use xlink:href="#DejaVuSans-35" x="202.441406"/>
      <use xlink:href="#DejaVuSans-39" x="266.064453"/>
      <use xlink:href="#DejaVuSans-36" x="329.6875"/>
      <use xlink:href="#DejaVuSans-32" x="393.310547"/>
      <use xlink:href="#DejaVuSans-30" x="456.933594"/>
      <use xlink:href="#DejaVuSans-30" x="520.556641"/>
      <use xlink:href="#DejaVuSans-39" x="584.179688"/>
      <use xlink:href="#DejaVuSans-5f" x="647.802734"/>
      <use xlink:href="#DejaVuSans-54" x="697.802734"/>
      <use xlink:href="#DejaVuSans-31" x="758.886719"/>
     </g>
    </g>
    <g id="line2d_21">
     <path d="M 890.043125 303.490394 
L 898.043125 303.490394 
L 906.043125 303.490394 
" style="fill: none; stroke: #f0ad4e; stroke-linecap: square"/>
    </g>
    <g id="text_23">
     <!-- SRR5962010_T1 -->
     <g transform="translate(912.443125 306.290394) scale(0.08 -0.08)">
      <use xlink:href="#DejaVuSans-53"/>
      <use xlink:href="#DejaVuSans-52" x="63.476562"/>
      <use xlink:href="#DejaVuSans-52" x="132.958984"/>
      <use xlink:href="#DejaVuSans-35" x="202.441406"/>
      <use xlink:href="#DejaVuSans-39" x="266.064453"/>
      <use xlink:href="#DejaVuSans-36" x="329.6875"/>
      <use xlink:href="#DejaVuSans-32" x="393.310547"/>
      <use xlink:href="#DejaVuSans-30" x="456.933594"/>
      <use xlink:href="#DejaVuSans-31" x="520.556641"/>
      <use xlink:href="#DejaVuSans-30" x="584.179688"/>
      <use xlink:href="#DejaVuSans-5f" x="647.802734"/>
      <use xlink:href="#DejaVuSans-54" x="697.802734"/>
      <use xlink:href="#DejaVuSans-31" x="758.886719"/>
     </g>
    </g>
   </g>
  </g>
 </g>
 <defs>
  <clipPath id="p023132e6a0">
   <rect x="40.600625" y="31.48286" width="944.845" height="242.5072"/>
  </clipPath>
 </defs>
</svg>
