<?xml version="1.0" encoding="utf-8" standalone="no"?>
<!DOCTYPE svg PUBLIC "-//W3C//DTD SVG 1.1//EN"
  "http://www.w3.org/Graphics/SVG/1.1/DTD/svg11.dtd">
<svg xmlns:xlink="http://www.w3.org/1999/xlink" width="1000.318125pt" height="330.541644pt" viewBox="0 0 1000.318125 330.541644" xmlns="http://www.w3.org/2000/svg" version="1.1">
 <metadata>
  <rdf:RDF xmlns:dc="http://purl.org/dc/elements/1.1/" xmlns:cc="http://creativecommons.org/ns#" xmlns:rdf="http://www.w3.org/1999/02/22-rdf-syntax-ns#">
   <cc:Work>
    <dc:type rdf:resource="http://purl.org/dc/dcmitype/StillImage"/>
    <dc:date>2025-08-20T15:20:47.819676</dc:date>
    <dc:format>image/svg+xml</dc:format>
    <dc:creator>
     <cc:Agent>
      <dc:title>Matplotlib v3.6.2, https://matplotlib.org/</dc:title>
     </cc:Agent>
    </dc:creator>
   </cc:Work>
  </rdf:RDF>
 </metadata>
 <defs>
  <style type="text/css">*{stroke-linejoin: round; stroke-linecap: butt}</style>
 </defs>
 <g id="figure_1">
  <g id="axes_1">
   <g id="patch_1">
    <path d="M 38.058125 273.99006 
L 993.118125 273.99006 
L 993.118125 31.48286 
L 38.058125 31.48286 
z
" style="fill: #ffffff"/>
   </g>
   <g id="matplotlib.axis_1">
    <g id="xtick_1">
     <g id="text_1">
      <!-- 0 -->
      <g transform="translate(61.205834 287.06881) scale(0.08 -0.08)">
       <defs>
        <path id="DejaVuSans-30" d="M 2034 4250 
Q 1547 4250 1301 3770 
Q 1056 3291 1056 2328 
Q 1056 1369 1301 889 
Q 1547 409 2034 409 
Q 2525 409 2770 889 
Q 3016 1369 3016 2328 
Q 3016 3291 2770 3770 
Q 2525 4250 2034 4250 
z
M 2034 4750 
Q 2819 4750 3233 4129 
Q 3647 3509 3647 2328 
Q 3647 1150 3233 529 
Q 2819 -91 2034 -91 
Q 1250 -91 836 529 
Q 422 1150 422 2328 
Q 422 3509 836 4129 
Q 1250 4750 2034 4750 
z
" transform="scale(0.015625)"/>
       </defs>
       <use xlink:href="#DejaVuSans-30"/>
      </g>
     </g>
    </g>
    <g id="xtick_2">
     <g id="text_2">
      <!-- 10 -->
      <g transform="translate(235.851928 287.06881) scale(0.08 -0.08)">
       <defs>
        <path id="DejaVuSans-31" d="M 794 531 
L 1825 531 
L 1825 4091 
L 703 3866 
L 703 4441 
L 1819 4666 
L 2450 4666 
L 2450 531 
L 3481 531 
L 3481 0 
L 794 0 
L 794 531 
z
" transform="scale(0.015625)"/>
       </defs>
       <use xlink:href="#DejaVuSans-31"/>
       <use xlink:href="#DejaVuSans-30" x="63.623047"/>
      </g>
     </g>
    </g>
    <g id="xtick_3">
     <g id="text_3">
      <!-- 20 -->
      <g transform="translate(413.043023 287.06881) scale(0.08 -0.08)">
       <defs>
        <path id="DejaVuSans-32" d="M 1228 531 
L 3431 531 
L 3431 0 
L 469 0 
L 469 531 
Q 828 903 1448 1529 
Q 2069 2156 2228 2338 
Q 2531 2678 2651 2914 
Q 2772 3150 2772 3378 
Q 2772 3750 2511 3984 
Q 2250 4219 1831 4219 
Q 1534 4219 1204 4116 
Q 875 4013 500 3803 
L 500 4441 
Q 881 4594 1212 4672 
Q 1544 4750 1819 4750 
Q 2544 4750 2975 4387 
Q 3406 4025 3406 3419 
Q 3406 3131 3298 2873 
Q 3191 2616 2906 2266 
Q 2828 2175 2409 1742 
Q 1991 1309 1228 531 
z
" transform="scale(0.015625)"/>
       </defs>
       <use xlink:href="#DejaVuSans-32"/>
       <use xlink:href="#DejaVuSans-30" x="63.623047"/>
      </g>
     </g>
    </g>
    <g id="xtick_4">
     <g id="text_4">
      <!-- 30 -->
      <g transform="translate(590.234118 287.06881) scale(0.08 -0.08)">
       <defs>
        <path id="DejaVuSans-33" d="M 2597 2516 
Q 3050 2419 3304 2112 
Q 3559 1806 3559 1356 
Q 3559 666 3084 287 
Q 2609 -91 1734 -91 
Q 1441 -91 1130 -33 
Q 819 25 488 141 
L 488 750 
Q 750 597 1062 519 
Q 1375 441 1716 441 
Q 2309 441 2620 675 
Q 2931 909 2931 1356 
Q 2931 1769 2642 2001 
Q 2353 2234 1838 2234 
L 1294 2234 
L 1294 2753 
L 1863 2753 
Q 2328 2753 2575 2939 
Q 2822 3125 2822 3475 
Q 2822 3834 2567 4026 
Q 2313 4219 1838 4219 
Q 1578 4219 1281 4162 
Q 984 4106 628 3988 
L 628 4550 
Q 988 4650 1302 4700 
Q 1616 4750 1894 4750 
Q 2613 4750 3031 4423 
Q 3450 4097 3450 3541 
Q 3450 3153 3228 2886 
Q 3006 2619 2597 2516 
z
" transform="scale(0.015625)"/>
       </defs>
       <use xlink:href="#DejaVuSans-33"/>
       <use xlink:href="#DejaVuSans-30" x="63.623047"/>
      </g>
     </g>
    </g>
    <g id="xtick_5">
     <g id="text_5">
      <!-- 40 -->
      <g transform="translate(767.425212 287.06881) scale(0.08 -0.08)">
       <defs>
        <path id="DejaVuSans-34" d="M 2419 4116 
L 825 1625 
L 2419 1625 
L 2419 4116 
z
M 2253 4666 
L 3047 4666 
L 3047 1625 
L 3713 1625 
L 3713 1100 
L 3047 1100 
L 3047 0 
L 2419 0 
L 2419 1100 
L 313 1100 
L 313 1709 
L 2253 4666 
z
" transform="scale(0.015625)"/>
       </defs>
       <use xlink:href="#DejaVuSans-34"/>
       <use xlink:href="#DejaVuSans-30" x="63.623047"/>
      </g>
     </g>
    </g>
    <g id="xtick_6">
     <g id="text_6">
      <!-- 50 -->
      <g transform="translate(944.616307 287.06881) scale(0.08 -0.08)">
       <defs>
        <path id="DejaVuSans-35" d="M 691 4666 
L 3169 4666 
L 3169 4134 
L 1269 4134 
L 1269 2991 
Q 1406 3038 1543 3061 
Q 1681 3084 1819 3084 
Q 2600 3084 3056 2656 
Q 3513 2228 3513 1497 
Q 3513 744 3044 326 
Q 2575 -91 1722 -91 
Q 1428 -91 1123 -41 
Q 819 9 494 109 
L 494 744 
Q 775 591 1075 516 
Q 1375 441 1709 441 
Q 2250 441 2565 725 
Q 2881 1009 2881 1497 
Q 2881 1984 2565 2268 
Q 2250 2553 1709 2553 
Q 1456 2553 1204 2497 
Q 953 2441 691 2322 
L 691 4666 
z
" transform="scale(0.015625)"/>
       </defs>
       <use xlink:href="#DejaVuSans-35"/>
       <use xlink:href="#DejaVuSans-30" x="63.623047"/>
      </g>
     </g>
    </g>
    <g id="text_7">
     <!-- Read Position -->
     <g transform="translate(481.970937 300.330997) scale(0.1 -0.1)">
      <defs>
       <path id="DejaVuSans-52" d="M 2841 2188 
Q 3044 2119 3236 1894 
Q 3428 1669 3622 1275 
L 4263 0 
L 3584 0 
L 2988 1197 
Q 2756 1666 2539 1819 
Q 2322 1972 1947 1972 
L 1259 1972 
L 1259 0 
L 628 0 
L 628 4666 
L 2053 4666 
Q 2853 4666 3247 4331 
Q 3641 3997 3641 3322 
Q 3641 2881 3436 2590 
Q 3231 2300 2841 2188 
z
M 1259 4147 
L 1259 2491 
L 2053 2491 
Q 2509 2491 2742 2702 
Q 2975 2913 2975 3322 
Q 2975 3731 2742 3939 
Q 2509 4147 2053 4147 
L 1259 4147 
z
" transform="scale(0.015625)"/>
       <path id="DejaVuSans-65" d="M 3597 1894 
L 3597 1613 
L 953 1613 
Q 991 1019 1311 708 
Q 1631 397 2203 397 
Q 2534 397 2845 478 
Q 3156 559 3463 722 
L 3463 178 
Q 3153 47 2828 -22 
Q 2503 -91 2169 -91 
Q 1331 -91 842 396 
Q 353 884 353 1716 
Q 353 2575 817 3079 
Q 1281 3584 2069 3584 
Q 2775 3584 3186 3129 
Q 3597 2675 3597 1894 
z
M 3022 2063 
Q 3016 2534 2758 2815 
Q 2500 3097 2075 3097 
Q 1594 3097 1305 2825 
Q 1016 2553 972 2059 
L 3022 2063 
z
" transform="scale(0.015625)"/>
       <path id="DejaVuSans-61" d="M 2194 1759 
Q 1497 1759 1228 1600 
Q 959 1441 959 1056 
Q 959 750 1161 570 
Q 1363 391 1709 391 
Q 2188 391 2477 730 
Q 2766 1069 2766 1631 
L 2766 1759 
L 2194 1759 
z
M 3341 1997 
L 3341 0 
L 2766 0 
L 2766 531 
Q 2569 213 2275 61 
Q 1981 -91 1556 -91 
Q 1019 -91 701 211 
Q 384 513 384 1019 
Q 384 1609 779 1909 
Q 1175 2209 1959 2209 
L 2766 2209 
L 2766 2266 
Q 2766 2663 2505 2880 
Q 2244 3097 1772 3097 
Q 1472 3097 1187 3025 
Q 903 2953 641 2809 
L 641 3341 
Q 956 3463 1253 3523 
Q 1550 3584 1831 3584 
Q 2591 3584 2966 3190 
Q 3341 2797 3341 1997 
z
" transform="scale(0.015625)"/>
       <path id="DejaVuSans-64" d="M 2906 2969 
L 2906 4863 
L 3481 4863 
L 3481 0 
L 2906 0 
L 2906 525 
Q 2725 213 2448 61 
Q 2172 -91 1784 -91 
Q 1150 -91 751 415 
Q 353 922 353 1747 
Q 353 2572 751 3078 
Q 1150 3584 1784 3584 
Q 2172 3584 2448 3432 
Q 2725 3281 2906 2969 
z
M 947 1747 
Q 947 1113 1208 752 
Q 1469 391 1925 391 
Q 2381 391 2643 752 
Q 2906 1113 2906 1747 
Q 2906 2381 2643 2742 
Q 2381 3103 1925 3103 
Q 1469 3103 1208 2742 
Q 947 2381 947 1747 
z
" transform="scale(0.015625)"/>
       <path id="DejaVuSans-20" transform="scale(0.015625)"/>
       <path id="DejaVuSans-50" d="M 1259 4147 
L 1259 2394 
L 2053 2394 
Q 2494 2394 2734 2622 
Q 2975 2850 2975 3272 
Q 2975 3691 2734 3919 
Q 2494 4147 2053 4147 
L 1259 4147 
z
M 628 4666 
L 2053 4666 
Q 2838 4666 3239 4311 
Q 3641 3956 3641 3272 
Q 3641 2581 3239 2228 
Q 2838 1875 2053 1875 
L 1259 1875 
L 1259 0 
L 628 0 
L 628 4666 
z
" transform="scale(0.015625)"/>
       <path id="DejaVuSans-6f" d="M 1959 3097 
Q 1497 3097 1228 2736 
Q 959 2375 959 1747 
Q 959 1119 1226 758 
Q 1494 397 1959 397 
Q 2419 397 2687 759 
Q 2956 1122 2956 1747 
Q 2956 2369 2687 2733 
Q 2419 3097 1959 3097 
z
M 1959 3584 
Q 2709 3584 3137 3096 
Q 3566 2609 3566 1747 
Q 3566 888 3137 398 
Q 2709 -91 1959 -91 
Q 1206 -91 779 398 
Q 353 888 353 1747 
Q 353 2609 779 3096 
Q 1206 3584 1959 3584 
z
" transform="scale(0.015625)"/>
       <path id="DejaVuSans-73" d="M 2834 3397 
L 2834 2853 
Q 2591 2978 2328 3040 
Q 2066 3103 1784 3103 
Q 1356 3103 1142 2972 
Q 928 2841 928 2578 
Q 928 2378 1081 2264 
Q 1234 2150 1697 2047 
L 1894 2003 
Q 2506 1872 2764 1633 
Q 3022 1394 3022 966 
Q 3022 478 2636 193 
Q 2250 -91 1575 -91 
Q 1294 -91 989 -36 
Q 684 19 347 128 
L 347 722 
Q 666 556 975 473 
Q 1284 391 1588 391 
Q 1994 391 2212 530 
Q 2431 669 2431 922 
Q 2431 1156 2273 1281 
Q 2116 1406 1581 1522 
L 1381 1569 
Q 847 1681 609 1914 
Q 372 2147 372 2553 
Q 372 3047 722 3315 
Q 1072 3584 1716 3584 
Q 2034 3584 2315 3537 
Q 2597 3491 2834 3397 
z
" transform="scale(0.015625)"/>
       <path id="DejaVuSans-69" d="M 603 3500 
L 1178 3500 
L 1178 0 
L 603 0 
L 603 3500 
z
M 603 4863 
L 1178 4863 
L 1178 4134 
L 603 4134 
L 603 4863 
z
" transform="scale(0.015625)"/>
       <path id="DejaVuSans-74" d="M 1172 4494 
L 1172 3500 
L 2356 3500 
L 2356 3053 
L 1172 3053 
L 1172 1153 
Q 1172 725 1289 603 
Q 1406 481 1766 481 
L 2356 481 
L 2356 0 
L 1766 0 
Q 1100 0 847 248 
Q 594 497 594 1153 
L 594 3053 
L 172 3053 
L 172 3500 
L 594 3500 
L 594 4494 
L 1172 4494 
z
" transform="scale(0.015625)"/>
       <path id="DejaVuSans-6e" d="M 3513 2113 
L 3513 0 
L 2938 0 
L 2938 2094 
Q 2938 2591 2744 2837 
Q 2550 3084 2163 3084 
Q 1697 3084 1428 2787 
Q 1159 2491 1159 1978 
L 1159 0 
L 581 0 
L 581 3500 
L 1159 3500 
L 1159 2956 
Q 1366 3272 1645 3428 
Q 1925 3584 2291 3584 
Q 2894 3584 3203 3211 
Q 3513 2838 3513 2113 
z
" transform="scale(0.015625)"/>
      </defs>
      <use xlink:href="#DejaVuSans-52"/>
      <use xlink:href="#DejaVuSans-65" x="64.982422"/>
      <use xlink:href="#DejaVuSans-61" x="126.505859"/>
      <use xlink:href="#DejaVuSans-64" x="187.785156"/>
      <use xlink:href="#DejaVuSans-20" x="251.261719"/>
      <use xlink:href="#DejaVuSans-50" x="283.048828"/>
      <use xlink:href="#DejaVuSans-6f" x="339.726562"/>
      <use xlink:href="#DejaVuSans-73" x="400.908203"/>
      <use xlink:href="#DejaVuSans-69" x="453.007812"/>
      <use xlink:href="#DejaVuSans-74" x="480.791016"/>
      <use xlink:href="#DejaVuSans-69" x="520"/>
      <use xlink:href="#DejaVuSans-6f" x="547.783203"/>
      <use xlink:href="#DejaVuSans-6e" x="608.964844"/>
     </g>
    </g>
   </g>
   <g id="matplotlib.axis_2">
    <g id="ytick_1">
     <g id="line2d_1">
      <path d="M 38.058125 273.99006 
L 993.118125 273.99006 
" clip-path="url(#p3e66a0990f)" style="fill: none; stroke: #dedede; stroke-linecap: square"/>
     </g>
     <g id="text_8">
      <!-- 0 -->
      <g transform="translate(25.968125 277.029435) scale(0.08 -0.08)">
       <use xlink:href="#DejaVuSans-30"/>
      </g>
     </g>
    </g>
    <g id="ytick_2">
     <g id="line2d_2">
      <path d="M 38.058125 242.808744 
L 993.118125 242.808744 
" clip-path="url(#p3e66a0990f)" style="fill: none; stroke: #dedede; stroke-linecap: square"/>
     </g>
     <g id="text_9">
      <!-- 5 -->
      <g transform="translate(25.968125 245.848119) scale(0.08 -0.08)">
       <use xlink:href="#DejaVuSans-35"/>
      </g>
     </g>
    </g>
    <g id="ytick_3">
     <g id="line2d_3">
      <path d="M 38.058125 211.627427 
L 993.118125 211.627427 
" clip-path="url(#p3e66a0990f)" style="fill: none; stroke: #dedede; stroke-linecap: square"/>
     </g>
     <g id="text_10">
      <!-- 10 -->
      <g transform="translate(20.878125 214.666802) scale(0.08 -0.08)">
       <use xlink:href="#DejaVuSans-31"/>
       <use xlink:href="#DejaVuSans-30" x="63.623047"/>
      </g>
     </g>
    </g>
    <g id="ytick_4">
     <g id="line2d_4">
      <path d="M 38.058125 180.446111 
L 993.118125 180.446111 
" clip-path="url(#p3e66a0990f)" style="fill: none; stroke: #dedede; stroke-linecap: square"/>
     </g>
     <g id="text_11">
      <!-- 15 -->
      <g transform="translate(20.878125 183.485486) scale(0.08 -0.08)">
       <use xlink:href="#DejaVuSans-31"/>
       <use xlink:href="#DejaVuSans-35" x="63.623047"/>
      </g>
     </g>
    </g>
    <g id="ytick_5">
     <g id="line2d_5">
      <path d="M 38.058125 149.264795 
L 993.118125 149.264795 
" clip-path="url(#p3e66a0990f)" style="fill: none; stroke: #dedede; stroke-linecap: square"/>
     </g>
     <g id="text_12">
      <!-- 20 -->
      <g transform="translate(20.878125 152.30417) scale(0.08 -0.08)">
       <use xlink:href="#DejaVuSans-32"/>
       <use xlink:href="#DejaVuSans-30" x="63.623047"/>
      </g>
     </g>
    </g>
    <g id="ytick_6">
     <g id="line2d_6">
      <path d="M 38.058125 118.083478 
L 993.118125 118.083478 
" clip-path="url(#p3e66a0990f)" style="fill: none; stroke: #dedede; stroke-linecap: square"/>
     </g>
     <g id="text_13">
      <!-- 25 -->
      <g transform="translate(20.878125 121.122853) scale(0.08 -0.08)">
       <use xlink:href="#DejaVuSans-32"/>
       <use xlink:href="#DejaVuSans-35" x="63.623047"/>
      </g>
     </g>
    </g>
    <g id="ytick_7">
     <g id="line2d_7">
      <path d="M 38.058125 86.902162 
L 993.118125 86.902162 
" clip-path="url(#p3e66a0990f)" style="fill: none; stroke: #dedede; stroke-linecap: square"/>
     </g>
     <g id="text_14">
      <!-- 30 -->
      <g transform="translate(20.878125 89.941537) scale(0.08 -0.08)">
       <use xlink:href="#DejaVuSans-33"/>
       <use xlink:href="#DejaVuSans-30" x="63.623047"/>
      </g>
     </g>
    </g>
    <g id="ytick_8">
     <g id="line2d_8">
      <path d="M 38.058125 55.720846 
L 993.118125 55.720846 
" clip-path="url(#p3e66a0990f)" style="fill: none; stroke: #dedede; stroke-linecap: square"/>
     </g>
     <g id="text_15">
      <!-- 35 -->
      <g transform="translate(20.878125 58.760221) scale(0.08 -0.08)">
       <use xlink:href="#DejaVuSans-33"/>
       <use xlink:href="#DejaVuSans-35" x="63.623047"/>
      </g>
     </g>
    </g>
    <g id="text_16">
     <!-- R2 Before filtering: Sequence Quality -->
     <g transform="translate(14.798437 245.672397) rotate(-90) scale(0.1 -0.1)">
      <defs>
       <path id="DejaVuSans-42" d="M 1259 2228 
L 1259 519 
L 2272 519 
Q 2781 519 3026 730 
Q 3272 941 3272 1375 
Q 3272 1813 3026 2020 
Q 2781 2228 2272 2228 
L 1259 2228 
z
M 1259 4147 
L 1259 2741 
L 2194 2741 
Q 2656 2741 2882 2914 
Q 3109 3088 3109 3444 
Q 3109 3797 2882 3972 
Q 2656 4147 2194 4147 
L 1259 4147 
z
M 628 4666 
L 2241 4666 
Q 2963 4666 3353 4366 
Q 3744 4066 3744 3513 
Q 3744 3084 3544 2831 
Q 3344 2578 2956 2516 
Q 3422 2416 3680 2098 
Q 3938 1781 3938 1306 
Q 3938 681 3513 340 
Q 3088 0 2303 0 
L 628 0 
L 628 4666 
z
" transform="scale(0.015625)"/>
       <path id="DejaVuSans-66" d="M 2375 4863 
L 2375 4384 
L 1825 4384 
Q 1516 4384 1395 4259 
Q 1275 4134 1275 3809 
L 1275 3500 
L 2222 3500 
L 2222 3053 
L 1275 3053 
L 1275 0 
L 697 0 
L 697 3053 
L 147 3053 
L 147 3500 
L 697 3500 
L 697 3744 
Q 697 4328 969 4595 
Q 1241 4863 1831 4863 
L 2375 4863 
z
" transform="scale(0.015625)"/>
       <path id="DejaVuSans-72" d="M 2631 2963 
Q 2534 3019 2420 3045 
Q 2306 3072 2169 3072 
Q 1681 3072 1420 2755 
Q 1159 2438 1159 1844 
L 1159 0 
L 581 0 
L 581 3500 
L 1159 3500 
L 1159 2956 
Q 1341 3275 1631 3429 
Q 1922 3584 2338 3584 
Q 2397 3584 2469 3576 
Q 2541 3569 2628 3553 
L 2631 2963 
z
" transform="scale(0.015625)"/>
       <path id="DejaVuSans-6c" d="M 603 4863 
L 1178 4863 
L 1178 0 
L 603 0 
L 603 4863 
z
" transform="scale(0.015625)"/>
       <path id="DejaVuSans-67" d="M 2906 1791 
Q 2906 2416 2648 2759 
Q 2391 3103 1925 3103 
Q 1463 3103 1205 2759 
Q 947 2416 947 1791 
Q 947 1169 1205 825 
Q 1463 481 1925 481 
Q 2391 481 2648 825 
Q 2906 1169 2906 1791 
z
M 3481 434 
Q 3481 -459 3084 -895 
Q 2688 -1331 1869 -1331 
Q 1566 -1331 1297 -1286 
Q 1028 -1241 775 -1147 
L 775 -588 
Q 1028 -725 1275 -790 
Q 1522 -856 1778 -856 
Q 2344 -856 2625 -561 
Q 2906 -266 2906 331 
L 2906 616 
Q 2728 306 2450 153 
Q 2172 0 1784 0 
Q 1141 0 747 490 
Q 353 981 353 1791 
Q 353 2603 747 3093 
Q 1141 3584 1784 3584 
Q 2172 3584 2450 3431 
Q 2728 3278 2906 2969 
L 2906 3500 
L 3481 3500 
L 3481 434 
z
" transform="scale(0.015625)"/>
       <path id="DejaVuSans-3a" d="M 750 794 
L 1409 794 
L 1409 0 
L 750 0 
L 750 794 
z
M 750 3309 
L 1409 3309 
L 1409 2516 
L 750 2516 
L 750 3309 
z
" transform="scale(0.015625)"/>
       <path id="DejaVuSans-53" d="M 3425 4513 
L 3425 3897 
Q 3066 4069 2747 4153 
Q 2428 4238 2131 4238 
Q 1616 4238 1336 4038 
Q 1056 3838 1056 3469 
Q 1056 3159 1242 3001 
Q 1428 2844 1947 2747 
L 2328 2669 
Q 3034 2534 3370 2195 
Q 3706 1856 3706 1288 
Q 3706 609 3251 259 
Q 2797 -91 1919 -91 
Q 1588 -91 1214 -16 
Q 841 59 441 206 
L 441 856 
Q 825 641 1194 531 
Q 1563 422 1919 422 
Q 2459 422 2753 634 
Q 3047 847 3047 1241 
Q 3047 1584 2836 1778 
Q 2625 1972 2144 2069 
L 1759 2144 
Q 1053 2284 737 2584 
Q 422 2884 422 3419 
Q 422 4038 858 4394 
Q 1294 4750 2059 4750 
Q 2388 4750 2728 4690 
Q 3069 4631 3425 4513 
z
" transform="scale(0.015625)"/>
       <path id="DejaVuSans-71" d="M 947 1747 
Q 947 1113 1208 752 
Q 1469 391 1925 391 
Q 2381 391 2643 752 
Q 2906 1113 2906 1747 
Q 2906 2381 2643 2742 
Q 2381 3103 1925 3103 
Q 1469 3103 1208 2742 
Q 947 2381 947 1747 
z
M 2906 525 
Q 2725 213 2448 61 
Q 2172 -91 1784 -91 
Q 1150 -91 751 415 
Q 353 922 353 1747 
Q 353 2572 751 3078 
Q 1150 3584 1784 3584 
Q 2172 3584 2448 3432 
Q 2725 3281 2906 2969 
L 2906 3500 
L 3481 3500 
L 3481 -1331 
L 2906 -1331 
L 2906 525 
z
" transform="scale(0.015625)"/>
       <path id="DejaVuSans-75" d="M 544 1381 
L 544 3500 
L 1119 3500 
L 1119 1403 
Q 1119 906 1312 657 
Q 1506 409 1894 409 
Q 2359 409 2629 706 
Q 2900 1003 2900 1516 
L 2900 3500 
L 3475 3500 
L 3475 0 
L 2900 0 
L 2900 538 
Q 2691 219 2414 64 
Q 2138 -91 1772 -91 
Q 1169 -91 856 284 
Q 544 659 544 1381 
z
M 1991 3584 
L 1991 3584 
z
" transform="scale(0.015625)"/>
       <path id="DejaVuSans-63" d="M 3122 3366 
L 3122 2828 
Q 2878 2963 2633 3030 
Q 2388 3097 2138 3097 
Q 1578 3097 1268 2742 
Q 959 2388 959 1747 
Q 959 1106 1268 751 
Q 1578 397 2138 397 
Q 2388 397 2633 464 
Q 2878 531 3122 666 
L 3122 134 
Q 2881 22 2623 -34 
Q 2366 -91 2075 -91 
Q 1284 -91 818 406 
Q 353 903 353 1747 
Q 353 2603 823 3093 
Q 1294 3584 2113 3584 
Q 2378 3584 2631 3529 
Q 2884 3475 3122 3366 
z
" transform="scale(0.015625)"/>
       <path id="DejaVuSans-51" d="M 2522 4238 
Q 1834 4238 1429 3725 
Q 1025 3213 1025 2328 
Q 1025 1447 1429 934 
Q 1834 422 2522 422 
Q 3209 422 3611 934 
Q 4013 1447 4013 2328 
Q 4013 3213 3611 3725 
Q 3209 4238 2522 4238 
z
M 3406 84 
L 4238 -825 
L 3475 -825 
L 2784 -78 
Q 2681 -84 2626 -87 
Q 2572 -91 2522 -91 
Q 1538 -91 948 567 
Q 359 1225 359 2328 
Q 359 3434 948 4092 
Q 1538 4750 2522 4750 
Q 3503 4750 4090 4092 
Q 4678 3434 4678 2328 
Q 4678 1516 4351 937 
Q 4025 359 3406 84 
z
" transform="scale(0.015625)"/>
       <path id="DejaVuSans-79" d="M 2059 -325 
Q 1816 -950 1584 -1140 
Q 1353 -1331 966 -1331 
L 506 -1331 
L 506 -850 
L 844 -850 
Q 1081 -850 1212 -737 
Q 1344 -625 1503 -206 
L 1606 56 
L 191 3500 
L 800 3500 
L 1894 763 
L 2988 3500 
L 3597 3500 
L 2059 -325 
z
" transform="scale(0.015625)"/>
      </defs>
      <use xlink:href="#DejaVuSans-52"/>
      <use xlink:href="#DejaVuSans-32" x="69.482422"/>
      <use xlink:href="#DejaVuSans-20" x="133.105469"/>
      <use xlink:href="#DejaVuSans-42" x="164.892578"/>
      <use xlink:href="#DejaVuSans-65" x="233.496094"/>
      <use xlink:href="#DejaVuSans-66" x="295.019531"/>
      <use xlink:href="#DejaVuSans-6f" x="330.224609"/>
      <use xlink:href="#DejaVuSans-72" x="391.40625"/>
      <use xlink:href="#DejaVuSans-65" x="430.269531"/>
      <use xlink:href="#DejaVuSans-20" x="491.792969"/>
      <use xlink:href="#DejaVuSans-66" x="523.580078"/>
      <use xlink:href="#DejaVuSans-69" x="558.785156"/>
      <use xlink:href="#DejaVuSans-6c" x="586.568359"/>
      <use xlink:href="#DejaVuSans-74" x="614.351562"/>
      <use xlink:href="#DejaVuSans-65" x="653.560547"/>
      <use xlink:href="#DejaVuSans-72" x="715.083984"/>
      <use xlink:href="#DejaVuSans-69" x="756.197266"/>
      <use xlink:href="#DejaVuSans-6e" x="783.980469"/>
      <use xlink:href="#DejaVuSans-67" x="847.359375"/>
      <use xlink:href="#DejaVuSans-3a" x="910.835938"/>
      <use xlink:href="#DejaVuSans-20" x="944.527344"/>
      <use xlink:href="#DejaVuSans-53" x="976.314453"/>
      <use xlink:href="#DejaVuSans-65" x="1039.791016"/>
      <use xlink:href="#DejaVuSans-71" x="1101.314453"/>
      <use xlink:href="#DejaVuSans-75" x="1164.791016"/>
      <use xlink:href="#DejaVuSans-65" x="1228.169922"/>
      <use xlink:href="#DejaVuSans-6e" x="1289.693359"/>
      <use xlink:href="#DejaVuSans-63" x="1353.072266"/>
      <use xlink:href="#DejaVuSans-65" x="1408.052734"/>
      <use xlink:href="#DejaVuSans-20" x="1469.576172"/>
      <use xlink:href="#DejaVuSans-51" x="1501.363281"/>
      <use xlink:href="#DejaVuSans-75" x="1580.074219"/>
      <use xlink:href="#DejaVuSans-61" x="1643.453125"/>
      <use xlink:href="#DejaVuSans-6c" x="1704.732422"/>
      <use xlink:href="#DejaVuSans-69" x="1732.515625"/>
      <use xlink:href="#DejaVuSans-74" x="1760.298828"/>
      <use xlink:href="#DejaVuSans-79" x="1799.507812"/>
     </g>
    </g>
   </g>
   <g id="line2d_9">
    <path d="M 81.469943 83.622511 
L 99.189053 82.846096 
L 116.908162 82.673352 
L 134.627272 59.258678 
L 152.346381 58.147999 
L 170.06549 57.839928 
L 187.7846 57.624777 
L 205.503709 57.551189 
L 223.222819 47.611209 
L 240.941928 47.782706 
L 258.661038 48.199912 
L 276.380147 48.644558 
L 294.099257 49.30872 
L 311.818366 41.694866 
L 329.537476 41.857009 
L 347.256585 42.173811 
L 364.975695 42.526783 
L 382.694804 42.935882 
L 400.413913 44.373341 
L 418.133023 44.423855 
L 435.852132 44.757495 
L 453.571242 45.6973 
L 471.290351 46.465607 
L 489.009461 47.535126 
L 506.72857 53.953489 
L 524.44768 55.924148 
L 542.166789 57.671549 
L 559.885899 58.809667 
L 577.605008 59.601672 
L 595.324118 60.067521 
L 613.043227 61.254906 
L 630.762337 62.121746 
L 648.481446 62.594455 
L 666.200555 63.302271 
L 683.919665 63.249886 
L 701.638774 63.459425 
L 719.357884 63.355903 
L 737.076993 62.663677 
L 754.796103 62.73976 
L 772.515212 62.975491 
L 790.234322 63.543614 
L 807.953431 63.965809 
L 825.672541 64.453485 
L 843.39165 65.453158 
L 861.11076 66.333095 
L 878.829869 67.436913 
L 896.548978 68.702875 
L 914.268088 70.390408 
L 931.987197 72.256921 
L 949.706307 81.091212 
" clip-path="url(#p3e66a0990f)" style="fill: none; stroke: #7cb5ec; stroke-linecap: square"/>
   </g>
   <g id="line2d_10">
    <path d="M 81.469943 82.190041 
L 99.189053 81.525256 
L 116.908162 80.803096 
L 134.627272 57.633507 
L 152.346381 56.235961 
L 170.06549 55.829357 
L 187.7846 55.548101 
L 205.503709 55.417763 
L 223.222819 45.132294 
L 240.941928 45.324995 
L 258.661038 45.685451 
L 276.380147 46.164396 
L 294.099257 46.60717 
L 311.818366 38.626624 
L 329.537476 38.803111 
L 347.256585 39.058797 
L 364.975695 39.393685 
L 382.694804 39.842696 
L 400.413913 41.383053 
L 418.133023 41.570764 
L 435.852132 41.843289 
L 453.571242 42.455066 
L 471.290351 43.199053 
L 489.009461 44.065269 
L 506.72857 48.952629 
L 524.44768 50.779854 
L 542.166789 52.022741 
L 559.885899 52.984373 
L 577.605008 53.624214 
L 595.324118 54.013357 
L 613.043227 54.994321 
L 630.762337 55.645387 
L 648.481446 56.317032 
L 666.200555 57.097812 
L 683.919665 57.520008 
L 701.638774 57.621035 
L 719.357884 57.324812 
L 737.076993 56.728626 
L 754.796103 56.751076 
L 772.515212 56.771032 
L 790.234322 57.123381 
L 807.953431 57.422722 
L 825.672541 57.844917 
L 843.39165 58.696167 
L 861.11076 59.555524 
L 878.829869 60.572035 
L 896.548978 61.655897 
L 914.268088 63.042219 
L 931.987197 64.665518 
L 949.706307 72.269394 
" clip-path="url(#p3e66a0990f)" style="fill: none; stroke: #434348; stroke-linecap: square"/>
   </g>
   <g id="line2d_11">
    <path d="M 81.469943 82.407687 
L 99.189053 81.782813 
L 116.908162 81.094954 
L 134.627272 57.941579 
L 152.346381 56.569601 
L 170.06549 56.140546 
L 187.7846 55.877999 
L 205.503709 55.689664 
L 223.222819 45.465934 
L 240.941928 45.663 
L 258.661038 46.022833 
L 276.380147 46.499907 
L 294.099257 46.983841 
L 311.818366 39.048196 
L 329.537476 39.225929 
L 347.256585 39.488476 
L 364.975695 39.835836 
L 382.694804 40.344091 
L 400.413913 41.839547 
L 418.133023 42.004184 
L 435.852132 42.295418 
L 453.571242 42.928399 
L 471.290351 43.694835 
L 489.009461 44.617802 
L 506.72857 49.589352 
L 524.44768 51.437156 
L 542.166789 52.724945 
L 559.885899 53.663502 
L 577.605008 54.29087 
L 595.324118 54.719302 
L 613.043227 55.720222 
L 630.762337 56.353203 
L 648.481446 57.057277 
L 666.200555 57.889194 
L 683.919665 58.300164 
L 701.638774 58.453576 
L 719.357884 58.09312 
L 737.076993 57.549318 
L 754.796103 57.53934 
L 772.515212 57.599832 
L 790.234322 57.954675 
L 807.953431 58.252145 
L 825.672541 58.729843 
L 843.39165 59.602296 
L 861.11076 60.407397 
L 878.829869 61.415178 
L 896.548978 62.560779 
L 914.268088 64.025677 
L 931.987197 65.612183 
L 949.706307 73.199844 
" clip-path="url(#p3e66a0990f)" style="fill: none; stroke: #90ed7d; stroke-linecap: square"/>
   </g>
   <g id="line2d_12">
    <path d="M 81.469943 88.309063 
L 99.189053 87.626816 
L 116.908162 86.115145 
L 134.627272 64.028795 
L 152.346381 63.256122 
L 170.06549 63.594128 
L 187.7846 63.317238 
L 205.503709 63.376482 
L 223.222819 53.620472 
L 240.941928 54.035807 
L 258.661038 54.068236 
L 276.380147 54.456755 
L 294.099257 55.997112 
L 311.818366 48.236706 
L 329.537476 48.174967 
L 347.256585 48.070198 
L 364.975695 48.534799 
L 382.694804 48.74995 
L 400.413913 48.841624 
L 418.133023 49.062387 
L 435.852132 49.373577 
L 453.571242 50.214849 
L 471.290351 50.292802 
L 489.009461 50.662612 
L 506.72857 54.817835 
L 524.44768 56.401845 
L 542.166789 57.168282 
L 559.885899 58.153612 
L 577.605008 58.799065 
L 595.324118 59.608532 
L 613.043227 60.376216 
L 630.762337 60.826474 
L 648.481446 61.108353 
L 666.200555 61.781246 
L 683.919665 62.356853 
L 701.638774 62.953664 
L 719.357884 63.643394 
L 737.076993 63.952089 
L 754.796103 63.927768 
L 772.515212 64.470947 
L 790.234322 64.994793 
L 807.953431 65.403892 
L 825.672541 65.894062 
L 843.39165 66.30815 
L 861.11076 67.02532 
L 878.829869 68.112924 
L 896.548978 69.43127 
L 914.268088 71.510441 
L 931.987197 75.516616 
L 949.706307 177.468919 
" clip-path="url(#p3e66a0990f)" style="fill: none; stroke: #f7a35c; stroke-linecap: square"/>
   </g>
   <g id="line2d_13">
    <path d="M 81.469943 88.498022 
L 99.189053 87.816398 
L 116.908162 86.332791 
L 134.627272 64.307556 
L 152.346381 63.569183 
L 170.06549 63.934628 
L 187.7846 63.632169 
L 205.503709 63.583526 
L 223.222819 53.855579 
L 240.941928 54.259065 
L 258.661038 54.32517 
L 276.380147 54.738634 
L 294.099257 56.24781 
L 311.818366 48.532305 
L 329.537476 48.464953 
L 347.256585 48.415063 
L 364.975695 48.828527 
L 382.694804 49.085461 
L 400.413913 49.162167 
L 418.133023 49.296871 
L 435.852132 49.670423 
L 453.571242 50.544123 
L 471.290351 50.59339 
L 489.009461 50.941997 
L 506.72857 55.185774 
L 524.44768 56.7517 
L 542.166789 57.568027 
L 559.885899 58.557722 
L 577.605008 59.153908 
L 595.324118 59.987073 
L 613.043227 60.659966 
L 630.762337 61.115837 
L 648.481446 61.460079 
L 666.200555 62.138584 
L 683.919665 62.716062 
L 701.638774 63.328463 
L 719.357884 64.023806 
L 737.076993 64.353081 
L 754.796103 64.328136 
L 772.515212 64.847617 
L 790.234322 65.342153 
L 807.953431 65.774326 
L 825.672541 66.223337 
L 843.39165 66.611856 
L 861.11076 67.325284 
L 878.829869 68.379836 
L 896.548978 69.670119 
L 914.268088 71.676949 
L 931.987197 75.559023 
L 949.706307 176.366971 
" clip-path="url(#p3e66a0990f)" style="fill: none; stroke: #8085e9; stroke-linecap: square"/>
   </g>
   <g id="line2d_14">
    <path d="M 81.469943 90.194909 
L 99.189053 90.100741 
L 116.908162 88.622123 
L 134.627272 66.678584 
L 152.346381 65.998831 
L 170.06549 66.442229 
L 187.7846 67.190581 
L 205.503709 67.278512 
L 223.222819 57.307351 
L 240.941928 57.45515 
L 258.661038 57.304233 
L 276.380147 57.161422 
L 294.099257 57.972137 
L 311.818366 51.017456 
L 329.537476 51.28998 
L 347.256585 51.31742 
L 364.975695 52.241011 
L 382.694804 52.153079 
L 400.413913 51.422189 
L 418.133023 51.563752 
L 435.852132 52.194239 
L 453.571242 52.305244 
L 471.290351 52.794791 
L 489.009461 53.307412 
L 506.72857 57.026719 
L 524.44768 58.424266 
L 542.166789 59.655928 
L 559.885899 60.583884 
L 577.605008 60.983004 
L 595.324118 61.576073 
L 613.043227 62.29262 
L 630.762337 63.238661 
L 648.481446 63.842331 
L 666.200555 63.581032 
L 683.919665 64.242076 
L 701.638774 64.663023 
L 719.357884 65.137603 
L 737.076993 66.22396 
L 754.796103 66.108589 
L 772.515212 66.572567 
L 790.234322 67.539812 
L 807.953431 67.966996 
L 825.672541 68.43721 
L 843.39165 68.907424 
L 861.11076 69.602768 
L 878.829869 70.591839 
L 896.548978 71.943237 
L 914.268088 74.594273 
L 931.987197 78.878586 
L 949.706307 181.50191 
" clip-path="url(#p3e66a0990f)" style="fill: none; stroke: #f15c80; stroke-linecap: square"/>
   </g>
   <g id="line2d_15">
    <path d="M 38.058125 273.99006 
L 993.118125 273.99006 
" clip-path="url(#p3e66a0990f)" style="fill: none; stroke: #dedede; stroke-width: 2; stroke-linecap: square"/>
   </g>
   <g id="text_17">
    <!-- Fastp: Sequence Quality -->
    <g transform="translate(418.601875 19.3575) scale(0.16 -0.16)">
     <defs>
      <path id="DejaVuSans-46" d="M 628 4666 
L 3309 4666 
L 3309 4134 
L 1259 4134 
L 1259 2759 
L 3109 2759 
L 3109 2228 
L 1259 2228 
L 1259 0 
L 628 0 
L 628 4666 
z
" transform="scale(0.015625)"/>
      <path id="DejaVuSans-70" d="M 1159 525 
L 1159 -1331 
L 581 -1331 
L 581 3500 
L 1159 3500 
L 1159 2969 
Q 1341 3281 1617 3432 
Q 1894 3584 2278 3584 
Q 2916 3584 3314 3078 
Q 3713 2572 3713 1747 
Q 3713 922 3314 415 
Q 2916 -91 2278 -91 
Q 1894 -91 1617 61 
Q 1341 213 1159 525 
z
M 3116 1747 
Q 3116 2381 2855 2742 
Q 2594 3103 2138 3103 
Q 1681 3103 1420 2742 
Q 1159 2381 1159 1747 
Q 1159 1113 1420 752 
Q 1681 391 2138 391 
Q 2594 391 2855 752 
Q 3116 1113 3116 1747 
z
" transform="scale(0.015625)"/>
     </defs>
     <use xlink:href="#DejaVuSans-46"/>
     <use xlink:href="#DejaVuSans-61" x="48.394531"/>
     <use xlink:href="#DejaVuSans-73" x="109.673828"/>
     <use xlink:href="#DejaVuSans-74" x="161.773438"/>
     <use xlink:href="#DejaVuSans-70" x="200.982422"/>
     <use xlink:href="#DejaVuSans-3a" x="264.458984"/>
     <use xlink:href="#DejaVuSans-20" x="298.150391"/>
     <use xlink:href="#DejaVuSans-53" x="329.9375"/>
     <use xlink:href="#DejaVuSans-65" x="393.414062"/>
     <use xlink:href="#DejaVuSans-71" x="454.9375"/>
     <use xlink:href="#DejaVuSans-75" x="518.414062"/>
     <use xlink:href="#DejaVuSans-65" x="581.792969"/>
     <use xlink:href="#DejaVuSans-6e" x="643.316406"/>
     <use xlink:href="#DejaVuSans-63" x="706.695312"/>
     <use xlink:href="#DejaVuSans-65" x="761.675781"/>
     <use xlink:href="#DejaVuSans-20" x="823.199219"/>
     <use xlink:href="#DejaVuSans-51" x="854.986328"/>
     <use xlink:href="#DejaVuSans-75" x="933.697266"/>
     <use xlink:href="#DejaVuSans-61" x="997.076172"/>
     <use xlink:href="#DejaVuSans-6c" x="1058.355469"/>
     <use xlink:href="#DejaVuSans-69" x="1086.138672"/>
     <use xlink:href="#DejaVuSans-74" x="1113.921875"/>
     <use xlink:href="#DejaVuSans-79" x="1153.130859"/>
    </g>
   </g>
   <g id="legend_1">
    <g id="line2d_16">
     <path d="M 45.258125 303.490394 
L 53.258125 303.490394 
L 61.258125 303.490394 
" style="fill: none; stroke: #7cb5ec; stroke-linecap: square"/>
    </g>
    <g id="text_18">
     <!-- SRR5961980_T1 -->
     <g transform="translate(67.658125 306.290394) scale(0.08 -0.08)">
      <defs>
       <path id="DejaVuSans-39" d="M 703 97 
L 703 672 
Q 941 559 1184 500 
Q 1428 441 1663 441 
Q 2288 441 2617 861 
Q 2947 1281 2994 2138 
Q 2813 1869 2534 1725 
Q 2256 1581 1919 1581 
Q 1219 1581 811 2004 
Q 403 2428 403 3163 
Q 403 3881 828 4315 
Q 1253 4750 1959 4750 
Q 2769 4750 3195 4129 
Q 3622 3509 3622 2328 
Q 3622 1225 3098 567 
Q 2575 -91 1691 -91 
Q 1453 -91 1209 -44 
Q 966 3 703 97 
z
M 1959 2075 
Q 2384 2075 2632 2365 
Q 2881 2656 2881 3163 
Q 2881 3666 2632 3958 
Q 2384 4250 1959 4250 
Q 1534 4250 1286 3958 
Q 1038 3666 1038 3163 
Q 1038 2656 1286 2365 
Q 1534 2075 1959 2075 
z
" transform="scale(0.015625)"/>
       <path id="DejaVuSans-36" d="M 2113 2584 
Q 1688 2584 1439 2293 
Q 1191 2003 1191 1497 
Q 1191 994 1439 701 
Q 1688 409 2113 409 
Q 2538 409 2786 701 
Q 3034 994 3034 1497 
Q 3034 2003 2786 2293 
Q 2538 2584 2113 2584 
z
M 3366 4563 
L 3366 3988 
Q 3128 4100 2886 4159 
Q 2644 4219 2406 4219 
Q 1781 4219 1451 3797 
Q 1122 3375 1075 2522 
Q 1259 2794 1537 2939 
Q 1816 3084 2150 3084 
Q 2853 3084 3261 2657 
Q 3669 2231 3669 1497 
Q 3669 778 3244 343 
Q 2819 -91 2113 -91 
Q 1303 -91 875 529 
Q 447 1150 447 2328 
Q 447 3434 972 4092 
Q 1497 4750 2381 4750 
Q 2619 4750 2861 4703 
Q 3103 4656 3366 4563 
z
" transform="scale(0.015625)"/>
       <path id="DejaVuSans-38" d="M 2034 2216 
Q 1584 2216 1326 1975 
Q 1069 1734 1069 1313 
Q 1069 891 1326 650 
Q 1584 409 2034 409 
Q 2484 409 2743 651 
Q 3003 894 3003 1313 
Q 3003 1734 2745 1975 
Q 2488 2216 2034 2216 
z
M 1403 2484 
Q 997 2584 770 2862 
Q 544 3141 544 3541 
Q 544 4100 942 4425 
Q 1341 4750 2034 4750 
Q 2731 4750 3128 4425 
Q 3525 4100 3525 3541 
Q 3525 3141 3298 2862 
Q 3072 2584 2669 2484 
Q 3125 2378 3379 2068 
Q 3634 1759 3634 1313 
Q 3634 634 3220 271 
Q 2806 -91 2034 -91 
Q 1263 -91 848 271 
Q 434 634 434 1313 
Q 434 1759 690 2068 
Q 947 2378 1403 2484 
z
M 1172 3481 
Q 1172 3119 1398 2916 
Q 1625 2713 2034 2713 
Q 2441 2713 2670 2916 
Q 2900 3119 2900 3481 
Q 2900 3844 2670 4047 
Q 2441 4250 2034 4250 
Q 1625 4250 1398 4047 
Q 1172 3844 1172 3481 
z
" transform="scale(0.015625)"/>
       <path id="DejaVuSans-5f" d="M 3263 -1063 
L 3263 -1509 
L -63 -1509 
L -63 -1063 
L 3263 -1063 
z
" transform="scale(0.015625)"/>
       <path id="DejaVuSans-54" d="M -19 4666 
L 3928 4666 
L 3928 4134 
L 2272 4134 
L 2272 0 
L 1638 0 
L 1638 4134 
L -19 4134 
L -19 4666 
z
" transform="scale(0.015625)"/>
      </defs>
      <use xlink:href="#DejaVuSans-53"/>
      <use xlink:href="#DejaVuSans-52" x="63.476562"/>
      <use xlink:href="#DejaVuSans-52" x="132.958984"/>
      <use xlink:href="#DejaVuSans-35" x="202.441406"/>
      <use xlink:href="#DejaVuSans-39" x="266.064453"/>
      <use xlink:href="#DejaVuSans-36" x="329.6875"/>
      <use xlink:href="#DejaVuSans-31" x="393.310547"/>
      <use xlink:href="#DejaVuSans-39" x="456.933594"/>
      <use xlink:href="#DejaVuSans-38" x="520.556641"/>
      <use xlink:href="#DejaVuSans-30" x="584.179688"/>
      <use xlink:href="#DejaVuSans-5f" x="647.802734"/>
      <use xlink:href="#DejaVuSans-54" x="697.802734"/>
      <use xlink:href="#DejaVuSans-31" x="758.886719"/>
     </g>
    </g>
    <g id="line2d_17">
     <path d="M 45.258125 315.455394 
L 53.258125 315.455394 
L 61.258125 315.455394 
" style="fill: none; stroke: #434348; stroke-linecap: square"/>
    </g>
    <g id="text_19">
     <!-- SRR5961981_T1 -->
     <g transform="translate(67.658125 318.255394) scale(0.08 -0.08)">
      <use xlink:href="#DejaVuSans-53"/>
      <use xlink:href="#DejaVuSans-52" x="63.476562"/>
      <use xlink:href="#DejaVuSans-52" x="132.958984"/>
      <use xlink:href="#DejaVuSans-35" x="202.441406"/>
      <use xlink:href="#DejaVuSans-39" x="266.064453"/>
      <use xlink:href="#DejaVuSans-36" x="329.6875"/>
      <use xlink:href="#DejaVuSans-31" x="393.310547"/>
      <use xlink:href="#DejaVuSans-39" x="456.933594"/>
      <use xlink:href="#DejaVuSans-38" x="520.556641"/>
      <use xlink:href="#DejaVuSans-31" x="584.179688"/>
      <use xlink:href="#DejaVuSans-5f" x="647.802734"/>
      <use xlink:href="#DejaVuSans-54" x="697.802734"/>
      <use xlink:href="#DejaVuSans-31" x="758.886719"/>
     </g>
    </g>
    <g id="line2d_18">
     <path d="M 258.3725 303.490394 
L 266.3725 303.490394 
L 274.3725 303.490394 
" style="fill: none; stroke: #90ed7d; stroke-linecap: square"/>
    </g>
    <g id="text_20">
     <!-- SRR5961982_T1 -->
     <g transform="translate(280.7725 306.290394) scale(0.08 -0.08)">
      <use xlink:href="#DejaVuSans-53"/>
      <use xlink:href="#DejaVuSans-52" x="63.476562"/>
      <use xlink:href="#DejaVuSans-52" x="132.958984"/>
      <use xlink:href="#DejaVuSans-35" x="202.441406"/>
      <use xlink:href="#DejaVuSans-39" x="266.064453"/>
      <use xlink:href="#DejaVuSans-36" x="329.6875"/>
      <use xlink:href="#DejaVuSans-31" x="393.310547"/>
      <use xlink:href="#DejaVuSans-39" x="456.933594"/>
      <use xlink:href="#DejaVuSans-38" x="520.556641"/>
      <use xlink:href="#DejaVuSans-32" x="584.179688"/>
      <use xlink:href="#DejaVuSans-5f" x="647.802734"/>
      <use xlink:href="#DejaVuSans-54" x="697.802734"/>
      <use xlink:href="#DejaVuSans-31" x="758.886719"/>
     </g>
    </g>
    <g id="line2d_19">
     <path d="M 471.486875 303.490394 
L 479.486875 303.490394 
L 487.486875 303.490394 
" style="fill: none; stroke: #f7a35c; stroke-linecap: square"/>
    </g>
    <g id="text_21">
     <!-- SRR5962008_T1 -->
     <g transform="translate(493.886875 306.290394) scale(0.08 -0.08)">
      <use xlink:href="#DejaVuSans-53"/>
      <use xlink:href="#DejaVuSans-52" x="63.476562"/>
      <use xlink:href="#DejaVuSans-52" x="132.958984"/>
      <use xlink:href="#DejaVuSans-35" x="202.441406"/>
      <use xlink:href="#DejaVuSans-39" x="266.064453"/>
      <use xlink:href="#DejaVuSans-36" x="329.6875"/>
      <use xlink:href="#DejaVuSans-32" x="393.310547"/>
      <use xlink:href="#DejaVuSans-30" x="456.933594"/>
      <use xlink:href="#DejaVuSans-30" x="520.556641"/>
      <use xlink:href="#DejaVuSans-38" x="584.179688"/>
      <use xlink:href="#DejaVuSans-5f" x="647.802734"/>
      <use xlink:href="#DejaVuSans-54" x="697.802734"/>
      <use xlink:href="#DejaVuSans-31" x="758.886719"/>
     </g>
    </g>
    <g id="line2d_20">
     <path d="M 684.60125 303.490394 
L 692.60125 303.490394 
L 700.60125 303.490394 
" style="fill: none; stroke: #8085e9; stroke-linecap: square"/>
    </g>
    <g id="text_22">
     <!-- SRR5962009_T1 -->
     <g transform="translate(707.00125 306.290394) scale(0.08 -0.08)">
      <use xlink:href="#DejaVuSans-53"/>
      <use xlink:href="#DejaVuSans-52" x="63.476562"/>
      <use xlink:href="#DejaVuSans-52" x="132.958984"/>
      <use xlink:href="#DejaVuSans-35" x="202.441406"/>
      <use xlink:href="#DejaVuSans-39" x="266.064453"/>
      <use xlink:href="#DejaVuSans-36" x="329.6875"/>
      <use xlink:href="#DejaVuSans-32" x="393.310547"/>
      <use xlink:href="#DejaVuSans-30" x="456.933594"/>
      <use xlink:href="#DejaVuSans-30" x="520.556641"/>
      <use xlink:href="#DejaVuSans-39" x="584.179688"/>
      <use xlink:href="#DejaVuSans-5f" x="647.802734"/>
      <use xlink:href="#DejaVuSans-54" x="697.802734"/>
      <use xlink:href="#DejaVuSans-31" x="758.886719"/>
     </g>
    </g>
    <g id="line2d_21">
     <path d="M 897.715625 303.490394 
L 905.715625 303.490394 
L 913.715625 303.490394 
" style="fill: none; stroke: #f15c80; stroke-linecap: square"/>
    </g>
    <g id="text_23">
     <!-- SRR5962010_T1 -->
     <g transform="translate(920.115625 306.290394) scale(0.08 -0.08)">
      <use xlink:href="#DejaVuSans-53"/>
      <use xlink:href="#DejaVuSans-52" x="63.476562"/>
      <use xlink:href="#DejaVuSans-52" x="132.958984"/>
      <use xlink:href="#DejaVuSans-35" x="202.441406"/>
      <use xlink:href="#DejaVuSans-39" x="266.064453"/>
      <use xlink:href="#DejaVuSans-36" x="329.6875"/>
      <use xlink:href="#DejaVuSans-32" x="393.310547"/>
      <use xlink:href="#DejaVuSans-30" x="456.933594"/>
      <use xlink:href="#DejaVuSans-31" x="520.556641"/>
      <use xlink:href="#DejaVuSans-30" x="584.179688"/>
      <use xlink:href="#DejaVuSans-5f" x="647.802734"/>
      <use xlink:href="#DejaVuSans-54" x="697.802734"/>
      <use xlink:href="#DejaVuSans-31" x="758.886719"/>
     </g>
    </g>
   </g>
  </g>
 </g>
 <defs>
  <clipPath id="p3e66a0990f">
   <rect x="38.058125" y="31.48286" width="955.06" height="242.5072"/>
  </clipPath>
 </defs>
</svg>
