<?xml version="1.0" encoding="utf-8" standalone="no"?>
<!DOCTYPE svg PUBLIC "-//W3C//DTD SVG 1.1//EN"
  "http://www.w3.org/Graphics/SVG/1.1/DTD/svg11.dtd">
<svg xmlns:xlink="http://www.w3.org/1999/xlink" width="1000.318125pt" height="330.541644pt" viewBox="0 0 1000.318125 330.541644" xmlns="http://www.w3.org/2000/svg" version="1.1">
 <metadata>
  <rdf:RDF xmlns:dc="http://purl.org/dc/elements/1.1/" xmlns:cc="http://creativecommons.org/ns#" xmlns:rdf="http://www.w3.org/1999/02/22-rdf-syntax-ns#">
   <cc:Work>
    <dc:type rdf:resource="http://purl.org/dc/dcmitype/StillImage"/>
    <dc:date>2025-08-20T15:20:32.774953</dc:date>
    <dc:format>image/svg+xml</dc:format>
    <dc:creator>
     <cc:Agent>
      <dc:title>Matplotlib v3.6.2, https://matplotlib.org/</dc:title>
     </cc:Agent>
    </dc:creator>
   </cc:Work>
  </rdf:RDF>
 </metadata>
 <defs>
  <style type="text/css">*{stroke-linejoin: round; stroke-linecap: butt}</style>
 </defs>
 <g id="figure_1">
  <g id="axes_1">
   <g id="patch_1">
    <path d="M 38.058125 273.99006 
L 993.118125 273.99006 
L 993.118125 31.48286 
L 38.058125 31.48286 
z
" style="fill: #ffffff"/>
   </g>
   <g id="patch_2">
    <path d="M 38.058125 103.404518 
L 967.425416 103.404518 
L 967.425416 -335.244018 
L 38.058125 -335.244018 
z
" clip-path="url(#p81eed8e8a6)" style="fill: #c3e6c3"/>
   </g>
   <g id="patch_3">
    <path d="M 38.058125 152.143244 
L 967.425416 152.143244 
L 967.425416 103.404518 
L 38.058125 103.404518 
z
" clip-path="url(#p81eed8e8a6)" style="fill: #e6dcc3"/>
   </g>
   <g id="patch_4">
    <path d="M 38.058125 273.99006 
L 967.425416 273.99006 
L 967.425416 152.143244 
L 38.058125 152.143244 
z
" clip-path="url(#p81eed8e8a6)" style="fill: #e6c3c3"/>
   </g>
   <g id="matplotlib.axis_1">
    <g id="xtick_1">
     <g id="text_1">
      <!-- 0 -->
      <g transform="translate(61.205834 287.06881) scale(0.08 -0.08)">
       <defs>
        <path id="DejaVuSans-30" d="M 2034 4250 
Q 1547 4250 1301 3770 
Q 1056 3291 1056 2328 
Q 1056 1369 1301 889 
Q 1547 409 2034 409 
Q 2525 409 2770 889 
Q 3016 1369 3016 2328 
Q 3016 3291 2770 3770 
Q 2525 4250 2034 4250 
z
M 2034 4750 
Q 2819 4750 3233 4129 
Q 3647 3509 3647 2328 
Q 3647 1150 3233 529 
Q 2819 -91 2034 -91 
Q 1250 -91 836 529 
Q 422 1150 422 2328 
Q 422 3509 836 4129 
Q 1250 4750 2034 4750 
z
" transform="scale(0.015625)"/>
       </defs>
       <use xlink:href="#DejaVuSans-30"/>
      </g>
     </g>
    </g>
    <g id="xtick_2">
     <g id="text_2">
      <!-- 10 -->
      <g transform="translate(235.851928 287.06881) scale(0.08 -0.08)">
       <defs>
        <path id="DejaVuSans-31" d="M 794 531 
L 1825 531 
L 1825 4091 
L 703 3866 
L 703 4441 
L 1819 4666 
L 2450 4666 
L 2450 531 
L 3481 531 
L 3481 0 
L 794 0 
L 794 531 
z
" transform="scale(0.015625)"/>
       </defs>
       <use xlink:href="#DejaVuSans-31"/>
       <use xlink:href="#DejaVuSans-30" x="63.623047"/>
      </g>
     </g>
    </g>
    <g id="xtick_3">
     <g id="text_3">
      <!-- 20 -->
      <g transform="translate(413.043023 287.06881) scale(0.08 -0.08)">
       <defs>
        <path id="DejaVuSans-32" d="M 1228 531 
L 3431 531 
L 3431 0 
L 469 0 
L 469 531 
Q 828 903 1448 1529 
Q 2069 2156 2228 2338 
Q 2531 2678 2651 2914 
Q 2772 3150 2772 3378 
Q 2772 3750 2511 3984 
Q 2250 4219 1831 4219 
Q 1534 4219 1204 4116 
Q 875 4013 500 3803 
L 500 4441 
Q 881 4594 1212 4672 
Q 1544 4750 1819 4750 
Q 2544 4750 2975 4387 
Q 3406 4025 3406 3419 
Q 3406 3131 3298 2873 
Q 3191 2616 2906 2266 
Q 2828 2175 2409 1742 
Q 1991 1309 1228 531 
z
" transform="scale(0.015625)"/>
       </defs>
       <use xlink:href="#DejaVuSans-32"/>
       <use xlink:href="#DejaVuSans-30" x="63.623047"/>
      </g>
     </g>
    </g>
    <g id="xtick_4">
     <g id="text_4">
      <!-- 30 -->
      <g transform="translate(590.234118 287.06881) scale(0.08 -0.08)">
       <defs>
        <path id="DejaVuSans-33" d="M 2597 2516 
Q 3050 2419 3304 2112 
Q 3559 1806 3559 1356 
Q 3559 666 3084 287 
Q 2609 -91 1734 -91 
Q 1441 -91 1130 -33 
Q 819 25 488 141 
L 488 750 
Q 750 597 1062 519 
Q 1375 441 1716 441 
Q 2309 441 2620 675 
Q 2931 909 2931 1356 
Q 2931 1769 2642 2001 
Q 2353 2234 1838 2234 
L 1294 2234 
L 1294 2753 
L 1863 2753 
Q 2328 2753 2575 2939 
Q 2822 3125 2822 3475 
Q 2822 3834 2567 4026 
Q 2313 4219 1838 4219 
Q 1578 4219 1281 4162 
Q 984 4106 628 3988 
L 628 4550 
Q 988 4650 1302 4700 
Q 1616 4750 1894 4750 
Q 2613 4750 3031 4423 
Q 3450 4097 3450 3541 
Q 3450 3153 3228 2886 
Q 3006 2619 2597 2516 
z
" transform="scale(0.015625)"/>
       </defs>
       <use xlink:href="#DejaVuSans-33"/>
       <use xlink:href="#DejaVuSans-30" x="63.623047"/>
      </g>
     </g>
    </g>
    <g id="xtick_5">
     <g id="text_5">
      <!-- 40 -->
      <g transform="translate(767.425212 287.06881) scale(0.08 -0.08)">
       <defs>
        <path id="DejaVuSans-34" d="M 2419 4116 
L 825 1625 
L 2419 1625 
L 2419 4116 
z
M 2253 4666 
L 3047 4666 
L 3047 1625 
L 3713 1625 
L 3713 1100 
L 3047 1100 
L 3047 0 
L 2419 0 
L 2419 1100 
L 313 1100 
L 313 1709 
L 2253 4666 
z
" transform="scale(0.015625)"/>
       </defs>
       <use xlink:href="#DejaVuSans-34"/>
       <use xlink:href="#DejaVuSans-30" x="63.623047"/>
      </g>
     </g>
    </g>
    <g id="xtick_6">
     <g id="text_6">
      <!-- 50 -->
      <g transform="translate(944.616307 287.06881) scale(0.08 -0.08)">
       <defs>
        <path id="DejaVuSans-35" d="M 691 4666 
L 3169 4666 
L 3169 4134 
L 1269 4134 
L 1269 2991 
Q 1406 3038 1543 3061 
Q 1681 3084 1819 3084 
Q 2600 3084 3056 2656 
Q 3513 2228 3513 1497 
Q 3513 744 3044 326 
Q 2575 -91 1722 -91 
Q 1428 -91 1123 -41 
Q 819 9 494 109 
L 494 744 
Q 775 591 1075 516 
Q 1375 441 1709 441 
Q 2250 441 2565 725 
Q 2881 1009 2881 1497 
Q 2881 1984 2565 2268 
Q 2250 2553 1709 2553 
Q 1456 2553 1204 2497 
Q 953 2441 691 2322 
L 691 4666 
z
" transform="scale(0.015625)"/>
       </defs>
       <use xlink:href="#DejaVuSans-35"/>
       <use xlink:href="#DejaVuSans-30" x="63.623047"/>
      </g>
     </g>
    </g>
    <g id="text_7">
     <!-- Position (bp) -->
     <g transform="translate(484.285 300.330997) scale(0.1 -0.1)">
      <defs>
       <path id="DejaVuSans-50" d="M 1259 4147 
L 1259 2394 
L 2053 2394 
Q 2494 2394 2734 2622 
Q 2975 2850 2975 3272 
Q 2975 3691 2734 3919 
Q 2494 4147 2053 4147 
L 1259 4147 
z
M 628 4666 
L 2053 4666 
Q 2838 4666 3239 4311 
Q 3641 3956 3641 3272 
Q 3641 2581 3239 2228 
Q 2838 1875 2053 1875 
L 1259 1875 
L 1259 0 
L 628 0 
L 628 4666 
z
" transform="scale(0.015625)"/>
       <path id="DejaVuSans-6f" d="M 1959 3097 
Q 1497 3097 1228 2736 
Q 959 2375 959 1747 
Q 959 1119 1226 758 
Q 1494 397 1959 397 
Q 2419 397 2687 759 
Q 2956 1122 2956 1747 
Q 2956 2369 2687 2733 
Q 2419 3097 1959 3097 
z
M 1959 3584 
Q 2709 3584 3137 3096 
Q 3566 2609 3566 1747 
Q 3566 888 3137 398 
Q 2709 -91 1959 -91 
Q 1206 -91 779 398 
Q 353 888 353 1747 
Q 353 2609 779 3096 
Q 1206 3584 1959 3584 
z
" transform="scale(0.015625)"/>
       <path id="DejaVuSans-73" d="M 2834 3397 
L 2834 2853 
Q 2591 2978 2328 3040 
Q 2066 3103 1784 3103 
Q 1356 3103 1142 2972 
Q 928 2841 928 2578 
Q 928 2378 1081 2264 
Q 1234 2150 1697 2047 
L 1894 2003 
Q 2506 1872 2764 1633 
Q 3022 1394 3022 966 
Q 3022 478 2636 193 
Q 2250 -91 1575 -91 
Q 1294 -91 989 -36 
Q 684 19 347 128 
L 347 722 
Q 666 556 975 473 
Q 1284 391 1588 391 
Q 1994 391 2212 530 
Q 2431 669 2431 922 
Q 2431 1156 2273 1281 
Q 2116 1406 1581 1522 
L 1381 1569 
Q 847 1681 609 1914 
Q 372 2147 372 2553 
Q 372 3047 722 3315 
Q 1072 3584 1716 3584 
Q 2034 3584 2315 3537 
Q 2597 3491 2834 3397 
z
" transform="scale(0.015625)"/>
       <path id="DejaVuSans-69" d="M 603 3500 
L 1178 3500 
L 1178 0 
L 603 0 
L 603 3500 
z
M 603 4863 
L 1178 4863 
L 1178 4134 
L 603 4134 
L 603 4863 
z
" transform="scale(0.015625)"/>
       <path id="DejaVuSans-74" d="M 1172 4494 
L 1172 3500 
L 2356 3500 
L 2356 3053 
L 1172 3053 
L 1172 1153 
Q 1172 725 1289 603 
Q 1406 481 1766 481 
L 2356 481 
L 2356 0 
L 1766 0 
Q 1100 0 847 248 
Q 594 497 594 1153 
L 594 3053 
L 172 3053 
L 172 3500 
L 594 3500 
L 594 4494 
L 1172 4494 
z
" transform="scale(0.015625)"/>
       <path id="DejaVuSans-6e" d="M 3513 2113 
L 3513 0 
L 2938 0 
L 2938 2094 
Q 2938 2591 2744 2837 
Q 2550 3084 2163 3084 
Q 1697 3084 1428 2787 
Q 1159 2491 1159 1978 
L 1159 0 
L 581 0 
L 581 3500 
L 1159 3500 
L 1159 2956 
Q 1366 3272 1645 3428 
Q 1925 3584 2291 3584 
Q 2894 3584 3203 3211 
Q 3513 2838 3513 2113 
z
" transform="scale(0.015625)"/>
       <path id="DejaVuSans-20" transform="scale(0.015625)"/>
       <path id="DejaVuSans-28" d="M 1984 4856 
Q 1566 4138 1362 3434 
Q 1159 2731 1159 2009 
Q 1159 1288 1364 580 
Q 1569 -128 1984 -844 
L 1484 -844 
Q 1016 -109 783 600 
Q 550 1309 550 2009 
Q 550 2706 781 3412 
Q 1013 4119 1484 4856 
L 1984 4856 
z
" transform="scale(0.015625)"/>
       <path id="DejaVuSans-62" d="M 3116 1747 
Q 3116 2381 2855 2742 
Q 2594 3103 2138 3103 
Q 1681 3103 1420 2742 
Q 1159 2381 1159 1747 
Q 1159 1113 1420 752 
Q 1681 391 2138 391 
Q 2594 391 2855 752 
Q 3116 1113 3116 1747 
z
M 1159 2969 
Q 1341 3281 1617 3432 
Q 1894 3584 2278 3584 
Q 2916 3584 3314 3078 
Q 3713 2572 3713 1747 
Q 3713 922 3314 415 
Q 2916 -91 2278 -91 
Q 1894 -91 1617 61 
Q 1341 213 1159 525 
L 1159 0 
L 581 0 
L 581 4863 
L 1159 4863 
L 1159 2969 
z
" transform="scale(0.015625)"/>
       <path id="DejaVuSans-70" d="M 1159 525 
L 1159 -1331 
L 581 -1331 
L 581 3500 
L 1159 3500 
L 1159 2969 
Q 1341 3281 1617 3432 
Q 1894 3584 2278 3584 
Q 2916 3584 3314 3078 
Q 3713 2572 3713 1747 
Q 3713 922 3314 415 
Q 2916 -91 2278 -91 
Q 1894 -91 1617 61 
Q 1341 213 1159 525 
z
M 3116 1747 
Q 3116 2381 2855 2742 
Q 2594 3103 2138 3103 
Q 1681 3103 1420 2742 
Q 1159 2381 1159 1747 
Q 1159 1113 1420 752 
Q 1681 391 2138 391 
Q 2594 391 2855 752 
Q 3116 1113 3116 1747 
z
" transform="scale(0.015625)"/>
       <path id="DejaVuSans-29" d="M 513 4856 
L 1013 4856 
Q 1481 4119 1714 3412 
Q 1947 2706 1947 2009 
Q 1947 1309 1714 600 
Q 1481 -109 1013 -844 
L 513 -844 
Q 928 -128 1133 580 
Q 1338 1288 1338 2009 
Q 1338 2731 1133 3434 
Q 928 4138 513 4856 
z
" transform="scale(0.015625)"/>
      </defs>
      <use xlink:href="#DejaVuSans-50"/>
      <use xlink:href="#DejaVuSans-6f" x="56.677734"/>
      <use xlink:href="#DejaVuSans-73" x="117.859375"/>
      <use xlink:href="#DejaVuSans-69" x="169.958984"/>
      <use xlink:href="#DejaVuSans-74" x="197.742188"/>
      <use xlink:href="#DejaVuSans-69" x="236.951172"/>
      <use xlink:href="#DejaVuSans-6f" x="264.734375"/>
      <use xlink:href="#DejaVuSans-6e" x="325.916016"/>
      <use xlink:href="#DejaVuSans-20" x="389.294922"/>
      <use xlink:href="#DejaVuSans-28" x="421.082031"/>
      <use xlink:href="#DejaVuSans-62" x="460.095703"/>
      <use xlink:href="#DejaVuSans-70" x="523.572266"/>
      <use xlink:href="#DejaVuSans-29" x="587.048828"/>
     </g>
    </g>
   </g>
   <g id="matplotlib.axis_2">
    <g id="ytick_1">
     <g id="line2d_1">
      <path d="M 38.058125 273.99006 
L 993.118125 273.99006 
" clip-path="url(#p81eed8e8a6)" style="fill: none; stroke: #dedede; stroke-linecap: square"/>
     </g>
     <g id="text_8">
      <!-- 0 -->
      <g transform="translate(25.968125 277.029435) scale(0.08 -0.08)">
       <use xlink:href="#DejaVuSans-30"/>
      </g>
     </g>
    </g>
    <g id="ytick_2">
     <g id="line2d_2">
      <path d="M 38.058125 243.528356 
L 993.118125 243.528356 
" clip-path="url(#p81eed8e8a6)" style="fill: none; stroke: #dedede; stroke-linecap: square"/>
     </g>
     <g id="text_9">
      <!-- 5 -->
      <g transform="translate(25.968125 246.567731) scale(0.08 -0.08)">
       <use xlink:href="#DejaVuSans-35"/>
      </g>
     </g>
    </g>
    <g id="ytick_3">
     <g id="line2d_3">
      <path d="M 38.058125 213.066652 
L 993.118125 213.066652 
" clip-path="url(#p81eed8e8a6)" style="fill: none; stroke: #dedede; stroke-linecap: square"/>
     </g>
     <g id="text_10">
      <!-- 10 -->
      <g transform="translate(20.878125 216.106027) scale(0.08 -0.08)">
       <use xlink:href="#DejaVuSans-31"/>
       <use xlink:href="#DejaVuSans-30" x="63.623047"/>
      </g>
     </g>
    </g>
    <g id="ytick_4">
     <g id="line2d_4">
      <path d="M 38.058125 182.604948 
L 993.118125 182.604948 
" clip-path="url(#p81eed8e8a6)" style="fill: none; stroke: #dedede; stroke-linecap: square"/>
     </g>
     <g id="text_11">
      <!-- 15 -->
      <g transform="translate(20.878125 185.644323) scale(0.08 -0.08)">
       <use xlink:href="#DejaVuSans-31"/>
       <use xlink:href="#DejaVuSans-35" x="63.623047"/>
      </g>
     </g>
    </g>
    <g id="ytick_5">
     <g id="line2d_5">
      <path d="M 38.058125 152.143244 
L 993.118125 152.143244 
" clip-path="url(#p81eed8e8a6)" style="fill: none; stroke: #dedede; stroke-linecap: square"/>
     </g>
     <g id="text_12">
      <!-- 20 -->
      <g transform="translate(20.878125 155.182619) scale(0.08 -0.08)">
       <use xlink:href="#DejaVuSans-32"/>
       <use xlink:href="#DejaVuSans-30" x="63.623047"/>
      </g>
     </g>
    </g>
    <g id="ytick_6">
     <g id="line2d_6">
      <path d="M 38.058125 121.68154 
L 993.118125 121.68154 
" clip-path="url(#p81eed8e8a6)" style="fill: none; stroke: #dedede; stroke-linecap: square"/>
     </g>
     <g id="text_13">
      <!-- 25 -->
      <g transform="translate(20.878125 124.720915) scale(0.08 -0.08)">
       <use xlink:href="#DejaVuSans-32"/>
       <use xlink:href="#DejaVuSans-35" x="63.623047"/>
      </g>
     </g>
    </g>
    <g id="ytick_7">
     <g id="line2d_7">
      <path d="M 38.058125 91.219837 
L 993.118125 91.219837 
" clip-path="url(#p81eed8e8a6)" style="fill: none; stroke: #dedede; stroke-linecap: square"/>
     </g>
     <g id="text_14">
      <!-- 30 -->
      <g transform="translate(20.878125 94.259212) scale(0.08 -0.08)">
       <use xlink:href="#DejaVuSans-33"/>
       <use xlink:href="#DejaVuSans-30" x="63.623047"/>
      </g>
     </g>
    </g>
    <g id="ytick_8">
     <g id="line2d_8">
      <path d="M 38.058125 60.758133 
L 993.118125 60.758133 
" clip-path="url(#p81eed8e8a6)" style="fill: none; stroke: #dedede; stroke-linecap: square"/>
     </g>
     <g id="text_15">
      <!-- 35 -->
      <g transform="translate(20.878125 63.797508) scale(0.08 -0.08)">
       <use xlink:href="#DejaVuSans-33"/>
       <use xlink:href="#DejaVuSans-35" x="63.623047"/>
      </g>
     </g>
    </g>
    <g id="text_16">
     <!-- Phred Score -->
     <g transform="translate(14.798438 182.70521) rotate(-90) scale(0.1 -0.1)">
      <defs>
       <path id="DejaVuSans-68" d="M 3513 2113 
L 3513 0 
L 2938 0 
L 2938 2094 
Q 2938 2591 2744 2837 
Q 2550 3084 2163 3084 
Q 1697 3084 1428 2787 
Q 1159 2491 1159 1978 
L 1159 0 
L 581 0 
L 581 4863 
L 1159 4863 
L 1159 2956 
Q 1366 3272 1645 3428 
Q 1925 3584 2291 3584 
Q 2894 3584 3203 3211 
Q 3513 2838 3513 2113 
z
" transform="scale(0.015625)"/>
       <path id="DejaVuSans-72" d="M 2631 2963 
Q 2534 3019 2420 3045 
Q 2306 3072 2169 3072 
Q 1681 3072 1420 2755 
Q 1159 2438 1159 1844 
L 1159 0 
L 581 0 
L 581 3500 
L 1159 3500 
L 1159 2956 
Q 1341 3275 1631 3429 
Q 1922 3584 2338 3584 
Q 2397 3584 2469 3576 
Q 2541 3569 2628 3553 
L 2631 2963 
z
" transform="scale(0.015625)"/>
       <path id="DejaVuSans-65" d="M 3597 1894 
L 3597 1613 
L 953 1613 
Q 991 1019 1311 708 
Q 1631 397 2203 397 
Q 2534 397 2845 478 
Q 3156 559 3463 722 
L 3463 178 
Q 3153 47 2828 -22 
Q 2503 -91 2169 -91 
Q 1331 -91 842 396 
Q 353 884 353 1716 
Q 353 2575 817 3079 
Q 1281 3584 2069 3584 
Q 2775 3584 3186 3129 
Q 3597 2675 3597 1894 
z
M 3022 2063 
Q 3016 2534 2758 2815 
Q 2500 3097 2075 3097 
Q 1594 3097 1305 2825 
Q 1016 2553 972 2059 
L 3022 2063 
z
" transform="scale(0.015625)"/>
       <path id="DejaVuSans-64" d="M 2906 2969 
L 2906 4863 
L 3481 4863 
L 3481 0 
L 2906 0 
L 2906 525 
Q 2725 213 2448 61 
Q 2172 -91 1784 -91 
Q 1150 -91 751 415 
Q 353 922 353 1747 
Q 353 2572 751 3078 
Q 1150 3584 1784 3584 
Q 2172 3584 2448 3432 
Q 2725 3281 2906 2969 
z
M 947 1747 
Q 947 1113 1208 752 
Q 1469 391 1925 391 
Q 2381 391 2643 752 
Q 2906 1113 2906 1747 
Q 2906 2381 2643 2742 
Q 2381 3103 1925 3103 
Q 1469 3103 1208 2742 
Q 947 2381 947 1747 
z
" transform="scale(0.015625)"/>
       <path id="DejaVuSans-53" d="M 3425 4513 
L 3425 3897 
Q 3066 4069 2747 4153 
Q 2428 4238 2131 4238 
Q 1616 4238 1336 4038 
Q 1056 3838 1056 3469 
Q 1056 3159 1242 3001 
Q 1428 2844 1947 2747 
L 2328 2669 
Q 3034 2534 3370 2195 
Q 3706 1856 3706 1288 
Q 3706 609 3251 259 
Q 2797 -91 1919 -91 
Q 1588 -91 1214 -16 
Q 841 59 441 206 
L 441 856 
Q 825 641 1194 531 
Q 1563 422 1919 422 
Q 2459 422 2753 634 
Q 3047 847 3047 1241 
Q 3047 1584 2836 1778 
Q 2625 1972 2144 2069 
L 1759 2144 
Q 1053 2284 737 2584 
Q 422 2884 422 3419 
Q 422 4038 858 4394 
Q 1294 4750 2059 4750 
Q 2388 4750 2728 4690 
Q 3069 4631 3425 4513 
z
" transform="scale(0.015625)"/>
       <path id="DejaVuSans-63" d="M 3122 3366 
L 3122 2828 
Q 2878 2963 2633 3030 
Q 2388 3097 2138 3097 
Q 1578 3097 1268 2742 
Q 959 2388 959 1747 
Q 959 1106 1268 751 
Q 1578 397 2138 397 
Q 2388 397 2633 464 
Q 2878 531 3122 666 
L 3122 134 
Q 2881 22 2623 -34 
Q 2366 -91 2075 -91 
Q 1284 -91 818 406 
Q 353 903 353 1747 
Q 353 2603 823 3093 
Q 1294 3584 2113 3584 
Q 2378 3584 2631 3529 
Q 2884 3475 3122 3366 
z
" transform="scale(0.015625)"/>
      </defs>
      <use xlink:href="#DejaVuSans-50"/>
      <use xlink:href="#DejaVuSans-68" x="60.302734"/>
      <use xlink:href="#DejaVuSans-72" x="123.681641"/>
      <use xlink:href="#DejaVuSans-65" x="162.544922"/>
      <use xlink:href="#DejaVuSans-64" x="224.068359"/>
      <use xlink:href="#DejaVuSans-20" x="287.544922"/>
      <use xlink:href="#DejaVuSans-53" x="319.332031"/>
      <use xlink:href="#DejaVuSans-63" x="382.808594"/>
      <use xlink:href="#DejaVuSans-6f" x="437.789062"/>
      <use xlink:href="#DejaVuSans-72" x="498.970703"/>
      <use xlink:href="#DejaVuSans-65" x="537.833984"/>
     </g>
    </g>
   </g>
   <g id="line2d_9">
    <path d="M 81.469943 79.060785 
L 99.189053 77.300801 
L 116.908162 76.864052 
L 134.627272 55.181927 
L 152.346381 55.205943 
L 170.06549 55.752628 
L 187.7846 56.136467 
L 205.503709 56.349551 
L 223.222819 46.342268 
L 240.941928 46.547393 
L 258.661038 46.668818 
L 276.380147 47.208391 
L 294.099257 47.795621 
L 311.818366 40.502717 
L 329.537476 40.760423 
L 347.256585 41.057964 
L 364.975695 41.188058 
L 382.694804 41.32967 
L 400.413913 41.231473 
L 418.133023 41.338121 
L 435.852132 41.800787 
L 453.571242 41.812693 
L 471.290351 42.264774 
L 489.009461 42.530345 
L 506.72857 48.85339 
L 524.44768 50.86136 
L 542.166789 52.234272 
L 559.885899 53.164121 
L 577.605008 52.269706 
L 595.324118 52.477574 
L 613.043227 52.969136 
L 630.762337 53.486064 
L 648.481446 54.135191 
L 666.200555 54.15414 
L 683.919665 54.316332 
L 701.638774 54.860853 
L 719.357884 55.78704 
L 737.076993 56.244502 
L 754.796103 56.902536 
L 772.515212 57.126824 
L 790.234322 57.618126 
L 807.953431 58.670262 
L 825.672541 59.176032 
L 843.39165 59.660032 
L 861.11076 60.448928 
L 878.829869 61.422086 
L 896.548978 62.5677 
L 914.268088 63.864216 
L 931.987197 65.38649 
L 949.706307 74.681516 
" clip-path="url(#p81eed8e8a6)" style="fill: none; stroke: #5cb85c; stroke-linecap: square"/>
   </g>
   <g id="line2d_10">
    <path d="M 81.469943 88.016048 
L 99.189053 87.257543 
L 116.908162 87.088751 
L 134.627272 64.214527 
L 152.346381 63.129568 
L 170.06549 62.828382 
L 187.7846 62.617936 
L 205.503709 62.546474 
L 223.222819 52.835534 
L 240.941928 53.003437 
L 258.661038 53.41103 
L 276.380147 53.844885 
L 294.099257 54.493774 
L 311.818366 47.055752 
L 329.537476 47.213956 
L 347.256585 47.523621 
L 364.975695 47.868809 
L 382.694804 48.268328 
L 400.413913 49.672337 
L 418.133023 49.721779 
L 435.852132 50.047701 
L 453.571242 50.965872 
L 471.290351 51.716545 
L 489.009461 52.761197 
L 506.72857 59.03129 
L 524.44768 60.956675 
L 542.166789 62.663805 
L 559.885899 63.77569 
L 577.605008 64.549622 
L 595.324118 65.004746 
L 613.043227 66.164534 
L 630.762337 67.011576 
L 648.481446 67.473111 
L 666.200555 68.164452 
L 683.919665 68.113646 
L 701.638774 68.318303 
L 719.357884 68.217208 
L 737.076993 67.540676 
L 754.796103 67.615269 
L 772.515212 67.845239 
L 790.234322 68.400577 
L 807.953431 68.81302 
L 825.672541 69.289153 
L 843.39165 70.265999 
L 861.11076 71.125733 
L 878.829869 72.203693 
L 896.548978 73.44049 
L 914.268088 75.088852 
L 931.987197 76.912329 
L 949.706307 85.542902 
" clip-path="url(#p81eed8e8a6)" style="fill: none; stroke: #5cb85c; stroke-linecap: square"/>
   </g>
   <g id="line2d_11">
    <path d="M 81.469943 77.756712 
L 99.189053 76.103513 
L 116.908162 75.78546 
L 134.627272 54.386451 
L 152.346381 54.395155 
L 170.06549 54.831286 
L 187.7846 55.190568 
L 205.503709 55.407325 
L 223.222819 45.227365 
L 240.941928 45.457098 
L 258.661038 45.582872 
L 276.380147 45.961455 
L 294.099257 46.499023 
L 311.818366 38.72827 
L 329.537476 39.038029 
L 347.256585 39.276256 
L 364.975695 39.341284 
L 382.694804 39.431801 
L 400.413913 39.197917 
L 418.133023 39.277042 
L 435.852132 39.583793 
L 453.571242 39.637287 
L 471.290351 39.994028 
L 489.009461 40.168091 
L 506.72857 45.252441 
L 524.44768 46.741209 
L 542.166789 47.764305 
L 559.885899 48.478518 
L 577.605008 47.852794 
L 595.324118 48.011437 
L 613.043227 48.484703 
L 630.762337 48.989404 
L 648.481446 49.788851 
L 666.200555 49.939926 
L 683.919665 50.083136 
L 701.638774 50.649407 
L 719.357884 51.652491 
L 737.076993 51.966828 
L 754.796103 52.83063 
L 772.515212 52.891614 
L 790.234322 53.210681 
L 807.953431 54.116362 
L 825.672541 54.347845 
L 843.39165 54.648559 
L 861.11076 55.352275 
L 878.829869 56.255108 
L 896.548978 57.22275 
L 914.268088 58.40139 
L 931.987197 59.7479 
L 949.706307 67.77217 
" clip-path="url(#p81eed8e8a6)" style="fill: none; stroke: #5cb85c; stroke-linecap: square"/>
   </g>
   <g id="line2d_12">
    <path d="M 81.469943 86.616587 
L 99.189053 85.96711 
L 116.908162 85.261304 
L 134.627272 62.62688 
L 152.346381 61.261097 
L 170.06549 60.864101 
L 187.7846 60.589214 
L 205.503709 60.462214 
L 223.222819 50.414027 
L 240.941928 50.602344 
L 258.661038 50.954149 
L 276.380147 51.422404 
L 294.099257 51.854619 
L 311.818366 44.058283 
L 329.537476 44.230531 
L 347.256585 44.480505 
L 364.975695 44.808057 
L 382.694804 45.246331 
L 400.413913 46.751256 
L 418.133023 46.934853 
L 435.852132 47.200582 
L 453.571242 47.798254 
L 471.290351 48.525546 
L 489.009461 49.371824 
L 506.72857 54.146127 
L 524.44768 55.931437 
L 542.166789 57.145632 
L 559.885899 58.084561 
L 577.605008 58.709732 
L 595.324118 59.090177 
L 613.043227 60.048649 
L 630.762337 60.684683 
L 648.481446 61.340271 
L 666.200555 62.103162 
L 683.919665 62.515672 
L 701.638774 62.614311 
L 719.357884 62.325121 
L 737.076993 61.742444 
L 754.796103 61.764346 
L 772.515212 61.784205 
L 790.234322 62.128266 
L 807.953431 62.420545 
L 825.672541 62.833353 
L 843.39165 63.664655 
L 861.11076 64.504473 
L 878.829869 65.497616 
L 896.548978 66.555969 
L 914.268088 67.910836 
L 931.987197 69.496449 
L 949.706307 76.924962 
" clip-path="url(#p81eed8e8a6)" style="fill: none; stroke: #5cb85c; stroke-linecap: square"/>
   </g>
   <g id="line2d_13">
    <path d="M 81.469943 77.786617 
L 99.189053 76.129526 
L 116.908162 75.779523 
L 134.627272 54.408295 
L 152.346381 54.410262 
L 170.06549 54.866196 
L 187.7846 55.225312 
L 205.503709 55.414801 
L 223.222819 45.210862 
L 240.941928 45.437067 
L 258.661038 45.567779 
L 276.380147 45.96085 
L 294.099257 46.53295 
L 311.818366 38.752433 
L 329.537476 39.026536 
L 347.256585 39.260735 
L 364.975695 39.313551 
L 382.694804 39.431298 
L 400.413913 39.211176 
L 418.133023 39.311095 
L 435.852132 39.620087 
L 453.571242 39.698388 
L 471.290351 40.017001 
L 489.009461 40.188024 
L 506.72857 45.32826 
L 524.44768 46.826097 
L 542.166789 47.845002 
L 559.885899 48.628105 
L 577.605008 47.981086 
L 595.324118 48.113886 
L 613.043227 48.644224 
L 630.762337 49.141167 
L 648.481446 49.881069 
L 666.200555 49.993345 
L 683.919665 50.159763 
L 701.638774 50.686741 
L 719.357884 51.675994 
L 737.076993 52.042839 
L 754.796103 52.896567 
L 772.515212 52.933505 
L 790.234322 53.279343 
L 807.953431 54.147474 
L 825.672541 54.399873 
L 843.39165 54.735974 
L 861.11076 55.474183 
L 878.829869 56.364188 
L 896.548978 57.360945 
L 914.268088 58.525035 
L 931.987197 59.884964 
L 949.706307 67.95574 
" clip-path="url(#p81eed8e8a6)" style="fill: none; stroke: #5cb85c; stroke-linecap: square"/>
   </g>
   <g id="line2d_14">
    <path d="M 81.469943 86.828913 
L 99.189053 86.218441 
L 116.908162 85.546836 
L 134.627272 62.927382 
L 152.346381 61.587532 
L 170.06549 61.168442 
L 187.7846 60.911641 
L 205.503709 60.72779 
L 223.222819 50.740119 
L 240.941928 50.932244 
L 258.661038 51.283669 
L 276.380147 51.750278 
L 294.099257 52.222641 
L 311.818366 44.470314 
L 329.537476 44.643732 
L 347.256585 44.900422 
L 364.975695 45.240013 
L 382.694804 45.736539 
L 400.413913 47.196919 
L 418.133023 47.358061 
L 435.852132 47.642497 
L 453.571242 48.261003 
L 471.290351 49.009692 
L 489.009461 49.911082 
L 506.72857 54.767936 
L 524.44768 56.573475 
L 542.166789 57.831382 
L 559.885899 58.74837 
L 577.605008 59.361012 
L 595.324118 59.779953 
L 613.043227 60.75725 
L 630.762337 61.375963 
L 648.481446 62.063521 
L 666.200555 62.876513 
L 683.919665 63.277706 
L 701.638774 63.427611 
L 719.357884 63.075623 
L 737.076993 62.544129 
L 754.796103 62.534786 
L 772.515212 62.59388 
L 790.234322 62.940515 
L 807.953431 63.231052 
L 825.672541 63.69776 
L 843.39165 64.550232 
L 861.11076 65.336546 
L 878.829869 66.320756 
L 896.548978 67.440059 
L 914.268088 68.871371 
L 931.987197 70.421344 
L 949.706307 77.834008 
" clip-path="url(#p81eed8e8a6)" style="fill: none; stroke: #5cb85c; stroke-linecap: square"/>
   </g>
   <g id="line2d_15">
    <path d="M 81.469943 80.913637 
L 99.189053 78.716005 
L 116.908162 78.06272 
L 134.627272 56.005079 
L 152.346381 56.1243 
L 170.06549 56.648853 
L 187.7846 56.797589 
L 205.503709 56.913733 
L 223.222819 47.131199 
L 240.941928 47.27198 
L 258.661038 47.752057 
L 276.380147 47.840116 
L 294.099257 48.199208 
L 311.818366 40.708123 
L 329.537476 40.840404 
L 347.256585 40.887625 
L 364.975695 40.967511 
L 382.694804 41.067403 
L 400.413913 40.669892 
L 418.133023 40.92857 
L 435.852132 41.374631 
L 453.571242 41.695002 
L 471.290351 41.873014 
L 489.009461 41.976314 
L 506.72857 46.00175 
L 524.44768 47.563691 
L 542.166789 48.737766 
L 559.885899 49.144415 
L 577.605008 49.711389 
L 595.324118 49.580924 
L 613.043227 49.479809 
L 630.762337 49.667467 
L 648.481446 50.111772 
L 666.200555 50.537145 
L 683.919665 50.96947 
L 701.638774 51.400698 
L 719.357884 51.91541 
L 737.076993 52.116323 
L 754.796103 52.427413 
L 772.515212 52.847865 
L 790.234322 53.514977 
L 807.953431 54.061717 
L 825.672541 54.800863 
L 843.39165 55.440647 
L 861.11076 56.323975 
L 878.829869 57.142996 
L 896.548978 58.035748 
L 914.268088 59.659059 
L 931.987197 61.78301 
L 949.706307 102.61349 
" clip-path="url(#p81eed8e8a6)" style="fill: none; stroke: #5cb85c; stroke-linecap: square"/>
   </g>
   <g id="line2d_16">
    <path d="M 81.469943 92.594491 
L 99.189053 91.927534 
L 116.908162 90.450957 
L 134.627272 68.87438 
L 152.346381 68.119459 
L 170.06549 68.449827 
L 187.7846 68.179228 
L 205.503709 68.237128 
L 223.222819 58.706168 
L 240.941928 59.112206 
L 258.661038 59.143389 
L 276.380147 59.523056 
L 294.099257 61.027733 
L 311.818366 53.446711 
L 329.537476 53.386331 
L 347.256585 53.284183 
L 364.975695 53.737889 
L 382.694804 53.94793 
L 400.413913 54.037505 
L 418.133023 54.253362 
L 435.852132 54.557382 
L 453.571242 55.379429 
L 471.290351 55.455223 
L 489.009461 55.816733 
L 506.72857 59.875954 
L 524.44768 61.423612 
L 542.166789 62.171876 
L 559.885899 63.134688 
L 577.605008 63.765091 
L 595.324118 64.555942 
L 613.043227 65.305884 
L 630.762337 65.745905 
L 648.481446 66.021265 
L 666.200555 66.678804 
L 683.919665 67.241155 
L 701.638774 67.82396 
L 719.357884 68.498108 
L 737.076993 68.799185 
L 754.796103 68.775416 
L 772.515212 69.306098 
L 790.234322 69.817898 
L 807.953431 70.217779 
L 825.672541 70.696812 
L 843.39165 71.100936 
L 861.11076 71.801671 
L 878.829869 72.864262 
L 896.548978 74.152256 
L 914.268088 76.183143 
L 931.987197 80.096746 
L 949.706307 179.696689 
" clip-path="url(#p81eed8e8a6)" style="fill: none; stroke: #d9534f; stroke-linecap: square"/>
   </g>
   <g id="line2d_17">
    <path d="M 81.469943 80.832885 
L 99.189053 78.641135 
L 116.908162 77.997424 
L 134.627272 55.963384 
L 152.346381 56.059633 
L 170.06549 56.566497 
L 187.7846 56.741543 
L 205.503709 56.851329 
L 223.222819 47.065534 
L 240.941928 47.231962 
L 258.661038 47.754735 
L 276.380147 47.811281 
L 294.099257 48.194248 
L 311.818366 40.700313 
L 329.537476 40.815645 
L 347.256585 40.867068 
L 364.975695 40.926362 
L 382.694804 41.036324 
L 400.413913 40.562133 
L 418.133023 40.847906 
L 435.852132 41.292084 
L 453.571242 41.608377 
L 471.290351 41.771236 
L 489.009461 41.869881 
L 506.72857 45.851208 
L 524.44768 47.426779 
L 542.166789 48.540358 
L 559.885899 48.929945 
L 577.605008 49.477195 
L 595.324118 49.361831 
L 613.043227 49.308229 
L 630.762337 49.450625 
L 648.481446 49.852698 
L 666.200555 50.226105 
L 683.919665 50.669028 
L 701.638774 51.126404 
L 719.357884 51.613068 
L 737.076993 51.787508 
L 754.796103 52.045713 
L 772.515212 52.44271 
L 790.234322 53.066902 
L 807.953431 53.516826 
L 825.672541 54.225918 
L 843.39165 54.900446 
L 861.11076 55.711556 
L 878.829869 56.53717 
L 896.548978 57.370622 
L 914.268088 58.975273 
L 931.987197 61.105091 
L 949.706307 101.377079 
" clip-path="url(#p81eed8e8a6)" style="fill: none; stroke: #5cb85c; stroke-linecap: square"/>
   </g>
   <g id="line2d_18">
    <path d="M 81.469943 92.778628 
L 99.189053 92.113155 
L 116.908162 90.663707 
L 134.627272 69.146563 
L 152.346381 68.425582 
L 170.06549 68.782471 
L 187.7846 68.486845 
L 205.503709 68.439292 
L 223.222819 58.935833 
L 240.941928 59.330366 
L 258.661038 59.394857 
L 276.380147 59.798389 
L 294.099257 61.273058 
L 311.818366 53.735481 
L 329.537476 53.669998 
L 347.256585 53.620897 
L 364.975695 54.024691 
L 382.694804 54.275602 
L 400.413913 54.350552 
L 418.133023 54.482653 
L 435.852132 54.847519 
L 453.571242 55.700809 
L 471.290351 55.748989 
L 489.009461 56.089429 
L 506.72857 60.235459 
L 524.44768 61.765088 
L 542.166789 62.562439 
L 559.885899 63.529557 
L 577.605008 64.112198 
L 595.324118 64.925804 
L 613.043227 65.583032 
L 630.762337 66.028653 
L 648.481446 66.365022 
L 666.200555 67.028052 
L 683.919665 67.591819 
L 701.638774 68.190203 
L 719.357884 68.869566 
L 737.076993 69.191189 
L 754.796103 69.166733 
L 772.515212 69.674364 
L 790.234322 70.15728 
L 807.953431 70.579726 
L 825.672541 71.01829 
L 843.39165 71.397673 
L 861.11076 72.09487 
L 878.829869 73.125214 
L 896.548978 74.385562 
L 914.268088 76.346052 
L 931.987197 80.138678 
L 949.706307 178.62018 
" clip-path="url(#p81eed8e8a6)" style="fill: none; stroke: #d9534f; stroke-linecap: square"/>
   </g>
   <g id="line2d_19">
    <path d="M 81.469943 82.542294 
L 99.189053 79.945692 
L 116.908162 78.939779 
L 134.627272 56.704402 
L 152.346381 56.833574 
L 170.06549 57.289958 
L 187.7846 57.597243 
L 205.503709 57.6126 
L 223.222819 47.957486 
L 240.941928 48.019582 
L 258.661038 48.381132 
L 276.380147 48.978274 
L 294.099257 49.127439 
L 311.818366 41.804924 
L 329.537476 41.870067 
L 347.256585 42.028 
L 364.975695 42.060002 
L 382.694804 42.321918 
L 400.413913 41.745347 
L 418.133023 41.932112 
L 435.852132 42.339639 
L 453.571242 42.730372 
L 471.290351 42.889082 
L 489.009461 42.993089 
L 506.72857 46.711092 
L 524.44768 48.189588 
L 542.166789 49.256613 
L 559.885899 49.759934 
L 577.605008 50.182179 
L 595.324118 50.641769 
L 613.043227 51.179926 
L 630.762337 51.129028 
L 648.481446 51.4364 
L 666.200555 51.264392 
L 683.919665 51.519587 
L 701.638774 52.03585 
L 719.357884 52.490083 
L 737.076993 53.152797 
L 754.796103 53.129158 
L 772.515212 53.565973 
L 790.234322 54.141699 
L 807.953431 54.693123 
L 825.672541 55.26135 
L 843.39165 55.984542 
L 861.11076 56.787853 
L 878.829869 57.626725 
L 896.548978 58.483997 
L 914.268088 59.743768 
L 931.987197 61.764644 
L 949.706307 91.569564 
" clip-path="url(#p81eed8e8a6)" style="fill: none; stroke: #5cb85c; stroke-linecap: square"/>
   </g>
   <g id="line2d_20">
    <path d="M 81.469943 94.436547 
L 99.189053 94.344619 
L 116.908162 92.900034 
L 134.627272 71.462777 
L 152.346381 70.799027 
L 170.06549 71.231954 
L 187.7846 71.963392 
L 205.503709 72.048828 
L 223.222819 62.308173 
L 240.941928 62.45251 
L 258.661038 62.304689 
L 276.380147 62.165715 
L 294.099257 62.957625 
L 311.818366 56.163463 
L 329.537476 56.429774 
L 347.256585 56.456054 
L 364.975695 57.358739 
L 382.694804 57.272854 
L 400.413913 56.55838 
L 418.133023 56.697181 
L 435.852132 57.312614 
L 453.571242 57.421403 
L 471.290351 57.899388 
L 489.009461 58.400317 
L 506.72857 62.034159 
L 524.44768 63.399022 
L 542.166789 64.602632 
L 559.885899 65.508884 
L 577.605008 65.898851 
L 595.324118 66.478533 
L 613.043227 67.178223 
L 630.762337 68.102454 
L 648.481446 68.69224 
L 666.200555 68.436653 
L 683.919665 69.082828 
L 701.638774 69.493639 
L 719.357884 69.957836 
L 737.076993 71.018664 
L 754.796103 70.906075 
L 772.515212 71.359308 
L 790.234322 72.304367 
L 807.953431 72.721732 
L 825.672541 73.181322 
L 843.39165 73.640541 
L 861.11076 74.319653 
L 878.829869 75.286224 
L 896.548978 76.606372 
L 914.268088 79.196145 
L 931.987197 83.381136 
L 949.706307 183.636462 
" clip-path="url(#p81eed8e8a6)" style="fill: none; stroke: #d9534f; stroke-linecap: square"/>
   </g>
   <g id="line2d_21">
    <path d="M 38.058125 273.99006 
L 993.118125 273.99006 
" clip-path="url(#p81eed8e8a6)" style="fill: none; stroke: #dedede; stroke-width: 2; stroke-linecap: square"/>
   </g>
   <g id="text_17">
    <!-- FastQC: Mean Quality Scores -->
    <g transform="translate(400.349375 19.3575) scale(0.16 -0.16)">
     <defs>
      <path id="DejaVuSans-46" d="M 628 4666 
L 3309 4666 
L 3309 4134 
L 1259 4134 
L 1259 2759 
L 3109 2759 
L 3109 2228 
L 1259 2228 
L 1259 0 
L 628 0 
L 628 4666 
z
" transform="scale(0.015625)"/>
      <path id="DejaVuSans-61" d="M 2194 1759 
Q 1497 1759 1228 1600 
Q 959 1441 959 1056 
Q 959 750 1161 570 
Q 1363 391 1709 391 
Q 2188 391 2477 730 
Q 2766 1069 2766 1631 
L 2766 1759 
L 2194 1759 
z
M 3341 1997 
L 3341 0 
L 2766 0 
L 2766 531 
Q 2569 213 2275 61 
Q 1981 -91 1556 -91 
Q 1019 -91 701 211 
Q 384 513 384 1019 
Q 384 1609 779 1909 
Q 1175 2209 1959 2209 
L 2766 2209 
L 2766 2266 
Q 2766 2663 2505 2880 
Q 2244 3097 1772 3097 
Q 1472 3097 1187 3025 
Q 903 2953 641 2809 
L 641 3341 
Q 956 3463 1253 3523 
Q 1550 3584 1831 3584 
Q 2591 3584 2966 3190 
Q 3341 2797 3341 1997 
z
" transform="scale(0.015625)"/>
      <path id="DejaVuSans-51" d="M 2522 4238 
Q 1834 4238 1429 3725 
Q 1025 3213 1025 2328 
Q 1025 1447 1429 934 
Q 1834 422 2522 422 
Q 3209 422 3611 934 
Q 4013 1447 4013 2328 
Q 4013 3213 3611 3725 
Q 3209 4238 2522 4238 
z
M 3406 84 
L 4238 -825 
L 3475 -825 
L 2784 -78 
Q 2681 -84 2626 -87 
Q 2572 -91 2522 -91 
Q 1538 -91 948 567 
Q 359 1225 359 2328 
Q 359 3434 948 4092 
Q 1538 4750 2522 4750 
Q 3503 4750 4090 4092 
Q 4678 3434 4678 2328 
Q 4678 1516 4351 937 
Q 4025 359 3406 84 
z
" transform="scale(0.015625)"/>
      <path id="DejaVuSans-43" d="M 4122 4306 
L 4122 3641 
Q 3803 3938 3442 4084 
Q 3081 4231 2675 4231 
Q 1875 4231 1450 3742 
Q 1025 3253 1025 2328 
Q 1025 1406 1450 917 
Q 1875 428 2675 428 
Q 3081 428 3442 575 
Q 3803 722 4122 1019 
L 4122 359 
Q 3791 134 3420 21 
Q 3050 -91 2638 -91 
Q 1578 -91 968 557 
Q 359 1206 359 2328 
Q 359 3453 968 4101 
Q 1578 4750 2638 4750 
Q 3056 4750 3426 4639 
Q 3797 4528 4122 4306 
z
" transform="scale(0.015625)"/>
      <path id="DejaVuSans-3a" d="M 750 794 
L 1409 794 
L 1409 0 
L 750 0 
L 750 794 
z
M 750 3309 
L 1409 3309 
L 1409 2516 
L 750 2516 
L 750 3309 
z
" transform="scale(0.015625)"/>
      <path id="DejaVuSans-4d" d="M 628 4666 
L 1569 4666 
L 2759 1491 
L 3956 4666 
L 4897 4666 
L 4897 0 
L 4281 0 
L 4281 4097 
L 3078 897 
L 2444 897 
L 1241 4097 
L 1241 0 
L 628 0 
L 628 4666 
z
" transform="scale(0.015625)"/>
      <path id="DejaVuSans-75" d="M 544 1381 
L 544 3500 
L 1119 3500 
L 1119 1403 
Q 1119 906 1312 657 
Q 1506 409 1894 409 
Q 2359 409 2629 706 
Q 2900 1003 2900 1516 
L 2900 3500 
L 3475 3500 
L 3475 0 
L 2900 0 
L 2900 538 
Q 2691 219 2414 64 
Q 2138 -91 1772 -91 
Q 1169 -91 856 284 
Q 544 659 544 1381 
z
M 1991 3584 
L 1991 3584 
z
" transform="scale(0.015625)"/>
      <path id="DejaVuSans-6c" d="M 603 4863 
L 1178 4863 
L 1178 0 
L 603 0 
L 603 4863 
z
" transform="scale(0.015625)"/>
      <path id="DejaVuSans-79" d="M 2059 -325 
Q 1816 -950 1584 -1140 
Q 1353 -1331 966 -1331 
L 506 -1331 
L 506 -850 
L 844 -850 
Q 1081 -850 1212 -737 
Q 1344 -625 1503 -206 
L 1606 56 
L 191 3500 
L 800 3500 
L 1894 763 
L 2988 3500 
L 3597 3500 
L 2059 -325 
z
" transform="scale(0.015625)"/>
     </defs>
     <use xlink:href="#DejaVuSans-46"/>
     <use xlink:href="#DejaVuSans-61" x="48.394531"/>
     <use xlink:href="#DejaVuSans-73" x="109.673828"/>
     <use xlink:href="#DejaVuSans-74" x="161.773438"/>
     <use xlink:href="#DejaVuSans-51" x="200.982422"/>
     <use xlink:href="#DejaVuSans-43" x="279.693359"/>
     <use xlink:href="#DejaVuSans-3a" x="349.517578"/>
     <use xlink:href="#DejaVuSans-20" x="383.208984"/>
     <use xlink:href="#DejaVuSans-4d" x="414.996094"/>
     <use xlink:href="#DejaVuSans-65" x="501.275391"/>
     <use xlink:href="#DejaVuSans-61" x="562.798828"/>
     <use xlink:href="#DejaVuSans-6e" x="624.078125"/>
     <use xlink:href="#DejaVuSans-20" x="687.457031"/>
     <use xlink:href="#DejaVuSans-51" x="719.244141"/>
     <use xlink:href="#DejaVuSans-75" x="797.955078"/>
     <use xlink:href="#DejaVuSans-61" x="861.333984"/>
     <use xlink:href="#DejaVuSans-6c" x="922.613281"/>
     <use xlink:href="#DejaVuSans-69" x="950.396484"/>
     <use xlink:href="#DejaVuSans-74" x="978.179688"/>
     <use xlink:href="#DejaVuSans-79" x="1017.388672"/>
     <use xlink:href="#DejaVuSans-20" x="1076.568359"/>
     <use xlink:href="#DejaVuSans-53" x="1108.355469"/>
     <use xlink:href="#DejaVuSans-63" x="1171.832031"/>
     <use xlink:href="#DejaVuSans-6f" x="1226.8125"/>
     <use xlink:href="#DejaVuSans-72" x="1287.994141"/>
     <use xlink:href="#DejaVuSans-65" x="1326.857422"/>
     <use xlink:href="#DejaVuSans-73" x="1388.380859"/>
    </g>
   </g>
   <g id="legend_1">
    <g id="line2d_22">
     <path d="M 45.258125 291.525394 
L 53.258125 291.525394 
L 61.258125 291.525394 
" style="fill: none; stroke: #5cb85c; stroke-linecap: square"/>
    </g>
    <g id="text_18">
     <!-- SRR5961980_T1_1 -->
     <g transform="translate(67.658125 294.325394) scale(0.08 -0.08)">
      <defs>
       <path id="DejaVuSans-52" d="M 2841 2188 
Q 3044 2119 3236 1894 
Q 3428 1669 3622 1275 
L 4263 0 
L 3584 0 
L 2988 1197 
Q 2756 1666 2539 1819 
Q 2322 1972 1947 1972 
L 1259 1972 
L 1259 0 
L 628 0 
L 628 4666 
L 2053 4666 
Q 2853 4666 3247 4331 
Q 3641 3997 3641 3322 
Q 3641 2881 3436 2590 
Q 3231 2300 2841 2188 
z
M 1259 4147 
L 1259 2491 
L 2053 2491 
Q 2509 2491 2742 2702 
Q 2975 2913 2975 3322 
Q 2975 3731 2742 3939 
Q 2509 4147 2053 4147 
L 1259 4147 
z
" transform="scale(0.015625)"/>
       <path id="DejaVuSans-39" d="M 703 97 
L 703 672 
Q 941 559 1184 500 
Q 1428 441 1663 441 
Q 2288 441 2617 861 
Q 2947 1281 2994 2138 
Q 2813 1869 2534 1725 
Q 2256 1581 1919 1581 
Q 1219 1581 811 2004 
Q 403 2428 403 3163 
Q 403 3881 828 4315 
Q 1253 4750 1959 4750 
Q 2769 4750 3195 4129 
Q 3622 3509 3622 2328 
Q 3622 1225 3098 567 
Q 2575 -91 1691 -91 
Q 1453 -91 1209 -44 
Q 966 3 703 97 
z
M 1959 2075 
Q 2384 2075 2632 2365 
Q 2881 2656 2881 3163 
Q 2881 3666 2632 3958 
Q 2384 4250 1959 4250 
Q 1534 4250 1286 3958 
Q 1038 3666 1038 3163 
Q 1038 2656 1286 2365 
Q 1534 2075 1959 2075 
z
" transform="scale(0.015625)"/>
       <path id="DejaVuSans-36" d="M 2113 2584 
Q 1688 2584 1439 2293 
Q 1191 2003 1191 1497 
Q 1191 994 1439 701 
Q 1688 409 2113 409 
Q 2538 409 2786 701 
Q 3034 994 3034 1497 
Q 3034 2003 2786 2293 
Q 2538 2584 2113 2584 
z
M 3366 4563 
L 3366 3988 
Q 3128 4100 2886 4159 
Q 2644 4219 2406 4219 
Q 1781 4219 1451 3797 
Q 1122 3375 1075 2522 
Q 1259 2794 1537 2939 
Q 1816 3084 2150 3084 
Q 2853 3084 3261 2657 
Q 3669 2231 3669 1497 
Q 3669 778 3244 343 
Q 2819 -91 2113 -91 
Q 1303 -91 875 529 
Q 447 1150 447 2328 
Q 447 3434 972 4092 
Q 1497 4750 2381 4750 
Q 2619 4750 2861 4703 
Q 3103 4656 3366 4563 
z
" transform="scale(0.015625)"/>
       <path id="DejaVuSans-38" d="M 2034 2216 
Q 1584 2216 1326 1975 
Q 1069 1734 1069 1313 
Q 1069 891 1326 650 
Q 1584 409 2034 409 
Q 2484 409 2743 651 
Q 3003 894 3003 1313 
Q 3003 1734 2745 1975 
Q 2488 2216 2034 2216 
z
M 1403 2484 
Q 997 2584 770 2862 
Q 544 3141 544 3541 
Q 544 4100 942 4425 
Q 1341 4750 2034 4750 
Q 2731 4750 3128 4425 
Q 3525 4100 3525 3541 
Q 3525 3141 3298 2862 
Q 3072 2584 2669 2484 
Q 3125 2378 3379 2068 
Q 3634 1759 3634 1313 
Q 3634 634 3220 271 
Q 2806 -91 2034 -91 
Q 1263 -91 848 271 
Q 434 634 434 1313 
Q 434 1759 690 2068 
Q 947 2378 1403 2484 
z
M 1172 3481 
Q 1172 3119 1398 2916 
Q 1625 2713 2034 2713 
Q 2441 2713 2670 2916 
Q 2900 3119 2900 3481 
Q 2900 3844 2670 4047 
Q 2441 4250 2034 4250 
Q 1625 4250 1398 4047 
Q 1172 3844 1172 3481 
z
" transform="scale(0.015625)"/>
       <path id="DejaVuSans-5f" d="M 3263 -1063 
L 3263 -1509 
L -63 -1509 
L -63 -1063 
L 3263 -1063 
z
" transform="scale(0.015625)"/>
       <path id="DejaVuSans-54" d="M -19 4666 
L 3928 4666 
L 3928 4134 
L 2272 4134 
L 2272 0 
L 1638 0 
L 1638 4134 
L -19 4134 
L -19 4666 
z
" transform="scale(0.015625)"/>
      </defs>
      <use xlink:href="#DejaVuSans-53"/>
      <use xlink:href="#DejaVuSans-52" x="63.476562"/>
      <use xlink:href="#DejaVuSans-52" x="132.958984"/>
      <use xlink:href="#DejaVuSans-35" x="202.441406"/>
      <use xlink:href="#DejaVuSans-39" x="266.064453"/>
      <use xlink:href="#DejaVuSans-36" x="329.6875"/>
      <use xlink:href="#DejaVuSans-31" x="393.310547"/>
      <use xlink:href="#DejaVuSans-39" x="456.933594"/>
      <use xlink:href="#DejaVuSans-38" x="520.556641"/>
      <use xlink:href="#DejaVuSans-30" x="584.179688"/>
      <use xlink:href="#DejaVuSans-5f" x="647.802734"/>
      <use xlink:href="#DejaVuSans-54" x="697.802734"/>
      <use xlink:href="#DejaVuSans-31" x="758.886719"/>
      <use xlink:href="#DejaVuSans-5f" x="822.509766"/>
      <use xlink:href="#DejaVuSans-31" x="872.509766"/>
     </g>
    </g>
    <g id="line2d_23">
     <path d="M 45.258125 303.490394 
L 53.258125 303.490394 
L 61.258125 303.490394 
" style="fill: none; stroke: #5cb85c; stroke-linecap: square"/>
    </g>
    <g id="text_19">
     <!-- SRR5961980_T1_2 -->
     <g transform="translate(67.658125 306.290394) scale(0.08 -0.08)">
      <use xlink:href="#DejaVuSans-53"/>
      <use xlink:href="#DejaVuSans-52" x="63.476562"/>
      <use xlink:href="#DejaVuSans-52" x="132.958984"/>
      <use xlink:href="#DejaVuSans-35" x="202.441406"/>
      <use xlink:href="#DejaVuSans-39" x="266.064453"/>
      <use xlink:href="#DejaVuSans-36" x="329.6875"/>
      <use xlink:href="#DejaVuSans-31" x="393.310547"/>
      <use xlink:href="#DejaVuSans-39" x="456.933594"/>
      <use xlink:href="#DejaVuSans-38" x="520.556641"/>
      <use xlink:href="#DejaVuSans-30" x="584.179688"/>
      <use xlink:href="#DejaVuSans-5f" x="647.802734"/>
      <use xlink:href="#DejaVuSans-54" x="697.802734"/>
      <use xlink:href="#DejaVuSans-31" x="758.886719"/>
      <use xlink:href="#DejaVuSans-5f" x="822.509766"/>
      <use xlink:href="#DejaVuSans-32" x="872.509766"/>
     </g>
    </g>
    <g id="line2d_24">
     <path d="M 45.258125 315.455394 
L 53.258125 315.455394 
L 61.258125 315.455394 
" style="fill: none; stroke: #5cb85c; stroke-linecap: square"/>
    </g>
    <g id="text_20">
     <!-- SRR5961981_T1_1 -->
     <g transform="translate(67.658125 318.255394) scale(0.08 -0.08)">
      <use xlink:href="#DejaVuSans-53"/>
      <use xlink:href="#DejaVuSans-52" x="63.476562"/>
      <use xlink:href="#DejaVuSans-52" x="132.958984"/>
      <use xlink:href="#DejaVuSans-35" x="202.441406"/>
      <use xlink:href="#DejaVuSans-39" x="266.064453"/>
      <use xlink:href="#DejaVuSans-36" x="329.6875"/>
      <use xlink:href="#DejaVuSans-31" x="393.310547"/>
      <use xlink:href="#DejaVuSans-39" x="456.933594"/>
      <use xlink:href="#DejaVuSans-38" x="520.556641"/>
      <use xlink:href="#DejaVuSans-31" x="584.179688"/>
      <use xlink:href="#DejaVuSans-5f" x="647.802734"/>
      <use xlink:href="#DejaVuSans-54" x="697.802734"/>
      <use xlink:href="#DejaVuSans-31" x="758.886719"/>
      <use xlink:href="#DejaVuSans-5f" x="822.509766"/>
      <use xlink:href="#DejaVuSans-31" x="872.509766"/>
     </g>
    </g>
    <g id="line2d_25">
     <path d="M 256.1 291.525394 
L 264.1 291.525394 
L 272.1 291.525394 
" style="fill: none; stroke: #5cb85c; stroke-linecap: square"/>
    </g>
    <g id="text_21">
     <!-- SRR5961981_T1_2 -->
     <g transform="translate(278.5 294.325394) scale(0.08 -0.08)">
      <use xlink:href="#DejaVuSans-53"/>
      <use xlink:href="#DejaVuSans-52" x="63.476562"/>
      <use xlink:href="#DejaVuSans-52" x="132.958984"/>
      <use xlink:href="#DejaVuSans-35" x="202.441406"/>
      <use xlink:href="#DejaVuSans-39" x="266.064453"/>
      <use xlink:href="#DejaVuSans-36" x="329.6875"/>
      <use xlink:href="#DejaVuSans-31" x="393.310547"/>
      <use xlink:href="#DejaVuSans-39" x="456.933594"/>
      <use xlink:href="#DejaVuSans-38" x="520.556641"/>
      <use xlink:href="#DejaVuSans-31" x="584.179688"/>
      <use xlink:href="#DejaVuSans-5f" x="647.802734"/>
      <use xlink:href="#DejaVuSans-54" x="697.802734"/>
      <use xlink:href="#DejaVuSans-31" x="758.886719"/>
      <use xlink:href="#DejaVuSans-5f" x="822.509766"/>
      <use xlink:href="#DejaVuSans-32" x="872.509766"/>
     </g>
    </g>
    <g id="line2d_26">
     <path d="M 256.1 303.490394 
L 264.1 303.490394 
L 272.1 303.490394 
" style="fill: none; stroke: #5cb85c; stroke-linecap: square"/>
    </g>
    <g id="text_22">
     <!-- SRR5961982_T1_1 -->
     <g transform="translate(278.5 306.290394) scale(0.08 -0.08)">
      <use xlink:href="#DejaVuSans-53"/>
      <use xlink:href="#DejaVuSans-52" x="63.476562"/>
      <use xlink:href="#DejaVuSans-52" x="132.958984"/>
      <use xlink:href="#DejaVuSans-35" x="202.441406"/>
      <use xlink:href="#DejaVuSans-39" x="266.064453"/>
      <use xlink:href="#DejaVuSans-36" x="329.6875"/>
      <use xlink:href="#DejaVuSans-31" x="393.310547"/>
      <use xlink:href="#DejaVuSans-39" x="456.933594"/>
      <use xlink:href="#DejaVuSans-38" x="520.556641"/>
      <use xlink:href="#DejaVuSans-32" x="584.179688"/>
      <use xlink:href="#DejaVuSans-5f" x="647.802734"/>
      <use xlink:href="#DejaVuSans-54" x="697.802734"/>
      <use xlink:href="#DejaVuSans-31" x="758.886719"/>
      <use xlink:href="#DejaVuSans-5f" x="822.509766"/>
      <use xlink:href="#DejaVuSans-31" x="872.509766"/>
     </g>
    </g>
    <g id="line2d_27">
     <path d="M 256.1 315.455394 
L 264.1 315.455394 
L 272.1 315.455394 
" style="fill: none; stroke: #5cb85c; stroke-linecap: square"/>
    </g>
    <g id="text_23">
     <!-- SRR5961982_T1_2 -->
     <g transform="translate(278.5 318.255394) scale(0.08 -0.08)">
      <use xlink:href="#DejaVuSans-53"/>
      <use xlink:href="#DejaVuSans-52" x="63.476562"/>
      <use xlink:href="#DejaVuSans-52" x="132.958984"/>
      <use xlink:href="#DejaVuSans-35" x="202.441406"/>
      <use xlink:href="#DejaVuSans-39" x="266.064453"/>
      <use xlink:href="#DejaVuSans-36" x="329.6875"/>
      <use xlink:href="#DejaVuSans-31" x="393.310547"/>
      <use xlink:href="#DejaVuSans-39" x="456.933594"/>
      <use xlink:href="#DejaVuSans-38" x="520.556641"/>
      <use xlink:href="#DejaVuSans-32" x="584.179688"/>
      <use xlink:href="#DejaVuSans-5f" x="647.802734"/>
      <use xlink:href="#DejaVuSans-54" x="697.802734"/>
      <use xlink:href="#DejaVuSans-31" x="758.886719"/>
      <use xlink:href="#DejaVuSans-5f" x="822.509766"/>
      <use xlink:href="#DejaVuSans-32" x="872.509766"/>
     </g>
    </g>
    <g id="line2d_28">
     <path d="M 466.941875 291.525394 
L 474.941875 291.525394 
L 482.941875 291.525394 
" style="fill: none; stroke: #5cb85c; stroke-linecap: square"/>
    </g>
    <g id="text_24">
     <!-- SRR5962008_T1_1 -->
     <g transform="translate(489.341875 294.325394) scale(0.08 -0.08)">
      <use xlink:href="#DejaVuSans-53"/>
      <use xlink:href="#DejaVuSans-52" x="63.476562"/>
      <use xlink:href="#DejaVuSans-52" x="132.958984"/>
      <use xlink:href="#DejaVuSans-35" x="202.441406"/>
      <use xlink:href="#DejaVuSans-39" x="266.064453"/>
      <use xlink:href="#DejaVuSans-36" x="329.6875"/>
      <use xlink:href="#DejaVuSans-32" x="393.310547"/>
      <use xlink:href="#DejaVuSans-30" x="456.933594"/>
      <use xlink:href="#DejaVuSans-30" x="520.556641"/>
      <use xlink:href="#DejaVuSans-38" x="584.179688"/>
      <use xlink:href="#DejaVuSans-5f" x="647.802734"/>
      <use xlink:href="#DejaVuSans-54" x="697.802734"/>
      <use xlink:href="#DejaVuSans-31" x="758.886719"/>
      <use xlink:href="#DejaVuSans-5f" x="822.509766"/>
      <use xlink:href="#DejaVuSans-31" x="872.509766"/>
     </g>
    </g>
    <g id="line2d_29">
     <path d="M 466.941875 303.490394 
L 474.941875 303.490394 
L 482.941875 303.490394 
" style="fill: none; stroke: #d9534f; stroke-linecap: square"/>
    </g>
    <g id="text_25">
     <!-- SRR5962008_T1_2 -->
     <g transform="translate(489.341875 306.290394) scale(0.08 -0.08)">
      <use xlink:href="#DejaVuSans-53"/>
      <use xlink:href="#DejaVuSans-52" x="63.476562"/>
      <use xlink:href="#DejaVuSans-52" x="132.958984"/>
      <use xlink:href="#DejaVuSans-35" x="202.441406"/>
      <use xlink:href="#DejaVuSans-39" x="266.064453"/>
      <use xlink:href="#DejaVuSans-36" x="329.6875"/>
      <use xlink:href="#DejaVuSans-32" x="393.310547"/>
      <use xlink:href="#DejaVuSans-30" x="456.933594"/>
      <use xlink:href="#DejaVuSans-30" x="520.556641"/>
      <use xlink:href="#DejaVuSans-38" x="584.179688"/>
      <use xlink:href="#DejaVuSans-5f" x="647.802734"/>
      <use xlink:href="#DejaVuSans-54" x="697.802734"/>
      <use xlink:href="#DejaVuSans-31" x="758.886719"/>
      <use xlink:href="#DejaVuSans-5f" x="822.509766"/>
      <use xlink:href="#DejaVuSans-32" x="872.509766"/>
     </g>
    </g>
    <g id="line2d_30">
     <path d="M 677.78375 291.525394 
L 685.78375 291.525394 
L 693.78375 291.525394 
" style="fill: none; stroke: #5cb85c; stroke-linecap: square"/>
    </g>
    <g id="text_26">
     <!-- SRR5962009_T1_1 -->
     <g transform="translate(700.18375 294.325394) scale(0.08 -0.08)">
      <use xlink:href="#DejaVuSans-53"/>
      <use xlink:href="#DejaVuSans-52" x="63.476562"/>
      <use xlink:href="#DejaVuSans-52" x="132.958984"/>
      <use xlink:href="#DejaVuSans-35" x="202.441406"/>
      <use xlink:href="#DejaVuSans-39" x="266.064453"/>
      <use xlink:href="#DejaVuSans-36" x="329.6875"/>
      <use xlink:href="#DejaVuSans-32" x="393.310547"/>
      <use xlink:href="#DejaVuSans-30" x="456.933594"/>
      <use xlink:href="#DejaVuSans-30" x="520.556641"/>
      <use xlink:href="#DejaVuSans-39" x="584.179688"/>
      <use xlink:href="#DejaVuSans-5f" x="647.802734"/>
      <use xlink:href="#DejaVuSans-54" x="697.802734"/>
      <use xlink:href="#DejaVuSans-31" x="758.886719"/>
      <use xlink:href="#DejaVuSans-5f" x="822.509766"/>
      <use xlink:href="#DejaVuSans-31" x="872.509766"/>
     </g>
    </g>
    <g id="line2d_31">
     <path d="M 677.78375 303.490394 
L 685.78375 303.490394 
L 693.78375 303.490394 
" style="fill: none; stroke: #d9534f; stroke-linecap: square"/>
    </g>
    <g id="text_27">
     <!-- SRR5962009_T1_2 -->
     <g transform="translate(700.18375 306.290394) scale(0.08 -0.08)">
      <use xlink:href="#DejaVuSans-53"/>
      <use xlink:href="#DejaVuSans-52" x="63.476562"/>
      <use xlink:href="#DejaVuSans-52" x="132.958984"/>
      <use xlink:href="#DejaVuSans-35" x="202.441406"/>
      <use xlink:href="#DejaVuSans-39" x="266.064453"/>
      <use xlink:href="#DejaVuSans-36" x="329.6875"/>
      <use xlink:href="#DejaVuSans-32" x="393.310547"/>
      <use xlink:href="#DejaVuSans-30" x="456.933594"/>
      <use xlink:href="#DejaVuSans-30" x="520.556641"/>
      <use xlink:href="#DejaVuSans-39" x="584.179688"/>
      <use xlink:href="#DejaVuSans-5f" x="647.802734"/>
      <use xlink:href="#DejaVuSans-54" x="697.802734"/>
      <use xlink:href="#DejaVuSans-31" x="758.886719"/>
      <use xlink:href="#DejaVuSans-5f" x="822.509766"/>
      <use xlink:href="#DejaVuSans-32" x="872.509766"/>
     </g>
    </g>
    <g id="line2d_32">
     <path d="M 888.625625 291.525394 
L 896.625625 291.525394 
L 904.625625 291.525394 
" style="fill: none; stroke: #5cb85c; stroke-linecap: square"/>
    </g>
    <g id="text_28">
     <!-- SRR5962010_T1_1 -->
     <g transform="translate(911.025625 294.325394) scale(0.08 -0.08)">
      <use xlink:href="#DejaVuSans-53"/>
      <use xlink:href="#DejaVuSans-52" x="63.476562"/>
      <use xlink:href="#DejaVuSans-52" x="132.958984"/>
      <use xlink:href="#DejaVuSans-35" x="202.441406"/>
      <use xlink:href="#DejaVuSans-39" x="266.064453"/>
      <use xlink:href="#DejaVuSans-36" x="329.6875"/>
      <use xlink:href="#DejaVuSans-32" x="393.310547"/>
      <use xlink:href="#DejaVuSans-30" x="456.933594"/>
      <use xlink:href="#DejaVuSans-31" x="520.556641"/>
      <use xlink:href="#DejaVuSans-30" x="584.179688"/>
      <use xlink:href="#DejaVuSans-5f" x="647.802734"/>
      <use xlink:href="#DejaVuSans-54" x="697.802734"/>
      <use xlink:href="#DejaVuSans-31" x="758.886719"/>
      <use xlink:href="#DejaVuSans-5f" x="822.509766"/>
      <use xlink:href="#DejaVuSans-31" x="872.509766"/>
     </g>
    </g>
    <g id="line2d_33">
     <path d="M 888.625625 303.490394 
L 896.625625 303.490394 
L 904.625625 303.490394 
" style="fill: none; stroke: #d9534f; stroke-linecap: square"/>
    </g>
    <g id="text_29">
     <!-- SRR5962010_T1_2 -->
     <g transform="translate(911.025625 306.290394) scale(0.08 -0.08)">
      <use xlink:href="#DejaVuSans-53"/>
      <use xlink:href="#DejaVuSans-52" x="63.476562"/>
      <use xlink:href="#DejaVuSans-52" x="132.958984"/>
      <use xlink:href="#DejaVuSans-35" x="202.441406"/>
      <use xlink:href="#DejaVuSans-39" x="266.064453"/>
      <use xlink:href="#DejaVuSans-36" x="329.6875"/>
      <use xlink:href="#DejaVuSans-32" x="393.310547"/>
      <use xlink:href="#DejaVuSans-30" x="456.933594"/>
      <use xlink:href="#DejaVuSans-31" x="520.556641"/>
      <use xlink:href="#DejaVuSans-30" x="584.179688"/>
      <use xlink:href="#DejaVuSans-5f" x="647.802734"/>
      <use xlink:href="#DejaVuSans-54" x="697.802734"/>
      <use xlink:href="#DejaVuSans-31" x="758.886719"/>
      <use xlink:href="#DejaVuSans-5f" x="822.509766"/>
      <use xlink:href="#DejaVuSans-32" x="872.509766"/>
     </g>
    </g>
   </g>
  </g>
 </g>
 <defs>
  <clipPath id="p81eed8e8a6">
   <rect x="38.058125" y="31.48286" width="955.06" height="242.5072"/>
  </clipPath>
 </defs>
</svg>
