<?xml version="1.0" encoding="utf-8" standalone="no"?>
<!DOCTYPE svg PUBLIC "-//W3C//DTD SVG 1.1//EN"
  "http://www.w3.org/Graphics/SVG/1.1/DTD/svg11.dtd">
<svg xmlns:xlink="http://www.w3.org/1999/xlink" width="1000.098125pt" height="330.541644pt" viewBox="0 0 1000.098125 330.541644" xmlns="http://www.w3.org/2000/svg" version="1.1">
 <metadata>
  <rdf:RDF xmlns:dc="http://purl.org/dc/elements/1.1/" xmlns:cc="http://creativecommons.org/ns#" xmlns:rdf="http://www.w3.org/1999/02/22-rdf-syntax-ns#">
   <cc:Work>
    <dc:type rdf:resource="http://purl.org/dc/dcmitype/StillImage"/>
    <dc:date>2025-08-20T15:21:02.649966</dc:date>
    <dc:format>image/svg+xml</dc:format>
    <dc:creator>
     <cc:Agent>
      <dc:title>Matplotlib v3.6.2, https://matplotlib.org/</dc:title>
     </cc:Agent>
    </dc:creator>
   </cc:Work>
  </rdf:RDF>
 </metadata>
 <defs>
  <style type="text/css">*{stroke-linejoin: round; stroke-linecap: butt}</style>
 </defs>
 <g id="figure_1">
  <g id="axes_1">
   <g id="patch_1">
    <path d="M 58.418125 273.99006 
L 985.263125 273.99006 
L 985.263125 31.48286 
L 58.418125 31.48286 
z
" style="fill: #ffffff"/>
   </g>
   <g id="matplotlib.axis_1">
    <g id="xtick_1">
     <g id="text_1">
      <!-- 0 -->
      <g transform="translate(55.873125 287.06881) scale(0.08 -0.08)">
       <defs>
        <path id="DejaVuSans-30" d="M 2034 4250 
Q 1547 4250 1301 3770 
Q 1056 3291 1056 2328 
Q 1056 1369 1301 889 
Q 1547 409 2034 409 
Q 2525 409 2770 889 
Q 3016 1369 3016 2328 
Q 3016 3291 2770 3770 
Q 2525 4250 2034 4250 
z
M 2034 4750 
Q 2819 4750 3233 4129 
Q 3647 3509 3647 2328 
Q 3647 1150 3233 529 
Q 2819 -91 2034 -91 
Q 1250 -91 836 529 
Q 422 1150 422 2328 
Q 422 3509 836 4129 
Q 1250 4750 2034 4750 
z
" transform="scale(0.015625)"/>
       </defs>
       <use xlink:href="#DejaVuSans-30"/>
      </g>
     </g>
    </g>
    <g id="xtick_2">
     <g id="text_2">
      <!-- 20 -->
      <g transform="translate(238.697125 287.06881) scale(0.08 -0.08)">
       <defs>
        <path id="DejaVuSans-32" d="M 1228 531 
L 3431 531 
L 3431 0 
L 469 0 
L 469 531 
Q 828 903 1448 1529 
Q 2069 2156 2228 2338 
Q 2531 2678 2651 2914 
Q 2772 3150 2772 3378 
Q 2772 3750 2511 3984 
Q 2250 4219 1831 4219 
Q 1534 4219 1204 4116 
Q 875 4013 500 3803 
L 500 4441 
Q 881 4594 1212 4672 
Q 1544 4750 1819 4750 
Q 2544 4750 2975 4387 
Q 3406 4025 3406 3419 
Q 3406 3131 3298 2873 
Q 3191 2616 2906 2266 
Q 2828 2175 2409 1742 
Q 1991 1309 1228 531 
z
" transform="scale(0.015625)"/>
       </defs>
       <use xlink:href="#DejaVuSans-32"/>
       <use xlink:href="#DejaVuSans-30" x="63.623047"/>
      </g>
     </g>
    </g>
    <g id="xtick_3">
     <g id="text_3">
      <!-- 40 -->
      <g transform="translate(424.066125 287.06881) scale(0.08 -0.08)">
       <defs>
        <path id="DejaVuSans-34" d="M 2419 4116 
L 825 1625 
L 2419 1625 
L 2419 4116 
z
M 2253 4666 
L 3047 4666 
L 3047 1625 
L 3713 1625 
L 3713 1100 
L 3047 1100 
L 3047 0 
L 2419 0 
L 2419 1100 
L 313 1100 
L 313 1709 
L 2253 4666 
z
" transform="scale(0.015625)"/>
       </defs>
       <use xlink:href="#DejaVuSans-34"/>
       <use xlink:href="#DejaVuSans-30" x="63.623047"/>
      </g>
     </g>
    </g>
    <g id="xtick_4">
     <g id="text_4">
      <!-- 60 -->
      <g transform="translate(609.435125 287.06881) scale(0.08 -0.08)">
       <defs>
        <path id="DejaVuSans-36" d="M 2113 2584 
Q 1688 2584 1439 2293 
Q 1191 2003 1191 1497 
Q 1191 994 1439 701 
Q 1688 409 2113 409 
Q 2538 409 2786 701 
Q 3034 994 3034 1497 
Q 3034 2003 2786 2293 
Q 2538 2584 2113 2584 
z
M 3366 4563 
L 3366 3988 
Q 3128 4100 2886 4159 
Q 2644 4219 2406 4219 
Q 1781 4219 1451 3797 
Q 1122 3375 1075 2522 
Q 1259 2794 1537 2939 
Q 1816 3084 2150 3084 
Q 2853 3084 3261 2657 
Q 3669 2231 3669 1497 
Q 3669 778 3244 343 
Q 2819 -91 2113 -91 
Q 1303 -91 875 529 
Q 447 1150 447 2328 
Q 447 3434 972 4092 
Q 1497 4750 2381 4750 
Q 2619 4750 2861 4703 
Q 3103 4656 3366 4563 
z
" transform="scale(0.015625)"/>
       </defs>
       <use xlink:href="#DejaVuSans-36"/>
       <use xlink:href="#DejaVuSans-30" x="63.623047"/>
      </g>
     </g>
    </g>
    <g id="xtick_5">
     <g id="text_5">
      <!-- 80 -->
      <g transform="translate(794.804125 287.06881) scale(0.08 -0.08)">
       <defs>
        <path id="DejaVuSans-38" d="M 2034 2216 
Q 1584 2216 1326 1975 
Q 1069 1734 1069 1313 
Q 1069 891 1326 650 
Q 1584 409 2034 409 
Q 2484 409 2743 651 
Q 3003 894 3003 1313 
Q 3003 1734 2745 1975 
Q 2488 2216 2034 2216 
z
M 1403 2484 
Q 997 2584 770 2862 
Q 544 3141 544 3541 
Q 544 4100 942 4425 
Q 1341 4750 2034 4750 
Q 2731 4750 3128 4425 
Q 3525 4100 3525 3541 
Q 3525 3141 3298 2862 
Q 3072 2584 2669 2484 
Q 3125 2378 3379 2068 
Q 3634 1759 3634 1313 
Q 3634 634 3220 271 
Q 2806 -91 2034 -91 
Q 1263 -91 848 271 
Q 434 634 434 1313 
Q 434 1759 690 2068 
Q 947 2378 1403 2484 
z
M 1172 3481 
Q 1172 3119 1398 2916 
Q 1625 2713 2034 2713 
Q 2441 2713 2670 2916 
Q 2900 3119 2900 3481 
Q 2900 3844 2670 4047 
Q 2441 4250 2034 4250 
Q 1625 4250 1398 4047 
Q 1172 3844 1172 3481 
z
" transform="scale(0.015625)"/>
       </defs>
       <use xlink:href="#DejaVuSans-38"/>
       <use xlink:href="#DejaVuSans-30" x="63.623047"/>
      </g>
     </g>
    </g>
    <g id="xtick_6">
     <g id="text_6">
      <!-- 100 -->
      <g transform="translate(977.628125 287.06881) scale(0.08 -0.08)">
       <defs>
        <path id="DejaVuSans-31" d="M 794 531 
L 1825 531 
L 1825 4091 
L 703 3866 
L 703 4441 
L 1819 4666 
L 2450 4666 
L 2450 531 
L 3481 531 
L 3481 0 
L 794 0 
L 794 531 
z
" transform="scale(0.015625)"/>
       </defs>
       <use xlink:href="#DejaVuSans-31"/>
       <use xlink:href="#DejaVuSans-30" x="63.623047"/>
       <use xlink:href="#DejaVuSans-30" x="127.246094"/>
      </g>
     </g>
    </g>
    <g id="text_7">
     <!-- % GC -->
     <g transform="translate(508.135156 300.330997) scale(0.1 -0.1)">
      <defs>
       <path id="DejaVuSans-25" d="M 4653 2053 
Q 4381 2053 4226 1822 
Q 4072 1591 4072 1178 
Q 4072 772 4226 539 
Q 4381 306 4653 306 
Q 4919 306 5073 539 
Q 5228 772 5228 1178 
Q 5228 1588 5073 1820 
Q 4919 2053 4653 2053 
z
M 4653 2450 
Q 5147 2450 5437 2106 
Q 5728 1763 5728 1178 
Q 5728 594 5436 251 
Q 5144 -91 4653 -91 
Q 4153 -91 3862 251 
Q 3572 594 3572 1178 
Q 3572 1766 3864 2108 
Q 4156 2450 4653 2450 
z
M 1428 4353 
Q 1159 4353 1004 4120 
Q 850 3888 850 3481 
Q 850 3069 1003 2837 
Q 1156 2606 1428 2606 
Q 1700 2606 1854 2837 
Q 2009 3069 2009 3481 
Q 2009 3884 1853 4118 
Q 1697 4353 1428 4353 
z
M 4250 4750 
L 4750 4750 
L 1831 -91 
L 1331 -91 
L 4250 4750 
z
M 1428 4750 
Q 1922 4750 2215 4408 
Q 2509 4066 2509 3481 
Q 2509 2891 2217 2550 
Q 1925 2209 1428 2209 
Q 931 2209 642 2551 
Q 353 2894 353 3481 
Q 353 4063 643 4406 
Q 934 4750 1428 4750 
z
" transform="scale(0.015625)"/>
       <path id="DejaVuSans-20" transform="scale(0.015625)"/>
       <path id="DejaVuSans-47" d="M 3809 666 
L 3809 1919 
L 2778 1919 
L 2778 2438 
L 4434 2438 
L 4434 434 
Q 4069 175 3628 42 
Q 3188 -91 2688 -91 
Q 1594 -91 976 548 
Q 359 1188 359 2328 
Q 359 3472 976 4111 
Q 1594 4750 2688 4750 
Q 3144 4750 3555 4637 
Q 3966 4525 4313 4306 
L 4313 3634 
Q 3963 3931 3569 4081 
Q 3175 4231 2741 4231 
Q 1884 4231 1454 3753 
Q 1025 3275 1025 2328 
Q 1025 1384 1454 906 
Q 1884 428 2741 428 
Q 3075 428 3337 486 
Q 3600 544 3809 666 
z
" transform="scale(0.015625)"/>
       <path id="DejaVuSans-43" d="M 4122 4306 
L 4122 3641 
Q 3803 3938 3442 4084 
Q 3081 4231 2675 4231 
Q 1875 4231 1450 3742 
Q 1025 3253 1025 2328 
Q 1025 1406 1450 917 
Q 1875 428 2675 428 
Q 3081 428 3442 575 
Q 3803 722 4122 1019 
L 4122 359 
Q 3791 134 3420 21 
Q 3050 -91 2638 -91 
Q 1578 -91 968 557 
Q 359 1206 359 2328 
Q 359 3453 968 4101 
Q 1578 4750 2638 4750 
Q 3056 4750 3426 4639 
Q 3797 4528 4122 4306 
z
" transform="scale(0.015625)"/>
      </defs>
      <use xlink:href="#DejaVuSans-25"/>
      <use xlink:href="#DejaVuSans-20" x="95.019531"/>
      <use xlink:href="#DejaVuSans-47" x="126.806641"/>
      <use xlink:href="#DejaVuSans-43" x="204.296875"/>
     </g>
    </g>
   </g>
   <g id="matplotlib.axis_2">
    <g id="ytick_1">
     <g id="line2d_1">
      <path d="M 58.418125 273.99006 
L 985.263125 273.99006 
" clip-path="url(#p69e39f90b9)" style="fill: none; stroke: #dedede; stroke-linecap: square"/>
     </g>
     <g id="text_8">
      <!-- 0 -->
      <g transform="translate(46.328125 277.029435) scale(0.08 -0.08)">
       <use xlink:href="#DejaVuSans-30"/>
      </g>
     </g>
    </g>
    <g id="ytick_2">
     <g id="line2d_2">
      <path d="M 58.418125 223.206227 
L 985.263125 223.206227 
" clip-path="url(#p69e39f90b9)" style="fill: none; stroke: #dedede; stroke-linecap: square"/>
     </g>
     <g id="text_9">
      <!-- 50000 -->
      <g transform="translate(25.968125 226.245602) scale(0.08 -0.08)">
       <defs>
        <path id="DejaVuSans-35" d="M 691 4666 
L 3169 4666 
L 3169 4134 
L 1269 4134 
L 1269 2991 
Q 1406 3038 1543 3061 
Q 1681 3084 1819 3084 
Q 2600 3084 3056 2656 
Q 3513 2228 3513 1497 
Q 3513 744 3044 326 
Q 2575 -91 1722 -91 
Q 1428 -91 1123 -41 
Q 819 9 494 109 
L 494 744 
Q 775 591 1075 516 
Q 1375 441 1709 441 
Q 2250 441 2565 725 
Q 2881 1009 2881 1497 
Q 2881 1984 2565 2268 
Q 2250 2553 1709 2553 
Q 1456 2553 1204 2497 
Q 953 2441 691 2322 
L 691 4666 
z
" transform="scale(0.015625)"/>
       </defs>
       <use xlink:href="#DejaVuSans-35"/>
       <use xlink:href="#DejaVuSans-30" x="63.623047"/>
       <use xlink:href="#DejaVuSans-30" x="127.246094"/>
       <use xlink:href="#DejaVuSans-30" x="190.869141"/>
       <use xlink:href="#DejaVuSans-30" x="254.492188"/>
      </g>
     </g>
    </g>
    <g id="ytick_3">
     <g id="line2d_3">
      <path d="M 58.418125 172.422394 
L 985.263125 172.422394 
" clip-path="url(#p69e39f90b9)" style="fill: none; stroke: #dedede; stroke-linecap: square"/>
     </g>
     <g id="text_10">
      <!-- 100000 -->
      <g transform="translate(20.878125 175.461769) scale(0.08 -0.08)">
       <use xlink:href="#DejaVuSans-31"/>
       <use xlink:href="#DejaVuSans-30" x="63.623047"/>
       <use xlink:href="#DejaVuSans-30" x="127.246094"/>
       <use xlink:href="#DejaVuSans-30" x="190.869141"/>
       <use xlink:href="#DejaVuSans-30" x="254.492188"/>
       <use xlink:href="#DejaVuSans-30" x="318.115234"/>
      </g>
     </g>
    </g>
    <g id="ytick_4">
     <g id="line2d_4">
      <path d="M 58.418125 121.638561 
L 985.263125 121.638561 
" clip-path="url(#p69e39f90b9)" style="fill: none; stroke: #dedede; stroke-linecap: square"/>
     </g>
     <g id="text_11">
      <!-- 150000 -->
      <g transform="translate(20.878125 124.677936) scale(0.08 -0.08)">
       <use xlink:href="#DejaVuSans-31"/>
       <use xlink:href="#DejaVuSans-35" x="63.623047"/>
       <use xlink:href="#DejaVuSans-30" x="127.246094"/>
       <use xlink:href="#DejaVuSans-30" x="190.869141"/>
       <use xlink:href="#DejaVuSans-30" x="254.492188"/>
       <use xlink:href="#DejaVuSans-30" x="318.115234"/>
      </g>
     </g>
    </g>
    <g id="ytick_5">
     <g id="line2d_5">
      <path d="M 58.418125 70.854728 
L 985.263125 70.854728 
" clip-path="url(#p69e39f90b9)" style="fill: none; stroke: #dedede; stroke-linecap: square"/>
     </g>
     <g id="text_12">
      <!-- 200000 -->
      <g transform="translate(20.878125 73.894103) scale(0.08 -0.08)">
       <use xlink:href="#DejaVuSans-32"/>
       <use xlink:href="#DejaVuSans-30" x="63.623047"/>
       <use xlink:href="#DejaVuSans-30" x="127.246094"/>
       <use xlink:href="#DejaVuSans-30" x="190.869141"/>
       <use xlink:href="#DejaVuSans-30" x="254.492188"/>
       <use xlink:href="#DejaVuSans-30" x="318.115234"/>
      </g>
     </g>
    </g>
    <g id="text_13">
     <!-- Count -->
     <g transform="translate(14.798438 167.584897) rotate(-90) scale(0.1 -0.1)">
      <defs>
       <path id="DejaVuSans-6f" d="M 1959 3097 
Q 1497 3097 1228 2736 
Q 959 2375 959 1747 
Q 959 1119 1226 758 
Q 1494 397 1959 397 
Q 2419 397 2687 759 
Q 2956 1122 2956 1747 
Q 2956 2369 2687 2733 
Q 2419 3097 1959 3097 
z
M 1959 3584 
Q 2709 3584 3137 3096 
Q 3566 2609 3566 1747 
Q 3566 888 3137 398 
Q 2709 -91 1959 -91 
Q 1206 -91 779 398 
Q 353 888 353 1747 
Q 353 2609 779 3096 
Q 1206 3584 1959 3584 
z
" transform="scale(0.015625)"/>
       <path id="DejaVuSans-75" d="M 544 1381 
L 544 3500 
L 1119 3500 
L 1119 1403 
Q 1119 906 1312 657 
Q 1506 409 1894 409 
Q 2359 409 2629 706 
Q 2900 1003 2900 1516 
L 2900 3500 
L 3475 3500 
L 3475 0 
L 2900 0 
L 2900 538 
Q 2691 219 2414 64 
Q 2138 -91 1772 -91 
Q 1169 -91 856 284 
Q 544 659 544 1381 
z
M 1991 3584 
L 1991 3584 
z
" transform="scale(0.015625)"/>
       <path id="DejaVuSans-6e" d="M 3513 2113 
L 3513 0 
L 2938 0 
L 2938 2094 
Q 2938 2591 2744 2837 
Q 2550 3084 2163 3084 
Q 1697 3084 1428 2787 
Q 1159 2491 1159 1978 
L 1159 0 
L 581 0 
L 581 3500 
L 1159 3500 
L 1159 2956 
Q 1366 3272 1645 3428 
Q 1925 3584 2291 3584 
Q 2894 3584 3203 3211 
Q 3513 2838 3513 2113 
z
" transform="scale(0.015625)"/>
       <path id="DejaVuSans-74" d="M 1172 4494 
L 1172 3500 
L 2356 3500 
L 2356 3053 
L 1172 3053 
L 1172 1153 
Q 1172 725 1289 603 
Q 1406 481 1766 481 
L 2356 481 
L 2356 0 
L 1766 0 
Q 1100 0 847 248 
Q 594 497 594 1153 
L 594 3053 
L 172 3053 
L 172 3500 
L 594 3500 
L 594 4494 
L 1172 4494 
z
" transform="scale(0.015625)"/>
      </defs>
      <use xlink:href="#DejaVuSans-43"/>
      <use xlink:href="#DejaVuSans-6f" x="69.824219"/>
      <use xlink:href="#DejaVuSans-75" x="131.005859"/>
      <use xlink:href="#DejaVuSans-6e" x="194.384766"/>
      <use xlink:href="#DejaVuSans-74" x="257.763672"/>
     </g>
    </g>
   </g>
   <g id="line2d_6">
    <path d="M 58.418125 273.775752 
L 67.686575 273.819934 
L 76.955025 273.879351 
L 86.223475 273.911345 
L 95.491925 273.927088 
L 104.760375 273.918455 
L 114.028825 273.90068 
L 123.297275 273.87021 
L 132.565725 273.838216 
L 141.834175 273.762041 
L 151.102625 273.674692 
L 160.371075 273.543162 
L 169.639525 273.416711 
L 178.907975 273.147048 
L 188.176425 272.85301 
L 197.444875 272.181648 
L 206.713325 271.489464 
L 215.981775 270.224439 
L 225.250225 268.890347 
L 234.518675 266.534485 
L 243.787125 264.168467 
L 253.055575 260.36425 
L 262.324025 256.537688 
L 271.592475 250.707196 
L 280.860925 244.919363 
L 290.129375 237.610553 
L 299.397825 230.108766 
L 308.666275 220.833098 
L 317.934725 211.446723 
L 327.203175 200.658205 
L 336.471625 189.920979 
L 345.740075 177.583555 
L 355.008525 165.098857 
L 364.276975 153.754257 
L 373.545425 142.499036 
L 382.813875 131.73134 
L 392.082325 120.97634 
L 401.350775 111.788529 
L 410.619225 102.634743 
L 419.887675 95.469652 
L 429.156125 88.400034 
L 438.424575 86.262035 
L 447.693025 84.185992 
L 456.961475 86.796281 
L 466.229925 89.626464 
L 475.498375 94.513392 
L 484.766825 99.497825 
L 494.035275 105.712751 
L 503.303725 111.891112 
L 512.572175 119.527985 
L 521.840625 127.14556 
L 531.109075 134.796652 
L 540.377525 142.43708 
L 549.645975 149.718466 
L 558.914425 156.992742 
L 568.182875 162.643967 
L 577.451325 168.299255 
L 586.719775 169.212348 
L 595.988225 170.194507 
L 605.256675 170.936459 
L 614.525125 171.810449 
L 623.793575 175.198746 
L 633.062025 178.729746 
L 642.330475 191.905104 
L 651.598925 205.347584 
L 660.867375 220.293266 
L 670.135825 235.270942 
L 679.404275 239.219893 
L 688.672725 242.760542 
L 697.941175 243.709184 
L 707.209625 244.497349 
L 716.478075 243.2567 
L 725.746525 242.181606 
L 735.014975 234.024199 
L 744.283425 225.857143 
L 753.551875 245.658775 
L 762.820325 265.788471 
L 772.088775 268.343406 
L 781.357225 270.525079 
L 790.625675 271.235037 
L 799.894125 271.88507 
L 809.162575 272.240049 
L 818.431025 272.480764 
L 827.699475 272.706753 
L 836.967925 272.96575 
L 846.236375 273.094233 
L 855.504825 273.213067 
L 864.773275 273.313112 
L 874.041725 273.37456 
L 883.310175 273.478667 
L 892.578625 273.637112 
L 901.847075 273.709733 
L 911.115525 273.731062 
L 920.383975 273.816379 
L 929.652425 273.898141 
L 938.920875 273.913376 
L 948.189325 273.913884 
L 957.457775 273.942323 
L 966.726225 273.976856 
L 975.994675 273.98295 
L 985.263125 273.98295 
" clip-path="url(#p69e39f90b9)" style="fill: none; stroke: #f0ad4e; stroke-linecap: square"/>
   </g>
   <g id="line2d_7">
    <path d="M 58.418125 269.036605 
L 67.686575 269.882664 
L 76.955025 270.650007 
L 86.223475 271.002955 
L 95.491925 271.489464 
L 104.760375 271.567163 
L 114.028825 271.545834 
L 123.297275 271.487941 
L 132.565725 271.471182 
L 141.834175 271.392975 
L 151.102625 271.274141 
L 160.371075 271.078115 
L 169.639525 270.893262 
L 178.907975 270.317373 
L 188.176425 269.746055 
L 197.444875 268.70651 
L 206.713325 267.640557 
L 215.981775 265.834176 
L 225.250225 263.961269 
L 234.518675 260.632388 
L 243.787125 257.267959 
L 253.055575 252.378492 
L 262.324025 247.471758 
L 271.592475 241.032368 
L 280.860925 234.622433 
L 290.129375 226.818989 
L 299.397825 218.754516 
L 308.666275 210.243146 
L 317.934725 201.694195 
L 327.203175 192.518572 
L 336.471625 183.405921 
L 345.740075 174.518243 
L 355.008525 165.598062 
L 364.276975 158.509655 
L 373.545425 151.354213 
L 382.813875 145.4511 
L 392.082325 139.854722 
L 401.350775 137.546089 
L 410.619225 135.129794 
L 419.887675 134.743329 
L 429.156125 134.570664 
L 438.424575 136.772651 
L 447.693025 139.028469 
L 456.961475 143.866137 
L 466.229925 148.764237 
L 475.498375 154.374327 
L 484.766825 160.015396 
L 494.035275 165.401021 
L 503.303725 170.765825 
L 512.572175 177.758251 
L 521.840625 184.839041 
L 531.109075 191.514576 
L 540.377525 198.183001 
L 549.645975 203.06282 
L 558.914425 208.014243 
L 568.182875 212.953479 
L 577.451325 217.80689 
L 586.719775 221.554229 
L 595.988225 225.407198 
L 605.256675 229.457209 
L 614.525125 233.546323 
L 623.793575 236.04438 
L 633.062025 238.335746 
L 642.330475 237.423669 
L 651.598925 236.545616 
L 660.867375 240.234554 
L 670.135825 244.077874 
L 679.404275 245.547051 
L 688.672725 246.937512 
L 697.941175 245.619164 
L 707.209625 244.63345 
L 716.478075 249.554911 
L 725.746525 254.482974 
L 735.014975 261.330666 
L 744.283425 267.924439 
L 753.551875 269.880124 
L 762.820325 271.743383 
L 772.088775 272.285247 
L 781.357225 272.767185 
L 790.625675 273.02923 
L 799.894125 273.253694 
L 809.162575 273.416203 
L 818.431025 273.541131 
L 827.699475 273.641175 
L 836.967925 273.745282 
L 846.236375 273.810285 
L 855.504825 273.851928 
L 864.773275 273.872242 
L 874.041725 273.890016 
L 883.310175 273.906775 
L 892.578625 273.921502 
L 901.847075 273.9408 
L 911.115525 273.960605 
L 920.383975 273.973301 
L 929.652425 273.978888 
L 938.920875 273.979395 
L 948.189325 273.979395 
L 957.457775 273.981935 
L 966.726225 273.985489 
L 975.994675 273.986505 
L 985.263125 273.987013 
" clip-path="url(#p69e39f90b9)" style="fill: none; stroke: #f0ad4e; stroke-linecap: square"/>
   </g>
   <g id="line2d_8">
    <path d="M 58.418125 273.867163 
L 67.686575 273.88189 
L 76.955025 273.90068 
L 86.223475 273.914392 
L 95.491925 273.923533 
L 104.760375 273.912869 
L 114.028825 273.900173 
L 123.297275 273.883414 
L 132.565725 273.856499 
L 141.834175 273.789972 
L 151.102625 273.718874 
L 160.371075 273.610197 
L 169.639525 273.50152 
L 178.907975 273.202911 
L 188.176425 272.891098 
L 197.444875 272.292356 
L 206.713325 271.681935 
L 215.981775 270.588051 
L 225.250225 269.449985 
L 234.518675 267.303353 
L 243.787125 265.129805 
L 253.055575 261.712053 
L 262.324025 258.27094 
L 271.592475 253.293617 
L 280.860925 248.271096 
L 290.129375 241.903311 
L 299.397825 235.519275 
L 308.666275 227.514727 
L 317.934725 219.369001 
L 327.203175 210.179666 
L 336.471625 201.022833 
L 345.740075 191.352068 
L 355.008525 181.56907 
L 364.276975 172.211641 
L 373.545425 162.87808 
L 382.813875 155.140656 
L 392.082325 147.444873 
L 401.350775 141.39855 
L 410.619225 135.452779 
L 419.887675 131.020874 
L 429.156125 126.661082 
L 438.424575 125.571261 
L 447.693025 124.551522 
L 456.961475 127.687423 
L 466.229925 130.897469 
L 475.498375 135.154678 
L 484.766825 139.609436 
L 494.035275 145.096629 
L 503.303725 150.448229 
L 512.572175 156.829218 
L 521.840625 163.28689 
L 531.109075 169.432242 
L 540.377525 175.534427 
L 549.645975 180.858604 
L 558.914425 186.26302 
L 568.182875 191.621222 
L 577.451325 196.955556 
L 586.719775 198.829479 
L 595.988225 200.706958 
L 605.256675 201.653568 
L 614.525125 202.781985 
L 623.793575 207.497772 
L 633.062025 212.255709 
L 642.330475 221.391721 
L 651.598925 230.549569 
L 660.867375 239.488032 
L 670.135825 248.45341 
L 679.404275 251.235348 
L 688.672725 253.792314 
L 697.941175 254.921746 
L 707.209625 256.020709 
L 716.478075 256.111612 
L 725.746525 256.243142 
L 735.014975 252.654756 
L 744.283425 249.137468 
L 753.551875 259.378028 
L 762.820325 269.649058 
L 772.088775 271.024792 
L 781.357225 272.19282 
L 790.625675 272.533072 
L 799.894125 272.885004 
L 809.162575 273.110484 
L 818.431025 273.276039 
L 827.699475 273.387764 
L 836.967925 273.511168 
L 846.236375 273.573125 
L 855.504825 273.622385 
L 864.773275 273.674692 
L 874.041725 273.714812 
L 883.310175 273.768642 
L 892.578625 273.840248 
L 901.847075 273.869702 
L 911.115525 273.88189 
L 920.383975 273.915916 
L 929.652425 273.94537 
L 938.920875 273.950449 
L 948.189325 273.950449 
L 957.457775 273.966192 
L 966.726225 273.985489 
L 975.994675 273.989044 
L 985.263125 273.989044 
" clip-path="url(#p69e39f90b9)" style="fill: none; stroke: #f0ad4e; stroke-linecap: square"/>
   </g>
   <g id="line2d_9">
    <path d="M 58.418125 273.869194 
L 67.686575 273.877828 
L 76.955025 273.877828 
L 86.223475 273.87021 
L 95.491925 273.868687 
L 104.760375 273.844818 
L 114.028825 273.810285 
L 123.297275 273.753407 
L 132.565725 273.696022 
L 141.834175 273.635589 
L 151.102625 273.570586 
L 160.371075 273.398428 
L 169.639525 273.22424 
L 178.907975 272.795624 
L 188.176425 272.329429 
L 197.444875 271.547358 
L 206.713325 270.767318 
L 215.981775 269.181339 
L 225.250225 267.560319 
L 234.518675 264.653452 
L 243.787125 261.669902 
L 253.055575 256.968335 
L 262.324025 252.285558 
L 271.592475 245.553653 
L 280.860925 238.73897 
L 290.129375 231.326562 
L 299.397825 222.150431 
L 308.666275 211.436566 
L 317.934725 200.41749 
L 327.203175 187.850015 
L 336.471625 174.979868 
L 345.740075 161.463751 
L 355.008525 147.75821 
L 364.276975 134.726062 
L 373.545425 122.055496 
L 382.813875 111.594027 
L 392.082325 101.586057 
L 401.350775 92.774046 
L 410.619225 84.309397 
L 419.887675 78.584027 
L 429.156125 73.39138 
L 438.424575 71.70231 
L 447.693025 71.426554 
L 456.961475 75.506527 
L 466.229925 80.259894 
L 475.498375 86.572832 
L 484.766825 93.326574 
L 494.035275 101.894314 
L 503.303725 110.649447 
L 512.572175 119.204492 
L 521.840625 127.679806 
L 531.109075 136.90215 
L 540.377525 146.013785 
L 549.645975 154.132089 
L 558.914425 162.274261 
L 568.182875 168.556221 
L 577.451325 174.298857 
L 586.719775 177.198106 
L 595.988225 179.987154 
L 605.256675 182.526853 
L 614.525125 184.600865 
L 623.793575 188.628531 
L 633.062025 194.788102 
L 642.330475 207.465778 
L 651.598925 219.988563 
L 660.867375 231.322499 
L 670.135825 242.16434 
L 679.404275 245.709559 
L 688.672725 247.220378 
L 697.941175 247.151312 
L 707.209625 248.13855 
L 716.478075 249.616359 
L 725.746525 248.611855 
L 735.014975 241.611812 
L 744.283425 238.887259 
L 753.551875 253.98123 
L 762.820325 266.821922 
L 772.088775 269.334198 
L 781.357225 271.595094 
L 790.625675 272.077033 
L 799.894125 272.52647 
L 809.162575 272.78953 
L 818.431025 272.990634 
L 827.699475 273.169901 
L 836.967925 273.34409 
L 846.236375 273.415695 
L 855.504825 273.489331 
L 864.773275 273.563984 
L 874.041725 273.625432 
L 883.310175 273.699576 
L 892.578625 273.804191 
L 901.847075 273.861577 
L 911.115525 273.876812 
L 920.383975 273.916931 
L 929.652425 273.950956 
L 938.920875 273.955019 
L 948.189325 273.957051 
L 957.457775 273.966192 
L 966.726225 273.980919 
L 975.994675 273.987013 
L 985.263125 273.987013 
" clip-path="url(#p69e39f90b9)" style="fill: none; stroke: #f0ad4e; stroke-linecap: square"/>
   </g>
   <g id="line2d_10">
    <path d="M 58.418125 273.885445 
L 67.686575 273.893063 
L 76.955025 273.894079 
L 86.223475 273.878843 
L 95.491925 273.866147 
L 104.760375 273.847865 
L 114.028825 273.826536 
L 123.297275 273.792511 
L 132.565725 273.758994 
L 141.834175 273.677739 
L 151.102625 273.583281 
L 160.371075 273.416711 
L 169.639525 273.251663 
L 178.907975 272.847932 
L 188.176425 272.407128 
L 197.444875 271.601188 
L 206.713325 270.802867 
L 215.981775 269.27732 
L 225.250225 267.67763 
L 234.518675 264.806819 
L 243.787125 261.924837 
L 253.055575 257.268467 
L 262.324025 252.598894 
L 271.592475 245.765929 
L 280.860925 238.892337 
L 290.129375 231.531221 
L 299.397825 222.351535 
L 308.666275 211.373086 
L 317.934725 200.066066 
L 327.203175 187.005987 
L 336.471625 173.777307 
L 345.740075 160.154036 
L 355.008525 146.186958 
L 364.276975 133.107074 
L 373.545425 120.450727 
L 382.813875 109.055343 
L 392.082325 97.983451 
L 401.350775 89.506614 
L 410.619225 81.866186 
L 419.887675 76.50189 
L 429.156125 71.46261 
L 438.424575 70.68968 
L 447.693025 71.182791 
L 456.961475 74.755434 
L 466.229925 79.000962 
L 475.498375 86.247815 
L 484.766825 93.935472 
L 494.035275 102.444303 
L 503.303725 110.977511 
L 512.572175 120.28568 
L 521.840625 129.632952 
L 531.109075 138.458166 
L 540.377525 147.500228 
L 549.645975 155.878545 
L 558.914425 164.193382 
L 568.182875 171.533677 
L 577.451325 177.97713 
L 586.719775 180.600622 
L 595.988225 183.308924 
L 605.256675 186.943015 
L 614.525125 190.258692 
L 623.793575 195.250743 
L 633.062025 202.124334 
L 642.330475 213.134777 
L 651.598925 223.729808 
L 660.867375 234.119673 
L 670.135825 244.322653 
L 679.404275 248.486419 
L 688.672725 250.89662 
L 697.941175 251.719826 
L 707.209625 253.218964 
L 716.478075 254.076703 
L 725.746525 252.809647 
L 735.014975 246.667342 
L 744.283425 244.040802 
L 753.551875 256.969351 
L 762.820325 268.154998 
L 772.088775 270.314326 
L 781.357225 272.190789 
L 790.625675 272.555925 
L 799.894125 272.906333 
L 809.162575 273.126735 
L 818.431025 273.304478 
L 827.699475 273.403507 
L 836.967925 273.492886 
L 846.236375 273.551796 
L 855.504825 273.612736 
L 864.773275 273.672661 
L 874.041725 273.70821 
L 883.310175 273.760009 
L 892.578625 273.843295 
L 901.847075 273.886461 
L 911.115525 273.899157 
L 920.383975 273.931151 
L 929.652425 273.958574 
L 938.920875 273.960605 
L 948.189325 273.960605 
L 957.457775 273.968223 
L 966.726225 273.979395 
L 975.994675 273.98295 
L 985.263125 273.98295 
" clip-path="url(#p69e39f90b9)" style="fill: none; stroke: #f0ad4e; stroke-linecap: square"/>
   </g>
   <g id="line2d_11">
    <path d="M 58.418125 273.866147 
L 67.686575 273.878336 
L 76.955025 273.876304 
L 86.223475 273.861069 
L 95.491925 273.854975 
L 104.760375 273.82806 
L 114.028825 273.790987 
L 123.297275 273.742235 
L 132.565725 273.696022 
L 141.834175 273.611213 
L 151.102625 273.519294 
L 160.371075 273.322253 
L 169.639525 273.124196 
L 178.907975 272.633116 
L 188.176425 272.100394 
L 197.444875 271.180698 
L 206.713325 270.235611 
L 215.981775 268.370321 
L 225.250225 266.460341 
L 234.518675 263.139586 
L 243.787125 259.829496 
L 253.055575 254.248353 
L 262.324025 248.647912 
L 271.592475 240.749502 
L 280.860925 232.693155 
L 290.129375 223.393111 
L 299.397825 212.563459 
L 308.666275 199.981764 
L 317.934725 187.279712 
L 327.203175 172.770263 
L 336.471625 157.913961 
L 345.740075 141.770796 
L 355.008525 125.547392 
L 364.276975 111.033881 
L 373.545425 96.924609 
L 382.813875 84.406394 
L 392.082325 72.253822 
L 401.350775 63.507323 
L 410.619225 55.036072 
L 419.887675 49.016664 
L 429.156125 43.586857 
L 438.424575 43.030774 
L 447.693025 43.571114 
L 456.961475 48.283345 
L 466.229925 53.459741 
L 475.498375 62.127018 
L 484.766825 71.480385 
L 494.035275 81.765127 
L 503.303725 91.970138 
L 512.572175 101.867399 
L 521.840625 111.635669 
L 531.109075 122.168236 
L 540.377525 132.508332 
L 549.645975 142.253242 
L 558.914425 152.103274 
L 568.182875 159.745226 
L 577.451325 166.917934 
L 586.719775 170.361078 
L 595.988225 173.906805 
L 605.256675 177.652621 
L 614.525125 181.052091 
L 623.793575 187.708328 
L 633.062025 195.824092 
L 642.330475 207.606449 
L 651.598925 219.177545 
L 660.867375 230.366747 
L 670.135825 241.179133 
L 679.404275 244.512584 
L 688.672725 246.380921 
L 697.941175 246.977124 
L 707.209625 248.554977 
L 716.478075 250.315653 
L 725.746525 250.189201 
L 735.014975 243.810752 
L 744.283425 240.158886 
L 753.551875 254.119362 
L 762.820325 266.763521 
L 772.088775 269.290016 
L 781.357225 271.545834 
L 790.625675 272.007459 
L 799.894125 272.436075 
L 809.162575 272.696088 
L 818.431025 272.896176 
L 827.699475 273.084076 
L 836.967925 273.257757 
L 846.236375 273.347137 
L 855.504825 273.439055 
L 864.773275 273.521833 
L 874.041725 273.594962 
L 883.310175 273.675708 
L 892.578625 273.772705 
L 901.847075 273.820442 
L 911.115525 273.840756 
L 920.383975 273.891539 
L 929.652425 273.941308 
L 938.920875 273.954003 
L 948.189325 273.957051 
L 957.457775 273.96416 
L 966.726225 273.974317 
L 975.994675 273.977872 
L 985.263125 273.977872 
" clip-path="url(#p69e39f90b9)" style="fill: none; stroke: #f0ad4e; stroke-linecap: square"/>
   </g>
   <g id="line2d_12">
    <path d="M 58.418125 273.99006 
L 985.263125 273.99006 
" clip-path="url(#p69e39f90b9)" style="fill: none; stroke: #dedede; stroke-width: 2; stroke-linecap: square"/>
   </g>
   <g id="text_14">
    <!-- FastQC: Per Sequence GC Content -->
    <g transform="translate(385.204375 19.3575) scale(0.16 -0.16)">
     <defs>
      <path id="DejaVuSans-46" d="M 628 4666 
L 3309 4666 
L 3309 4134 
L 1259 4134 
L 1259 2759 
L 3109 2759 
L 3109 2228 
L 1259 2228 
L 1259 0 
L 628 0 
L 628 4666 
z
" transform="scale(0.015625)"/>
      <path id="DejaVuSans-61" d="M 2194 1759 
Q 1497 1759 1228 1600 
Q 959 1441 959 1056 
Q 959 750 1161 570 
Q 1363 391 1709 391 
Q 2188 391 2477 730 
Q 2766 1069 2766 1631 
L 2766 1759 
L 2194 1759 
z
M 3341 1997 
L 3341 0 
L 2766 0 
L 2766 531 
Q 2569 213 2275 61 
Q 1981 -91 1556 -91 
Q 1019 -91 701 211 
Q 384 513 384 1019 
Q 384 1609 779 1909 
Q 1175 2209 1959 2209 
L 2766 2209 
L 2766 2266 
Q 2766 2663 2505 2880 
Q 2244 3097 1772 3097 
Q 1472 3097 1187 3025 
Q 903 2953 641 2809 
L 641 3341 
Q 956 3463 1253 3523 
Q 1550 3584 1831 3584 
Q 2591 3584 2966 3190 
Q 3341 2797 3341 1997 
z
" transform="scale(0.015625)"/>
      <path id="DejaVuSans-73" d="M 2834 3397 
L 2834 2853 
Q 2591 2978 2328 3040 
Q 2066 3103 1784 3103 
Q 1356 3103 1142 2972 
Q 928 2841 928 2578 
Q 928 2378 1081 2264 
Q 1234 2150 1697 2047 
L 1894 2003 
Q 2506 1872 2764 1633 
Q 3022 1394 3022 966 
Q 3022 478 2636 193 
Q 2250 -91 1575 -91 
Q 1294 -91 989 -36 
Q 684 19 347 128 
L 347 722 
Q 666 556 975 473 
Q 1284 391 1588 391 
Q 1994 391 2212 530 
Q 2431 669 2431 922 
Q 2431 1156 2273 1281 
Q 2116 1406 1581 1522 
L 1381 1569 
Q 847 1681 609 1914 
Q 372 2147 372 2553 
Q 372 3047 722 3315 
Q 1072 3584 1716 3584 
Q 2034 3584 2315 3537 
Q 2597 3491 2834 3397 
z
" transform="scale(0.015625)"/>
      <path id="DejaVuSans-51" d="M 2522 4238 
Q 1834 4238 1429 3725 
Q 1025 3213 1025 2328 
Q 1025 1447 1429 934 
Q 1834 422 2522 422 
Q 3209 422 3611 934 
Q 4013 1447 4013 2328 
Q 4013 3213 3611 3725 
Q 3209 4238 2522 4238 
z
M 3406 84 
L 4238 -825 
L 3475 -825 
L 2784 -78 
Q 2681 -84 2626 -87 
Q 2572 -91 2522 -91 
Q 1538 -91 948 567 
Q 359 1225 359 2328 
Q 359 3434 948 4092 
Q 1538 4750 2522 4750 
Q 3503 4750 4090 4092 
Q 4678 3434 4678 2328 
Q 4678 1516 4351 937 
Q 4025 359 3406 84 
z
" transform="scale(0.015625)"/>
      <path id="DejaVuSans-3a" d="M 750 794 
L 1409 794 
L 1409 0 
L 750 0 
L 750 794 
z
M 750 3309 
L 1409 3309 
L 1409 2516 
L 750 2516 
L 750 3309 
z
" transform="scale(0.015625)"/>
      <path id="DejaVuSans-50" d="M 1259 4147 
L 1259 2394 
L 2053 2394 
Q 2494 2394 2734 2622 
Q 2975 2850 2975 3272 
Q 2975 3691 2734 3919 
Q 2494 4147 2053 4147 
L 1259 4147 
z
M 628 4666 
L 2053 4666 
Q 2838 4666 3239 4311 
Q 3641 3956 3641 3272 
Q 3641 2581 3239 2228 
Q 2838 1875 2053 1875 
L 1259 1875 
L 1259 0 
L 628 0 
L 628 4666 
z
" transform="scale(0.015625)"/>
      <path id="DejaVuSans-65" d="M 3597 1894 
L 3597 1613 
L 953 1613 
Q 991 1019 1311 708 
Q 1631 397 2203 397 
Q 2534 397 2845 478 
Q 3156 559 3463 722 
L 3463 178 
Q 3153 47 2828 -22 
Q 2503 -91 2169 -91 
Q 1331 -91 842 396 
Q 353 884 353 1716 
Q 353 2575 817 3079 
Q 1281 3584 2069 3584 
Q 2775 3584 3186 3129 
Q 3597 2675 3597 1894 
z
M 3022 2063 
Q 3016 2534 2758 2815 
Q 2500 3097 2075 3097 
Q 1594 3097 1305 2825 
Q 1016 2553 972 2059 
L 3022 2063 
z
" transform="scale(0.015625)"/>
      <path id="DejaVuSans-72" d="M 2631 2963 
Q 2534 3019 2420 3045 
Q 2306 3072 2169 3072 
Q 1681 3072 1420 2755 
Q 1159 2438 1159 1844 
L 1159 0 
L 581 0 
L 581 3500 
L 1159 3500 
L 1159 2956 
Q 1341 3275 1631 3429 
Q 1922 3584 2338 3584 
Q 2397 3584 2469 3576 
Q 2541 3569 2628 3553 
L 2631 2963 
z
" transform="scale(0.015625)"/>
      <path id="DejaVuSans-53" d="M 3425 4513 
L 3425 3897 
Q 3066 4069 2747 4153 
Q 2428 4238 2131 4238 
Q 1616 4238 1336 4038 
Q 1056 3838 1056 3469 
Q 1056 3159 1242 3001 
Q 1428 2844 1947 2747 
L 2328 2669 
Q 3034 2534 3370 2195 
Q 3706 1856 3706 1288 
Q 3706 609 3251 259 
Q 2797 -91 1919 -91 
Q 1588 -91 1214 -16 
Q 841 59 441 206 
L 441 856 
Q 825 641 1194 531 
Q 1563 422 1919 422 
Q 2459 422 2753 634 
Q 3047 847 3047 1241 
Q 3047 1584 2836 1778 
Q 2625 1972 2144 2069 
L 1759 2144 
Q 1053 2284 737 2584 
Q 422 2884 422 3419 
Q 422 4038 858 4394 
Q 1294 4750 2059 4750 
Q 2388 4750 2728 4690 
Q 3069 4631 3425 4513 
z
" transform="scale(0.015625)"/>
      <path id="DejaVuSans-71" d="M 947 1747 
Q 947 1113 1208 752 
Q 1469 391 1925 391 
Q 2381 391 2643 752 
Q 2906 1113 2906 1747 
Q 2906 2381 2643 2742 
Q 2381 3103 1925 3103 
Q 1469 3103 1208 2742 
Q 947 2381 947 1747 
z
M 2906 525 
Q 2725 213 2448 61 
Q 2172 -91 1784 -91 
Q 1150 -91 751 415 
Q 353 922 353 1747 
Q 353 2572 751 3078 
Q 1150 3584 1784 3584 
Q 2172 3584 2448 3432 
Q 2725 3281 2906 2969 
L 2906 3500 
L 3481 3500 
L 3481 -1331 
L 2906 -1331 
L 2906 525 
z
" transform="scale(0.015625)"/>
      <path id="DejaVuSans-63" d="M 3122 3366 
L 3122 2828 
Q 2878 2963 2633 3030 
Q 2388 3097 2138 3097 
Q 1578 3097 1268 2742 
Q 959 2388 959 1747 
Q 959 1106 1268 751 
Q 1578 397 2138 397 
Q 2388 397 2633 464 
Q 2878 531 3122 666 
L 3122 134 
Q 2881 22 2623 -34 
Q 2366 -91 2075 -91 
Q 1284 -91 818 406 
Q 353 903 353 1747 
Q 353 2603 823 3093 
Q 1294 3584 2113 3584 
Q 2378 3584 2631 3529 
Q 2884 3475 3122 3366 
z
" transform="scale(0.015625)"/>
     </defs>
     <use xlink:href="#DejaVuSans-46"/>
     <use xlink:href="#DejaVuSans-61" x="48.394531"/>
     <use xlink:href="#DejaVuSans-73" x="109.673828"/>
     <use xlink:href="#DejaVuSans-74" x="161.773438"/>
     <use xlink:href="#DejaVuSans-51" x="200.982422"/>
     <use xlink:href="#DejaVuSans-43" x="279.693359"/>
     <use xlink:href="#DejaVuSans-3a" x="349.517578"/>
     <use xlink:href="#DejaVuSans-20" x="383.208984"/>
     <use xlink:href="#DejaVuSans-50" x="414.996094"/>
     <use xlink:href="#DejaVuSans-65" x="471.673828"/>
     <use xlink:href="#DejaVuSans-72" x="533.197266"/>
     <use xlink:href="#DejaVuSans-20" x="574.310547"/>
     <use xlink:href="#DejaVuSans-53" x="606.097656"/>
     <use xlink:href="#DejaVuSans-65" x="669.574219"/>
     <use xlink:href="#DejaVuSans-71" x="731.097656"/>
     <use xlink:href="#DejaVuSans-75" x="794.574219"/>
     <use xlink:href="#DejaVuSans-65" x="857.953125"/>
     <use xlink:href="#DejaVuSans-6e" x="919.476562"/>
     <use xlink:href="#DejaVuSans-63" x="982.855469"/>
     <use xlink:href="#DejaVuSans-65" x="1037.835938"/>
     <use xlink:href="#DejaVuSans-20" x="1099.359375"/>
     <use xlink:href="#DejaVuSans-47" x="1131.146484"/>
     <use xlink:href="#DejaVuSans-43" x="1208.636719"/>
     <use xlink:href="#DejaVuSans-20" x="1278.460938"/>
     <use xlink:href="#DejaVuSans-43" x="1310.248047"/>
     <use xlink:href="#DejaVuSans-6f" x="1380.072266"/>
     <use xlink:href="#DejaVuSans-6e" x="1441.253906"/>
     <use xlink:href="#DejaVuSans-74" x="1504.632812"/>
     <use xlink:href="#DejaVuSans-65" x="1543.841797"/>
     <use xlink:href="#DejaVuSans-6e" x="1605.365234"/>
     <use xlink:href="#DejaVuSans-74" x="1668.744141"/>
    </g>
   </g>
   <g id="legend_1">
    <g id="line2d_13">
     <path d="M 65.618125 303.490394 
L 73.618125 303.490394 
L 81.618125 303.490394 
" style="fill: none; stroke: #f0ad4e; stroke-linecap: square"/>
    </g>
    <g id="text_15">
     <!-- SRR5961980_T1 -->
     <g transform="translate(88.018125 306.290394) scale(0.08 -0.08)">
      <defs>
       <path id="DejaVuSans-52" d="M 2841 2188 
Q 3044 2119 3236 1894 
Q 3428 1669 3622 1275 
L 4263 0 
L 3584 0 
L 2988 1197 
Q 2756 1666 2539 1819 
Q 2322 1972 1947 1972 
L 1259 1972 
L 1259 0 
L 628 0 
L 628 4666 
L 2053 4666 
Q 2853 4666 3247 4331 
Q 3641 3997 3641 3322 
Q 3641 2881 3436 2590 
Q 3231 2300 2841 2188 
z
M 1259 4147 
L 1259 2491 
L 2053 2491 
Q 2509 2491 2742 2702 
Q 2975 2913 2975 3322 
Q 2975 3731 2742 3939 
Q 2509 4147 2053 4147 
L 1259 4147 
z
" transform="scale(0.015625)"/>
       <path id="DejaVuSans-39" d="M 703 97 
L 703 672 
Q 941 559 1184 500 
Q 1428 441 1663 441 
Q 2288 441 2617 861 
Q 2947 1281 2994 2138 
Q 2813 1869 2534 1725 
Q 2256 1581 1919 1581 
Q 1219 1581 811 2004 
Q 403 2428 403 3163 
Q 403 3881 828 4315 
Q 1253 4750 1959 4750 
Q 2769 4750 3195 4129 
Q 3622 3509 3622 2328 
Q 3622 1225 3098 567 
Q 2575 -91 1691 -91 
Q 1453 -91 1209 -44 
Q 966 3 703 97 
z
M 1959 2075 
Q 2384 2075 2632 2365 
Q 2881 2656 2881 3163 
Q 2881 3666 2632 3958 
Q 2384 4250 1959 4250 
Q 1534 4250 1286 3958 
Q 1038 3666 1038 3163 
Q 1038 2656 1286 2365 
Q 1534 2075 1959 2075 
z
" transform="scale(0.015625)"/>
       <path id="DejaVuSans-5f" d="M 3263 -1063 
L 3263 -1509 
L -63 -1509 
L -63 -1063 
L 3263 -1063 
z
" transform="scale(0.015625)"/>
       <path id="DejaVuSans-54" d="M -19 4666 
L 3928 4666 
L 3928 4134 
L 2272 4134 
L 2272 0 
L 1638 0 
L 1638 4134 
L -19 4134 
L -19 4666 
z
" transform="scale(0.015625)"/>
      </defs>
      <use xlink:href="#DejaVuSans-53"/>
      <use xlink:href="#DejaVuSans-52" x="63.476562"/>
      <use xlink:href="#DejaVuSans-52" x="132.958984"/>
      <use xlink:href="#DejaVuSans-35" x="202.441406"/>
      <use xlink:href="#DejaVuSans-39" x="266.064453"/>
      <use xlink:href="#DejaVuSans-36" x="329.6875"/>
      <use xlink:href="#DejaVuSans-31" x="393.310547"/>
      <use xlink:href="#DejaVuSans-39" x="456.933594"/>
      <use xlink:href="#DejaVuSans-38" x="520.556641"/>
      <use xlink:href="#DejaVuSans-30" x="584.179688"/>
      <use xlink:href="#DejaVuSans-5f" x="647.802734"/>
      <use xlink:href="#DejaVuSans-54" x="697.802734"/>
      <use xlink:href="#DejaVuSans-31" x="758.886719"/>
     </g>
    </g>
    <g id="line2d_14">
     <path d="M 65.618125 315.455394 
L 73.618125 315.455394 
L 81.618125 315.455394 
" style="fill: none; stroke: #f0ad4e; stroke-linecap: square"/>
    </g>
    <g id="text_16">
     <!-- SRR5961981_T1 -->
     <g transform="translate(88.018125 318.255394) scale(0.08 -0.08)">
      <use xlink:href="#DejaVuSans-53"/>
      <use xlink:href="#DejaVuSans-52" x="63.476562"/>
      <use xlink:href="#DejaVuSans-52" x="132.958984"/>
      <use xlink:href="#DejaVuSans-35" x="202.441406"/>
      <use xlink:href="#DejaVuSans-39" x="266.064453"/>
      <use xlink:href="#DejaVuSans-36" x="329.6875"/>
      <use xlink:href="#DejaVuSans-31" x="393.310547"/>
      <use xlink:href="#DejaVuSans-39" x="456.933594"/>
      <use xlink:href="#DejaVuSans-38" x="520.556641"/>
      <use xlink:href="#DejaVuSans-31" x="584.179688"/>
      <use xlink:href="#DejaVuSans-5f" x="647.802734"/>
      <use xlink:href="#DejaVuSans-54" x="697.802734"/>
      <use xlink:href="#DejaVuSans-31" x="758.886719"/>
     </g>
    </g>
    <g id="line2d_15">
     <path d="M 271.67875 303.490394 
L 279.67875 303.490394 
L 287.67875 303.490394 
" style="fill: none; stroke: #f0ad4e; stroke-linecap: square"/>
    </g>
    <g id="text_17">
     <!-- SRR5961982_T1 -->
     <g transform="translate(294.07875 306.290394) scale(0.08 -0.08)">
      <use xlink:href="#DejaVuSans-53"/>
      <use xlink:href="#DejaVuSans-52" x="63.476562"/>
      <use xlink:href="#DejaVuSans-52" x="132.958984"/>
      <use xlink:href="#DejaVuSans-35" x="202.441406"/>
      <use xlink:href="#DejaVuSans-39" x="266.064453"/>
      <use xlink:href="#DejaVuSans-36" x="329.6875"/>
      <use xlink:href="#DejaVuSans-31" x="393.310547"/>
      <use xlink:href="#DejaVuSans-39" x="456.933594"/>
      <use xlink:href="#DejaVuSans-38" x="520.556641"/>
      <use xlink:href="#DejaVuSans-32" x="584.179688"/>
      <use xlink:href="#DejaVuSans-5f" x="647.802734"/>
      <use xlink:href="#DejaVuSans-54" x="697.802734"/>
      <use xlink:href="#DejaVuSans-31" x="758.886719"/>
     </g>
    </g>
    <g id="line2d_16">
     <path d="M 477.739375 303.490394 
L 485.739375 303.490394 
L 493.739375 303.490394 
" style="fill: none; stroke: #f0ad4e; stroke-linecap: square"/>
    </g>
    <g id="text_18">
     <!-- SRR5962008_T1 -->
     <g transform="translate(500.139375 306.290394) scale(0.08 -0.08)">
      <use xlink:href="#DejaVuSans-53"/>
      <use xlink:href="#DejaVuSans-52" x="63.476562"/>
      <use xlink:href="#DejaVuSans-52" x="132.958984"/>
      <use xlink:href="#DejaVuSans-35" x="202.441406"/>
      <use xlink:href="#DejaVuSans-39" x="266.064453"/>
      <use xlink:href="#DejaVuSans-36" x="329.6875"/>
      <use xlink:href="#DejaVuSans-32" x="393.310547"/>
      <use xlink:href="#DejaVuSans-30" x="456.933594"/>
      <use xlink:href="#DejaVuSans-30" x="520.556641"/>
      <use xlink:href="#DejaVuSans-38" x="584.179688"/>
      <use xlink:href="#DejaVuSans-5f" x="647.802734"/>
      <use xlink:href="#DejaVuSans-54" x="697.802734"/>
      <use xlink:href="#DejaVuSans-31" x="758.886719"/>
     </g>
    </g>
    <g id="line2d_17">
     <path d="M 683.8 303.490394 
L 691.8 303.490394 
L 699.8 303.490394 
" style="fill: none; stroke: #f0ad4e; stroke-linecap: square"/>
    </g>
    <g id="text_19">
     <!-- SRR5962009_T1 -->
     <g transform="translate(706.2 306.290394) scale(0.08 -0.08)">
      <use xlink:href="#DejaVuSans-53"/>
      <use xlink:href="#DejaVuSans-52" x="63.476562"/>
      <use xlink:href="#DejaVuSans-52" x="132.958984"/>
      <use xlink:href="#DejaVuSans-35" x="202.441406"/>
      <use xlink:href="#DejaVuSans-39" x="266.064453"/>
      <use xlink:href="#DejaVuSans-36" x="329.6875"/>
      <use xlink:href="#DejaVuSans-32" x="393.310547"/>
      <use xlink:href="#DejaVuSans-30" x="456.933594"/>
      <use xlink:href="#DejaVuSans-30" x="520.556641"/>
      <use xlink:href="#DejaVuSans-39" x="584.179688"/>
      <use xlink:href="#DejaVuSans-5f" x="647.802734"/>
      <use xlink:href="#DejaVuSans-54" x="697.802734"/>
      <use xlink:href="#DejaVuSans-31" x="758.886719"/>
     </g>
    </g>
    <g id="line2d_18">
     <path d="M 889.860625 303.490394 
L 897.860625 303.490394 
L 905.860625 303.490394 
" style="fill: none; stroke: #f0ad4e; stroke-linecap: square"/>
    </g>
    <g id="text_20">
     <!-- SRR5962010_T1 -->
     <g transform="translate(912.260625 306.290394) scale(0.08 -0.08)">
      <use xlink:href="#DejaVuSans-53"/>
      <use xlink:href="#DejaVuSans-52" x="63.476562"/>
      <use xlink:href="#DejaVuSans-52" x="132.958984"/>
      <use xlink:href="#DejaVuSans-35" x="202.441406"/>
      <use xlink:href="#DejaVuSans-39" x="266.064453"/>
      <use xlink:href="#DejaVuSans-36" x="329.6875"/>
      <use xlink:href="#DejaVuSans-32" x="393.310547"/>
      <use xlink:href="#DejaVuSans-30" x="456.933594"/>
      <use xlink:href="#DejaVuSans-31" x="520.556641"/>
      <use xlink:href="#DejaVuSans-30" x="584.179688"/>
      <use xlink:href="#DejaVuSans-5f" x="647.802734"/>
      <use xlink:href="#DejaVuSans-54" x="697.802734"/>
      <use xlink:href="#DejaVuSans-31" x="758.886719"/>
     </g>
    </g>
   </g>
  </g>
 </g>
 <defs>
  <clipPath id="p69e39f90b9">
   <rect x="58.418125" y="31.48286" width="926.845" height="242.5072"/>
  </clipPath>
 </defs>
</svg>
