<?xml version="1.0" encoding="utf-8" standalone="no"?>
<!DOCTYPE svg PUBLIC "-//W3C//DTD SVG 1.1//EN"
  "http://www.w3.org/Graphics/SVG/1.1/DTD/svg11.dtd">
<svg xmlns:xlink="http://www.w3.org/1999/xlink" width="1000.358125pt" height="330.541644pt" viewBox="0 0 1000.358125 330.541644" xmlns="http://www.w3.org/2000/svg" version="1.1">
 <metadata>
  <rdf:RDF xmlns:dc="http://purl.org/dc/elements/1.1/" xmlns:cc="http://creativecommons.org/ns#" xmlns:rdf="http://www.w3.org/1999/02/22-rdf-syntax-ns#">
   <cc:Work>
    <dc:type rdf:resource="http://purl.org/dc/dcmitype/StillImage"/>
    <dc:date>2025-08-20T15:20:40.670351</dc:date>
    <dc:format>image/svg+xml</dc:format>
    <dc:creator>
     <cc:Agent>
      <dc:title>Matplotlib v3.6.2, https://matplotlib.org/</dc:title>
     </cc:Agent>
    </dc:creator>
   </cc:Work>
  </rdf:RDF>
 </metadata>
 <defs>
  <style type="text/css">*{stroke-linejoin: round; stroke-linecap: butt}</style>
 </defs>
 <g id="figure_1">
  <g id="axes_1">
   <g id="patch_1">
    <path d="M 32.968125 273.99006 
L 993.158125 273.99006 
L 993.158125 31.48286 
L 32.968125 31.48286 
z
" style="fill: #ffffff"/>
   </g>
   <g id="patch_2">
    <path d="M 32.968125 -696.03874 
L 972.484178 -696.03874 
L 972.484178 -4576.15394 
L 32.968125 -4576.15394 
z
" clip-path="url(#p0b1dcd7c23)" style="fill: #e6c3c3"/>
   </g>
   <g id="patch_3">
    <path d="M 32.968125 31.48286 
L 972.484178 31.48286 
L 972.484178 -696.03874 
L 32.968125 -696.03874 
z
" clip-path="url(#p0b1dcd7c23)" style="fill: #e6dcc3"/>
   </g>
   <g id="patch_4">
    <path d="M 32.968125 273.99006 
L 972.484178 273.99006 
L 972.484178 31.48286 
L 32.968125 31.48286 
z
" clip-path="url(#p0b1dcd7c23)" style="fill: #c3e6c3"/>
   </g>
   <g id="matplotlib.axis_1">
    <g id="xtick_1">
     <g id="text_1">
      <!-- 0 -->
      <g transform="translate(51.097072 287.06881) scale(0.08 -0.08)">
       <defs>
        <path id="DejaVuSans-30" d="M 2034 4250 
Q 1547 4250 1301 3770 
Q 1056 3291 1056 2328 
Q 1056 1369 1301 889 
Q 1547 409 2034 409 
Q 2525 409 2770 889 
Q 3016 1369 3016 2328 
Q 3016 3291 2770 3770 
Q 2525 4250 2034 4250 
z
M 2034 4750 
Q 2819 4750 3233 4129 
Q 3647 3509 3647 2328 
Q 3647 1150 3233 529 
Q 2819 -91 2034 -91 
Q 1250 -91 836 529 
Q 422 1150 422 2328 
Q 422 3509 836 4129 
Q 1250 4750 2034 4750 
z
" transform="scale(0.015625)"/>
       </defs>
       <use xlink:href="#DejaVuSans-30"/>
      </g>
     </g>
    </g>
    <g id="xtick_2">
     <g id="text_2">
      <!-- 5 -->
      <g transform="translate(165.952336 287.06881) scale(0.08 -0.08)">
       <defs>
        <path id="DejaVuSans-35" d="M 691 4666 
L 3169 4666 
L 3169 4134 
L 1269 4134 
L 1269 2991 
Q 1406 3038 1543 3061 
Q 1681 3084 1819 3084 
Q 2600 3084 3056 2656 
Q 3513 2228 3513 1497 
Q 3513 744 3044 326 
Q 2575 -91 1722 -91 
Q 1428 -91 1123 -41 
Q 819 9 494 109 
L 494 744 
Q 775 591 1075 516 
Q 1375 441 1709 441 
Q 2250 441 2565 725 
Q 2881 1009 2881 1497 
Q 2881 1984 2565 2268 
Q 2250 2553 1709 2553 
Q 1456 2553 1204 2497 
Q 953 2441 691 2322 
L 691 4666 
z
" transform="scale(0.015625)"/>
       </defs>
       <use xlink:href="#DejaVuSans-35"/>
      </g>
     </g>
    </g>
    <g id="xtick_3">
     <g id="text_3">
      <!-- 10 -->
      <g transform="translate(278.262599 287.06881) scale(0.08 -0.08)">
       <defs>
        <path id="DejaVuSans-31" d="M 794 531 
L 1825 531 
L 1825 4091 
L 703 3866 
L 703 4441 
L 1819 4666 
L 2450 4666 
L 2450 531 
L 3481 531 
L 3481 0 
L 794 0 
L 794 531 
z
" transform="scale(0.015625)"/>
       </defs>
       <use xlink:href="#DejaVuSans-31"/>
       <use xlink:href="#DejaVuSans-30" x="63.623047"/>
      </g>
     </g>
    </g>
    <g id="xtick_4">
     <g id="text_4">
      <!-- 15 -->
      <g transform="translate(393.117862 287.06881) scale(0.08 -0.08)">
       <use xlink:href="#DejaVuSans-31"/>
       <use xlink:href="#DejaVuSans-35" x="63.623047"/>
      </g>
     </g>
    </g>
    <g id="xtick_5">
     <g id="text_5">
      <!-- 20 -->
      <g transform="translate(507.973125 287.06881) scale(0.08 -0.08)">
       <defs>
        <path id="DejaVuSans-32" d="M 1228 531 
L 3431 531 
L 3431 0 
L 469 0 
L 469 531 
Q 828 903 1448 1529 
Q 2069 2156 2228 2338 
Q 2531 2678 2651 2914 
Q 2772 3150 2772 3378 
Q 2772 3750 2511 3984 
Q 2250 4219 1831 4219 
Q 1534 4219 1204 4116 
Q 875 4013 500 3803 
L 500 4441 
Q 881 4594 1212 4672 
Q 1544 4750 1819 4750 
Q 2544 4750 2975 4387 
Q 3406 4025 3406 3419 
Q 3406 3131 3298 2873 
Q 3191 2616 2906 2266 
Q 2828 2175 2409 1742 
Q 1991 1309 1228 531 
z
" transform="scale(0.015625)"/>
       </defs>
       <use xlink:href="#DejaVuSans-32"/>
       <use xlink:href="#DejaVuSans-30" x="63.623047"/>
      </g>
     </g>
    </g>
    <g id="xtick_6">
     <g id="text_6">
      <!-- 25 -->
      <g transform="translate(622.828388 287.06881) scale(0.08 -0.08)">
       <use xlink:href="#DejaVuSans-32"/>
       <use xlink:href="#DejaVuSans-35" x="63.623047"/>
      </g>
     </g>
    </g>
    <g id="xtick_7">
     <g id="text_7">
      <!-- 30 -->
      <g transform="translate(737.683651 287.06881) scale(0.08 -0.08)">
       <defs>
        <path id="DejaVuSans-33" d="M 2597 2516 
Q 3050 2419 3304 2112 
Q 3559 1806 3559 1356 
Q 3559 666 3084 287 
Q 2609 -91 1734 -91 
Q 1441 -91 1130 -33 
Q 819 25 488 141 
L 488 750 
Q 750 597 1062 519 
Q 1375 441 1716 441 
Q 2309 441 2620 675 
Q 2931 909 2931 1356 
Q 2931 1769 2642 2001 
Q 2353 2234 1838 2234 
L 1294 2234 
L 1294 2753 
L 1863 2753 
Q 2328 2753 2575 2939 
Q 2822 3125 2822 3475 
Q 2822 3834 2567 4026 
Q 2313 4219 1838 4219 
Q 1578 4219 1281 4162 
Q 984 4106 628 3988 
L 628 4550 
Q 988 4650 1302 4700 
Q 1616 4750 1894 4750 
Q 2613 4750 3031 4423 
Q 3450 4097 3450 3541 
Q 3450 3153 3228 2886 
Q 3006 2619 2597 2516 
z
" transform="scale(0.015625)"/>
       </defs>
       <use xlink:href="#DejaVuSans-33"/>
       <use xlink:href="#DejaVuSans-30" x="63.623047"/>
      </g>
     </g>
    </g>
    <g id="xtick_8">
     <g id="text_8">
      <!-- 35 -->
      <g transform="translate(852.538914 287.06881) scale(0.08 -0.08)">
       <use xlink:href="#DejaVuSans-33"/>
       <use xlink:href="#DejaVuSans-35" x="63.623047"/>
      </g>
     </g>
    </g>
    <g id="xtick_9">
     <g id="text_9">
      <!-- 40 -->
      <g transform="translate(967.394178 287.06881) scale(0.08 -0.08)">
       <defs>
        <path id="DejaVuSans-34" d="M 2419 4116 
L 825 1625 
L 2419 1625 
L 2419 4116 
z
M 2253 4666 
L 3047 4666 
L 3047 1625 
L 3713 1625 
L 3713 1100 
L 3047 1100 
L 3047 0 
L 2419 0 
L 2419 1100 
L 313 1100 
L 313 1709 
L 2253 4666 
z
" transform="scale(0.015625)"/>
       </defs>
       <use xlink:href="#DejaVuSans-34"/>
       <use xlink:href="#DejaVuSans-30" x="63.623047"/>
      </g>
     </g>
    </g>
    <g id="text_10">
     <!-- Position (bp) -->
     <g transform="translate(481.76 300.330997) scale(0.1 -0.1)">
      <defs>
       <path id="DejaVuSans-50" d="M 1259 4147 
L 1259 2394 
L 2053 2394 
Q 2494 2394 2734 2622 
Q 2975 2850 2975 3272 
Q 2975 3691 2734 3919 
Q 2494 4147 2053 4147 
L 1259 4147 
z
M 628 4666 
L 2053 4666 
Q 2838 4666 3239 4311 
Q 3641 3956 3641 3272 
Q 3641 2581 3239 2228 
Q 2838 1875 2053 1875 
L 1259 1875 
L 1259 0 
L 628 0 
L 628 4666 
z
" transform="scale(0.015625)"/>
       <path id="DejaVuSans-6f" d="M 1959 3097 
Q 1497 3097 1228 2736 
Q 959 2375 959 1747 
Q 959 1119 1226 758 
Q 1494 397 1959 397 
Q 2419 397 2687 759 
Q 2956 1122 2956 1747 
Q 2956 2369 2687 2733 
Q 2419 3097 1959 3097 
z
M 1959 3584 
Q 2709 3584 3137 3096 
Q 3566 2609 3566 1747 
Q 3566 888 3137 398 
Q 2709 -91 1959 -91 
Q 1206 -91 779 398 
Q 353 888 353 1747 
Q 353 2609 779 3096 
Q 1206 3584 1959 3584 
z
" transform="scale(0.015625)"/>
       <path id="DejaVuSans-73" d="M 2834 3397 
L 2834 2853 
Q 2591 2978 2328 3040 
Q 2066 3103 1784 3103 
Q 1356 3103 1142 2972 
Q 928 2841 928 2578 
Q 928 2378 1081 2264 
Q 1234 2150 1697 2047 
L 1894 2003 
Q 2506 1872 2764 1633 
Q 3022 1394 3022 966 
Q 3022 478 2636 193 
Q 2250 -91 1575 -91 
Q 1294 -91 989 -36 
Q 684 19 347 128 
L 347 722 
Q 666 556 975 473 
Q 1284 391 1588 391 
Q 1994 391 2212 530 
Q 2431 669 2431 922 
Q 2431 1156 2273 1281 
Q 2116 1406 1581 1522 
L 1381 1569 
Q 847 1681 609 1914 
Q 372 2147 372 2553 
Q 372 3047 722 3315 
Q 1072 3584 1716 3584 
Q 2034 3584 2315 3537 
Q 2597 3491 2834 3397 
z
" transform="scale(0.015625)"/>
       <path id="DejaVuSans-69" d="M 603 3500 
L 1178 3500 
L 1178 0 
L 603 0 
L 603 3500 
z
M 603 4863 
L 1178 4863 
L 1178 4134 
L 603 4134 
L 603 4863 
z
" transform="scale(0.015625)"/>
       <path id="DejaVuSans-74" d="M 1172 4494 
L 1172 3500 
L 2356 3500 
L 2356 3053 
L 1172 3053 
L 1172 1153 
Q 1172 725 1289 603 
Q 1406 481 1766 481 
L 2356 481 
L 2356 0 
L 1766 0 
Q 1100 0 847 248 
Q 594 497 594 1153 
L 594 3053 
L 172 3053 
L 172 3500 
L 594 3500 
L 594 4494 
L 1172 4494 
z
" transform="scale(0.015625)"/>
       <path id="DejaVuSans-6e" d="M 3513 2113 
L 3513 0 
L 2938 0 
L 2938 2094 
Q 2938 2591 2744 2837 
Q 2550 3084 2163 3084 
Q 1697 3084 1428 2787 
Q 1159 2491 1159 1978 
L 1159 0 
L 581 0 
L 581 3500 
L 1159 3500 
L 1159 2956 
Q 1366 3272 1645 3428 
Q 1925 3584 2291 3584 
Q 2894 3584 3203 3211 
Q 3513 2838 3513 2113 
z
" transform="scale(0.015625)"/>
       <path id="DejaVuSans-20" transform="scale(0.015625)"/>
       <path id="DejaVuSans-28" d="M 1984 4856 
Q 1566 4138 1362 3434 
Q 1159 2731 1159 2009 
Q 1159 1288 1364 580 
Q 1569 -128 1984 -844 
L 1484 -844 
Q 1016 -109 783 600 
Q 550 1309 550 2009 
Q 550 2706 781 3412 
Q 1013 4119 1484 4856 
L 1984 4856 
z
" transform="scale(0.015625)"/>
       <path id="DejaVuSans-62" d="M 3116 1747 
Q 3116 2381 2855 2742 
Q 2594 3103 2138 3103 
Q 1681 3103 1420 2742 
Q 1159 2381 1159 1747 
Q 1159 1113 1420 752 
Q 1681 391 2138 391 
Q 2594 391 2855 752 
Q 3116 1113 3116 1747 
z
M 1159 2969 
Q 1341 3281 1617 3432 
Q 1894 3584 2278 3584 
Q 2916 3584 3314 3078 
Q 3713 2572 3713 1747 
Q 3713 922 3314 415 
Q 2916 -91 2278 -91 
Q 1894 -91 1617 61 
Q 1341 213 1159 525 
L 1159 0 
L 581 0 
L 581 4863 
L 1159 4863 
L 1159 2969 
z
" transform="scale(0.015625)"/>
       <path id="DejaVuSans-70" d="M 1159 525 
L 1159 -1331 
L 581 -1331 
L 581 3500 
L 1159 3500 
L 1159 2969 
Q 1341 3281 1617 3432 
Q 1894 3584 2278 3584 
Q 2916 3584 3314 3078 
Q 3713 2572 3713 1747 
Q 3713 922 3314 415 
Q 2916 -91 2278 -91 
Q 1894 -91 1617 61 
Q 1341 213 1159 525 
z
M 3116 1747 
Q 3116 2381 2855 2742 
Q 2594 3103 2138 3103 
Q 1681 3103 1420 2742 
Q 1159 2381 1159 1747 
Q 1159 1113 1420 752 
Q 1681 391 2138 391 
Q 2594 391 2855 752 
Q 3116 1113 3116 1747 
z
" transform="scale(0.015625)"/>
       <path id="DejaVuSans-29" d="M 513 4856 
L 1013 4856 
Q 1481 4119 1714 3412 
Q 1947 2706 1947 2009 
Q 1947 1309 1714 600 
Q 1481 -109 1013 -844 
L 513 -844 
Q 928 -128 1133 580 
Q 1338 1288 1338 2009 
Q 1338 2731 1133 3434 
Q 928 4138 513 4856 
z
" transform="scale(0.015625)"/>
      </defs>
      <use xlink:href="#DejaVuSans-50"/>
      <use xlink:href="#DejaVuSans-6f" x="56.677734"/>
      <use xlink:href="#DejaVuSans-73" x="117.859375"/>
      <use xlink:href="#DejaVuSans-69" x="169.958984"/>
      <use xlink:href="#DejaVuSans-74" x="197.742188"/>
      <use xlink:href="#DejaVuSans-69" x="236.951172"/>
      <use xlink:href="#DejaVuSans-6f" x="264.734375"/>
      <use xlink:href="#DejaVuSans-6e" x="325.916016"/>
      <use xlink:href="#DejaVuSans-20" x="389.294922"/>
      <use xlink:href="#DejaVuSans-28" x="421.082031"/>
      <use xlink:href="#DejaVuSans-62" x="460.095703"/>
      <use xlink:href="#DejaVuSans-70" x="523.572266"/>
      <use xlink:href="#DejaVuSans-29" x="587.048828"/>
     </g>
    </g>
   </g>
   <g id="matplotlib.axis_2">
    <g id="ytick_1">
     <g id="line2d_1">
      <path d="M 32.968125 273.99006 
L 993.158125 273.99006 
" clip-path="url(#p0b1dcd7c23)" style="fill: none; stroke: #dedede; stroke-linecap: square"/>
     </g>
     <g id="text_11">
      <!-- 0 -->
      <g transform="translate(20.878125 277.029435) scale(0.08 -0.08)">
       <use xlink:href="#DejaVuSans-30"/>
      </g>
     </g>
    </g>
    <g id="ytick_2">
     <g id="line2d_2">
      <path d="M 32.968125 225.48862 
L 993.158125 225.48862 
" clip-path="url(#p0b1dcd7c23)" style="fill: none; stroke: #dedede; stroke-linecap: square"/>
     </g>
     <g id="text_12">
      <!-- 1 -->
      <g transform="translate(20.878125 228.527995) scale(0.08 -0.08)">
       <use xlink:href="#DejaVuSans-31"/>
      </g>
     </g>
    </g>
    <g id="ytick_3">
     <g id="line2d_3">
      <path d="M 32.968125 176.98718 
L 993.158125 176.98718 
" clip-path="url(#p0b1dcd7c23)" style="fill: none; stroke: #dedede; stroke-linecap: square"/>
     </g>
     <g id="text_13">
      <!-- 2 -->
      <g transform="translate(20.878125 180.026555) scale(0.08 -0.08)">
       <use xlink:href="#DejaVuSans-32"/>
      </g>
     </g>
    </g>
    <g id="ytick_4">
     <g id="line2d_4">
      <path d="M 32.968125 128.48574 
L 993.158125 128.48574 
" clip-path="url(#p0b1dcd7c23)" style="fill: none; stroke: #dedede; stroke-linecap: square"/>
     </g>
     <g id="text_14">
      <!-- 3 -->
      <g transform="translate(20.878125 131.525115) scale(0.08 -0.08)">
       <use xlink:href="#DejaVuSans-33"/>
      </g>
     </g>
    </g>
    <g id="ytick_5">
     <g id="line2d_5">
      <path d="M 32.968125 79.9843 
L 993.158125 79.9843 
" clip-path="url(#p0b1dcd7c23)" style="fill: none; stroke: #dedede; stroke-linecap: square"/>
     </g>
     <g id="text_15">
      <!-- 4 -->
      <g transform="translate(20.878125 83.023675) scale(0.08 -0.08)">
       <use xlink:href="#DejaVuSans-34"/>
      </g>
     </g>
    </g>
    <g id="ytick_6">
     <g id="line2d_6">
      <path d="M 32.968125 31.48286 
L 993.158125 31.48286 
" clip-path="url(#p0b1dcd7c23)" style="fill: none; stroke: #dedede; stroke-linecap: square"/>
     </g>
     <g id="text_16">
      <!-- 5 -->
      <g transform="translate(20.878125 34.522235) scale(0.08 -0.08)">
       <use xlink:href="#DejaVuSans-35"/>
      </g>
     </g>
    </g>
    <g id="text_17">
     <!-- % of Sequences -->
     <g transform="translate(14.798437 192.754429) rotate(-90) scale(0.1 -0.1)">
      <defs>
       <path id="DejaVuSans-25" d="M 4653 2053 
Q 4381 2053 4226 1822 
Q 4072 1591 4072 1178 
Q 4072 772 4226 539 
Q 4381 306 4653 306 
Q 4919 306 5073 539 
Q 5228 772 5228 1178 
Q 5228 1588 5073 1820 
Q 4919 2053 4653 2053 
z
M 4653 2450 
Q 5147 2450 5437 2106 
Q 5728 1763 5728 1178 
Q 5728 594 5436 251 
Q 5144 -91 4653 -91 
Q 4153 -91 3862 251 
Q 3572 594 3572 1178 
Q 3572 1766 3864 2108 
Q 4156 2450 4653 2450 
z
M 1428 4353 
Q 1159 4353 1004 4120 
Q 850 3888 850 3481 
Q 850 3069 1003 2837 
Q 1156 2606 1428 2606 
Q 1700 2606 1854 2837 
Q 2009 3069 2009 3481 
Q 2009 3884 1853 4118 
Q 1697 4353 1428 4353 
z
M 4250 4750 
L 4750 4750 
L 1831 -91 
L 1331 -91 
L 4250 4750 
z
M 1428 4750 
Q 1922 4750 2215 4408 
Q 2509 4066 2509 3481 
Q 2509 2891 2217 2550 
Q 1925 2209 1428 2209 
Q 931 2209 642 2551 
Q 353 2894 353 3481 
Q 353 4063 643 4406 
Q 934 4750 1428 4750 
z
" transform="scale(0.015625)"/>
       <path id="DejaVuSans-66" d="M 2375 4863 
L 2375 4384 
L 1825 4384 
Q 1516 4384 1395 4259 
Q 1275 4134 1275 3809 
L 1275 3500 
L 2222 3500 
L 2222 3053 
L 1275 3053 
L 1275 0 
L 697 0 
L 697 3053 
L 147 3053 
L 147 3500 
L 697 3500 
L 697 3744 
Q 697 4328 969 4595 
Q 1241 4863 1831 4863 
L 2375 4863 
z
" transform="scale(0.015625)"/>
       <path id="DejaVuSans-53" d="M 3425 4513 
L 3425 3897 
Q 3066 4069 2747 4153 
Q 2428 4238 2131 4238 
Q 1616 4238 1336 4038 
Q 1056 3838 1056 3469 
Q 1056 3159 1242 3001 
Q 1428 2844 1947 2747 
L 2328 2669 
Q 3034 2534 3370 2195 
Q 3706 1856 3706 1288 
Q 3706 609 3251 259 
Q 2797 -91 1919 -91 
Q 1588 -91 1214 -16 
Q 841 59 441 206 
L 441 856 
Q 825 641 1194 531 
Q 1563 422 1919 422 
Q 2459 422 2753 634 
Q 3047 847 3047 1241 
Q 3047 1584 2836 1778 
Q 2625 1972 2144 2069 
L 1759 2144 
Q 1053 2284 737 2584 
Q 422 2884 422 3419 
Q 422 4038 858 4394 
Q 1294 4750 2059 4750 
Q 2388 4750 2728 4690 
Q 3069 4631 3425 4513 
z
" transform="scale(0.015625)"/>
       <path id="DejaVuSans-65" d="M 3597 1894 
L 3597 1613 
L 953 1613 
Q 991 1019 1311 708 
Q 1631 397 2203 397 
Q 2534 397 2845 478 
Q 3156 559 3463 722 
L 3463 178 
Q 3153 47 2828 -22 
Q 2503 -91 2169 -91 
Q 1331 -91 842 396 
Q 353 884 353 1716 
Q 353 2575 817 3079 
Q 1281 3584 2069 3584 
Q 2775 3584 3186 3129 
Q 3597 2675 3597 1894 
z
M 3022 2063 
Q 3016 2534 2758 2815 
Q 2500 3097 2075 3097 
Q 1594 3097 1305 2825 
Q 1016 2553 972 2059 
L 3022 2063 
z
" transform="scale(0.015625)"/>
       <path id="DejaVuSans-71" d="M 947 1747 
Q 947 1113 1208 752 
Q 1469 391 1925 391 
Q 2381 391 2643 752 
Q 2906 1113 2906 1747 
Q 2906 2381 2643 2742 
Q 2381 3103 1925 3103 
Q 1469 3103 1208 2742 
Q 947 2381 947 1747 
z
M 2906 525 
Q 2725 213 2448 61 
Q 2172 -91 1784 -91 
Q 1150 -91 751 415 
Q 353 922 353 1747 
Q 353 2572 751 3078 
Q 1150 3584 1784 3584 
Q 2172 3584 2448 3432 
Q 2725 3281 2906 2969 
L 2906 3500 
L 3481 3500 
L 3481 -1331 
L 2906 -1331 
L 2906 525 
z
" transform="scale(0.015625)"/>
       <path id="DejaVuSans-75" d="M 544 1381 
L 544 3500 
L 1119 3500 
L 1119 1403 
Q 1119 906 1312 657 
Q 1506 409 1894 409 
Q 2359 409 2629 706 
Q 2900 1003 2900 1516 
L 2900 3500 
L 3475 3500 
L 3475 0 
L 2900 0 
L 2900 538 
Q 2691 219 2414 64 
Q 2138 -91 1772 -91 
Q 1169 -91 856 284 
Q 544 659 544 1381 
z
M 1991 3584 
L 1991 3584 
z
" transform="scale(0.015625)"/>
       <path id="DejaVuSans-63" d="M 3122 3366 
L 3122 2828 
Q 2878 2963 2633 3030 
Q 2388 3097 2138 3097 
Q 1578 3097 1268 2742 
Q 959 2388 959 1747 
Q 959 1106 1268 751 
Q 1578 397 2138 397 
Q 2388 397 2633 464 
Q 2878 531 3122 666 
L 3122 134 
Q 2881 22 2623 -34 
Q 2366 -91 2075 -91 
Q 1284 -91 818 406 
Q 353 903 353 1747 
Q 353 2603 823 3093 
Q 1294 3584 2113 3584 
Q 2378 3584 2631 3529 
Q 2884 3475 3122 3366 
z
" transform="scale(0.015625)"/>
      </defs>
      <use xlink:href="#DejaVuSans-25"/>
      <use xlink:href="#DejaVuSans-20" x="95.019531"/>
      <use xlink:href="#DejaVuSans-6f" x="126.806641"/>
      <use xlink:href="#DejaVuSans-66" x="187.988281"/>
      <use xlink:href="#DejaVuSans-20" x="223.193359"/>
      <use xlink:href="#DejaVuSans-53" x="254.980469"/>
      <use xlink:href="#DejaVuSans-65" x="318.457031"/>
      <use xlink:href="#DejaVuSans-71" x="379.980469"/>
      <use xlink:href="#DejaVuSans-75" x="443.457031"/>
      <use xlink:href="#DejaVuSans-65" x="506.835938"/>
      <use xlink:href="#DejaVuSans-6e" x="568.359375"/>
      <use xlink:href="#DejaVuSans-63" x="631.738281"/>
      <use xlink:href="#DejaVuSans-65" x="686.71875"/>
      <use xlink:href="#DejaVuSans-73" x="748.242188"/>
     </g>
    </g>
   </g>
   <g id="line2d_7">
    <path d="M 76.613125 273.121643 
L 99.584178 272.965682 
L 122.55523 272.685662 
L 145.526283 272.203602 
L 168.497336 271.138462 
L 191.468388 269.293519 
L 214.439441 267.523012 
L 237.410493 266.271783 
L 260.381546 265.660347 
L 283.352599 265.203098 
L 306.323651 264.88586 
L 329.294704 264.621791 
L 352.265757 264.394939 
L 375.236809 264.079473 
L 398.207862 263.817176 
L 421.178914 263.533611 
L 444.149967 263.15966 
L 467.12102 262.587214 
L 490.092072 262.21858 
L 513.063125 261.888936 
L 536.034178 261.490173 
L 559.00523 260.993935 
L 581.976283 260.042221 
L 604.947336 259.12418 
L 627.918388 258.558823 
L 650.889441 257.899535 
L 673.860493 257.036435 
L 696.831546 256.191057 
L 719.802599 255.498096 
L 742.773651 254.70057 
L 765.744704 253.906589 
L 788.715757 253.029311 
L 811.686809 251.981894 
L 834.657862 250.955744 
L 857.628914 249.844525 
L 880.599967 248.478097 
L 903.57102 247.132937 
L 926.542072 245.607005 
L 949.513125 244.01727 
" clip-path="url(#p0b1dcd7c23)" style="fill: none; stroke: #7cb5ec; stroke-linecap: square"/>
   </g>
   <g id="line2d_8">
    <path d="M 76.613125 273.242158 
L 99.584178 273.151772 
L 122.55523 272.939098 
L 145.526283 272.630722 
L 168.497336 271.868641 
L 191.468388 270.346253 
L 214.439441 268.871717 
L 237.410493 267.86329 
L 260.381546 267.505289 
L 283.352599 267.262487 
L 306.323651 267.136655 
L 329.294704 267.063992 
L 352.265757 266.998418 
L 375.236809 266.92221 
L 398.207862 266.817645 
L 421.178914 266.721942 
L 444.149967 266.537625 
L 467.12102 266.218615 
L 490.092072 266.007713 
L 513.063125 265.83403 
L 536.034178 265.575277 
L 559.00523 265.272217 
L 581.976283 264.740534 
L 604.947336 264.254929 
L 627.918388 263.880978 
L 650.889441 263.425502 
L 673.860493 262.799888 
L 696.831546 262.202629 
L 719.802599 261.690441 
L 742.773651 261.047103 
L 765.744704 260.442756 
L 788.715757 259.7303 
L 811.686809 258.874289 
L 834.657862 258.050179 
L 857.628914 257.096692 
L 880.599967 255.934077 
L 903.57102 254.760828 
L 926.542072 253.420985 
L 949.513125 252.003161 
" clip-path="url(#p0b1dcd7c23)" style="fill: none; stroke: #434348; stroke-linecap: square"/>
   </g>
   <g id="line2d_9">
    <path d="M 76.613125 273.192733 
L 99.584178 273.02081 
L 122.55523 272.786595 
L 145.526283 272.235941 
L 168.497336 271.204399 
L 191.468388 269.407922 
L 214.439441 267.87556 
L 237.410493 266.749336 
L 260.381546 266.118949 
L 283.352599 265.615637 
L 306.323651 265.214482 
L 329.294704 264.823293 
L 352.265757 264.45453 
L 375.236809 264.098224 
L 398.207862 263.712019 
L 421.178914 263.408038 
L 444.149967 262.996917 
L 467.12102 262.346597 
L 490.092072 261.838301 
L 513.063125 261.33748 
L 536.034178 260.794301 
L 559.00523 260.106607 
L 581.976283 258.763609 
L 604.947336 257.460478 
L 627.918388 256.531094 
L 650.889441 255.524469 
L 673.860493 254.141606 
L 696.831546 252.908241 
L 719.802599 251.652451 
L 742.773651 250.344337 
L 765.744704 248.966456 
L 788.715757 247.389244 
L 811.686809 245.550409 
L 834.657862 243.654266 
L 857.628914 241.710782 
L 880.599967 239.473284 
L 903.57102 237.009046 
L 926.542072 234.320559 
L 949.513125 231.465133 
" clip-path="url(#p0b1dcd7c23)" style="fill: none; stroke: #90ed7d; stroke-linecap: square"/>
   </g>
   <g id="line2d_10">
    <path d="M 76.613125 273.327282 
L 99.584178 273.245058 
L 122.55523 273.117984 
L 145.526283 272.828953 
L 168.497336 272.161192 
L 191.468388 270.813211 
L 214.439441 269.577354 
L 237.410493 268.780028 
L 260.381546 268.408772 
L 283.352599 268.174558 
L 306.323651 268.010109 
L 329.294704 267.912935 
L 352.265757 267.833202 
L 375.236809 267.726061 
L 398.207862 267.571579 
L 421.178914 267.404639 
L 444.149967 267.21029 
L 467.12102 266.87641 
L 490.092072 266.577412 
L 513.063125 266.273431 
L 536.034178 265.912143 
L 559.00523 265.478596 
L 581.976283 264.718644 
L 604.947336 263.968659 
L 627.918388 263.261031 
L 650.889441 262.501079 
L 673.860493 261.422196 
L 696.831546 260.47537 
L 719.802599 259.493662 
L 742.773651 258.434712 
L 765.744704 257.32593 
L 788.715757 255.980441 
L 811.686809 254.413195 
L 834.657862 252.7712 
L 857.628914 251.094322 
L 880.599967 249.091039 
L 903.57102 246.858523 
L 926.542072 244.40176 
L 949.513125 241.755632 
" clip-path="url(#p0b1dcd7c23)" style="fill: none; stroke: #f7a35c; stroke-linecap: square"/>
   </g>
   <g id="line2d_11">
    <path d="M 76.613125 272.971883 
L 99.584178 272.737633 
L 122.55523 272.461635 
L 145.526283 271.958345 
L 168.497336 270.798691 
L 191.468388 268.678842 
L 214.439441 266.865142 
L 237.410493 265.675337 
L 260.381546 265.076955 
L 283.352599 264.601496 
L 306.323651 264.209533 
L 329.294704 263.9173 
L 352.265757 263.641302 
L 375.236809 263.307322 
L 398.207862 263.01277 
L 421.178914 262.697344 
L 444.149967 262.254356 
L 467.12102 261.618865 
L 490.092072 261.052953 
L 513.063125 260.598369 
L 536.034178 260.081163 
L 559.00523 259.332026 
L 581.976283 258.174691 
L 604.947336 256.970969 
L 627.918388 256.050203 
L 650.889441 255.02275 
L 673.860493 253.825986 
L 696.831546 252.522534 
L 719.802599 251.170377 
L 742.773651 249.795027 
L 765.744704 248.319946 
L 788.715757 246.779925 
L 811.686809 245.054359 
L 834.657862 243.041198 
L 857.628914 241.025719 
L 880.599967 238.859484 
L 903.57102 236.312882 
L 926.542072 233.538989 
L 949.513125 230.565634 
" clip-path="url(#p0b1dcd7c23)" style="fill: none; stroke: #8085e9; stroke-linecap: square"/>
   </g>
   <g id="line2d_12">
    <path d="M 76.613125 273.062336 
L 99.584178 272.899985 
L 122.55523 272.726036 
L 145.526283 272.37814 
L 168.497336 271.459694 
L 191.468388 269.683103 
L 214.439441 268.04799 
L 237.410493 267.07388 
L 260.381546 266.665682 
L 283.352599 266.373449 
L 306.323651 266.178627 
L 329.294704 266.058023 
L 352.265757 265.916545 
L 375.236809 265.751874 
L 398.207862 265.570968 
L 421.178914 265.366868 
L 444.149967 265.121022 
L 467.12102 264.696588 
L 490.092072 264.299986 
L 513.063125 263.972964 
L 536.034178 263.578681 
L 559.00523 263.017408 
L 581.976283 262.247398 
L 604.947336 261.461152 
L 627.918388 260.716654 
L 650.889441 259.893299 
L 673.860493 258.919189 
L 696.831546 257.868542 
L 719.802599 256.739038 
L 742.773651 255.570106 
L 765.744704 254.268974 
L 788.715757 252.868111 
L 811.686809 251.337367 
L 834.657862 249.479601 
L 857.628914 247.656624 
L 880.599967 245.65274 
L 903.57102 243.351986 
L 926.542072 240.8193 
L 949.513125 238.024533 
" clip-path="url(#p0b1dcd7c23)" style="fill: none; stroke: #f15c80; stroke-linecap: square"/>
   </g>
   <g id="line2d_13">
    <path d="M 76.613125 273.234385 
L 99.584178 273.021638 
L 122.55523 272.708475 
L 145.526283 272.196182 
L 168.497336 270.982676 
L 191.468388 268.99137 
L 214.439441 267.115797 
L 237.410493 265.638486 
L 260.381546 264.802818 
L 283.352599 264.123731 
L 306.323651 263.592716 
L 329.294704 263.180839 
L 352.265757 262.784279 
L 375.236809 262.341767 
L 398.207862 261.962227 
L 421.178914 261.538436 
L 444.149967 261.012527 
L 467.12102 260.171753 
L 490.092072 259.548832 
L 513.063125 258.881659 
L 536.034178 258.178745 
L 559.00523 257.261382 
L 581.976283 256.020645 
L 604.947336 254.660769 
L 627.918388 253.404714 
L 650.889441 252.021012 
L 673.860493 250.397331 
L 696.831546 248.634088 
L 719.802599 246.864038 
L 742.773651 245.058246 
L 765.744704 243.220117 
L 788.715757 241.085844 
L 811.686809 238.566927 
L 834.657862 236.029287 
L 857.628914 233.311239 
L 880.599967 230.37704 
L 903.57102 227.26924 
L 926.542072 223.986137 
L 949.513125 220.810258 
" clip-path="url(#p0b1dcd7c23)" style="fill: none; stroke: #e4d354; stroke-linecap: square"/>
   </g>
   <g id="line2d_14">
    <path d="M 76.613125 273.355225 
L 99.584178 273.259914 
L 122.55523 273.118651 
L 145.526283 272.866759 
L 168.497336 272.199586 
L 191.468388 270.824393 
L 214.439441 269.394737 
L 237.410493 268.382064 
L 260.381546 268.012736 
L 283.352599 267.737017 
L 306.323651 267.551502 
L 329.294704 267.422152 
L 352.265757 267.292802 
L 375.236809 267.165154 
L 398.207862 267.013679 
L 421.178914 266.84178 
L 444.149967 266.593292 
L 467.12102 266.160991 
L 490.092072 265.789961 
L 513.063125 265.35766 
L 536.034178 264.911744 
L 559.00523 264.338179 
L 581.976283 263.500809 
L 604.947336 262.641314 
L 627.918388 261.739269 
L 650.889441 260.709576 
L 673.860493 259.443309 
L 696.831546 258.035779 
L 719.802599 256.589103 
L 742.773651 255.156043 
L 765.744704 253.683838 
L 788.715757 251.85592 
L 811.686809 249.735264 
L 834.657862 247.527807 
L 857.628914 245.264185 
L 880.599967 242.685698 
L 903.57102 239.921696 
L 926.542072 237.060682 
L 949.513125 235.394452 
" clip-path="url(#p0b1dcd7c23)" style="fill: none; stroke: #2b908f; stroke-linecap: square"/>
   </g>
   <g id="line2d_15">
    <path d="M 76.613125 273.575294 
L 99.584178 273.497848 
L 122.55523 273.368772 
L 145.526283 273.167413 
L 168.497336 272.666596 
L 191.468388 271.821576 
L 214.439441 270.911156 
L 237.410493 270.252006 
L 260.381546 269.919849 
L 283.352599 269.670301 
L 306.323651 269.479268 
L 329.294704 269.322656 
L 352.265757 269.207347 
L 375.236809 269.038687 
L 398.207862 268.880354 
L 421.178914 268.687599 
L 444.149967 268.472472 
L 467.12102 268.178178 
L 490.092072 267.913141 
L 513.063125 267.60852 
L 536.034178 267.210965 
L 559.00523 266.787594 
L 581.976283 266.199005 
L 604.947336 265.586323 
L 627.918388 264.939219 
L 650.889441 264.183692 
L 673.860493 263.2182 
L 696.831546 262.223451 
L 719.802599 261.228702 
L 742.773651 260.073898 
L 765.744704 258.817554 
L 788.715757 257.430412 
L 811.686809 255.864284 
L 834.657862 254.229316 
L 857.628914 252.475597 
L 880.599967 250.591081 
L 903.57102 248.469064 
L 926.542072 246.159456 
L 949.513125 243.994414 
" clip-path="url(#p0b1dcd7c23)" style="fill: none; stroke: #f45b5b; stroke-linecap: square"/>
   </g>
   <g id="line2d_16">
    <path d="M 76.613125 273.645856 
L 99.584178 273.607994 
L 122.55523 273.53399 
L 145.526283 273.451381 
L 168.497336 273.122666 
L 191.468388 272.520309 
L 214.439441 271.835344 
L 237.410493 271.403368 
L 260.381546 271.231266 
L 283.352599 271.110795 
L 306.323651 271.026465 
L 329.294704 270.981718 
L 352.265757 270.936972 
L 375.236809 270.864689 
L 398.207862 270.797569 
L 421.178914 270.733891 
L 444.149967 270.618583 
L 467.12102 270.458528 
L 490.092072 270.269216 
L 513.063125 270.09023 
L 536.034178 269.804541 
L 559.00523 269.484431 
L 581.976283 269.061061 
L 604.947336 268.613596 
L 627.918388 268.119663 
L 650.889441 267.52419 
L 673.860493 266.748011 
L 696.831546 265.897827 
L 719.802599 265.063133 
L 742.773651 264.082152 
L 765.744704 263.03233 
L 788.715757 261.822453 
L 811.686809 260.435312 
L 834.657862 258.96384 
L 857.628914 257.428691 
L 880.599967 255.748976 
L 903.57102 253.840366 
L 926.542072 251.764816 
L 949.513125 250.613454 
" clip-path="url(#p0b1dcd7c23)" style="fill: none; stroke: #91e8e1; stroke-linecap: square"/>
   </g>
   <g id="line2d_17">
    <path d="M 76.613125 273.537788 
L 99.584178 273.420197 
L 122.55523 273.248334 
L 145.526283 272.983001 
L 168.497336 272.506608 
L 191.468388 271.660859 
L 214.439441 270.843754 
L 237.410493 270.219619 
L 260.381546 269.872877 
L 283.352599 269.587946 
L 306.323651 269.337689 
L 329.294704 269.152257 
L 352.265757 268.996977 
L 375.236809 268.804008 
L 398.207862 268.627621 
L 421.178914 268.440682 
L 444.149967 268.214546 
L 467.12102 267.902479 
L 490.092072 267.637146 
L 513.063125 267.352214 
L 536.034178 266.994919 
L 559.00523 266.571291 
L 581.976283 266.084345 
L 604.947336 265.491869 
L 627.918388 264.934067 
L 650.889441 264.23003 
L 673.860493 263.418955 
L 696.831546 262.582252 
L 719.802599 261.665648 
L 742.773651 260.758088 
L 765.744704 259.731431 
L 788.715757 258.658039 
L 811.686809 257.325344 
L 834.657862 255.897672 
L 857.628914 254.463969 
L 880.599967 252.796593 
L 903.57102 251.038763 
L 926.542072 248.950774 
L 949.513125 247.067814 
" clip-path="url(#p0b1dcd7c23)" style="fill: none; stroke: #7cb5ec; stroke-linecap: square"/>
   </g>
   <g id="line2d_18">
    <path d="M 76.613125 273.610152 
L 99.584178 273.554371 
L 122.55523 273.471455 
L 145.526283 273.370447 
L 168.497336 273.099084 
L 191.468388 272.527714 
L 214.439441 271.965389 
L 237.410493 271.639753 
L 260.381546 271.504071 
L 283.352599 271.41211 
L 306.323651 271.320148 
L 329.294704 271.277935 
L 352.265757 271.223663 
L 375.236809 271.160345 
L 398.207862 271.110595 
L 421.178914 271.030693 
L 444.149967 270.931194 
L 467.12102 270.784959 
L 490.092072 270.64777 
L 513.063125 270.477414 
L 536.034178 270.269369 
L 559.00523 269.990468 
L 581.976283 269.661817 
L 604.947336 269.26834 
L 627.918388 268.868833 
L 650.889441 268.344198 
L 673.860493 267.711017 
L 696.831546 267.025071 
L 719.802599 266.274299 
L 742.773651 265.550664 
L 765.744704 264.718484 
L 788.715757 263.818462 
L 811.686809 262.674214 
L 834.657862 261.430466 
L 857.628914 260.182195 
L 880.599967 258.739448 
L 903.57102 257.222829 
L 926.542072 255.421279 
L 949.513125 254.524272 
" clip-path="url(#p0b1dcd7c23)" style="fill: none; stroke: #434348; stroke-linecap: square"/>
   </g>
   <g id="line2d_19">
    <path d="M 32.968125 273.99006 
L 993.158125 273.99006 
" clip-path="url(#p0b1dcd7c23)" style="fill: none; stroke: #dedede; stroke-width: 2; stroke-linecap: square"/>
   </g>
   <g id="text_18">
    <!-- FastQC: Adapter Content -->
    <g transform="translate(413.765625 19.3575) scale(0.16 -0.16)">
     <defs>
      <path id="DejaVuSans-46" d="M 628 4666 
L 3309 4666 
L 3309 4134 
L 1259 4134 
L 1259 2759 
L 3109 2759 
L 3109 2228 
L 1259 2228 
L 1259 0 
L 628 0 
L 628 4666 
z
" transform="scale(0.015625)"/>
      <path id="DejaVuSans-61" d="M 2194 1759 
Q 1497 1759 1228 1600 
Q 959 1441 959 1056 
Q 959 750 1161 570 
Q 1363 391 1709 391 
Q 2188 391 2477 730 
Q 2766 1069 2766 1631 
L 2766 1759 
L 2194 1759 
z
M 3341 1997 
L 3341 0 
L 2766 0 
L 2766 531 
Q 2569 213 2275 61 
Q 1981 -91 1556 -91 
Q 1019 -91 701 211 
Q 384 513 384 1019 
Q 384 1609 779 1909 
Q 1175 2209 1959 2209 
L 2766 2209 
L 2766 2266 
Q 2766 2663 2505 2880 
Q 2244 3097 1772 3097 
Q 1472 3097 1187 3025 
Q 903 2953 641 2809 
L 641 3341 
Q 956 3463 1253 3523 
Q 1550 3584 1831 3584 
Q 2591 3584 2966 3190 
Q 3341 2797 3341 1997 
z
" transform="scale(0.015625)"/>
      <path id="DejaVuSans-51" d="M 2522 4238 
Q 1834 4238 1429 3725 
Q 1025 3213 1025 2328 
Q 1025 1447 1429 934 
Q 1834 422 2522 422 
Q 3209 422 3611 934 
Q 4013 1447 4013 2328 
Q 4013 3213 3611 3725 
Q 3209 4238 2522 4238 
z
M 3406 84 
L 4238 -825 
L 3475 -825 
L 2784 -78 
Q 2681 -84 2626 -87 
Q 2572 -91 2522 -91 
Q 1538 -91 948 567 
Q 359 1225 359 2328 
Q 359 3434 948 4092 
Q 1538 4750 2522 4750 
Q 3503 4750 4090 4092 
Q 4678 3434 4678 2328 
Q 4678 1516 4351 937 
Q 4025 359 3406 84 
z
" transform="scale(0.015625)"/>
      <path id="DejaVuSans-43" d="M 4122 4306 
L 4122 3641 
Q 3803 3938 3442 4084 
Q 3081 4231 2675 4231 
Q 1875 4231 1450 3742 
Q 1025 3253 1025 2328 
Q 1025 1406 1450 917 
Q 1875 428 2675 428 
Q 3081 428 3442 575 
Q 3803 722 4122 1019 
L 4122 359 
Q 3791 134 3420 21 
Q 3050 -91 2638 -91 
Q 1578 -91 968 557 
Q 359 1206 359 2328 
Q 359 3453 968 4101 
Q 1578 4750 2638 4750 
Q 3056 4750 3426 4639 
Q 3797 4528 4122 4306 
z
" transform="scale(0.015625)"/>
      <path id="DejaVuSans-3a" d="M 750 794 
L 1409 794 
L 1409 0 
L 750 0 
L 750 794 
z
M 750 3309 
L 1409 3309 
L 1409 2516 
L 750 2516 
L 750 3309 
z
" transform="scale(0.015625)"/>
      <path id="DejaVuSans-41" d="M 2188 4044 
L 1331 1722 
L 3047 1722 
L 2188 4044 
z
M 1831 4666 
L 2547 4666 
L 4325 0 
L 3669 0 
L 3244 1197 
L 1141 1197 
L 716 0 
L 50 0 
L 1831 4666 
z
" transform="scale(0.015625)"/>
      <path id="DejaVuSans-64" d="M 2906 2969 
L 2906 4863 
L 3481 4863 
L 3481 0 
L 2906 0 
L 2906 525 
Q 2725 213 2448 61 
Q 2172 -91 1784 -91 
Q 1150 -91 751 415 
Q 353 922 353 1747 
Q 353 2572 751 3078 
Q 1150 3584 1784 3584 
Q 2172 3584 2448 3432 
Q 2725 3281 2906 2969 
z
M 947 1747 
Q 947 1113 1208 752 
Q 1469 391 1925 391 
Q 2381 391 2643 752 
Q 2906 1113 2906 1747 
Q 2906 2381 2643 2742 
Q 2381 3103 1925 3103 
Q 1469 3103 1208 2742 
Q 947 2381 947 1747 
z
" transform="scale(0.015625)"/>
      <path id="DejaVuSans-72" d="M 2631 2963 
Q 2534 3019 2420 3045 
Q 2306 3072 2169 3072 
Q 1681 3072 1420 2755 
Q 1159 2438 1159 1844 
L 1159 0 
L 581 0 
L 581 3500 
L 1159 3500 
L 1159 2956 
Q 1341 3275 1631 3429 
Q 1922 3584 2338 3584 
Q 2397 3584 2469 3576 
Q 2541 3569 2628 3553 
L 2631 2963 
z
" transform="scale(0.015625)"/>
     </defs>
     <use xlink:href="#DejaVuSans-46"/>
     <use xlink:href="#DejaVuSans-61" x="48.394531"/>
     <use xlink:href="#DejaVuSans-73" x="109.673828"/>
     <use xlink:href="#DejaVuSans-74" x="161.773438"/>
     <use xlink:href="#DejaVuSans-51" x="200.982422"/>
     <use xlink:href="#DejaVuSans-43" x="279.693359"/>
     <use xlink:href="#DejaVuSans-3a" x="349.517578"/>
     <use xlink:href="#DejaVuSans-20" x="383.208984"/>
     <use xlink:href="#DejaVuSans-41" x="414.996094"/>
     <use xlink:href="#DejaVuSans-64" x="481.654297"/>
     <use xlink:href="#DejaVuSans-61" x="545.130859"/>
     <use xlink:href="#DejaVuSans-70" x="606.410156"/>
     <use xlink:href="#DejaVuSans-74" x="669.886719"/>
     <use xlink:href="#DejaVuSans-65" x="709.095703"/>
     <use xlink:href="#DejaVuSans-72" x="770.619141"/>
     <use xlink:href="#DejaVuSans-20" x="811.732422"/>
     <use xlink:href="#DejaVuSans-43" x="843.519531"/>
     <use xlink:href="#DejaVuSans-6f" x="913.34375"/>
     <use xlink:href="#DejaVuSans-6e" x="974.525391"/>
     <use xlink:href="#DejaVuSans-74" x="1037.904297"/>
     <use xlink:href="#DejaVuSans-65" x="1077.113281"/>
     <use xlink:href="#DejaVuSans-6e" x="1138.636719"/>
     <use xlink:href="#DejaVuSans-74" x="1202.015625"/>
    </g>
   </g>
   <g id="legend_1">
    <g id="line2d_20">
     <path d="M 40.168125 291.525394 
L 48.168125 291.525394 
L 56.168125 291.525394 
" style="fill: none; stroke: #7cb5ec; stroke-linecap: square"/>
    </g>
    <g id="text_19">
     <!-- SRR5961980_T1_1 - illumina_universal_adapter -->
     <g transform="translate(62.568125 294.325394) scale(0.08 -0.08)">
      <defs>
       <path id="DejaVuSans-52" d="M 2841 2188 
Q 3044 2119 3236 1894 
Q 3428 1669 3622 1275 
L 4263 0 
L 3584 0 
L 2988 1197 
Q 2756 1666 2539 1819 
Q 2322 1972 1947 1972 
L 1259 1972 
L 1259 0 
L 628 0 
L 628 4666 
L 2053 4666 
Q 2853 4666 3247 4331 
Q 3641 3997 3641 3322 
Q 3641 2881 3436 2590 
Q 3231 2300 2841 2188 
z
M 1259 4147 
L 1259 2491 
L 2053 2491 
Q 2509 2491 2742 2702 
Q 2975 2913 2975 3322 
Q 2975 3731 2742 3939 
Q 2509 4147 2053 4147 
L 1259 4147 
z
" transform="scale(0.015625)"/>
       <path id="DejaVuSans-39" d="M 703 97 
L 703 672 
Q 941 559 1184 500 
Q 1428 441 1663 441 
Q 2288 441 2617 861 
Q 2947 1281 2994 2138 
Q 2813 1869 2534 1725 
Q 2256 1581 1919 1581 
Q 1219 1581 811 2004 
Q 403 2428 403 3163 
Q 403 3881 828 4315 
Q 1253 4750 1959 4750 
Q 2769 4750 3195 4129 
Q 3622 3509 3622 2328 
Q 3622 1225 3098 567 
Q 2575 -91 1691 -91 
Q 1453 -91 1209 -44 
Q 966 3 703 97 
z
M 1959 2075 
Q 2384 2075 2632 2365 
Q 2881 2656 2881 3163 
Q 2881 3666 2632 3958 
Q 2384 4250 1959 4250 
Q 1534 4250 1286 3958 
Q 1038 3666 1038 3163 
Q 1038 2656 1286 2365 
Q 1534 2075 1959 2075 
z
" transform="scale(0.015625)"/>
       <path id="DejaVuSans-36" d="M 2113 2584 
Q 1688 2584 1439 2293 
Q 1191 2003 1191 1497 
Q 1191 994 1439 701 
Q 1688 409 2113 409 
Q 2538 409 2786 701 
Q 3034 994 3034 1497 
Q 3034 2003 2786 2293 
Q 2538 2584 2113 2584 
z
M 3366 4563 
L 3366 3988 
Q 3128 4100 2886 4159 
Q 2644 4219 2406 4219 
Q 1781 4219 1451 3797 
Q 1122 3375 1075 2522 
Q 1259 2794 1537 2939 
Q 1816 3084 2150 3084 
Q 2853 3084 3261 2657 
Q 3669 2231 3669 1497 
Q 3669 778 3244 343 
Q 2819 -91 2113 -91 
Q 1303 -91 875 529 
Q 447 1150 447 2328 
Q 447 3434 972 4092 
Q 1497 4750 2381 4750 
Q 2619 4750 2861 4703 
Q 3103 4656 3366 4563 
z
" transform="scale(0.015625)"/>
       <path id="DejaVuSans-38" d="M 2034 2216 
Q 1584 2216 1326 1975 
Q 1069 1734 1069 1313 
Q 1069 891 1326 650 
Q 1584 409 2034 409 
Q 2484 409 2743 651 
Q 3003 894 3003 1313 
Q 3003 1734 2745 1975 
Q 2488 2216 2034 2216 
z
M 1403 2484 
Q 997 2584 770 2862 
Q 544 3141 544 3541 
Q 544 4100 942 4425 
Q 1341 4750 2034 4750 
Q 2731 4750 3128 4425 
Q 3525 4100 3525 3541 
Q 3525 3141 3298 2862 
Q 3072 2584 2669 2484 
Q 3125 2378 3379 2068 
Q 3634 1759 3634 1313 
Q 3634 634 3220 271 
Q 2806 -91 2034 -91 
Q 1263 -91 848 271 
Q 434 634 434 1313 
Q 434 1759 690 2068 
Q 947 2378 1403 2484 
z
M 1172 3481 
Q 1172 3119 1398 2916 
Q 1625 2713 2034 2713 
Q 2441 2713 2670 2916 
Q 2900 3119 2900 3481 
Q 2900 3844 2670 4047 
Q 2441 4250 2034 4250 
Q 1625 4250 1398 4047 
Q 1172 3844 1172 3481 
z
" transform="scale(0.015625)"/>
       <path id="DejaVuSans-5f" d="M 3263 -1063 
L 3263 -1509 
L -63 -1509 
L -63 -1063 
L 3263 -1063 
z
" transform="scale(0.015625)"/>
       <path id="DejaVuSans-54" d="M -19 4666 
L 3928 4666 
L 3928 4134 
L 2272 4134 
L 2272 0 
L 1638 0 
L 1638 4134 
L -19 4134 
L -19 4666 
z
" transform="scale(0.015625)"/>
       <path id="DejaVuSans-2d" d="M 313 2009 
L 1997 2009 
L 1997 1497 
L 313 1497 
L 313 2009 
z
" transform="scale(0.015625)"/>
       <path id="DejaVuSans-6c" d="M 603 4863 
L 1178 4863 
L 1178 0 
L 603 0 
L 603 4863 
z
" transform="scale(0.015625)"/>
       <path id="DejaVuSans-6d" d="M 3328 2828 
Q 3544 3216 3844 3400 
Q 4144 3584 4550 3584 
Q 5097 3584 5394 3201 
Q 5691 2819 5691 2113 
L 5691 0 
L 5113 0 
L 5113 2094 
Q 5113 2597 4934 2840 
Q 4756 3084 4391 3084 
Q 3944 3084 3684 2787 
Q 3425 2491 3425 1978 
L 3425 0 
L 2847 0 
L 2847 2094 
Q 2847 2600 2669 2842 
Q 2491 3084 2119 3084 
Q 1678 3084 1418 2786 
Q 1159 2488 1159 1978 
L 1159 0 
L 581 0 
L 581 3500 
L 1159 3500 
L 1159 2956 
Q 1356 3278 1631 3431 
Q 1906 3584 2284 3584 
Q 2666 3584 2933 3390 
Q 3200 3197 3328 2828 
z
" transform="scale(0.015625)"/>
       <path id="DejaVuSans-76" d="M 191 3500 
L 800 3500 
L 1894 563 
L 2988 3500 
L 3597 3500 
L 2284 0 
L 1503 0 
L 191 3500 
z
" transform="scale(0.015625)"/>
      </defs>
      <use xlink:href="#DejaVuSans-53"/>
      <use xlink:href="#DejaVuSans-52" x="63.476562"/>
      <use xlink:href="#DejaVuSans-52" x="132.958984"/>
      <use xlink:href="#DejaVuSans-35" x="202.441406"/>
      <use xlink:href="#DejaVuSans-39" x="266.064453"/>
      <use xlink:href="#DejaVuSans-36" x="329.6875"/>
      <use xlink:href="#DejaVuSans-31" x="393.310547"/>
      <use xlink:href="#DejaVuSans-39" x="456.933594"/>
      <use xlink:href="#DejaVuSans-38" x="520.556641"/>
      <use xlink:href="#DejaVuSans-30" x="584.179688"/>
      <use xlink:href="#DejaVuSans-5f" x="647.802734"/>
      <use xlink:href="#DejaVuSans-54" x="697.802734"/>
      <use xlink:href="#DejaVuSans-31" x="758.886719"/>
      <use xlink:href="#DejaVuSans-5f" x="822.509766"/>
      <use xlink:href="#DejaVuSans-31" x="872.509766"/>
      <use xlink:href="#DejaVuSans-20" x="936.132812"/>
      <use xlink:href="#DejaVuSans-2d" x="967.919922"/>
      <use xlink:href="#DejaVuSans-20" x="1004.003906"/>
      <use xlink:href="#DejaVuSans-69" x="1035.791016"/>
      <use xlink:href="#DejaVuSans-6c" x="1063.574219"/>
      <use xlink:href="#DejaVuSans-6c" x="1091.357422"/>
      <use xlink:href="#DejaVuSans-75" x="1119.140625"/>
      <use xlink:href="#DejaVuSans-6d" x="1182.519531"/>
      <use xlink:href="#DejaVuSans-69" x="1279.931641"/>
      <use xlink:href="#DejaVuSans-6e" x="1307.714844"/>
      <use xlink:href="#DejaVuSans-61" x="1371.09375"/>
      <use xlink:href="#DejaVuSans-5f" x="1432.373047"/>
      <use xlink:href="#DejaVuSans-75" x="1482.373047"/>
      <use xlink:href="#DejaVuSans-6e" x="1545.751953"/>
      <use xlink:href="#DejaVuSans-69" x="1609.130859"/>
      <use xlink:href="#DejaVuSans-76" x="1636.914062"/>
      <use xlink:href="#DejaVuSans-65" x="1696.09375"/>
      <use xlink:href="#DejaVuSans-72" x="1757.617188"/>
      <use xlink:href="#DejaVuSans-73" x="1798.730469"/>
      <use xlink:href="#DejaVuSans-61" x="1850.830078"/>
      <use xlink:href="#DejaVuSans-6c" x="1912.109375"/>
      <use xlink:href="#DejaVuSans-5f" x="1939.892578"/>
      <use xlink:href="#DejaVuSans-61" x="1989.892578"/>
      <use xlink:href="#DejaVuSans-64" x="2051.171875"/>
      <use xlink:href="#DejaVuSans-61" x="2114.648438"/>
      <use xlink:href="#DejaVuSans-70" x="2175.927734"/>
      <use xlink:href="#DejaVuSans-74" x="2239.404297"/>
      <use xlink:href="#DejaVuSans-65" x="2278.613281"/>
      <use xlink:href="#DejaVuSans-72" x="2340.136719"/>
     </g>
    </g>
    <g id="line2d_21">
     <path d="M 40.168125 303.490394 
L 48.168125 303.490394 
L 56.168125 303.490394 
" style="fill: none; stroke: #434348; stroke-linecap: square"/>
    </g>
    <g id="text_20">
     <!-- SRR5961980_T1_2 - illumina_universal_adapter -->
     <g transform="translate(62.568125 306.290394) scale(0.08 -0.08)">
      <use xlink:href="#DejaVuSans-53"/>
      <use xlink:href="#DejaVuSans-52" x="63.476562"/>
      <use xlink:href="#DejaVuSans-52" x="132.958984"/>
      <use xlink:href="#DejaVuSans-35" x="202.441406"/>
      <use xlink:href="#DejaVuSans-39" x="266.064453"/>
      <use xlink:href="#DejaVuSans-36" x="329.6875"/>
      <use xlink:href="#DejaVuSans-31" x="393.310547"/>
      <use xlink:href="#DejaVuSans-39" x="456.933594"/>
      <use xlink:href="#DejaVuSans-38" x="520.556641"/>
      <use xlink:href="#DejaVuSans-30" x="584.179688"/>
      <use xlink:href="#DejaVuSans-5f" x="647.802734"/>
      <use xlink:href="#DejaVuSans-54" x="697.802734"/>
      <use xlink:href="#DejaVuSans-31" x="758.886719"/>
      <use xlink:href="#DejaVuSans-5f" x="822.509766"/>
      <use xlink:href="#DejaVuSans-32" x="872.509766"/>
      <use xlink:href="#DejaVuSans-20" x="936.132812"/>
      <use xlink:href="#DejaVuSans-2d" x="967.919922"/>
      <use xlink:href="#DejaVuSans-20" x="1004.003906"/>
      <use xlink:href="#DejaVuSans-69" x="1035.791016"/>
      <use xlink:href="#DejaVuSans-6c" x="1063.574219"/>
      <use xlink:href="#DejaVuSans-6c" x="1091.357422"/>
      <use xlink:href="#DejaVuSans-75" x="1119.140625"/>
      <use xlink:href="#DejaVuSans-6d" x="1182.519531"/>
      <use xlink:href="#DejaVuSans-69" x="1279.931641"/>
      <use xlink:href="#DejaVuSans-6e" x="1307.714844"/>
      <use xlink:href="#DejaVuSans-61" x="1371.09375"/>
      <use xlink:href="#DejaVuSans-5f" x="1432.373047"/>
      <use xlink:href="#DejaVuSans-75" x="1482.373047"/>
      <use xlink:href="#DejaVuSans-6e" x="1545.751953"/>
      <use xlink:href="#DejaVuSans-69" x="1609.130859"/>
      <use xlink:href="#DejaVuSans-76" x="1636.914062"/>
      <use xlink:href="#DejaVuSans-65" x="1696.09375"/>
      <use xlink:href="#DejaVuSans-72" x="1757.617188"/>
      <use xlink:href="#DejaVuSans-73" x="1798.730469"/>
      <use xlink:href="#DejaVuSans-61" x="1850.830078"/>
      <use xlink:href="#DejaVuSans-6c" x="1912.109375"/>
      <use xlink:href="#DejaVuSans-5f" x="1939.892578"/>
      <use xlink:href="#DejaVuSans-61" x="1989.892578"/>
      <use xlink:href="#DejaVuSans-64" x="2051.171875"/>
      <use xlink:href="#DejaVuSans-61" x="2114.648438"/>
      <use xlink:href="#DejaVuSans-70" x="2175.927734"/>
      <use xlink:href="#DejaVuSans-74" x="2239.404297"/>
      <use xlink:href="#DejaVuSans-65" x="2278.613281"/>
      <use xlink:href="#DejaVuSans-72" x="2340.136719"/>
     </g>
    </g>
    <g id="line2d_22">
     <path d="M 40.168125 315.455394 
L 48.168125 315.455394 
L 56.168125 315.455394 
" style="fill: none; stroke: #90ed7d; stroke-linecap: square"/>
    </g>
    <g id="text_21">
     <!-- SRR5961981_T1_1 - illumina_universal_adapter -->
     <g transform="translate(62.568125 318.255394) scale(0.08 -0.08)">
      <use xlink:href="#DejaVuSans-53"/>
      <use xlink:href="#DejaVuSans-52" x="63.476562"/>
      <use xlink:href="#DejaVuSans-52" x="132.958984"/>
      <use xlink:href="#DejaVuSans-35" x="202.441406"/>
      <use xlink:href="#DejaVuSans-39" x="266.064453"/>
      <use xlink:href="#DejaVuSans-36" x="329.6875"/>
      <use xlink:href="#DejaVuSans-31" x="393.310547"/>
      <use xlink:href="#DejaVuSans-39" x="456.933594"/>
      <use xlink:href="#DejaVuSans-38" x="520.556641"/>
      <use xlink:href="#DejaVuSans-31" x="584.179688"/>
      <use xlink:href="#DejaVuSans-5f" x="647.802734"/>
      <use xlink:href="#DejaVuSans-54" x="697.802734"/>
      <use xlink:href="#DejaVuSans-31" x="758.886719"/>
      <use xlink:href="#DejaVuSans-5f" x="822.509766"/>
      <use xlink:href="#DejaVuSans-31" x="872.509766"/>
      <use xlink:href="#DejaVuSans-20" x="936.132812"/>
      <use xlink:href="#DejaVuSans-2d" x="967.919922"/>
      <use xlink:href="#DejaVuSans-20" x="1004.003906"/>
      <use xlink:href="#DejaVuSans-69" x="1035.791016"/>
      <use xlink:href="#DejaVuSans-6c" x="1063.574219"/>
      <use xlink:href="#DejaVuSans-6c" x="1091.357422"/>
      <use xlink:href="#DejaVuSans-75" x="1119.140625"/>
      <use xlink:href="#DejaVuSans-6d" x="1182.519531"/>
      <use xlink:href="#DejaVuSans-69" x="1279.931641"/>
      <use xlink:href="#DejaVuSans-6e" x="1307.714844"/>
      <use xlink:href="#DejaVuSans-61" x="1371.09375"/>
      <use xlink:href="#DejaVuSans-5f" x="1432.373047"/>
      <use xlink:href="#DejaVuSans-75" x="1482.373047"/>
      <use xlink:href="#DejaVuSans-6e" x="1545.751953"/>
      <use xlink:href="#DejaVuSans-69" x="1609.130859"/>
      <use xlink:href="#DejaVuSans-76" x="1636.914062"/>
      <use xlink:href="#DejaVuSans-65" x="1696.09375"/>
      <use xlink:href="#DejaVuSans-72" x="1757.617188"/>
      <use xlink:href="#DejaVuSans-73" x="1798.730469"/>
      <use xlink:href="#DejaVuSans-61" x="1850.830078"/>
      <use xlink:href="#DejaVuSans-6c" x="1912.109375"/>
      <use xlink:href="#DejaVuSans-5f" x="1939.892578"/>
      <use xlink:href="#DejaVuSans-61" x="1989.892578"/>
      <use xlink:href="#DejaVuSans-64" x="2051.171875"/>
      <use xlink:href="#DejaVuSans-61" x="2114.648438"/>
      <use xlink:href="#DejaVuSans-70" x="2175.927734"/>
      <use xlink:href="#DejaVuSans-74" x="2239.404297"/>
      <use xlink:href="#DejaVuSans-65" x="2278.613281"/>
      <use xlink:href="#DejaVuSans-72" x="2340.136719"/>
     </g>
    </g>
    <g id="line2d_23">
     <path d="M 223.390625 291.525394 
L 231.390625 291.525394 
L 239.390625 291.525394 
" style="fill: none; stroke: #f7a35c; stroke-linecap: square"/>
    </g>
    <g id="text_22">
     <!-- SRR5961981_T1_2 - illumina_universal_adapter -->
     <g transform="translate(245.790625 294.325394) scale(0.08 -0.08)">
      <use xlink:href="#DejaVuSans-53"/>
      <use xlink:href="#DejaVuSans-52" x="63.476562"/>
      <use xlink:href="#DejaVuSans-52" x="132.958984"/>
      <use xlink:href="#DejaVuSans-35" x="202.441406"/>
      <use xlink:href="#DejaVuSans-39" x="266.064453"/>
      <use xlink:href="#DejaVuSans-36" x="329.6875"/>
      <use xlink:href="#DejaVuSans-31" x="393.310547"/>
      <use xlink:href="#DejaVuSans-39" x="456.933594"/>
      <use xlink:href="#DejaVuSans-38" x="520.556641"/>
      <use xlink:href="#DejaVuSans-31" x="584.179688"/>
      <use xlink:href="#DejaVuSans-5f" x="647.802734"/>
      <use xlink:href="#DejaVuSans-54" x="697.802734"/>
      <use xlink:href="#DejaVuSans-31" x="758.886719"/>
      <use xlink:href="#DejaVuSans-5f" x="822.509766"/>
      <use xlink:href="#DejaVuSans-32" x="872.509766"/>
      <use xlink:href="#DejaVuSans-20" x="936.132812"/>
      <use xlink:href="#DejaVuSans-2d" x="967.919922"/>
      <use xlink:href="#DejaVuSans-20" x="1004.003906"/>
      <use xlink:href="#DejaVuSans-69" x="1035.791016"/>
      <use xlink:href="#DejaVuSans-6c" x="1063.574219"/>
      <use xlink:href="#DejaVuSans-6c" x="1091.357422"/>
      <use xlink:href="#DejaVuSans-75" x="1119.140625"/>
      <use xlink:href="#DejaVuSans-6d" x="1182.519531"/>
      <use xlink:href="#DejaVuSans-69" x="1279.931641"/>
      <use xlink:href="#DejaVuSans-6e" x="1307.714844"/>
      <use xlink:href="#DejaVuSans-61" x="1371.09375"/>
      <use xlink:href="#DejaVuSans-5f" x="1432.373047"/>
      <use xlink:href="#DejaVuSans-75" x="1482.373047"/>
      <use xlink:href="#DejaVuSans-6e" x="1545.751953"/>
      <use xlink:href="#DejaVuSans-69" x="1609.130859"/>
      <use xlink:href="#DejaVuSans-76" x="1636.914062"/>
      <use xlink:href="#DejaVuSans-65" x="1696.09375"/>
      <use xlink:href="#DejaVuSans-72" x="1757.617188"/>
      <use xlink:href="#DejaVuSans-73" x="1798.730469"/>
      <use xlink:href="#DejaVuSans-61" x="1850.830078"/>
      <use xlink:href="#DejaVuSans-6c" x="1912.109375"/>
      <use xlink:href="#DejaVuSans-5f" x="1939.892578"/>
      <use xlink:href="#DejaVuSans-61" x="1989.892578"/>
      <use xlink:href="#DejaVuSans-64" x="2051.171875"/>
      <use xlink:href="#DejaVuSans-61" x="2114.648438"/>
      <use xlink:href="#DejaVuSans-70" x="2175.927734"/>
      <use xlink:href="#DejaVuSans-74" x="2239.404297"/>
      <use xlink:href="#DejaVuSans-65" x="2278.613281"/>
      <use xlink:href="#DejaVuSans-72" x="2340.136719"/>
     </g>
    </g>
    <g id="line2d_24">
     <path d="M 223.390625 303.490394 
L 231.390625 303.490394 
L 239.390625 303.490394 
" style="fill: none; stroke: #8085e9; stroke-linecap: square"/>
    </g>
    <g id="text_23">
     <!-- SRR5961982_T1_1 - illumina_universal_adapter -->
     <g transform="translate(245.790625 306.290394) scale(0.08 -0.08)">
      <use xlink:href="#DejaVuSans-53"/>
      <use xlink:href="#DejaVuSans-52" x="63.476562"/>
      <use xlink:href="#DejaVuSans-52" x="132.958984"/>
      <use xlink:href="#DejaVuSans-35" x="202.441406"/>
      <use xlink:href="#DejaVuSans-39" x="266.064453"/>
      <use xlink:href="#DejaVuSans-36" x="329.6875"/>
      <use xlink:href="#DejaVuSans-31" x="393.310547"/>
      <use xlink:href="#DejaVuSans-39" x="456.933594"/>
      <use xlink:href="#DejaVuSans-38" x="520.556641"/>
      <use xlink:href="#DejaVuSans-32" x="584.179688"/>
      <use xlink:href="#DejaVuSans-5f" x="647.802734"/>
      <use xlink:href="#DejaVuSans-54" x="697.802734"/>
      <use xlink:href="#DejaVuSans-31" x="758.886719"/>
      <use xlink:href="#DejaVuSans-5f" x="822.509766"/>
      <use xlink:href="#DejaVuSans-31" x="872.509766"/>
      <use xlink:href="#DejaVuSans-20" x="936.132812"/>
      <use xlink:href="#DejaVuSans-2d" x="967.919922"/>
      <use xlink:href="#DejaVuSans-20" x="1004.003906"/>
      <use xlink:href="#DejaVuSans-69" x="1035.791016"/>
      <use xlink:href="#DejaVuSans-6c" x="1063.574219"/>
      <use xlink:href="#DejaVuSans-6c" x="1091.357422"/>
      <use xlink:href="#DejaVuSans-75" x="1119.140625"/>
      <use xlink:href="#DejaVuSans-6d" x="1182.519531"/>
      <use xlink:href="#DejaVuSans-69" x="1279.931641"/>
      <use xlink:href="#DejaVuSans-6e" x="1307.714844"/>
      <use xlink:href="#DejaVuSans-61" x="1371.09375"/>
      <use xlink:href="#DejaVuSans-5f" x="1432.373047"/>
      <use xlink:href="#DejaVuSans-75" x="1482.373047"/>
      <use xlink:href="#DejaVuSans-6e" x="1545.751953"/>
      <use xlink:href="#DejaVuSans-69" x="1609.130859"/>
      <use xlink:href="#DejaVuSans-76" x="1636.914062"/>
      <use xlink:href="#DejaVuSans-65" x="1696.09375"/>
      <use xlink:href="#DejaVuSans-72" x="1757.617188"/>
      <use xlink:href="#DejaVuSans-73" x="1798.730469"/>
      <use xlink:href="#DejaVuSans-61" x="1850.830078"/>
      <use xlink:href="#DejaVuSans-6c" x="1912.109375"/>
      <use xlink:href="#DejaVuSans-5f" x="1939.892578"/>
      <use xlink:href="#DejaVuSans-61" x="1989.892578"/>
      <use xlink:href="#DejaVuSans-64" x="2051.171875"/>
      <use xlink:href="#DejaVuSans-61" x="2114.648438"/>
      <use xlink:href="#DejaVuSans-70" x="2175.927734"/>
      <use xlink:href="#DejaVuSans-74" x="2239.404297"/>
      <use xlink:href="#DejaVuSans-65" x="2278.613281"/>
      <use xlink:href="#DejaVuSans-72" x="2340.136719"/>
     </g>
    </g>
    <g id="line2d_25">
     <path d="M 223.390625 315.455394 
L 231.390625 315.455394 
L 239.390625 315.455394 
" style="fill: none; stroke: #f15c80; stroke-linecap: square"/>
    </g>
    <g id="text_24">
     <!-- SRR5961982_T1_2 - illumina_universal_adapter -->
     <g transform="translate(245.790625 318.255394) scale(0.08 -0.08)">
      <use xlink:href="#DejaVuSans-53"/>
      <use xlink:href="#DejaVuSans-52" x="63.476562"/>
      <use xlink:href="#DejaVuSans-52" x="132.958984"/>
      <use xlink:href="#DejaVuSans-35" x="202.441406"/>
      <use xlink:href="#DejaVuSans-39" x="266.064453"/>
      <use xlink:href="#DejaVuSans-36" x="329.6875"/>
      <use xlink:href="#DejaVuSans-31" x="393.310547"/>
      <use xlink:href="#DejaVuSans-39" x="456.933594"/>
      <use xlink:href="#DejaVuSans-38" x="520.556641"/>
      <use xlink:href="#DejaVuSans-32" x="584.179688"/>
      <use xlink:href="#DejaVuSans-5f" x="647.802734"/>
      <use xlink:href="#DejaVuSans-54" x="697.802734"/>
      <use xlink:href="#DejaVuSans-31" x="758.886719"/>
      <use xlink:href="#DejaVuSans-5f" x="822.509766"/>
      <use xlink:href="#DejaVuSans-32" x="872.509766"/>
      <use xlink:href="#DejaVuSans-20" x="936.132812"/>
      <use xlink:href="#DejaVuSans-2d" x="967.919922"/>
      <use xlink:href="#DejaVuSans-20" x="1004.003906"/>
      <use xlink:href="#DejaVuSans-69" x="1035.791016"/>
      <use xlink:href="#DejaVuSans-6c" x="1063.574219"/>
      <use xlink:href="#DejaVuSans-6c" x="1091.357422"/>
      <use xlink:href="#DejaVuSans-75" x="1119.140625"/>
      <use xlink:href="#DejaVuSans-6d" x="1182.519531"/>
      <use xlink:href="#DejaVuSans-69" x="1279.931641"/>
      <use xlink:href="#DejaVuSans-6e" x="1307.714844"/>
      <use xlink:href="#DejaVuSans-61" x="1371.09375"/>
      <use xlink:href="#DejaVuSans-5f" x="1432.373047"/>
      <use xlink:href="#DejaVuSans-75" x="1482.373047"/>
      <use xlink:href="#DejaVuSans-6e" x="1545.751953"/>
      <use xlink:href="#DejaVuSans-69" x="1609.130859"/>
      <use xlink:href="#DejaVuSans-76" x="1636.914062"/>
      <use xlink:href="#DejaVuSans-65" x="1696.09375"/>
      <use xlink:href="#DejaVuSans-72" x="1757.617188"/>
      <use xlink:href="#DejaVuSans-73" x="1798.730469"/>
      <use xlink:href="#DejaVuSans-61" x="1850.830078"/>
      <use xlink:href="#DejaVuSans-6c" x="1912.109375"/>
      <use xlink:href="#DejaVuSans-5f" x="1939.892578"/>
      <use xlink:href="#DejaVuSans-61" x="1989.892578"/>
      <use xlink:href="#DejaVuSans-64" x="2051.171875"/>
      <use xlink:href="#DejaVuSans-61" x="2114.648438"/>
      <use xlink:href="#DejaVuSans-70" x="2175.927734"/>
      <use xlink:href="#DejaVuSans-74" x="2239.404297"/>
      <use xlink:href="#DejaVuSans-65" x="2278.613281"/>
      <use xlink:href="#DejaVuSans-72" x="2340.136719"/>
     </g>
    </g>
    <g id="line2d_26">
     <path d="M 406.613125 291.525394 
L 414.613125 291.525394 
L 422.613125 291.525394 
" style="fill: none; stroke: #e4d354; stroke-linecap: square"/>
    </g>
    <g id="text_25">
     <!-- SRR5962008_T1_1 - illumina_universal_adapter -->
     <g transform="translate(429.013125 294.325394) scale(0.08 -0.08)">
      <use xlink:href="#DejaVuSans-53"/>
      <use xlink:href="#DejaVuSans-52" x="63.476562"/>
      <use xlink:href="#DejaVuSans-52" x="132.958984"/>
      <use xlink:href="#DejaVuSans-35" x="202.441406"/>
      <use xlink:href="#DejaVuSans-39" x="266.064453"/>
      <use xlink:href="#DejaVuSans-36" x="329.6875"/>
      <use xlink:href="#DejaVuSans-32" x="393.310547"/>
      <use xlink:href="#DejaVuSans-30" x="456.933594"/>
      <use xlink:href="#DejaVuSans-30" x="520.556641"/>
      <use xlink:href="#DejaVuSans-38" x="584.179688"/>
      <use xlink:href="#DejaVuSans-5f" x="647.802734"/>
      <use xlink:href="#DejaVuSans-54" x="697.802734"/>
      <use xlink:href="#DejaVuSans-31" x="758.886719"/>
      <use xlink:href="#DejaVuSans-5f" x="822.509766"/>
      <use xlink:href="#DejaVuSans-31" x="872.509766"/>
      <use xlink:href="#DejaVuSans-20" x="936.132812"/>
      <use xlink:href="#DejaVuSans-2d" x="967.919922"/>
      <use xlink:href="#DejaVuSans-20" x="1004.003906"/>
      <use xlink:href="#DejaVuSans-69" x="1035.791016"/>
      <use xlink:href="#DejaVuSans-6c" x="1063.574219"/>
      <use xlink:href="#DejaVuSans-6c" x="1091.357422"/>
      <use xlink:href="#DejaVuSans-75" x="1119.140625"/>
      <use xlink:href="#DejaVuSans-6d" x="1182.519531"/>
      <use xlink:href="#DejaVuSans-69" x="1279.931641"/>
      <use xlink:href="#DejaVuSans-6e" x="1307.714844"/>
      <use xlink:href="#DejaVuSans-61" x="1371.09375"/>
      <use xlink:href="#DejaVuSans-5f" x="1432.373047"/>
      <use xlink:href="#DejaVuSans-75" x="1482.373047"/>
      <use xlink:href="#DejaVuSans-6e" x="1545.751953"/>
      <use xlink:href="#DejaVuSans-69" x="1609.130859"/>
      <use xlink:href="#DejaVuSans-76" x="1636.914062"/>
      <use xlink:href="#DejaVuSans-65" x="1696.09375"/>
      <use xlink:href="#DejaVuSans-72" x="1757.617188"/>
      <use xlink:href="#DejaVuSans-73" x="1798.730469"/>
      <use xlink:href="#DejaVuSans-61" x="1850.830078"/>
      <use xlink:href="#DejaVuSans-6c" x="1912.109375"/>
      <use xlink:href="#DejaVuSans-5f" x="1939.892578"/>
      <use xlink:href="#DejaVuSans-61" x="1989.892578"/>
      <use xlink:href="#DejaVuSans-64" x="2051.171875"/>
      <use xlink:href="#DejaVuSans-61" x="2114.648438"/>
      <use xlink:href="#DejaVuSans-70" x="2175.927734"/>
      <use xlink:href="#DejaVuSans-74" x="2239.404297"/>
      <use xlink:href="#DejaVuSans-65" x="2278.613281"/>
      <use xlink:href="#DejaVuSans-72" x="2340.136719"/>
     </g>
    </g>
    <g id="line2d_27">
     <path d="M 406.613125 303.490394 
L 414.613125 303.490394 
L 422.613125 303.490394 
" style="fill: none; stroke: #2b908f; stroke-linecap: square"/>
    </g>
    <g id="text_26">
     <!-- SRR5962008_T1_2 - illumina_universal_adapter -->
     <g transform="translate(429.013125 306.290394) scale(0.08 -0.08)">
      <use xlink:href="#DejaVuSans-53"/>
      <use xlink:href="#DejaVuSans-52" x="63.476562"/>
      <use xlink:href="#DejaVuSans-52" x="132.958984"/>
      <use xlink:href="#DejaVuSans-35" x="202.441406"/>
      <use xlink:href="#DejaVuSans-39" x="266.064453"/>
      <use xlink:href="#DejaVuSans-36" x="329.6875"/>
      <use xlink:href="#DejaVuSans-32" x="393.310547"/>
      <use xlink:href="#DejaVuSans-30" x="456.933594"/>
      <use xlink:href="#DejaVuSans-30" x="520.556641"/>
      <use xlink:href="#DejaVuSans-38" x="584.179688"/>
      <use xlink:href="#DejaVuSans-5f" x="647.802734"/>
      <use xlink:href="#DejaVuSans-54" x="697.802734"/>
      <use xlink:href="#DejaVuSans-31" x="758.886719"/>
      <use xlink:href="#DejaVuSans-5f" x="822.509766"/>
      <use xlink:href="#DejaVuSans-32" x="872.509766"/>
      <use xlink:href="#DejaVuSans-20" x="936.132812"/>
      <use xlink:href="#DejaVuSans-2d" x="967.919922"/>
      <use xlink:href="#DejaVuSans-20" x="1004.003906"/>
      <use xlink:href="#DejaVuSans-69" x="1035.791016"/>
      <use xlink:href="#DejaVuSans-6c" x="1063.574219"/>
      <use xlink:href="#DejaVuSans-6c" x="1091.357422"/>
      <use xlink:href="#DejaVuSans-75" x="1119.140625"/>
      <use xlink:href="#DejaVuSans-6d" x="1182.519531"/>
      <use xlink:href="#DejaVuSans-69" x="1279.931641"/>
      <use xlink:href="#DejaVuSans-6e" x="1307.714844"/>
      <use xlink:href="#DejaVuSans-61" x="1371.09375"/>
      <use xlink:href="#DejaVuSans-5f" x="1432.373047"/>
      <use xlink:href="#DejaVuSans-75" x="1482.373047"/>
      <use xlink:href="#DejaVuSans-6e" x="1545.751953"/>
      <use xlink:href="#DejaVuSans-69" x="1609.130859"/>
      <use xlink:href="#DejaVuSans-76" x="1636.914062"/>
      <use xlink:href="#DejaVuSans-65" x="1696.09375"/>
      <use xlink:href="#DejaVuSans-72" x="1757.617188"/>
      <use xlink:href="#DejaVuSans-73" x="1798.730469"/>
      <use xlink:href="#DejaVuSans-61" x="1850.830078"/>
      <use xlink:href="#DejaVuSans-6c" x="1912.109375"/>
      <use xlink:href="#DejaVuSans-5f" x="1939.892578"/>
      <use xlink:href="#DejaVuSans-61" x="1989.892578"/>
      <use xlink:href="#DejaVuSans-64" x="2051.171875"/>
      <use xlink:href="#DejaVuSans-61" x="2114.648438"/>
      <use xlink:href="#DejaVuSans-70" x="2175.927734"/>
      <use xlink:href="#DejaVuSans-74" x="2239.404297"/>
      <use xlink:href="#DejaVuSans-65" x="2278.613281"/>
      <use xlink:href="#DejaVuSans-72" x="2340.136719"/>
     </g>
    </g>
    <g id="line2d_28">
     <path d="M 589.835625 291.525394 
L 597.835625 291.525394 
L 605.835625 291.525394 
" style="fill: none; stroke: #f45b5b; stroke-linecap: square"/>
    </g>
    <g id="text_27">
     <!-- SRR5962009_T1_1 - illumina_universal_adapter -->
     <g transform="translate(612.235625 294.325394) scale(0.08 -0.08)">
      <use xlink:href="#DejaVuSans-53"/>
      <use xlink:href="#DejaVuSans-52" x="63.476562"/>
      <use xlink:href="#DejaVuSans-52" x="132.958984"/>
      <use xlink:href="#DejaVuSans-35" x="202.441406"/>
      <use xlink:href="#DejaVuSans-39" x="266.064453"/>
      <use xlink:href="#DejaVuSans-36" x="329.6875"/>
      <use xlink:href="#DejaVuSans-32" x="393.310547"/>
      <use xlink:href="#DejaVuSans-30" x="456.933594"/>
      <use xlink:href="#DejaVuSans-30" x="520.556641"/>
      <use xlink:href="#DejaVuSans-39" x="584.179688"/>
      <use xlink:href="#DejaVuSans-5f" x="647.802734"/>
      <use xlink:href="#DejaVuSans-54" x="697.802734"/>
      <use xlink:href="#DejaVuSans-31" x="758.886719"/>
      <use xlink:href="#DejaVuSans-5f" x="822.509766"/>
      <use xlink:href="#DejaVuSans-31" x="872.509766"/>
      <use xlink:href="#DejaVuSans-20" x="936.132812"/>
      <use xlink:href="#DejaVuSans-2d" x="967.919922"/>
      <use xlink:href="#DejaVuSans-20" x="1004.003906"/>
      <use xlink:href="#DejaVuSans-69" x="1035.791016"/>
      <use xlink:href="#DejaVuSans-6c" x="1063.574219"/>
      <use xlink:href="#DejaVuSans-6c" x="1091.357422"/>
      <use xlink:href="#DejaVuSans-75" x="1119.140625"/>
      <use xlink:href="#DejaVuSans-6d" x="1182.519531"/>
      <use xlink:href="#DejaVuSans-69" x="1279.931641"/>
      <use xlink:href="#DejaVuSans-6e" x="1307.714844"/>
      <use xlink:href="#DejaVuSans-61" x="1371.09375"/>
      <use xlink:href="#DejaVuSans-5f" x="1432.373047"/>
      <use xlink:href="#DejaVuSans-75" x="1482.373047"/>
      <use xlink:href="#DejaVuSans-6e" x="1545.751953"/>
      <use xlink:href="#DejaVuSans-69" x="1609.130859"/>
      <use xlink:href="#DejaVuSans-76" x="1636.914062"/>
      <use xlink:href="#DejaVuSans-65" x="1696.09375"/>
      <use xlink:href="#DejaVuSans-72" x="1757.617188"/>
      <use xlink:href="#DejaVuSans-73" x="1798.730469"/>
      <use xlink:href="#DejaVuSans-61" x="1850.830078"/>
      <use xlink:href="#DejaVuSans-6c" x="1912.109375"/>
      <use xlink:href="#DejaVuSans-5f" x="1939.892578"/>
      <use xlink:href="#DejaVuSans-61" x="1989.892578"/>
      <use xlink:href="#DejaVuSans-64" x="2051.171875"/>
      <use xlink:href="#DejaVuSans-61" x="2114.648438"/>
      <use xlink:href="#DejaVuSans-70" x="2175.927734"/>
      <use xlink:href="#DejaVuSans-74" x="2239.404297"/>
      <use xlink:href="#DejaVuSans-65" x="2278.613281"/>
      <use xlink:href="#DejaVuSans-72" x="2340.136719"/>
     </g>
    </g>
    <g id="line2d_29">
     <path d="M 589.835625 303.490394 
L 597.835625 303.490394 
L 605.835625 303.490394 
" style="fill: none; stroke: #91e8e1; stroke-linecap: square"/>
    </g>
    <g id="text_28">
     <!-- SRR5962009_T1_2 - illumina_universal_adapter -->
     <g transform="translate(612.235625 306.290394) scale(0.08 -0.08)">
      <use xlink:href="#DejaVuSans-53"/>
      <use xlink:href="#DejaVuSans-52" x="63.476562"/>
      <use xlink:href="#DejaVuSans-52" x="132.958984"/>
      <use xlink:href="#DejaVuSans-35" x="202.441406"/>
      <use xlink:href="#DejaVuSans-39" x="266.064453"/>
      <use xlink:href="#DejaVuSans-36" x="329.6875"/>
      <use xlink:href="#DejaVuSans-32" x="393.310547"/>
      <use xlink:href="#DejaVuSans-30" x="456.933594"/>
      <use xlink:href="#DejaVuSans-30" x="520.556641"/>
      <use xlink:href="#DejaVuSans-39" x="584.179688"/>
      <use xlink:href="#DejaVuSans-5f" x="647.802734"/>
      <use xlink:href="#DejaVuSans-54" x="697.802734"/>
      <use xlink:href="#DejaVuSans-31" x="758.886719"/>
      <use xlink:href="#DejaVuSans-5f" x="822.509766"/>
      <use xlink:href="#DejaVuSans-32" x="872.509766"/>
      <use xlink:href="#DejaVuSans-20" x="936.132812"/>
      <use xlink:href="#DejaVuSans-2d" x="967.919922"/>
      <use xlink:href="#DejaVuSans-20" x="1004.003906"/>
      <use xlink:href="#DejaVuSans-69" x="1035.791016"/>
      <use xlink:href="#DejaVuSans-6c" x="1063.574219"/>
      <use xlink:href="#DejaVuSans-6c" x="1091.357422"/>
      <use xlink:href="#DejaVuSans-75" x="1119.140625"/>
      <use xlink:href="#DejaVuSans-6d" x="1182.519531"/>
      <use xlink:href="#DejaVuSans-69" x="1279.931641"/>
      <use xlink:href="#DejaVuSans-6e" x="1307.714844"/>
      <use xlink:href="#DejaVuSans-61" x="1371.09375"/>
      <use xlink:href="#DejaVuSans-5f" x="1432.373047"/>
      <use xlink:href="#DejaVuSans-75" x="1482.373047"/>
      <use xlink:href="#DejaVuSans-6e" x="1545.751953"/>
      <use xlink:href="#DejaVuSans-69" x="1609.130859"/>
      <use xlink:href="#DejaVuSans-76" x="1636.914062"/>
      <use xlink:href="#DejaVuSans-65" x="1696.09375"/>
      <use xlink:href="#DejaVuSans-72" x="1757.617188"/>
      <use xlink:href="#DejaVuSans-73" x="1798.730469"/>
      <use xlink:href="#DejaVuSans-61" x="1850.830078"/>
      <use xlink:href="#DejaVuSans-6c" x="1912.109375"/>
      <use xlink:href="#DejaVuSans-5f" x="1939.892578"/>
      <use xlink:href="#DejaVuSans-61" x="1989.892578"/>
      <use xlink:href="#DejaVuSans-64" x="2051.171875"/>
      <use xlink:href="#DejaVuSans-61" x="2114.648438"/>
      <use xlink:href="#DejaVuSans-70" x="2175.927734"/>
      <use xlink:href="#DejaVuSans-74" x="2239.404297"/>
      <use xlink:href="#DejaVuSans-65" x="2278.613281"/>
      <use xlink:href="#DejaVuSans-72" x="2340.136719"/>
     </g>
    </g>
    <g id="line2d_30">
     <path d="M 773.058125 291.525394 
L 781.058125 291.525394 
L 789.058125 291.525394 
" style="fill: none; stroke: #7cb5ec; stroke-linecap: square"/>
    </g>
    <g id="text_29">
     <!-- SRR5962010_T1_1 - illumina_universal_adapter -->
     <g transform="translate(795.458125 294.325394) scale(0.08 -0.08)">
      <use xlink:href="#DejaVuSans-53"/>
      <use xlink:href="#DejaVuSans-52" x="63.476562"/>
      <use xlink:href="#DejaVuSans-52" x="132.958984"/>
      <use xlink:href="#DejaVuSans-35" x="202.441406"/>
      <use xlink:href="#DejaVuSans-39" x="266.064453"/>
      <use xlink:href="#DejaVuSans-36" x="329.6875"/>
      <use xlink:href="#DejaVuSans-32" x="393.310547"/>
      <use xlink:href="#DejaVuSans-30" x="456.933594"/>
      <use xlink:href="#DejaVuSans-31" x="520.556641"/>
      <use xlink:href="#DejaVuSans-30" x="584.179688"/>
      <use xlink:href="#DejaVuSans-5f" x="647.802734"/>
      <use xlink:href="#DejaVuSans-54" x="697.802734"/>
      <use xlink:href="#DejaVuSans-31" x="758.886719"/>
      <use xlink:href="#DejaVuSans-5f" x="822.509766"/>
      <use xlink:href="#DejaVuSans-31" x="872.509766"/>
      <use xlink:href="#DejaVuSans-20" x="936.132812"/>
      <use xlink:href="#DejaVuSans-2d" x="967.919922"/>
      <use xlink:href="#DejaVuSans-20" x="1004.003906"/>
      <use xlink:href="#DejaVuSans-69" x="1035.791016"/>
      <use xlink:href="#DejaVuSans-6c" x="1063.574219"/>
      <use xlink:href="#DejaVuSans-6c" x="1091.357422"/>
      <use xlink:href="#DejaVuSans-75" x="1119.140625"/>
      <use xlink:href="#DejaVuSans-6d" x="1182.519531"/>
      <use xlink:href="#DejaVuSans-69" x="1279.931641"/>
      <use xlink:href="#DejaVuSans-6e" x="1307.714844"/>
      <use xlink:href="#DejaVuSans-61" x="1371.09375"/>
      <use xlink:href="#DejaVuSans-5f" x="1432.373047"/>
      <use xlink:href="#DejaVuSans-75" x="1482.373047"/>
      <use xlink:href="#DejaVuSans-6e" x="1545.751953"/>
      <use xlink:href="#DejaVuSans-69" x="1609.130859"/>
      <use xlink:href="#DejaVuSans-76" x="1636.914062"/>
      <use xlink:href="#DejaVuSans-65" x="1696.09375"/>
      <use xlink:href="#DejaVuSans-72" x="1757.617188"/>
      <use xlink:href="#DejaVuSans-73" x="1798.730469"/>
      <use xlink:href="#DejaVuSans-61" x="1850.830078"/>
      <use xlink:href="#DejaVuSans-6c" x="1912.109375"/>
      <use xlink:href="#DejaVuSans-5f" x="1939.892578"/>
      <use xlink:href="#DejaVuSans-61" x="1989.892578"/>
      <use xlink:href="#DejaVuSans-64" x="2051.171875"/>
      <use xlink:href="#DejaVuSans-61" x="2114.648438"/>
      <use xlink:href="#DejaVuSans-70" x="2175.927734"/>
      <use xlink:href="#DejaVuSans-74" x="2239.404297"/>
      <use xlink:href="#DejaVuSans-65" x="2278.613281"/>
      <use xlink:href="#DejaVuSans-72" x="2340.136719"/>
     </g>
    </g>
    <g id="line2d_31">
     <path d="M 773.058125 303.490394 
L 781.058125 303.490394 
L 789.058125 303.490394 
" style="fill: none; stroke: #434348; stroke-linecap: square"/>
    </g>
    <g id="text_30">
     <!-- SRR5962010_T1_2 - illumina_universal_adapter -->
     <g transform="translate(795.458125 306.290394) scale(0.08 -0.08)">
      <use xlink:href="#DejaVuSans-53"/>
      <use xlink:href="#DejaVuSans-52" x="63.476562"/>
      <use xlink:href="#DejaVuSans-52" x="132.958984"/>
      <use xlink:href="#DejaVuSans-35" x="202.441406"/>
      <use xlink:href="#DejaVuSans-39" x="266.064453"/>
      <use xlink:href="#DejaVuSans-36" x="329.6875"/>
      <use xlink:href="#DejaVuSans-32" x="393.310547"/>
      <use xlink:href="#DejaVuSans-30" x="456.933594"/>
      <use xlink:href="#DejaVuSans-31" x="520.556641"/>
      <use xlink:href="#DejaVuSans-30" x="584.179688"/>
      <use xlink:href="#DejaVuSans-5f" x="647.802734"/>
      <use xlink:href="#DejaVuSans-54" x="697.802734"/>
      <use xlink:href="#DejaVuSans-31" x="758.886719"/>
      <use xlink:href="#DejaVuSans-5f" x="822.509766"/>
      <use xlink:href="#DejaVuSans-32" x="872.509766"/>
      <use xlink:href="#DejaVuSans-20" x="936.132812"/>
      <use xlink:href="#DejaVuSans-2d" x="967.919922"/>
      <use xlink:href="#DejaVuSans-20" x="1004.003906"/>
      <use xlink:href="#DejaVuSans-69" x="1035.791016"/>
      <use xlink:href="#DejaVuSans-6c" x="1063.574219"/>
      <use xlink:href="#DejaVuSans-6c" x="1091.357422"/>
      <use xlink:href="#DejaVuSans-75" x="1119.140625"/>
      <use xlink:href="#DejaVuSans-6d" x="1182.519531"/>
      <use xlink:href="#DejaVuSans-69" x="1279.931641"/>
      <use xlink:href="#DejaVuSans-6e" x="1307.714844"/>
      <use xlink:href="#DejaVuSans-61" x="1371.09375"/>
      <use xlink:href="#DejaVuSans-5f" x="1432.373047"/>
      <use xlink:href="#DejaVuSans-75" x="1482.373047"/>
      <use xlink:href="#DejaVuSans-6e" x="1545.751953"/>
      <use xlink:href="#DejaVuSans-69" x="1609.130859"/>
      <use xlink:href="#DejaVuSans-76" x="1636.914062"/>
      <use xlink:href="#DejaVuSans-65" x="1696.09375"/>
      <use xlink:href="#DejaVuSans-72" x="1757.617188"/>
      <use xlink:href="#DejaVuSans-73" x="1798.730469"/>
      <use xlink:href="#DejaVuSans-61" x="1850.830078"/>
      <use xlink:href="#DejaVuSans-6c" x="1912.109375"/>
      <use xlink:href="#DejaVuSans-5f" x="1939.892578"/>
      <use xlink:href="#DejaVuSans-61" x="1989.892578"/>
      <use xlink:href="#DejaVuSans-64" x="2051.171875"/>
      <use xlink:href="#DejaVuSans-61" x="2114.648438"/>
      <use xlink:href="#DejaVuSans-70" x="2175.927734"/>
      <use xlink:href="#DejaVuSans-74" x="2239.404297"/>
      <use xlink:href="#DejaVuSans-65" x="2278.613281"/>
      <use xlink:href="#DejaVuSans-72" x="2340.136719"/>
     </g>
    </g>
   </g>
  </g>
 </g>
 <defs>
  <clipPath id="p0b1dcd7c23">
   <rect x="32.968125" y="31.48286" width="960.19" height="242.5072"/>
  </clipPath>
 </defs>
</svg>
