<?xml version="1.0" encoding="utf-8" standalone="no"?>
<!DOCTYPE svg PUBLIC "-//W3C//DTD SVG 1.1//EN"
  "http://www.w3.org/Graphics/SVG/1.1/DTD/svg11.dtd">
<svg xmlns:xlink="http://www.w3.org/1999/xlink" width="1000.358125pt" height="330.541644pt" viewBox="0 0 1000.358125 330.541644" xmlns="http://www.w3.org/2000/svg" version="1.1">
 <metadata>
  <rdf:RDF xmlns:dc="http://purl.org/dc/elements/1.1/" xmlns:cc="http://creativecommons.org/ns#" xmlns:rdf="http://www.w3.org/1999/02/22-rdf-syntax-ns#">
   <cc:Work>
    <dc:type rdf:resource="http://purl.org/dc/dcmitype/StillImage"/>
    <dc:date>2025-08-20T15:20:44.743089</dc:date>
    <dc:format>image/svg+xml</dc:format>
    <dc:creator>
     <cc:Agent>
      <dc:title>Matplotlib v3.6.2, https://matplotlib.org/</dc:title>
     </cc:Agent>
    </dc:creator>
   </cc:Work>
  </rdf:RDF>
 </metadata>
 <defs>
  <style type="text/css">*{stroke-linejoin: round; stroke-linecap: butt}</style>
 </defs>
 <g id="figure_1">
  <g id="axes_1">
   <g id="patch_1">
    <path d="M 32.968125 273.99006 
L 993.158125 273.99006 
L 993.158125 31.48286 
L 32.968125 31.48286 
z
" style="fill: #ffffff"/>
   </g>
   <g id="matplotlib.axis_1">
    <g id="xtick_1">
     <g id="text_1">
      <!-- 0 -->
      <g transform="translate(62.429458 287.06881) scale(0.08 -0.08)">
       <defs>
        <path id="DejaVuSans-30" d="M 2034 4250 
Q 1547 4250 1301 3770 
Q 1056 3291 1056 2328 
Q 1056 1369 1301 889 
Q 1547 409 2034 409 
Q 2525 409 2770 889 
Q 3016 1369 3016 2328 
Q 3016 3291 2770 3770 
Q 2525 4250 2034 4250 
z
M 2034 4750 
Q 2819 4750 3233 4129 
Q 3647 3509 3647 2328 
Q 3647 1150 3233 529 
Q 2819 -91 2034 -91 
Q 1250 -91 836 529 
Q 422 1150 422 2328 
Q 422 3509 836 4129 
Q 1250 4750 2034 4750 
z
" transform="scale(0.015625)"/>
       </defs>
       <use xlink:href="#DejaVuSans-30"/>
      </g>
     </g>
    </g>
    <g id="xtick_2">
     <g id="text_2">
      <!-- 10 -->
      <g transform="translate(176.271125 287.06881) scale(0.08 -0.08)">
       <defs>
        <path id="DejaVuSans-31" d="M 794 531 
L 1825 531 
L 1825 4091 
L 703 3866 
L 703 4441 
L 1819 4666 
L 2450 4666 
L 2450 531 
L 3481 531 
L 3481 0 
L 794 0 
L 794 531 
z
" transform="scale(0.015625)"/>
       </defs>
       <use xlink:href="#DejaVuSans-31"/>
       <use xlink:href="#DejaVuSans-30" x="63.623047"/>
      </g>
     </g>
    </g>
    <g id="xtick_3">
     <g id="text_3">
      <!-- 20 -->
      <g transform="translate(292.657792 287.06881) scale(0.08 -0.08)">
       <defs>
        <path id="DejaVuSans-32" d="M 1228 531 
L 3431 531 
L 3431 0 
L 469 0 
L 469 531 
Q 828 903 1448 1529 
Q 2069 2156 2228 2338 
Q 2531 2678 2651 2914 
Q 2772 3150 2772 3378 
Q 2772 3750 2511 3984 
Q 2250 4219 1831 4219 
Q 1534 4219 1204 4116 
Q 875 4013 500 3803 
L 500 4441 
Q 881 4594 1212 4672 
Q 1544 4750 1819 4750 
Q 2544 4750 2975 4387 
Q 3406 4025 3406 3419 
Q 3406 3131 3298 2873 
Q 3191 2616 2906 2266 
Q 2828 2175 2409 1742 
Q 1991 1309 1228 531 
z
" transform="scale(0.015625)"/>
       </defs>
       <use xlink:href="#DejaVuSans-32"/>
       <use xlink:href="#DejaVuSans-30" x="63.623047"/>
      </g>
     </g>
    </g>
    <g id="xtick_4">
     <g id="text_4">
      <!-- 30 -->
      <g transform="translate(409.044458 287.06881) scale(0.08 -0.08)">
       <defs>
        <path id="DejaVuSans-33" d="M 2597 2516 
Q 3050 2419 3304 2112 
Q 3559 1806 3559 1356 
Q 3559 666 3084 287 
Q 2609 -91 1734 -91 
Q 1441 -91 1130 -33 
Q 819 25 488 141 
L 488 750 
Q 750 597 1062 519 
Q 1375 441 1716 441 
Q 2309 441 2620 675 
Q 2931 909 2931 1356 
Q 2931 1769 2642 2001 
Q 2353 2234 1838 2234 
L 1294 2234 
L 1294 2753 
L 1863 2753 
Q 2328 2753 2575 2939 
Q 2822 3125 2822 3475 
Q 2822 3834 2567 4026 
Q 2313 4219 1838 4219 
Q 1578 4219 1281 4162 
Q 984 4106 628 3988 
L 628 4550 
Q 988 4650 1302 4700 
Q 1616 4750 1894 4750 
Q 2613 4750 3031 4423 
Q 3450 4097 3450 3541 
Q 3450 3153 3228 2886 
Q 3006 2619 2597 2516 
z
" transform="scale(0.015625)"/>
       </defs>
       <use xlink:href="#DejaVuSans-33"/>
       <use xlink:href="#DejaVuSans-30" x="63.623047"/>
      </g>
     </g>
    </g>
    <g id="xtick_5">
     <g id="text_5">
      <!-- 40 -->
      <g transform="translate(525.431125 287.06881) scale(0.08 -0.08)">
       <defs>
        <path id="DejaVuSans-34" d="M 2419 4116 
L 825 1625 
L 2419 1625 
L 2419 4116 
z
M 2253 4666 
L 3047 4666 
L 3047 1625 
L 3713 1625 
L 3713 1100 
L 3047 1100 
L 3047 0 
L 2419 0 
L 2419 1100 
L 313 1100 
L 313 1709 
L 2253 4666 
z
" transform="scale(0.015625)"/>
       </defs>
       <use xlink:href="#DejaVuSans-34"/>
       <use xlink:href="#DejaVuSans-30" x="63.623047"/>
      </g>
     </g>
    </g>
    <g id="xtick_6">
     <g id="text_6">
      <!-- 50 -->
      <g transform="translate(641.817792 287.06881) scale(0.08 -0.08)">
       <defs>
        <path id="DejaVuSans-35" d="M 691 4666 
L 3169 4666 
L 3169 4134 
L 1269 4134 
L 1269 2991 
Q 1406 3038 1543 3061 
Q 1681 3084 1819 3084 
Q 2600 3084 3056 2656 
Q 3513 2228 3513 1497 
Q 3513 744 3044 326 
Q 2575 -91 1722 -91 
Q 1428 -91 1123 -41 
Q 819 9 494 109 
L 494 744 
Q 775 591 1075 516 
Q 1375 441 1709 441 
Q 2250 441 2565 725 
Q 2881 1009 2881 1497 
Q 2881 1984 2565 2268 
Q 2250 2553 1709 2553 
Q 1456 2553 1204 2497 
Q 953 2441 691 2322 
L 691 4666 
z
" transform="scale(0.015625)"/>
       </defs>
       <use xlink:href="#DejaVuSans-35"/>
       <use xlink:href="#DejaVuSans-30" x="63.623047"/>
      </g>
     </g>
    </g>
    <g id="xtick_7">
     <g id="text_7">
      <!-- 60 -->
      <g transform="translate(758.204458 287.06881) scale(0.08 -0.08)">
       <defs>
        <path id="DejaVuSans-36" d="M 2113 2584 
Q 1688 2584 1439 2293 
Q 1191 2003 1191 1497 
Q 1191 994 1439 701 
Q 1688 409 2113 409 
Q 2538 409 2786 701 
Q 3034 994 3034 1497 
Q 3034 2003 2786 2293 
Q 2538 2584 2113 2584 
z
M 3366 4563 
L 3366 3988 
Q 3128 4100 2886 4159 
Q 2644 4219 2406 4219 
Q 1781 4219 1451 3797 
Q 1122 3375 1075 2522 
Q 1259 2794 1537 2939 
Q 1816 3084 2150 3084 
Q 2853 3084 3261 2657 
Q 3669 2231 3669 1497 
Q 3669 778 3244 343 
Q 2819 -91 2113 -91 
Q 1303 -91 875 529 
Q 447 1150 447 2328 
Q 447 3434 972 4092 
Q 1497 4750 2381 4750 
Q 2619 4750 2861 4703 
Q 3103 4656 3366 4563 
z
" transform="scale(0.015625)"/>
       </defs>
       <use xlink:href="#DejaVuSans-36"/>
       <use xlink:href="#DejaVuSans-30" x="63.623047"/>
      </g>
     </g>
    </g>
    <g id="xtick_8">
     <g id="text_8">
      <!-- 70 -->
      <g transform="translate(874.591125 287.06881) scale(0.08 -0.08)">
       <defs>
        <path id="DejaVuSans-37" d="M 525 4666 
L 3525 4666 
L 3525 4397 
L 1831 0 
L 1172 0 
L 2766 4134 
L 525 4134 
L 525 4666 
z
" transform="scale(0.015625)"/>
       </defs>
       <use xlink:href="#DejaVuSans-37"/>
       <use xlink:href="#DejaVuSans-30" x="63.623047"/>
      </g>
     </g>
    </g>
    <g id="text_9">
     <!-- Insert size -->
     <g transform="translate(487.438906 300.330997) scale(0.1 -0.1)">
      <defs>
       <path id="DejaVuSans-49" d="M 628 4666 
L 1259 4666 
L 1259 0 
L 628 0 
L 628 4666 
z
" transform="scale(0.015625)"/>
       <path id="DejaVuSans-6e" d="M 3513 2113 
L 3513 0 
L 2938 0 
L 2938 2094 
Q 2938 2591 2744 2837 
Q 2550 3084 2163 3084 
Q 1697 3084 1428 2787 
Q 1159 2491 1159 1978 
L 1159 0 
L 581 0 
L 581 3500 
L 1159 3500 
L 1159 2956 
Q 1366 3272 1645 3428 
Q 1925 3584 2291 3584 
Q 2894 3584 3203 3211 
Q 3513 2838 3513 2113 
z
" transform="scale(0.015625)"/>
       <path id="DejaVuSans-73" d="M 2834 3397 
L 2834 2853 
Q 2591 2978 2328 3040 
Q 2066 3103 1784 3103 
Q 1356 3103 1142 2972 
Q 928 2841 928 2578 
Q 928 2378 1081 2264 
Q 1234 2150 1697 2047 
L 1894 2003 
Q 2506 1872 2764 1633 
Q 3022 1394 3022 966 
Q 3022 478 2636 193 
Q 2250 -91 1575 -91 
Q 1294 -91 989 -36 
Q 684 19 347 128 
L 347 722 
Q 666 556 975 473 
Q 1284 391 1588 391 
Q 1994 391 2212 530 
Q 2431 669 2431 922 
Q 2431 1156 2273 1281 
Q 2116 1406 1581 1522 
L 1381 1569 
Q 847 1681 609 1914 
Q 372 2147 372 2553 
Q 372 3047 722 3315 
Q 1072 3584 1716 3584 
Q 2034 3584 2315 3537 
Q 2597 3491 2834 3397 
z
" transform="scale(0.015625)"/>
       <path id="DejaVuSans-65" d="M 3597 1894 
L 3597 1613 
L 953 1613 
Q 991 1019 1311 708 
Q 1631 397 2203 397 
Q 2534 397 2845 478 
Q 3156 559 3463 722 
L 3463 178 
Q 3153 47 2828 -22 
Q 2503 -91 2169 -91 
Q 1331 -91 842 396 
Q 353 884 353 1716 
Q 353 2575 817 3079 
Q 1281 3584 2069 3584 
Q 2775 3584 3186 3129 
Q 3597 2675 3597 1894 
z
M 3022 2063 
Q 3016 2534 2758 2815 
Q 2500 3097 2075 3097 
Q 1594 3097 1305 2825 
Q 1016 2553 972 2059 
L 3022 2063 
z
" transform="scale(0.015625)"/>
       <path id="DejaVuSans-72" d="M 2631 2963 
Q 2534 3019 2420 3045 
Q 2306 3072 2169 3072 
Q 1681 3072 1420 2755 
Q 1159 2438 1159 1844 
L 1159 0 
L 581 0 
L 581 3500 
L 1159 3500 
L 1159 2956 
Q 1341 3275 1631 3429 
Q 1922 3584 2338 3584 
Q 2397 3584 2469 3576 
Q 2541 3569 2628 3553 
L 2631 2963 
z
" transform="scale(0.015625)"/>
       <path id="DejaVuSans-74" d="M 1172 4494 
L 1172 3500 
L 2356 3500 
L 2356 3053 
L 1172 3053 
L 1172 1153 
Q 1172 725 1289 603 
Q 1406 481 1766 481 
L 2356 481 
L 2356 0 
L 1766 0 
Q 1100 0 847 248 
Q 594 497 594 1153 
L 594 3053 
L 172 3053 
L 172 3500 
L 594 3500 
L 594 4494 
L 1172 4494 
z
" transform="scale(0.015625)"/>
       <path id="DejaVuSans-20" transform="scale(0.015625)"/>
       <path id="DejaVuSans-69" d="M 603 3500 
L 1178 3500 
L 1178 0 
L 603 0 
L 603 3500 
z
M 603 4863 
L 1178 4863 
L 1178 4134 
L 603 4134 
L 603 4863 
z
" transform="scale(0.015625)"/>
       <path id="DejaVuSans-7a" d="M 353 3500 
L 3084 3500 
L 3084 2975 
L 922 459 
L 3084 459 
L 3084 0 
L 275 0 
L 275 525 
L 2438 3041 
L 353 3041 
L 353 3500 
z
" transform="scale(0.015625)"/>
      </defs>
      <use xlink:href="#DejaVuSans-49"/>
      <use xlink:href="#DejaVuSans-6e" x="29.492188"/>
      <use xlink:href="#DejaVuSans-73" x="92.871094"/>
      <use xlink:href="#DejaVuSans-65" x="144.970703"/>
      <use xlink:href="#DejaVuSans-72" x="206.494141"/>
      <use xlink:href="#DejaVuSans-74" x="247.607422"/>
      <use xlink:href="#DejaVuSans-20" x="286.816406"/>
      <use xlink:href="#DejaVuSans-73" x="318.603516"/>
      <use xlink:href="#DejaVuSans-69" x="370.703125"/>
      <use xlink:href="#DejaVuSans-7a" x="398.486328"/>
      <use xlink:href="#DejaVuSans-65" x="450.976562"/>
     </g>
    </g>
   </g>
   <g id="matplotlib.axis_2">
    <g id="ytick_1">
     <g id="line2d_1">
      <path d="M 32.968125 273.99006 
L 993.158125 273.99006 
" clip-path="url(#p7e46f25a65)" style="fill: none; stroke: #dedede; stroke-linecap: square"/>
     </g>
     <g id="text_10">
      <!-- 0 -->
      <g transform="translate(20.878125 277.029435) scale(0.08 -0.08)">
       <use xlink:href="#DejaVuSans-30"/>
      </g>
     </g>
    </g>
    <g id="ytick_2">
     <g id="line2d_2">
      <path d="M 32.968125 231.607972 
L 993.158125 231.607972 
" clip-path="url(#p7e46f25a65)" style="fill: none; stroke: #dedede; stroke-linecap: square"/>
     </g>
     <g id="text_11">
      <!-- 1 -->
      <g transform="translate(20.878125 234.647347) scale(0.08 -0.08)">
       <use xlink:href="#DejaVuSans-31"/>
      </g>
     </g>
    </g>
    <g id="ytick_3">
     <g id="line2d_3">
      <path d="M 32.968125 189.225883 
L 993.158125 189.225883 
" clip-path="url(#p7e46f25a65)" style="fill: none; stroke: #dedede; stroke-linecap: square"/>
     </g>
     <g id="text_12">
      <!-- 2 -->
      <g transform="translate(20.878125 192.265258) scale(0.08 -0.08)">
       <use xlink:href="#DejaVuSans-32"/>
      </g>
     </g>
    </g>
    <g id="ytick_4">
     <g id="line2d_4">
      <path d="M 32.968125 146.843795 
L 993.158125 146.843795 
" clip-path="url(#p7e46f25a65)" style="fill: none; stroke: #dedede; stroke-linecap: square"/>
     </g>
     <g id="text_13">
      <!-- 3 -->
      <g transform="translate(20.878125 149.88317) scale(0.08 -0.08)">
       <use xlink:href="#DejaVuSans-33"/>
      </g>
     </g>
    </g>
    <g id="ytick_5">
     <g id="line2d_5">
      <path d="M 32.968125 104.461707 
L 993.158125 104.461707 
" clip-path="url(#p7e46f25a65)" style="fill: none; stroke: #dedede; stroke-linecap: square"/>
     </g>
     <g id="text_14">
      <!-- 4 -->
      <g transform="translate(20.878125 107.501082) scale(0.08 -0.08)">
       <use xlink:href="#DejaVuSans-34"/>
      </g>
     </g>
    </g>
    <g id="ytick_6">
     <g id="line2d_6">
      <path d="M 32.968125 62.079618 
L 993.158125 62.079618 
" clip-path="url(#p7e46f25a65)" style="fill: none; stroke: #dedede; stroke-linecap: square"/>
     </g>
     <g id="text_15">
      <!-- 5 -->
      <g transform="translate(20.878125 65.118993) scale(0.08 -0.08)">
       <use xlink:href="#DejaVuSans-35"/>
      </g>
     </g>
    </g>
    <g id="text_16">
     <!-- Read percent -->
     <g transform="translate(14.798437 186.038022) rotate(-90) scale(0.1 -0.1)">
      <defs>
       <path id="DejaVuSans-52" d="M 2841 2188 
Q 3044 2119 3236 1894 
Q 3428 1669 3622 1275 
L 4263 0 
L 3584 0 
L 2988 1197 
Q 2756 1666 2539 1819 
Q 2322 1972 1947 1972 
L 1259 1972 
L 1259 0 
L 628 0 
L 628 4666 
L 2053 4666 
Q 2853 4666 3247 4331 
Q 3641 3997 3641 3322 
Q 3641 2881 3436 2590 
Q 3231 2300 2841 2188 
z
M 1259 4147 
L 1259 2491 
L 2053 2491 
Q 2509 2491 2742 2702 
Q 2975 2913 2975 3322 
Q 2975 3731 2742 3939 
Q 2509 4147 2053 4147 
L 1259 4147 
z
" transform="scale(0.015625)"/>
       <path id="DejaVuSans-61" d="M 2194 1759 
Q 1497 1759 1228 1600 
Q 959 1441 959 1056 
Q 959 750 1161 570 
Q 1363 391 1709 391 
Q 2188 391 2477 730 
Q 2766 1069 2766 1631 
L 2766 1759 
L 2194 1759 
z
M 3341 1997 
L 3341 0 
L 2766 0 
L 2766 531 
Q 2569 213 2275 61 
Q 1981 -91 1556 -91 
Q 1019 -91 701 211 
Q 384 513 384 1019 
Q 384 1609 779 1909 
Q 1175 2209 1959 2209 
L 2766 2209 
L 2766 2266 
Q 2766 2663 2505 2880 
Q 2244 3097 1772 3097 
Q 1472 3097 1187 3025 
Q 903 2953 641 2809 
L 641 3341 
Q 956 3463 1253 3523 
Q 1550 3584 1831 3584 
Q 2591 3584 2966 3190 
Q 3341 2797 3341 1997 
z
" transform="scale(0.015625)"/>
       <path id="DejaVuSans-64" d="M 2906 2969 
L 2906 4863 
L 3481 4863 
L 3481 0 
L 2906 0 
L 2906 525 
Q 2725 213 2448 61 
Q 2172 -91 1784 -91 
Q 1150 -91 751 415 
Q 353 922 353 1747 
Q 353 2572 751 3078 
Q 1150 3584 1784 3584 
Q 2172 3584 2448 3432 
Q 2725 3281 2906 2969 
z
M 947 1747 
Q 947 1113 1208 752 
Q 1469 391 1925 391 
Q 2381 391 2643 752 
Q 2906 1113 2906 1747 
Q 2906 2381 2643 2742 
Q 2381 3103 1925 3103 
Q 1469 3103 1208 2742 
Q 947 2381 947 1747 
z
" transform="scale(0.015625)"/>
       <path id="DejaVuSans-70" d="M 1159 525 
L 1159 -1331 
L 581 -1331 
L 581 3500 
L 1159 3500 
L 1159 2969 
Q 1341 3281 1617 3432 
Q 1894 3584 2278 3584 
Q 2916 3584 3314 3078 
Q 3713 2572 3713 1747 
Q 3713 922 3314 415 
Q 2916 -91 2278 -91 
Q 1894 -91 1617 61 
Q 1341 213 1159 525 
z
M 3116 1747 
Q 3116 2381 2855 2742 
Q 2594 3103 2138 3103 
Q 1681 3103 1420 2742 
Q 1159 2381 1159 1747 
Q 1159 1113 1420 752 
Q 1681 391 2138 391 
Q 2594 391 2855 752 
Q 3116 1113 3116 1747 
z
" transform="scale(0.015625)"/>
       <path id="DejaVuSans-63" d="M 3122 3366 
L 3122 2828 
Q 2878 2963 2633 3030 
Q 2388 3097 2138 3097 
Q 1578 3097 1268 2742 
Q 959 2388 959 1747 
Q 959 1106 1268 751 
Q 1578 397 2138 397 
Q 2388 397 2633 464 
Q 2878 531 3122 666 
L 3122 134 
Q 2881 22 2623 -34 
Q 2366 -91 2075 -91 
Q 1284 -91 818 406 
Q 353 903 353 1747 
Q 353 2603 823 3093 
Q 1294 3584 2113 3584 
Q 2378 3584 2631 3529 
Q 2884 3475 3122 3366 
z
" transform="scale(0.015625)"/>
      </defs>
      <use xlink:href="#DejaVuSans-52"/>
      <use xlink:href="#DejaVuSans-65" x="64.982422"/>
      <use xlink:href="#DejaVuSans-61" x="126.505859"/>
      <use xlink:href="#DejaVuSans-64" x="187.785156"/>
      <use xlink:href="#DejaVuSans-20" x="251.261719"/>
      <use xlink:href="#DejaVuSans-70" x="283.048828"/>
      <use xlink:href="#DejaVuSans-65" x="346.525391"/>
      <use xlink:href="#DejaVuSans-72" x="408.048828"/>
      <use xlink:href="#DejaVuSans-63" x="446.912109"/>
      <use xlink:href="#DejaVuSans-65" x="501.892578"/>
      <use xlink:href="#DejaVuSans-6e" x="563.416016"/>
      <use xlink:href="#DejaVuSans-74" x="626.794922"/>
     </g>
    </g>
   </g>
   <g id="line2d_7">
    <path d="M 76.613125 273.99006 
L 88.251792 271.853746 
L 99.890458 271.37901 
L 111.529125 272.328483 
L 123.167792 273.515324 
L 134.806458 271.141642 
L 146.445125 272.803219 
L 158.083792 273.515324 
L 169.722458 273.752692 
L 181.361125 273.752692 
L 192.999792 273.752692 
L 204.638458 273.752692 
L 216.277125 273.752692 
L 227.915792 273.752692 
L 239.554458 273.99006 
L 251.193125 273.99006 
L 262.831792 273.99006 
L 274.470458 273.277955 
L 286.109125 273.99006 
L 297.747792 273.99006 
L 309.386458 272.565851 
L 321.025125 272.565851 
L 332.663792 273.277955 
L 344.302458 270.904274 
L 355.941125 273.040587 
L 367.579792 273.040587 
L 379.218458 273.277955 
L 390.857125 272.565851 
L 402.495792 272.328483 
L 414.134458 273.277955 
L 425.773125 272.328483 
L 437.411792 253.339028 
L 449.050458 253.339028 
L 460.689125 248.591665 
L 472.327792 249.066401 
L 483.966458 246.692719 
L 495.605125 243.844301 
L 507.243792 241.945356 
L 518.882458 236.960624 
L 530.521125 233.162733 
L 542.159792 226.753792 
L 553.798458 225.566951 
L 565.437125 223.905374 
L 577.075792 220.58222 
L 588.714458 215.597488 
L 600.353125 212.511702 
L 611.991792 211.799597 
L 623.630458 208.476443 
L 635.269125 200.643293 
L 646.907792 191.385934 
L 658.546458 43.030822 
L 670.185125 171.447007 
L 681.823792 181.41647 
L 693.462458 163.851225 
L 705.101125 149.609134 
L 716.739792 129.432839 
L 728.378458 109.493912 
L 740.017125 111.630226 
L 751.655792 100.711289 
L 763.294458 112.817067 
L 774.933125 108.781807 
L 786.571792 107.832335 
L 798.210458 104.034444 
L 809.849125 93.115508 
L 821.487792 95.726558 
L 833.126458 90.029721 
L 844.765125 73.888685 
L 856.403792 71.515003 
L 868.042458 62.495013 
L 879.681125 51.10134 
L 891.319792 273.752692 
L 902.958458 273.752692 
" clip-path="url(#p7e46f25a65)" style="fill: none; stroke: #7cb5ec; stroke-linecap: square"/>
   </g>
   <g id="line2d_8">
    <path d="M 76.613125 273.99006 
L 88.251792 273.044875 
L 99.890458 273.044875 
L 111.529125 273.044875 
L 123.167792 273.611986 
L 134.806458 272.477764 
L 146.445125 273.801023 
L 158.083792 273.801023 
L 169.722458 273.801023 
L 181.361125 273.99006 
L 192.999792 273.801023 
L 204.638458 273.99006 
L 216.277125 273.99006 
L 227.915792 273.611986 
L 239.554458 273.611986 
L 251.193125 273.801023 
L 262.831792 273.99006 
L 274.470458 273.99006 
L 286.109125 273.801023 
L 297.747792 273.801023 
L 309.386458 273.801023 
L 321.025125 273.611986 
L 332.663792 273.044875 
L 344.302458 272.855838 
L 355.941125 273.044875 
L 367.579792 272.666801 
L 379.218458 272.477764 
L 390.857125 273.611986 
L 402.495792 271.910653 
L 414.134458 273.611986 
L 425.773125 273.422949 
L 437.411792 250.92755 
L 449.050458 248.659106 
L 460.689125 249.982365 
L 472.327792 247.713921 
L 483.966458 245.067404 
L 495.605125 244.68933 
L 507.243792 242.231849 
L 518.882458 239.774369 
L 530.521125 228.432151 
L 542.159792 231.078668 
L 553.798458 225.218522 
L 565.437125 223.328152 
L 577.075792 214.443415 
L 588.714458 219.73645 
L 600.353125 203.101197 
L 611.991792 208.583269 
L 623.630458 198.186236 
L 635.269125 199.13142 
L 646.907792 187.222091 
L 658.546458 101.210271 
L 670.185125 166.617062 
L 681.823792 164.348618 
L 693.462458 158.488472 
L 705.101125 142.42033 
L 716.739792 131.645223 
L 728.378458 121.437226 
L 740.017125 120.113968 
L 751.655792 116.333228 
L 763.294458 113.1196 
L 774.933125 102.155456 
L 786.571792 99.697975 
L 798.210458 92.325533 
L 809.849125 94.40494 
L 821.487792 96.106273 
L 833.126458 71.531467 
L 844.765125 80.983315 
L 856.403792 71.720504 
L 868.042458 58.676953 
L 879.681125 54.896213 
L 891.319792 273.044875 
L 902.958458 273.801023 
L 914.597125 273.99006 
L 926.235792 273.611986 
L 937.874458 273.99006 
L 949.513125 273.801023 
" clip-path="url(#p7e46f25a65)" style="fill: none; stroke: #434348; stroke-linecap: square"/>
   </g>
   <g id="line2d_9">
    <path d="M 76.613125 273.99006 
L 88.251792 273.789776 
L 99.890458 272.788356 
L 111.529125 272.98864 
L 123.167792 273.789776 
L 134.806458 271.786936 
L 146.445125 272.788356 
L 158.083792 273.389208 
L 169.722458 273.589492 
L 181.361125 273.99006 
L 192.999792 273.789776 
L 204.638458 273.99006 
L 216.277125 273.99006 
L 227.915792 273.789776 
L 239.554458 273.99006 
L 251.193125 273.99006 
L 262.831792 273.789776 
L 274.470458 273.789776 
L 286.109125 273.789776 
L 297.747792 273.99006 
L 309.386458 273.99006 
L 321.025125 273.188924 
L 332.663792 273.188924 
L 344.302458 272.387788 
L 355.941125 271.786936 
L 367.579792 272.588072 
L 379.218458 272.98864 
L 390.857125 272.98864 
L 402.495792 272.788356 
L 414.134458 273.188924 
L 425.773125 273.389208 
L 437.411792 250.556837 
L 449.050458 247.752862 
L 460.689125 244.748602 
L 472.327792 246.551158 
L 483.966458 242.345195 
L 495.605125 237.938948 
L 507.243792 231.129293 
L 518.882458 232.731565 
L 530.521125 227.123614 
L 542.159792 226.122194 
L 553.798458 223.518503 
L 565.437125 219.112256 
L 577.075792 214.305441 
L 588.714458 206.294082 
L 600.353125 207.495786 
L 611.991792 193.275625 
L 623.630458 203.490107 
L 635.269125 196.0796 
L 646.907792 191.873637 
L 658.546458 86.524275 
L 670.185125 167.038426 
L 681.823792 160.62934 
L 693.462458 158.225932 
L 705.101125 151.816846 
L 716.739792 128.984474 
L 728.378458 121.1734 
L 740.017125 114.363745 
L 751.655792 108.755795 
L 763.294458 120.772832 
L 774.933125 114.363745 
L 786.571792 117.968857 
L 798.210458 105.951819 
L 809.849125 100.143584 
L 821.487792 98.541313 
L 833.126458 88.126547 
L 844.765125 81.116608 
L 856.403792 71.502978 
L 868.042458 68.699003 
L 879.681125 60.687645 
L 891.319792 273.99006 
L 902.958458 273.789776 
L 914.597125 273.389208 
L 926.235792 273.789776 
" clip-path="url(#p7e46f25a65)" style="fill: none; stroke: #90ed7d; stroke-linecap: square"/>
   </g>
   <g id="line2d_10">
    <path d="M 76.613125 273.99006 
L 88.251792 273.61922 
L 99.890458 272.012246 
L 111.529125 272.630313 
L 123.167792 273.124766 
L 134.806458 272.259472 
L 146.445125 273.24838 
L 158.083792 273.495606 
L 169.722458 273.99006 
L 181.361125 273.866447 
L 192.999792 273.99006 
L 204.638458 273.866447 
L 216.277125 273.99006 
L 227.915792 273.99006 
L 239.554458 273.99006 
L 251.193125 273.866447 
L 262.831792 273.866447 
L 274.470458 273.866447 
L 286.109125 273.742833 
L 297.747792 273.99006 
L 309.386458 273.495606 
L 321.025125 273.742833 
L 332.663792 273.001153 
L 344.302458 272.135859 
L 355.941125 273.001153 
L 367.579792 273.001153 
L 379.218458 273.371993 
L 390.857125 272.630313 
L 402.495792 272.753926 
L 414.134458 273.001153 
L 425.773125 272.753926 
L 437.411792 250.379902 
L 449.050458 248.649314 
L 460.689125 246.918727 
L 472.327792 246.918727 
L 483.966458 241.356124 
L 495.605125 242.839485 
L 507.243792 238.018562 
L 518.882458 229.489238 
L 530.521125 224.791929 
L 542.159792 223.926635 
L 553.798458 222.937728 
L 565.437125 212.059749 
L 577.075792 209.463868 
L 588.714458 202.417905 
L 600.353125 201.305384 
L 611.991792 193.1469 
L 623.630458 192.652447 
L 635.269125 188.820431 
L 646.907792 155.321202 
L 658.546458 83.625433 
L 670.185125 157.793469 
L 681.823792 158.040696 
L 693.462458 157.793469 
L 705.101125 134.801378 
L 716.739792 126.642894 
L 728.378458 113.539874 
L 740.017125 110.943993 
L 751.655792 104.021643 
L 763.294458 115.270462 
L 774.933125 98.82988 
L 786.571792 107.977272 
L 798.210458 94.256185 
L 809.849125 98.0882 
L 821.487792 100.684081 
L 833.126458 83.254593 
L 844.765125 83.87266 
L 856.403792 81.400392 
L 868.042458 109.089792 
L 879.681125 176.459092 
L 891.319792 273.99006 
L 902.958458 273.866447 
L 914.597125 273.371993 
L 926.235792 273.742833 
" clip-path="url(#p7e46f25a65)" style="fill: none; stroke: #f7a35c; stroke-linecap: square"/>
   </g>
   <g id="line2d_11">
    <path d="M 76.613125 273.99006 
L 88.251792 273.329337 
L 99.890458 271.512348 
L 111.529125 272.503433 
L 123.167792 273.659698 
L 134.806458 272.338252 
L 146.445125 272.668614 
L 158.083792 273.659698 
L 169.722458 273.824879 
L 181.361125 273.824879 
L 192.999792 273.824879 
L 204.638458 273.99006 
L 216.277125 273.99006 
L 227.915792 273.99006 
L 239.554458 273.99006 
L 251.193125 273.99006 
L 262.831792 273.99006 
L 274.470458 273.824879 
L 286.109125 273.99006 
L 297.747792 273.659698 
L 309.386458 273.659698 
L 321.025125 273.824879 
L 332.663792 273.164156 
L 344.302458 272.833794 
L 355.941125 272.998975 
L 367.579792 273.164156 
L 379.218458 272.998975 
L 390.857125 272.998975 
L 402.495792 272.998975 
L 414.134458 273.659698 
L 425.773125 273.329337 
L 437.411792 251.525472 
L 449.050458 247.230771 
L 460.689125 249.543302 
L 472.327792 242.110167 
L 483.966458 241.779805 
L 495.605125 237.154743 
L 507.243792 239.962816 
L 518.882458 235.668116 
L 530.521125 232.034138 
L 542.159792 229.060884 
L 553.798458 220.801844 
L 565.437125 222.784014 
L 577.075792 207.4222 
L 588.714458 206.761476 
L 600.353125 201.640872 
L 611.991792 199.328341 
L 623.630458 202.631957 
L 635.269125 186.939781 
L 646.907792 175.707487 
L 658.546458 76.929372 
L 670.185125 165.96182 
L 681.823792 162.988566 
L 693.462458 154.564345 
L 705.101125 146.966029 
L 716.739792 129.622045 
L 728.378458 124.831802 
L 740.017125 107.322638 
L 751.655792 112.278062 
L 763.294458 110.791435 
L 774.933125 95.759982 
L 786.571792 103.358299 
L 798.210458 94.108174 
L 809.849125 84.032146 
L 821.487792 89.483112 
L 833.126458 74.782021 
L 844.765125 77.424914 
L 856.403792 54.464784 
L 868.042458 105.836011 
L 879.681125 163.979651 
L 891.319792 273.99006 
L 902.958458 273.99006 
L 914.597125 273.494518 
L 926.235792 273.99006 
L 937.874458 273.824879 
" clip-path="url(#p7e46f25a65)" style="fill: none; stroke: #8085e9; stroke-linecap: square"/>
   </g>
   <g id="line2d_12">
    <path d="M 76.613125 273.99006 
L 88.251792 273.118897 
L 99.890458 272.421966 
L 111.529125 272.421966 
L 123.167792 273.815827 
L 134.806458 271.37657 
L 146.445125 273.467362 
L 158.083792 273.815827 
L 169.722458 273.99006 
L 181.361125 273.99006 
L 192.999792 273.641595 
L 204.638458 273.99006 
L 216.277125 273.99006 
L 227.915792 273.815827 
L 239.554458 273.99006 
L 251.193125 273.99006 
L 262.831792 273.641595 
L 274.470458 273.99006 
L 286.109125 273.641595 
L 297.747792 273.467362 
L 309.386458 273.467362 
L 321.025125 273.641595 
L 332.663792 273.118897 
L 344.302458 272.421966 
L 355.941125 272.596199 
L 367.579792 273.118897 
L 379.218458 273.815827 
L 390.857125 273.467362 
L 402.495792 272.421966 
L 414.134458 272.770432 
L 425.773125 273.293129 
L 437.411792 251.165585 
L 449.050458 247.158234 
L 460.689125 246.635536 
L 472.327792 244.718977 
L 483.966458 242.279721 
L 495.605125 238.27237 
L 507.243792 231.999995 
L 518.882458 233.393856 
L 530.521125 227.295714 
L 542.159792 225.03069 
L 553.798458 226.076086 
L 565.437125 219.281013 
L 577.075792 214.402499 
L 588.714458 207.084728 
L 600.353125 200.986586 
L 611.991792 202.728912 
L 623.630458 209.698218 
L 635.269125 202.903145 
L 646.907792 161.784243 
L 658.546458 77.455648 
L 670.185125 164.746198 
L 681.823792 161.784243 
L 693.462458 158.473823 
L 705.101125 137.043209 
L 716.739792 140.527862 
L 728.378458 117.877619 
L 740.017125 113.347571 
L 751.655792 123.627296 
L 763.294458 102.893613 
L 774.933125 91.394259 
L 786.571792 94.181981 
L 798.210458 89.4777 
L 809.849125 84.599186 
L 821.487792 94.704679 
L 833.126458 81.288766 
L 844.765125 81.114534 
L 856.403792 70.137878 
L 868.042458 79.023742 
L 879.681125 171.541271 
L 891.319792 272.247734 
" clip-path="url(#p7e46f25a65)" style="fill: none; stroke: #f15c80; stroke-linecap: square"/>
   </g>
   <g id="line2d_13">
    <path d="M 32.968125 273.99006 
L 993.158125 273.99006 
" clip-path="url(#p7e46f25a65)" style="fill: none; stroke: #dedede; stroke-width: 2; stroke-linecap: square"/>
   </g>
   <g id="text_17">
    <!-- Fastp: Insert Size Distribution -->
    <g transform="translate(395.546875 19.3575) scale(0.16 -0.16)">
     <defs>
      <path id="DejaVuSans-46" d="M 628 4666 
L 3309 4666 
L 3309 4134 
L 1259 4134 
L 1259 2759 
L 3109 2759 
L 3109 2228 
L 1259 2228 
L 1259 0 
L 628 0 
L 628 4666 
z
" transform="scale(0.015625)"/>
      <path id="DejaVuSans-3a" d="M 750 794 
L 1409 794 
L 1409 0 
L 750 0 
L 750 794 
z
M 750 3309 
L 1409 3309 
L 1409 2516 
L 750 2516 
L 750 3309 
z
" transform="scale(0.015625)"/>
      <path id="DejaVuSans-53" d="M 3425 4513 
L 3425 3897 
Q 3066 4069 2747 4153 
Q 2428 4238 2131 4238 
Q 1616 4238 1336 4038 
Q 1056 3838 1056 3469 
Q 1056 3159 1242 3001 
Q 1428 2844 1947 2747 
L 2328 2669 
Q 3034 2534 3370 2195 
Q 3706 1856 3706 1288 
Q 3706 609 3251 259 
Q 2797 -91 1919 -91 
Q 1588 -91 1214 -16 
Q 841 59 441 206 
L 441 856 
Q 825 641 1194 531 
Q 1563 422 1919 422 
Q 2459 422 2753 634 
Q 3047 847 3047 1241 
Q 3047 1584 2836 1778 
Q 2625 1972 2144 2069 
L 1759 2144 
Q 1053 2284 737 2584 
Q 422 2884 422 3419 
Q 422 4038 858 4394 
Q 1294 4750 2059 4750 
Q 2388 4750 2728 4690 
Q 3069 4631 3425 4513 
z
" transform="scale(0.015625)"/>
      <path id="DejaVuSans-44" d="M 1259 4147 
L 1259 519 
L 2022 519 
Q 2988 519 3436 956 
Q 3884 1394 3884 2338 
Q 3884 3275 3436 3711 
Q 2988 4147 2022 4147 
L 1259 4147 
z
M 628 4666 
L 1925 4666 
Q 3281 4666 3915 4102 
Q 4550 3538 4550 2338 
Q 4550 1131 3912 565 
Q 3275 0 1925 0 
L 628 0 
L 628 4666 
z
" transform="scale(0.015625)"/>
      <path id="DejaVuSans-62" d="M 3116 1747 
Q 3116 2381 2855 2742 
Q 2594 3103 2138 3103 
Q 1681 3103 1420 2742 
Q 1159 2381 1159 1747 
Q 1159 1113 1420 752 
Q 1681 391 2138 391 
Q 2594 391 2855 752 
Q 3116 1113 3116 1747 
z
M 1159 2969 
Q 1341 3281 1617 3432 
Q 1894 3584 2278 3584 
Q 2916 3584 3314 3078 
Q 3713 2572 3713 1747 
Q 3713 922 3314 415 
Q 2916 -91 2278 -91 
Q 1894 -91 1617 61 
Q 1341 213 1159 525 
L 1159 0 
L 581 0 
L 581 4863 
L 1159 4863 
L 1159 2969 
z
" transform="scale(0.015625)"/>
      <path id="DejaVuSans-75" d="M 544 1381 
L 544 3500 
L 1119 3500 
L 1119 1403 
Q 1119 906 1312 657 
Q 1506 409 1894 409 
Q 2359 409 2629 706 
Q 2900 1003 2900 1516 
L 2900 3500 
L 3475 3500 
L 3475 0 
L 2900 0 
L 2900 538 
Q 2691 219 2414 64 
Q 2138 -91 1772 -91 
Q 1169 -91 856 284 
Q 544 659 544 1381 
z
M 1991 3584 
L 1991 3584 
z
" transform="scale(0.015625)"/>
      <path id="DejaVuSans-6f" d="M 1959 3097 
Q 1497 3097 1228 2736 
Q 959 2375 959 1747 
Q 959 1119 1226 758 
Q 1494 397 1959 397 
Q 2419 397 2687 759 
Q 2956 1122 2956 1747 
Q 2956 2369 2687 2733 
Q 2419 3097 1959 3097 
z
M 1959 3584 
Q 2709 3584 3137 3096 
Q 3566 2609 3566 1747 
Q 3566 888 3137 398 
Q 2709 -91 1959 -91 
Q 1206 -91 779 398 
Q 353 888 353 1747 
Q 353 2609 779 3096 
Q 1206 3584 1959 3584 
z
" transform="scale(0.015625)"/>
     </defs>
     <use xlink:href="#DejaVuSans-46"/>
     <use xlink:href="#DejaVuSans-61" x="48.394531"/>
     <use xlink:href="#DejaVuSans-73" x="109.673828"/>
     <use xlink:href="#DejaVuSans-74" x="161.773438"/>
     <use xlink:href="#DejaVuSans-70" x="200.982422"/>
     <use xlink:href="#DejaVuSans-3a" x="264.458984"/>
     <use xlink:href="#DejaVuSans-20" x="298.150391"/>
     <use xlink:href="#DejaVuSans-49" x="329.9375"/>
     <use xlink:href="#DejaVuSans-6e" x="359.429688"/>
     <use xlink:href="#DejaVuSans-73" x="422.808594"/>
     <use xlink:href="#DejaVuSans-65" x="474.908203"/>
     <use xlink:href="#DejaVuSans-72" x="536.431641"/>
     <use xlink:href="#DejaVuSans-74" x="577.544922"/>
     <use xlink:href="#DejaVuSans-20" x="616.753906"/>
     <use xlink:href="#DejaVuSans-53" x="648.541016"/>
     <use xlink:href="#DejaVuSans-69" x="712.017578"/>
     <use xlink:href="#DejaVuSans-7a" x="739.800781"/>
     <use xlink:href="#DejaVuSans-65" x="792.291016"/>
     <use xlink:href="#DejaVuSans-20" x="853.814453"/>
     <use xlink:href="#DejaVuSans-44" x="885.601562"/>
     <use xlink:href="#DejaVuSans-69" x="962.603516"/>
     <use xlink:href="#DejaVuSans-73" x="990.386719"/>
     <use xlink:href="#DejaVuSans-74" x="1042.486328"/>
     <use xlink:href="#DejaVuSans-72" x="1081.695312"/>
     <use xlink:href="#DejaVuSans-69" x="1122.808594"/>
     <use xlink:href="#DejaVuSans-62" x="1150.591797"/>
     <use xlink:href="#DejaVuSans-75" x="1214.068359"/>
     <use xlink:href="#DejaVuSans-74" x="1277.447266"/>
     <use xlink:href="#DejaVuSans-69" x="1316.65625"/>
     <use xlink:href="#DejaVuSans-6f" x="1344.439453"/>
     <use xlink:href="#DejaVuSans-6e" x="1405.621094"/>
    </g>
   </g>
   <g id="legend_1">
    <g id="line2d_14">
     <path d="M 40.168125 303.490394 
L 48.168125 303.490394 
L 56.168125 303.490394 
" style="fill: none; stroke: #7cb5ec; stroke-linecap: square"/>
    </g>
    <g id="text_18">
     <!-- SRR5961980_T1 -->
     <g transform="translate(62.568125 306.290394) scale(0.08 -0.08)">
      <defs>
       <path id="DejaVuSans-39" d="M 703 97 
L 703 672 
Q 941 559 1184 500 
Q 1428 441 1663 441 
Q 2288 441 2617 861 
Q 2947 1281 2994 2138 
Q 2813 1869 2534 1725 
Q 2256 1581 1919 1581 
Q 1219 1581 811 2004 
Q 403 2428 403 3163 
Q 403 3881 828 4315 
Q 1253 4750 1959 4750 
Q 2769 4750 3195 4129 
Q 3622 3509 3622 2328 
Q 3622 1225 3098 567 
Q 2575 -91 1691 -91 
Q 1453 -91 1209 -44 
Q 966 3 703 97 
z
M 1959 2075 
Q 2384 2075 2632 2365 
Q 2881 2656 2881 3163 
Q 2881 3666 2632 3958 
Q 2384 4250 1959 4250 
Q 1534 4250 1286 3958 
Q 1038 3666 1038 3163 
Q 1038 2656 1286 2365 
Q 1534 2075 1959 2075 
z
" transform="scale(0.015625)"/>
       <path id="DejaVuSans-38" d="M 2034 2216 
Q 1584 2216 1326 1975 
Q 1069 1734 1069 1313 
Q 1069 891 1326 650 
Q 1584 409 2034 409 
Q 2484 409 2743 651 
Q 3003 894 3003 1313 
Q 3003 1734 2745 1975 
Q 2488 2216 2034 2216 
z
M 1403 2484 
Q 997 2584 770 2862 
Q 544 3141 544 3541 
Q 544 4100 942 4425 
Q 1341 4750 2034 4750 
Q 2731 4750 3128 4425 
Q 3525 4100 3525 3541 
Q 3525 3141 3298 2862 
Q 3072 2584 2669 2484 
Q 3125 2378 3379 2068 
Q 3634 1759 3634 1313 
Q 3634 634 3220 271 
Q 2806 -91 2034 -91 
Q 1263 -91 848 271 
Q 434 634 434 1313 
Q 434 1759 690 2068 
Q 947 2378 1403 2484 
z
M 1172 3481 
Q 1172 3119 1398 2916 
Q 1625 2713 2034 2713 
Q 2441 2713 2670 2916 
Q 2900 3119 2900 3481 
Q 2900 3844 2670 4047 
Q 2441 4250 2034 4250 
Q 1625 4250 1398 4047 
Q 1172 3844 1172 3481 
z
" transform="scale(0.015625)"/>
       <path id="DejaVuSans-5f" d="M 3263 -1063 
L 3263 -1509 
L -63 -1509 
L -63 -1063 
L 3263 -1063 
z
" transform="scale(0.015625)"/>
       <path id="DejaVuSans-54" d="M -19 4666 
L 3928 4666 
L 3928 4134 
L 2272 4134 
L 2272 0 
L 1638 0 
L 1638 4134 
L -19 4134 
L -19 4666 
z
" transform="scale(0.015625)"/>
      </defs>
      <use xlink:href="#DejaVuSans-53"/>
      <use xlink:href="#DejaVuSans-52" x="63.476562"/>
      <use xlink:href="#DejaVuSans-52" x="132.958984"/>
      <use xlink:href="#DejaVuSans-35" x="202.441406"/>
      <use xlink:href="#DejaVuSans-39" x="266.064453"/>
      <use xlink:href="#DejaVuSans-36" x="329.6875"/>
      <use xlink:href="#DejaVuSans-31" x="393.310547"/>
      <use xlink:href="#DejaVuSans-39" x="456.933594"/>
      <use xlink:href="#DejaVuSans-38" x="520.556641"/>
      <use xlink:href="#DejaVuSans-30" x="584.179688"/>
      <use xlink:href="#DejaVuSans-5f" x="647.802734"/>
      <use xlink:href="#DejaVuSans-54" x="697.802734"/>
      <use xlink:href="#DejaVuSans-31" x="758.886719"/>
     </g>
    </g>
    <g id="line2d_15">
     <path d="M 40.168125 315.455394 
L 48.168125 315.455394 
L 56.168125 315.455394 
" style="fill: none; stroke: #434348; stroke-linecap: square"/>
    </g>
    <g id="text_19">
     <!-- SRR5961981_T1 -->
     <g transform="translate(62.568125 318.255394) scale(0.08 -0.08)">
      <use xlink:href="#DejaVuSans-53"/>
      <use xlink:href="#DejaVuSans-52" x="63.476562"/>
      <use xlink:href="#DejaVuSans-52" x="132.958984"/>
      <use xlink:href="#DejaVuSans-35" x="202.441406"/>
      <use xlink:href="#DejaVuSans-39" x="266.064453"/>
      <use xlink:href="#DejaVuSans-36" x="329.6875"/>
      <use xlink:href="#DejaVuSans-31" x="393.310547"/>
      <use xlink:href="#DejaVuSans-39" x="456.933594"/>
      <use xlink:href="#DejaVuSans-38" x="520.556641"/>
      <use xlink:href="#DejaVuSans-31" x="584.179688"/>
      <use xlink:href="#DejaVuSans-5f" x="647.802734"/>
      <use xlink:href="#DejaVuSans-54" x="697.802734"/>
      <use xlink:href="#DejaVuSans-31" x="758.886719"/>
     </g>
    </g>
    <g id="line2d_16">
     <path d="M 254.565 303.490394 
L 262.565 303.490394 
L 270.565 303.490394 
" style="fill: none; stroke: #90ed7d; stroke-linecap: square"/>
    </g>
    <g id="text_20">
     <!-- SRR5961982_T1 -->
     <g transform="translate(276.965 306.290394) scale(0.08 -0.08)">
      <use xlink:href="#DejaVuSans-53"/>
      <use xlink:href="#DejaVuSans-52" x="63.476562"/>
      <use xlink:href="#DejaVuSans-52" x="132.958984"/>
      <use xlink:href="#DejaVuSans-35" x="202.441406"/>
      <use xlink:href="#DejaVuSans-39" x="266.064453"/>
      <use xlink:href="#DejaVuSans-36" x="329.6875"/>
      <use xlink:href="#DejaVuSans-31" x="393.310547"/>
      <use xlink:href="#DejaVuSans-39" x="456.933594"/>
      <use xlink:href="#DejaVuSans-38" x="520.556641"/>
      <use xlink:href="#DejaVuSans-32" x="584.179688"/>
      <use xlink:href="#DejaVuSans-5f" x="647.802734"/>
      <use xlink:href="#DejaVuSans-54" x="697.802734"/>
      <use xlink:href="#DejaVuSans-31" x="758.886719"/>
     </g>
    </g>
    <g id="line2d_17">
     <path d="M 468.961875 303.490394 
L 476.961875 303.490394 
L 484.961875 303.490394 
" style="fill: none; stroke: #f7a35c; stroke-linecap: square"/>
    </g>
    <g id="text_21">
     <!-- SRR5962008_T1 -->
     <g transform="translate(491.361875 306.290394) scale(0.08 -0.08)">
      <use xlink:href="#DejaVuSans-53"/>
      <use xlink:href="#DejaVuSans-52" x="63.476562"/>
      <use xlink:href="#DejaVuSans-52" x="132.958984"/>
      <use xlink:href="#DejaVuSans-35" x="202.441406"/>
      <use xlink:href="#DejaVuSans-39" x="266.064453"/>
      <use xlink:href="#DejaVuSans-36" x="329.6875"/>
      <use xlink:href="#DejaVuSans-32" x="393.310547"/>
      <use xlink:href="#DejaVuSans-30" x="456.933594"/>
      <use xlink:href="#DejaVuSans-30" x="520.556641"/>
      <use xlink:href="#DejaVuSans-38" x="584.179688"/>
      <use xlink:href="#DejaVuSans-5f" x="647.802734"/>
      <use xlink:href="#DejaVuSans-54" x="697.802734"/>
      <use xlink:href="#DejaVuSans-31" x="758.886719"/>
     </g>
    </g>
    <g id="line2d_18">
     <path d="M 683.35875 303.490394 
L 691.35875 303.490394 
L 699.35875 303.490394 
" style="fill: none; stroke: #8085e9; stroke-linecap: square"/>
    </g>
    <g id="text_22">
     <!-- SRR5962009_T1 -->
     <g transform="translate(705.75875 306.290394) scale(0.08 -0.08)">
      <use xlink:href="#DejaVuSans-53"/>
      <use xlink:href="#DejaVuSans-52" x="63.476562"/>
      <use xlink:href="#DejaVuSans-52" x="132.958984"/>
      <use xlink:href="#DejaVuSans-35" x="202.441406"/>
      <use xlink:href="#DejaVuSans-39" x="266.064453"/>
      <use xlink:href="#DejaVuSans-36" x="329.6875"/>
      <use xlink:href="#DejaVuSans-32" x="393.310547"/>
      <use xlink:href="#DejaVuSans-30" x="456.933594"/>
      <use xlink:href="#DejaVuSans-30" x="520.556641"/>
      <use xlink:href="#DejaVuSans-39" x="584.179688"/>
      <use xlink:href="#DejaVuSans-5f" x="647.802734"/>
      <use xlink:href="#DejaVuSans-54" x="697.802734"/>
      <use xlink:href="#DejaVuSans-31" x="758.886719"/>
     </g>
    </g>
    <g id="line2d_19">
     <path d="M 897.755625 303.490394 
L 905.755625 303.490394 
L 913.755625 303.490394 
" style="fill: none; stroke: #f15c80; stroke-linecap: square"/>
    </g>
    <g id="text_23">
     <!-- SRR5962010_T1 -->
     <g transform="translate(920.155625 306.290394) scale(0.08 -0.08)">
      <use xlink:href="#DejaVuSans-53"/>
      <use xlink:href="#DejaVuSans-52" x="63.476562"/>
      <use xlink:href="#DejaVuSans-52" x="132.958984"/>
      <use xlink:href="#DejaVuSans-35" x="202.441406"/>
      <use xlink:href="#DejaVuSans-39" x="266.064453"/>
      <use xlink:href="#DejaVuSans-36" x="329.6875"/>
      <use xlink:href="#DejaVuSans-32" x="393.310547"/>
      <use xlink:href="#DejaVuSans-30" x="456.933594"/>
      <use xlink:href="#DejaVuSans-31" x="520.556641"/>
      <use xlink:href="#DejaVuSans-30" x="584.179688"/>
      <use xlink:href="#DejaVuSans-5f" x="647.802734"/>
      <use xlink:href="#DejaVuSans-54" x="697.802734"/>
      <use xlink:href="#DejaVuSans-31" x="758.886719"/>
     </g>
    </g>
   </g>
  </g>
 </g>
 <defs>
  <clipPath id="p7e46f25a65">
   <rect x="32.968125" y="31.48286" width="960.19" height="242.5072"/>
  </clipPath>
 </defs>
</svg>
