<?xml version="1.0" encoding="utf-8" standalone="no"?>
<!DOCTYPE svg PUBLIC "-//W3C//DTD SVG 1.1//EN"
  "http://www.w3.org/Graphics/SVG/1.1/DTD/svg11.dtd">
<svg xmlns:xlink="http://www.w3.org/1999/xlink" width="1000.318125pt" height="330.541644pt" viewBox="0 0 1000.318125 330.541644" xmlns="http://www.w3.org/2000/svg" version="1.1">
 <metadata>
  <rdf:RDF xmlns:dc="http://purl.org/dc/elements/1.1/" xmlns:cc="http://creativecommons.org/ns#" xmlns:rdf="http://www.w3.org/1999/02/22-rdf-syntax-ns#">
   <cc:Work>
    <dc:type rdf:resource="http://purl.org/dc/dcmitype/StillImage"/>
    <dc:date>2025-08-20T15:20:37.374425</dc:date>
    <dc:format>image/svg+xml</dc:format>
    <dc:creator>
     <cc:Agent>
      <dc:title>Matplotlib v3.6.2, https://matplotlib.org/</dc:title>
     </cc:Agent>
    </dc:creator>
   </cc:Work>
  </rdf:RDF>
 </metadata>
 <defs>
  <style type="text/css">*{stroke-linejoin: round; stroke-linecap: butt}</style>
 </defs>
 <g id="figure_1">
  <g id="axes_1">
   <g id="patch_1">
    <path d="M 38.058125 273.99006 
L 993.118125 273.99006 
L 993.118125 31.48286 
L 38.058125 31.48286 
z
" style="fill: #ffffff"/>
   </g>
   <g id="patch_2">
    <path d="M 38.058125 187.96884 
L 993.118125 187.96884 
L 993.118125 -156.116041 
L 38.058125 -156.116041 
z
" clip-path="url(#p6344175d52)" style="fill: #e6c3c3"/>
   </g>
   <g id="patch_3">
    <path d="M 38.058125 252.484755 
L 993.118125 252.484755 
L 993.118125 187.96884 
L 38.058125 187.96884 
z
" clip-path="url(#p6344175d52)" style="fill: #e6dcc3"/>
   </g>
   <g id="patch_4">
    <path d="M 38.058125 273.99006 
L 993.118125 273.99006 
L 993.118125 252.484755 
L 38.058125 252.484755 
z
" clip-path="url(#p6344175d52)" style="fill: #c3e6c3"/>
   </g>
   <g id="matplotlib.axis_1">
    <g id="xtick_1">
     <g id="text_1">
      <!-- 0 -->
      <g transform="translate(35.513125 287.06881) scale(0.08 -0.08)">
       <defs>
        <path id="DejaVuSans-30" d="M 2034 4250 
Q 1547 4250 1301 3770 
Q 1056 3291 1056 2328 
Q 1056 1369 1301 889 
Q 1547 409 2034 409 
Q 2525 409 2770 889 
Q 3016 1369 3016 2328 
Q 3016 3291 2770 3770 
Q 2525 4250 2034 4250 
z
M 2034 4750 
Q 2819 4750 3233 4129 
Q 3647 3509 3647 2328 
Q 3647 1150 3233 529 
Q 2819 -91 2034 -91 
Q 1250 -91 836 529 
Q 422 1150 422 2328 
Q 422 3509 836 4129 
Q 1250 4750 2034 4750 
z
" transform="scale(0.015625)"/>
       </defs>
       <use xlink:href="#DejaVuSans-30"/>
      </g>
     </g>
    </g>
    <g id="xtick_2">
     <g id="text_2">
      <!-- 10 -->
      <g transform="translate(215.057734 287.06881) scale(0.08 -0.08)">
       <defs>
        <path id="DejaVuSans-31" d="M 794 531 
L 1825 531 
L 1825 4091 
L 703 3866 
L 703 4441 
L 1819 4666 
L 2450 4666 
L 2450 531 
L 3481 531 
L 3481 0 
L 794 0 
L 794 531 
z
" transform="scale(0.015625)"/>
       </defs>
       <use xlink:href="#DejaVuSans-31"/>
       <use xlink:href="#DejaVuSans-30" x="63.623047"/>
      </g>
     </g>
    </g>
    <g id="xtick_3">
     <g id="text_3">
      <!-- 20 -->
      <g transform="translate(397.147343 287.06881) scale(0.08 -0.08)">
       <defs>
        <path id="DejaVuSans-32" d="M 1228 531 
L 3431 531 
L 3431 0 
L 469 0 
L 469 531 
Q 828 903 1448 1529 
Q 2069 2156 2228 2338 
Q 2531 2678 2651 2914 
Q 2772 3150 2772 3378 
Q 2772 3750 2511 3984 
Q 2250 4219 1831 4219 
Q 1534 4219 1204 4116 
Q 875 4013 500 3803 
L 500 4441 
Q 881 4594 1212 4672 
Q 1544 4750 1819 4750 
Q 2544 4750 2975 4387 
Q 3406 4025 3406 3419 
Q 3406 3131 3298 2873 
Q 3191 2616 2906 2266 
Q 2828 2175 2409 1742 
Q 1991 1309 1228 531 
z
" transform="scale(0.015625)"/>
       </defs>
       <use xlink:href="#DejaVuSans-32"/>
       <use xlink:href="#DejaVuSans-30" x="63.623047"/>
      </g>
     </g>
    </g>
    <g id="xtick_4">
     <g id="text_4">
      <!-- 30 -->
      <g transform="translate(579.236952 287.06881) scale(0.08 -0.08)">
       <defs>
        <path id="DejaVuSans-33" d="M 2597 2516 
Q 3050 2419 3304 2112 
Q 3559 1806 3559 1356 
Q 3559 666 3084 287 
Q 2609 -91 1734 -91 
Q 1441 -91 1130 -33 
Q 819 25 488 141 
L 488 750 
Q 750 597 1062 519 
Q 1375 441 1716 441 
Q 2309 441 2620 675 
Q 2931 909 2931 1356 
Q 2931 1769 2642 2001 
Q 2353 2234 1838 2234 
L 1294 2234 
L 1294 2753 
L 1863 2753 
Q 2328 2753 2575 2939 
Q 2822 3125 2822 3475 
Q 2822 3834 2567 4026 
Q 2313 4219 1838 4219 
Q 1578 4219 1281 4162 
Q 984 4106 628 3988 
L 628 4550 
Q 988 4650 1302 4700 
Q 1616 4750 1894 4750 
Q 2613 4750 3031 4423 
Q 3450 4097 3450 3541 
Q 3450 3153 3228 2886 
Q 3006 2619 2597 2516 
z
" transform="scale(0.015625)"/>
       </defs>
       <use xlink:href="#DejaVuSans-33"/>
       <use xlink:href="#DejaVuSans-30" x="63.623047"/>
      </g>
     </g>
    </g>
    <g id="xtick_5">
     <g id="text_5">
      <!-- 40 -->
      <g transform="translate(761.326562 287.06881) scale(0.08 -0.08)">
       <defs>
        <path id="DejaVuSans-34" d="M 2419 4116 
L 825 1625 
L 2419 1625 
L 2419 4116 
z
M 2253 4666 
L 3047 4666 
L 3047 1625 
L 3713 1625 
L 3713 1100 
L 3047 1100 
L 3047 0 
L 2419 0 
L 2419 1100 
L 313 1100 
L 313 1709 
L 2253 4666 
z
" transform="scale(0.015625)"/>
       </defs>
       <use xlink:href="#DejaVuSans-34"/>
       <use xlink:href="#DejaVuSans-30" x="63.623047"/>
      </g>
     </g>
    </g>
    <g id="xtick_6">
     <g id="text_6">
      <!-- 50 -->
      <g transform="translate(943.416171 287.06881) scale(0.08 -0.08)">
       <defs>
        <path id="DejaVuSans-35" d="M 691 4666 
L 3169 4666 
L 3169 4134 
L 1269 4134 
L 1269 2991 
Q 1406 3038 1543 3061 
Q 1681 3084 1819 3084 
Q 2600 3084 3056 2656 
Q 3513 2228 3513 1497 
Q 3513 744 3044 326 
Q 2575 -91 1722 -91 
Q 1428 -91 1123 -41 
Q 819 9 494 109 
L 494 744 
Q 775 591 1075 516 
Q 1375 441 1709 441 
Q 2250 441 2565 725 
Q 2881 1009 2881 1497 
Q 2881 1984 2565 2268 
Q 2250 2553 1709 2553 
Q 1456 2553 1204 2497 
Q 953 2441 691 2322 
L 691 4666 
z
" transform="scale(0.015625)"/>
       </defs>
       <use xlink:href="#DejaVuSans-35"/>
       <use xlink:href="#DejaVuSans-30" x="63.623047"/>
      </g>
     </g>
    </g>
    <g id="text_7">
     <!-- Position in Read (bp) -->
     <g transform="translate(463.985 300.330997) scale(0.1 -0.1)">
      <defs>
       <path id="DejaVuSans-50" d="M 1259 4147 
L 1259 2394 
L 2053 2394 
Q 2494 2394 2734 2622 
Q 2975 2850 2975 3272 
Q 2975 3691 2734 3919 
Q 2494 4147 2053 4147 
L 1259 4147 
z
M 628 4666 
L 2053 4666 
Q 2838 4666 3239 4311 
Q 3641 3956 3641 3272 
Q 3641 2581 3239 2228 
Q 2838 1875 2053 1875 
L 1259 1875 
L 1259 0 
L 628 0 
L 628 4666 
z
" transform="scale(0.015625)"/>
       <path id="DejaVuSans-6f" d="M 1959 3097 
Q 1497 3097 1228 2736 
Q 959 2375 959 1747 
Q 959 1119 1226 758 
Q 1494 397 1959 397 
Q 2419 397 2687 759 
Q 2956 1122 2956 1747 
Q 2956 2369 2687 2733 
Q 2419 3097 1959 3097 
z
M 1959 3584 
Q 2709 3584 3137 3096 
Q 3566 2609 3566 1747 
Q 3566 888 3137 398 
Q 2709 -91 1959 -91 
Q 1206 -91 779 398 
Q 353 888 353 1747 
Q 353 2609 779 3096 
Q 1206 3584 1959 3584 
z
" transform="scale(0.015625)"/>
       <path id="DejaVuSans-73" d="M 2834 3397 
L 2834 2853 
Q 2591 2978 2328 3040 
Q 2066 3103 1784 3103 
Q 1356 3103 1142 2972 
Q 928 2841 928 2578 
Q 928 2378 1081 2264 
Q 1234 2150 1697 2047 
L 1894 2003 
Q 2506 1872 2764 1633 
Q 3022 1394 3022 966 
Q 3022 478 2636 193 
Q 2250 -91 1575 -91 
Q 1294 -91 989 -36 
Q 684 19 347 128 
L 347 722 
Q 666 556 975 473 
Q 1284 391 1588 391 
Q 1994 391 2212 530 
Q 2431 669 2431 922 
Q 2431 1156 2273 1281 
Q 2116 1406 1581 1522 
L 1381 1569 
Q 847 1681 609 1914 
Q 372 2147 372 2553 
Q 372 3047 722 3315 
Q 1072 3584 1716 3584 
Q 2034 3584 2315 3537 
Q 2597 3491 2834 3397 
z
" transform="scale(0.015625)"/>
       <path id="DejaVuSans-69" d="M 603 3500 
L 1178 3500 
L 1178 0 
L 603 0 
L 603 3500 
z
M 603 4863 
L 1178 4863 
L 1178 4134 
L 603 4134 
L 603 4863 
z
" transform="scale(0.015625)"/>
       <path id="DejaVuSans-74" d="M 1172 4494 
L 1172 3500 
L 2356 3500 
L 2356 3053 
L 1172 3053 
L 1172 1153 
Q 1172 725 1289 603 
Q 1406 481 1766 481 
L 2356 481 
L 2356 0 
L 1766 0 
Q 1100 0 847 248 
Q 594 497 594 1153 
L 594 3053 
L 172 3053 
L 172 3500 
L 594 3500 
L 594 4494 
L 1172 4494 
z
" transform="scale(0.015625)"/>
       <path id="DejaVuSans-6e" d="M 3513 2113 
L 3513 0 
L 2938 0 
L 2938 2094 
Q 2938 2591 2744 2837 
Q 2550 3084 2163 3084 
Q 1697 3084 1428 2787 
Q 1159 2491 1159 1978 
L 1159 0 
L 581 0 
L 581 3500 
L 1159 3500 
L 1159 2956 
Q 1366 3272 1645 3428 
Q 1925 3584 2291 3584 
Q 2894 3584 3203 3211 
Q 3513 2838 3513 2113 
z
" transform="scale(0.015625)"/>
       <path id="DejaVuSans-20" transform="scale(0.015625)"/>
       <path id="DejaVuSans-52" d="M 2841 2188 
Q 3044 2119 3236 1894 
Q 3428 1669 3622 1275 
L 4263 0 
L 3584 0 
L 2988 1197 
Q 2756 1666 2539 1819 
Q 2322 1972 1947 1972 
L 1259 1972 
L 1259 0 
L 628 0 
L 628 4666 
L 2053 4666 
Q 2853 4666 3247 4331 
Q 3641 3997 3641 3322 
Q 3641 2881 3436 2590 
Q 3231 2300 2841 2188 
z
M 1259 4147 
L 1259 2491 
L 2053 2491 
Q 2509 2491 2742 2702 
Q 2975 2913 2975 3322 
Q 2975 3731 2742 3939 
Q 2509 4147 2053 4147 
L 1259 4147 
z
" transform="scale(0.015625)"/>
       <path id="DejaVuSans-65" d="M 3597 1894 
L 3597 1613 
L 953 1613 
Q 991 1019 1311 708 
Q 1631 397 2203 397 
Q 2534 397 2845 478 
Q 3156 559 3463 722 
L 3463 178 
Q 3153 47 2828 -22 
Q 2503 -91 2169 -91 
Q 1331 -91 842 396 
Q 353 884 353 1716 
Q 353 2575 817 3079 
Q 1281 3584 2069 3584 
Q 2775 3584 3186 3129 
Q 3597 2675 3597 1894 
z
M 3022 2063 
Q 3016 2534 2758 2815 
Q 2500 3097 2075 3097 
Q 1594 3097 1305 2825 
Q 1016 2553 972 2059 
L 3022 2063 
z
" transform="scale(0.015625)"/>
       <path id="DejaVuSans-61" d="M 2194 1759 
Q 1497 1759 1228 1600 
Q 959 1441 959 1056 
Q 959 750 1161 570 
Q 1363 391 1709 391 
Q 2188 391 2477 730 
Q 2766 1069 2766 1631 
L 2766 1759 
L 2194 1759 
z
M 3341 1997 
L 3341 0 
L 2766 0 
L 2766 531 
Q 2569 213 2275 61 
Q 1981 -91 1556 -91 
Q 1019 -91 701 211 
Q 384 513 384 1019 
Q 384 1609 779 1909 
Q 1175 2209 1959 2209 
L 2766 2209 
L 2766 2266 
Q 2766 2663 2505 2880 
Q 2244 3097 1772 3097 
Q 1472 3097 1187 3025 
Q 903 2953 641 2809 
L 641 3341 
Q 956 3463 1253 3523 
Q 1550 3584 1831 3584 
Q 2591 3584 2966 3190 
Q 3341 2797 3341 1997 
z
" transform="scale(0.015625)"/>
       <path id="DejaVuSans-64" d="M 2906 2969 
L 2906 4863 
L 3481 4863 
L 3481 0 
L 2906 0 
L 2906 525 
Q 2725 213 2448 61 
Q 2172 -91 1784 -91 
Q 1150 -91 751 415 
Q 353 922 353 1747 
Q 353 2572 751 3078 
Q 1150 3584 1784 3584 
Q 2172 3584 2448 3432 
Q 2725 3281 2906 2969 
z
M 947 1747 
Q 947 1113 1208 752 
Q 1469 391 1925 391 
Q 2381 391 2643 752 
Q 2906 1113 2906 1747 
Q 2906 2381 2643 2742 
Q 2381 3103 1925 3103 
Q 1469 3103 1208 2742 
Q 947 2381 947 1747 
z
" transform="scale(0.015625)"/>
       <path id="DejaVuSans-28" d="M 1984 4856 
Q 1566 4138 1362 3434 
Q 1159 2731 1159 2009 
Q 1159 1288 1364 580 
Q 1569 -128 1984 -844 
L 1484 -844 
Q 1016 -109 783 600 
Q 550 1309 550 2009 
Q 550 2706 781 3412 
Q 1013 4119 1484 4856 
L 1984 4856 
z
" transform="scale(0.015625)"/>
       <path id="DejaVuSans-62" d="M 3116 1747 
Q 3116 2381 2855 2742 
Q 2594 3103 2138 3103 
Q 1681 3103 1420 2742 
Q 1159 2381 1159 1747 
Q 1159 1113 1420 752 
Q 1681 391 2138 391 
Q 2594 391 2855 752 
Q 3116 1113 3116 1747 
z
M 1159 2969 
Q 1341 3281 1617 3432 
Q 1894 3584 2278 3584 
Q 2916 3584 3314 3078 
Q 3713 2572 3713 1747 
Q 3713 922 3314 415 
Q 2916 -91 2278 -91 
Q 1894 -91 1617 61 
Q 1341 213 1159 525 
L 1159 0 
L 581 0 
L 581 4863 
L 1159 4863 
L 1159 2969 
z
" transform="scale(0.015625)"/>
       <path id="DejaVuSans-70" d="M 1159 525 
L 1159 -1331 
L 581 -1331 
L 581 3500 
L 1159 3500 
L 1159 2969 
Q 1341 3281 1617 3432 
Q 1894 3584 2278 3584 
Q 2916 3584 3314 3078 
Q 3713 2572 3713 1747 
Q 3713 922 3314 415 
Q 2916 -91 2278 -91 
Q 1894 -91 1617 61 
Q 1341 213 1159 525 
z
M 3116 1747 
Q 3116 2381 2855 2742 
Q 2594 3103 2138 3103 
Q 1681 3103 1420 2742 
Q 1159 2381 1159 1747 
Q 1159 1113 1420 752 
Q 1681 391 2138 391 
Q 2594 391 2855 752 
Q 3116 1113 3116 1747 
z
" transform="scale(0.015625)"/>
       <path id="DejaVuSans-29" d="M 513 4856 
L 1013 4856 
Q 1481 4119 1714 3412 
Q 1947 2706 1947 2009 
Q 1947 1309 1714 600 
Q 1481 -109 1013 -844 
L 513 -844 
Q 928 -128 1133 580 
Q 1338 1288 1338 2009 
Q 1338 2731 1133 3434 
Q 928 4138 513 4856 
z
" transform="scale(0.015625)"/>
      </defs>
      <use xlink:href="#DejaVuSans-50"/>
      <use xlink:href="#DejaVuSans-6f" x="56.677734"/>
      <use xlink:href="#DejaVuSans-73" x="117.859375"/>
      <use xlink:href="#DejaVuSans-69" x="169.958984"/>
      <use xlink:href="#DejaVuSans-74" x="197.742188"/>
      <use xlink:href="#DejaVuSans-69" x="236.951172"/>
      <use xlink:href="#DejaVuSans-6f" x="264.734375"/>
      <use xlink:href="#DejaVuSans-6e" x="325.916016"/>
      <use xlink:href="#DejaVuSans-20" x="389.294922"/>
      <use xlink:href="#DejaVuSans-69" x="421.082031"/>
      <use xlink:href="#DejaVuSans-6e" x="448.865234"/>
      <use xlink:href="#DejaVuSans-20" x="512.244141"/>
      <use xlink:href="#DejaVuSans-52" x="544.03125"/>
      <use xlink:href="#DejaVuSans-65" x="609.013672"/>
      <use xlink:href="#DejaVuSans-61" x="670.537109"/>
      <use xlink:href="#DejaVuSans-64" x="731.816406"/>
      <use xlink:href="#DejaVuSans-20" x="795.292969"/>
      <use xlink:href="#DejaVuSans-28" x="827.080078"/>
      <use xlink:href="#DejaVuSans-62" x="866.09375"/>
      <use xlink:href="#DejaVuSans-70" x="929.570312"/>
      <use xlink:href="#DejaVuSans-29" x="993.046875"/>
     </g>
    </g>
   </g>
   <g id="matplotlib.axis_2">
    <g id="ytick_1">
     <g id="line2d_1">
      <path d="M 38.058125 273.99006 
L 993.118125 273.99006 
" clip-path="url(#p6344175d52)" style="fill: none; stroke: #dedede; stroke-linecap: square"/>
     </g>
     <g id="text_8">
      <!-- 0 -->
      <g transform="translate(25.968125 277.029435) scale(0.08 -0.08)">
       <use xlink:href="#DejaVuSans-30"/>
      </g>
     </g>
    </g>
    <g id="ytick_2">
     <g id="line2d_2">
      <path d="M 38.058125 230.97945 
L 993.118125 230.97945 
" clip-path="url(#p6344175d52)" style="fill: none; stroke: #dedede; stroke-linecap: square"/>
     </g>
     <g id="text_9">
      <!-- 10 -->
      <g transform="translate(20.878125 234.018825) scale(0.08 -0.08)">
       <use xlink:href="#DejaVuSans-31"/>
       <use xlink:href="#DejaVuSans-30" x="63.623047"/>
      </g>
     </g>
    </g>
    <g id="ytick_3">
     <g id="line2d_3">
      <path d="M 38.058125 187.96884 
L 993.118125 187.96884 
" clip-path="url(#p6344175d52)" style="fill: none; stroke: #dedede; stroke-linecap: square"/>
     </g>
     <g id="text_10">
      <!-- 20 -->
      <g transform="translate(20.878125 191.008215) scale(0.08 -0.08)">
       <use xlink:href="#DejaVuSans-32"/>
       <use xlink:href="#DejaVuSans-30" x="63.623047"/>
      </g>
     </g>
    </g>
    <g id="ytick_4">
     <g id="line2d_4">
      <path d="M 38.058125 144.95823 
L 993.118125 144.95823 
" clip-path="url(#p6344175d52)" style="fill: none; stroke: #dedede; stroke-linecap: square"/>
     </g>
     <g id="text_11">
      <!-- 30 -->
      <g transform="translate(20.878125 147.997605) scale(0.08 -0.08)">
       <use xlink:href="#DejaVuSans-33"/>
       <use xlink:href="#DejaVuSans-30" x="63.623047"/>
      </g>
     </g>
    </g>
    <g id="ytick_5">
     <g id="line2d_5">
      <path d="M 38.058125 101.94762 
L 993.118125 101.94762 
" clip-path="url(#p6344175d52)" style="fill: none; stroke: #dedede; stroke-linecap: square"/>
     </g>
     <g id="text_12">
      <!-- 40 -->
      <g transform="translate(20.878125 104.986995) scale(0.08 -0.08)">
       <use xlink:href="#DejaVuSans-34"/>
       <use xlink:href="#DejaVuSans-30" x="63.623047"/>
      </g>
     </g>
    </g>
    <g id="ytick_6">
     <g id="line2d_6">
      <path d="M 38.058125 58.937009 
L 993.118125 58.937009 
" clip-path="url(#p6344175d52)" style="fill: none; stroke: #dedede; stroke-linecap: square"/>
     </g>
     <g id="text_13">
      <!-- 50 -->
      <g transform="translate(20.878125 61.976384) scale(0.08 -0.08)">
       <use xlink:href="#DejaVuSans-35"/>
       <use xlink:href="#DejaVuSans-30" x="63.623047"/>
      </g>
     </g>
    </g>
    <g id="text_14">
     <!-- Percentage N-Count -->
     <g transform="translate(14.798438 202.841147) rotate(-90) scale(0.1 -0.1)">
      <defs>
       <path id="DejaVuSans-72" d="M 2631 2963 
Q 2534 3019 2420 3045 
Q 2306 3072 2169 3072 
Q 1681 3072 1420 2755 
Q 1159 2438 1159 1844 
L 1159 0 
L 581 0 
L 581 3500 
L 1159 3500 
L 1159 2956 
Q 1341 3275 1631 3429 
Q 1922 3584 2338 3584 
Q 2397 3584 2469 3576 
Q 2541 3569 2628 3553 
L 2631 2963 
z
" transform="scale(0.015625)"/>
       <path id="DejaVuSans-63" d="M 3122 3366 
L 3122 2828 
Q 2878 2963 2633 3030 
Q 2388 3097 2138 3097 
Q 1578 3097 1268 2742 
Q 959 2388 959 1747 
Q 959 1106 1268 751 
Q 1578 397 2138 397 
Q 2388 397 2633 464 
Q 2878 531 3122 666 
L 3122 134 
Q 2881 22 2623 -34 
Q 2366 -91 2075 -91 
Q 1284 -91 818 406 
Q 353 903 353 1747 
Q 353 2603 823 3093 
Q 1294 3584 2113 3584 
Q 2378 3584 2631 3529 
Q 2884 3475 3122 3366 
z
" transform="scale(0.015625)"/>
       <path id="DejaVuSans-67" d="M 2906 1791 
Q 2906 2416 2648 2759 
Q 2391 3103 1925 3103 
Q 1463 3103 1205 2759 
Q 947 2416 947 1791 
Q 947 1169 1205 825 
Q 1463 481 1925 481 
Q 2391 481 2648 825 
Q 2906 1169 2906 1791 
z
M 3481 434 
Q 3481 -459 3084 -895 
Q 2688 -1331 1869 -1331 
Q 1566 -1331 1297 -1286 
Q 1028 -1241 775 -1147 
L 775 -588 
Q 1028 -725 1275 -790 
Q 1522 -856 1778 -856 
Q 2344 -856 2625 -561 
Q 2906 -266 2906 331 
L 2906 616 
Q 2728 306 2450 153 
Q 2172 0 1784 0 
Q 1141 0 747 490 
Q 353 981 353 1791 
Q 353 2603 747 3093 
Q 1141 3584 1784 3584 
Q 2172 3584 2450 3431 
Q 2728 3278 2906 2969 
L 2906 3500 
L 3481 3500 
L 3481 434 
z
" transform="scale(0.015625)"/>
       <path id="DejaVuSans-4e" d="M 628 4666 
L 1478 4666 
L 3547 763 
L 3547 4666 
L 4159 4666 
L 4159 0 
L 3309 0 
L 1241 3903 
L 1241 0 
L 628 0 
L 628 4666 
z
" transform="scale(0.015625)"/>
       <path id="DejaVuSans-2d" d="M 313 2009 
L 1997 2009 
L 1997 1497 
L 313 1497 
L 313 2009 
z
" transform="scale(0.015625)"/>
       <path id="DejaVuSans-43" d="M 4122 4306 
L 4122 3641 
Q 3803 3938 3442 4084 
Q 3081 4231 2675 4231 
Q 1875 4231 1450 3742 
Q 1025 3253 1025 2328 
Q 1025 1406 1450 917 
Q 1875 428 2675 428 
Q 3081 428 3442 575 
Q 3803 722 4122 1019 
L 4122 359 
Q 3791 134 3420 21 
Q 3050 -91 2638 -91 
Q 1578 -91 968 557 
Q 359 1206 359 2328 
Q 359 3453 968 4101 
Q 1578 4750 2638 4750 
Q 3056 4750 3426 4639 
Q 3797 4528 4122 4306 
z
" transform="scale(0.015625)"/>
       <path id="DejaVuSans-75" d="M 544 1381 
L 544 3500 
L 1119 3500 
L 1119 1403 
Q 1119 906 1312 657 
Q 1506 409 1894 409 
Q 2359 409 2629 706 
Q 2900 1003 2900 1516 
L 2900 3500 
L 3475 3500 
L 3475 0 
L 2900 0 
L 2900 538 
Q 2691 219 2414 64 
Q 2138 -91 1772 -91 
Q 1169 -91 856 284 
Q 544 659 544 1381 
z
M 1991 3584 
L 1991 3584 
z
" transform="scale(0.015625)"/>
      </defs>
      <use xlink:href="#DejaVuSans-50"/>
      <use xlink:href="#DejaVuSans-65" x="56.677734"/>
      <use xlink:href="#DejaVuSans-72" x="118.201172"/>
      <use xlink:href="#DejaVuSans-63" x="157.064453"/>
      <use xlink:href="#DejaVuSans-65" x="212.044922"/>
      <use xlink:href="#DejaVuSans-6e" x="273.568359"/>
      <use xlink:href="#DejaVuSans-74" x="336.947266"/>
      <use xlink:href="#DejaVuSans-61" x="376.15625"/>
      <use xlink:href="#DejaVuSans-67" x="437.435547"/>
      <use xlink:href="#DejaVuSans-65" x="500.912109"/>
      <use xlink:href="#DejaVuSans-20" x="562.435547"/>
      <use xlink:href="#DejaVuSans-4e" x="594.222656"/>
      <use xlink:href="#DejaVuSans-2d" x="669.027344"/>
      <use xlink:href="#DejaVuSans-43" x="705.111328"/>
      <use xlink:href="#DejaVuSans-6f" x="774.935547"/>
      <use xlink:href="#DejaVuSans-75" x="836.117188"/>
      <use xlink:href="#DejaVuSans-6e" x="899.496094"/>
      <use xlink:href="#DejaVuSans-74" x="962.875"/>
     </g>
    </g>
   </g>
   <g id="line2d_7">
    <path d="M 56.267086 273.8648 
L 74.476047 273.989746 
L 92.685008 273.962871 
L 110.893969 273.958942 
L 129.10293 273.988331 
L 147.31189 273.989903 
L 165.520851 273.989746 
L 183.729812 273.99006 
L 201.938773 273.99006 
L 220.147734 273.99006 
L 238.356695 273.988646 
L 256.565656 273.989903 
L 274.774617 273.99006 
L 292.983578 273.99006 
L 311.192539 273.984874 
L 329.4015 273.989274 
L 347.610461 273.982673 
L 365.819421 273.99006 
L 384.028382 273.99006 
L 402.237343 273.989746 
L 420.446304 273.99006 
L 438.655265 273.988488 
L 456.864226 273.984245 
L 475.073187 273.976701 
L 493.282148 273.965857 
L 511.491109 273.894819 
L 529.70007 273.928923 
L 547.909031 273.888689 
L 566.117992 273.854899 
L 584.326952 273.871873 
L 602.535913 273.96177 
L 620.744874 273.916822 
L 638.953835 273.893718 
L 657.162796 273.882245 
L 675.371757 273.837454 
L 693.580718 273.809636 
L 711.789679 273.707008 
L 729.99864 273.701193 
L 748.207601 273.910849 
L 766.416562 273.950926 
L 784.625523 273.954069 
L 802.834483 273.96177 
L 821.043444 273.942596 
L 839.252405 273.975444 
L 857.461366 273.99006 
L 875.670327 273.99006 
L 893.879288 273.988174 
L 912.088249 273.987074 
L 930.29721 273.988803 
L 948.506171 273.989746 
" clip-path="url(#p6344175d52)" style="fill: none; stroke: #5cb85c; stroke-linecap: square"/>
   </g>
   <g id="line2d_8">
    <path d="M 56.267086 273.541514 
L 74.476047 272.55751 
L 92.685008 273.56446 
L 110.893969 273.456488 
L 129.10293 272.425335 
L 147.31189 273.26019 
L 165.520851 273.279521 
L 183.729812 273.199053 
L 201.938773 273.221371 
L 220.147734 273.230015 
L 238.356695 273.297595 
L 256.565656 273.242588 
L 274.774617 273.26129 
L 292.983578 273.25579 
L 311.192539 273.314097 
L 329.4015 272.230923 
L 347.610461 273.256575 
L 365.819421 273.26129 
L 384.028382 273.300581 
L 402.237343 273.580019 
L 420.446304 273.662373 
L 438.655265 272.314691 
L 456.864226 272.183931 
L 475.073187 272.358697 
L 493.282148 271.234346 
L 511.491109 272.400817 
L 529.70007 271.314499 
L 547.909031 271.988262 
L 566.117992 271.634485 
L 584.326952 272.201848 
L 602.535913 270.665098 
L 620.744874 271.107829 
L 638.953835 272.224951 
L 657.162796 272.209077 
L 675.371757 272.297403 
L 693.580718 272.189274 
L 711.789679 272.229823 
L 729.99864 271.364792 
L 748.207601 272.451424 
L 766.416562 272.295989 
L 784.625523 272.386515 
L 802.834483 271.191912 
L 821.043444 272.070616 
L 839.252405 271.236546 
L 857.461366 272.143225 
L 875.670327 272.195875 
L 893.879288 271.167237 
L 912.088249 272.206877 
L 930.29721 272.141025 
L 948.506171 272.091676 
" clip-path="url(#p6344175d52)" style="fill: none; stroke: #5cb85c; stroke-linecap: square"/>
   </g>
   <g id="line2d_9">
    <path d="M 56.267086 273.770429 
L 74.476047 273.989839 
L 92.685008 273.960894 
L 110.893969 273.940787 
L 129.10293 273.986304 
L 147.31189 273.989839 
L 165.520851 273.99006 
L 183.729812 273.99006 
L 201.938773 273.99006 
L 220.147734 273.99006 
L 238.356695 273.986746 
L 256.565656 273.99006 
L 274.774617 273.99006 
L 292.983578 273.99006 
L 311.192539 273.984536 
L 329.4015 273.989397 
L 347.610461 273.98542 
L 365.819421 273.989839 
L 384.028382 273.99006 
L 402.237343 273.989839 
L 420.446304 273.99006 
L 438.655265 273.989176 
L 456.864226 273.980559 
L 475.073187 273.964208 
L 493.282148 273.96708 
L 511.491109 273.915377 
L 529.70007 273.938798 
L 547.909031 273.90919 
L 566.117992 273.879803 
L 584.326952 273.892397 
L 602.535913 273.96001 
L 620.744874 273.936147 
L 638.953835 273.907864 
L 657.162796 273.881791 
L 675.371757 273.847985 
L 693.580718 273.818156 
L 711.789679 273.736402 
L 729.99864 273.741926 
L 748.207601 273.891513 
L 766.416562 273.92996 
L 784.625523 273.935705 
L 802.834483 273.950951 
L 821.043444 273.939682 
L 839.252405 273.976361 
L 857.461366 273.99006 
L 875.670327 273.989618 
L 893.879288 273.987409 
L 912.088249 273.986525 
L 930.29721 273.988955 
L 948.506171 273.989397 
" clip-path="url(#p6344175d52)" style="fill: none; stroke: #5cb85c; stroke-linecap: square"/>
   </g>
   <g id="line2d_10">
    <path d="M 56.267086 273.472137 
L 74.476047 272.755574 
L 92.685008 273.460648 
L 110.893969 273.366741 
L 129.10293 272.644212 
L 147.31189 273.141365 
L 165.520851 273.166996 
L 183.729812 273.098941 
L 201.938773 273.104686 
L 220.147734 273.115292 
L 238.356695 273.168543 
L 256.565656 273.123688 
L 274.774617 273.136725 
L 292.983578 273.126782 
L 311.192539 273.168764 
L 329.4015 272.387239 
L 347.610461 273.10557 
L 365.819421 273.081044 
L 384.028382 272.841085 
L 402.237343 273.414026 
L 420.446304 273.488267 
L 438.655265 272.455073 
L 456.864226 272.1148 
L 475.073187 272.39431 
L 493.282148 271.556 
L 511.491109 272.557818 
L 529.70007 271.531253 
L 547.909031 272.076132 
L 566.117992 271.755966 
L 584.326952 272.219754 
L 602.535913 271.046474 
L 620.744874 271.394701 
L 638.953835 272.201415 
L 657.162796 272.176668 
L 675.371757 272.296205 
L 693.580718 272.226825 
L 711.789679 272.26041 
L 729.99864 271.623834 
L 748.207601 272.361829 
L 766.416562 272.271237 
L 784.625523 272.296868 
L 802.834483 271.434032 
L 821.043444 272.058456 
L 839.252405 271.484189 
L 857.461366 272.09403 
L 875.670327 272.168713 
L 893.879288 271.444638 
L 912.088249 272.162084 
L 930.29721 272.109718 
L 948.506171 272.080109 
" clip-path="url(#p6344175d52)" style="fill: none; stroke: #5cb85c; stroke-linecap: square"/>
   </g>
   <g id="line2d_11">
    <path d="M 56.267086 273.776982 
L 74.476047 273.989032 
L 92.685008 273.968876 
L 110.893969 273.945017 
L 129.10293 273.985535 
L 147.31189 273.989854 
L 165.520851 273.99006 
L 183.729812 273.99006 
L 201.938773 273.99006 
L 220.147734 273.99006 
L 238.356695 273.988209 
L 256.565656 273.99006 
L 274.774617 273.99006 
L 292.983578 273.99006 
L 311.192539 273.984712 
L 329.4015 273.989443 
L 347.610461 273.985741 
L 365.819421 273.99006 
L 384.028382 273.99006 
L 402.237343 273.99006 
L 420.446304 273.99006 
L 438.655265 273.988209 
L 456.864226 273.980188 
L 475.073187 273.961883 
L 493.282148 273.969698 
L 511.491109 273.915812 
L 529.70007 273.946663 
L 547.909031 273.920131 
L 566.117992 273.887429 
L 584.326952 273.892776 
L 602.535913 273.964556 
L 620.744874 273.934117 
L 638.953835 273.905117 
L 657.162796 273.889485 
L 675.371757 273.855138 
L 693.580718 273.82367 
L 711.789679 273.751478 
L 729.99864 273.736052 
L 748.207601 273.895656 
L 766.416562 273.932471 
L 784.625523 273.93967 
L 802.834483 273.953244 
L 821.043444 273.9444 
L 839.252405 273.973606 
L 857.461366 273.99006 
L 875.670327 273.989854 
L 893.879288 273.988209 
L 912.088249 273.988003 
L 930.29721 273.989443 
L 948.506171 273.989237 
" clip-path="url(#p6344175d52)" style="fill: none; stroke: #5cb85c; stroke-linecap: square"/>
   </g>
   <g id="line2d_12">
    <path d="M 56.267086 273.493974 
L 74.476047 272.684646 
L 92.685008 273.465385 
L 110.893969 273.375094 
L 129.10293 272.570703 
L 147.31189 273.169009 
L 165.520851 273.19081 
L 183.729812 273.11903 
L 201.938773 273.129314 
L 220.147734 273.13569 
L 238.356695 273.181349 
L 256.565656 273.153378 
L 274.774617 273.160988 
L 292.983578 273.148442 
L 311.192539 273.189371 
L 329.4015 272.323483 
L 347.610461 273.130137 
L 365.819421 273.091676 
L 384.028382 272.863377 
L 402.237343 273.41191 
L 420.446304 273.493768 
L 438.655265 272.431873 
L 456.864226 272.098475 
L 475.073187 272.392178 
L 493.282148 271.475488 
L 511.491109 272.554455 
L 529.70007 271.515183 
L 547.909031 272.076468 
L 566.117992 271.760758 
L 584.326952 272.217972 
L 602.535913 270.952459 
L 620.744874 271.302311 
L 638.953835 272.19905 
L 657.162796 272.179305 
L 675.371757 272.304766 
L 693.580718 272.235249 
L 711.789679 272.260135 
L 729.99864 271.543155 
L 748.207601 272.366057 
L 766.416562 272.27083 
L 784.625523 272.285844 
L 802.834483 271.339743 
L 821.043444 272.028752 
L 839.252405 271.382935 
L 857.461366 272.089837 
L 875.670327 272.156887 
L 893.879288 271.344474 
L 912.088249 272.153802 
L 930.29721 272.104028 
L 948.506171 272.066184 
" clip-path="url(#p6344175d52)" style="fill: none; stroke: #5cb85c; stroke-linecap: square"/>
   </g>
   <g id="line2d_13">
    <path d="M 56.267086 273.989758 
L 74.476047 273.891201 
L 92.685008 273.855884 
L 110.893969 273.950366 
L 129.10293 273.961534 
L 147.31189 273.989758 
L 165.520851 273.99006 
L 183.729812 273.988853 
L 201.938773 273.99006 
L 220.147734 273.99006 
L 238.356695 273.987192 
L 256.565656 273.99006 
L 274.774617 273.967421 
L 292.983578 273.99006 
L 311.192539 273.99006 
L 329.4015 273.99006 
L 347.610461 273.99006 
L 365.819421 273.99006 
L 384.028382 273.99006 
L 402.237343 273.99006 
L 420.446304 273.989305 
L 438.655265 273.99006 
L 456.864226 273.984325 
L 475.073187 273.987494 
L 493.282148 273.989305 
L 511.491109 273.977533 
L 529.70007 273.972099 
L 547.909031 273.984627 
L 566.117992 273.952026 
L 584.326952 273.953686 
L 602.535913 273.940857 
L 620.744874 273.98357 
L 638.953835 273.973609 
L 657.162796 273.99006 
L 675.371757 273.97708 
L 693.580718 273.99006 
L 711.789679 273.977684 
L 729.99864 273.989456 
L 748.207601 273.98689 
L 766.416562 273.99006 
L 784.625523 273.987796 
L 802.834483 273.987343 
L 821.043444 273.99006 
L 839.252405 273.979646 
L 857.461366 273.981457 
L 875.670327 273.985985 
L 893.879288 273.987645 
L 912.088249 273.980702 
L 930.29721 273.97874 
L 948.506171 201.943555 
" clip-path="url(#p6344175d52)" style="fill: none; stroke: #f0ad4e; stroke-linecap: square"/>
   </g>
   <g id="line2d_14">
    <path d="M 56.267086 264.129252 
L 74.476047 267.932819 
L 92.685008 268.165099 
L 110.893969 268.049789 
L 129.10293 270.100011 
L 147.31189 266.044543 
L 165.520851 268.045412 
L 183.729812 266.144308 
L 201.938773 270.154798 
L 220.147734 268.062165 
L 238.356695 269.980626 
L 256.565656 266.186115 
L 274.774617 265.803057 
L 292.983578 271.953723 
L 311.192539 269.892634 
L 329.4015 269.82698 
L 347.610461 269.736573 
L 365.819421 269.740347 
L 384.028382 269.780192 
L 402.237343 271.79072 
L 420.446304 265.964853 
L 438.655265 268.021414 
L 456.864226 268.246751 
L 475.073187 271.946328 
L 493.282148 271.955233 
L 511.491109 271.915991 
L 529.70007 271.879919 
L 547.909031 271.781513 
L 566.117992 271.804303 
L 584.326952 271.582287 
L 602.535913 271.532782 
L 620.744874 269.627904 
L 638.953835 269.585493 
L 657.162796 271.498672 
L 675.371757 269.545044 
L 693.580718 271.059015 
L 711.789679 271.019019 
L 729.99864 271.125877 
L 748.207601 269.262052 
L 766.416562 271.202851 
L 784.625523 269.234583 
L 802.834483 270.987475 
L 821.043444 271.00468 
L 839.252405 269.283333 
L 857.461366 269.244393 
L 875.670327 271.040451 
L 893.879288 271.053431 
L 912.088249 271.04196 
L 930.29721 271.185494 
L 948.506171 55.05911 
" clip-path="url(#p6344175d52)" style="fill: none; stroke: #d9534f; stroke-linecap: square"/>
   </g>
   <g id="line2d_15">
    <path d="M 56.267086 273.989297 
L 74.476047 273.890095 
L 92.685008 273.848888 
L 110.893969 273.947785 
L 129.10293 273.962741 
L 147.31189 273.99006 
L 165.520851 273.989755 
L 183.729812 273.989297 
L 201.938773 273.99006 
L 220.147734 273.99006 
L 238.356695 273.987008 
L 256.565656 273.99006 
L 274.774617 273.963962 
L 292.983578 273.99006 
L 311.192539 273.99006 
L 329.4015 273.99006 
L 347.610461 273.99006 
L 365.819421 273.99006 
L 384.028382 273.99006 
L 402.237343 273.99006 
L 420.446304 273.989755 
L 438.655265 273.99006 
L 456.864226 273.985329 
L 475.073187 273.987008 
L 493.282148 273.989755 
L 511.491109 273.979835 
L 529.70007 273.972356 
L 547.909031 273.982887 
L 566.117992 273.944122 
L 584.326952 273.947785 
L 602.535913 273.93527 
L 620.744874 273.981971 
L 638.953835 273.974188 
L 657.162796 273.99006 
L 675.371757 273.975409 
L 693.580718 273.99006 
L 711.789679 273.977393 
L 729.99864 273.989297 
L 748.207601 273.986855 
L 766.416562 273.99006 
L 784.625523 273.988229 
L 802.834483 273.985939 
L 821.043444 273.99006 
L 839.252405 273.979987 
L 857.461366 273.983345 
L 875.670327 273.98716 
L 893.879288 273.988686 
L 912.088249 273.983497 
L 930.29721 273.979224 
L 948.506171 203.264891 
" clip-path="url(#p6344175d52)" style="fill: none; stroke: #f0ad4e; stroke-linecap: square"/>
   </g>
   <g id="line2d_16">
    <path d="M 56.267086 263.896188 
L 74.476047 267.783683 
L 92.685008 268.037945 
L 110.893969 267.910661 
L 129.10293 269.984439 
L 147.31189 265.789114 
L 165.520851 267.898299 
L 183.729812 265.892131 
L 201.938773 270.033124 
L 220.147734 267.921039 
L 238.356695 269.852729 
L 256.565656 266.032235 
L 274.774617 265.650689 
L 292.983578 271.84623 
L 311.192539 269.764058 
L 329.4015 269.686223 
L 347.610461 269.583816 
L 365.819421 269.587937 
L 384.028382 269.534673 
L 402.237343 271.663241 
L 420.446304 265.789571 
L 438.655265 267.770252 
L 456.864226 268.109218 
L 475.073187 271.831579 
L 493.282148 271.838447 
L 511.491109 271.805328 
L 529.70007 271.758475 
L 547.909031 271.663851 
L 566.117992 271.678197 
L 584.326952 271.449575 
L 602.535913 271.411573 
L 620.744874 269.48904 
L 638.953835 269.445544 
L 657.162796 271.373266 
L 675.371757 269.412731 
L 693.580718 270.941509 
L 711.789679 270.902896 
L 729.99864 271.016139 
L 748.207601 269.14397 
L 766.416562 271.088938 
L 784.625523 269.106273 
L 802.834483 270.867489 
L 821.043444 270.87924 
L 839.252405 269.156637 
L 857.461366 269.111767 
L 875.670327 270.920295 
L 893.879288 270.931741 
L 912.088249 270.916785 
L 930.29721 271.071082 
L 948.506171 57.990699 
" clip-path="url(#p6344175d52)" style="fill: none; stroke: #d9534f; stroke-linecap: square"/>
   </g>
   <g id="line2d_17">
    <path d="M 56.267086 273.99006 
L 74.476047 273.921477 
L 92.685008 273.871343 
L 110.893969 273.941932 
L 129.10293 273.974017 
L 147.31189 273.99006 
L 165.520851 273.99006 
L 183.729812 273.987119 
L 201.938773 273.99006 
L 220.147734 273.981638 
L 238.356695 273.979498 
L 256.565656 273.99006 
L 274.774617 273.98899 
L 292.983578 273.983108 
L 311.192539 273.99006 
L 329.4015 273.99006 
L 347.610461 273.986985 
L 365.819421 273.99006 
L 384.028382 273.99006 
L 402.237343 273.99006 
L 420.446304 273.989793 
L 438.655265 273.99006 
L 456.864226 273.97629 
L 475.073187 273.989258 
L 493.282148 273.988589 
L 511.491109 273.982841 
L 529.70007 273.980033 
L 547.909031 273.988188 
L 566.117992 273.968269 
L 584.326952 273.966397 
L 602.535913 273.963589 
L 620.744874 273.975488 
L 638.953835 273.979097 
L 657.162796 273.987119 
L 675.371757 273.988857 
L 693.580718 273.975621 
L 711.789679 273.99006 
L 729.99864 273.99006 
L 748.207601 273.99006 
L 766.416562 273.987787 
L 784.625523 273.98899 
L 802.834483 273.985782 
L 821.043444 273.986718 
L 839.252405 273.987654 
L 857.461366 273.98645 
L 875.670327 273.988857 
L 893.879288 273.989392 
L 912.088249 273.989926 
L 930.29721 273.982573 
L 948.506171 223.32764 
" clip-path="url(#p6344175d52)" style="fill: none; stroke: #f0ad4e; stroke-linecap: square"/>
   </g>
   <g id="line2d_18">
    <path d="M 56.267086 263.013029 
L 74.476047 262.717039 
L 92.685008 265.000199 
L 110.893969 264.898862 
L 129.10293 265.083622 
L 147.31189 265.07052 
L 165.520851 262.882012 
L 183.729812 266.491513 
L 201.938773 268.525876 
L 220.147734 266.96745 
L 238.356695 266.607957 
L 256.565656 268.942187 
L 274.774617 266.919188 
L 292.983578 266.973332 
L 311.192539 265.066108 
L 329.4015 266.917316 
L 347.610461 262.918777 
L 365.819421 268.31117 
L 384.028382 270.232431 
L 402.237343 266.807423 
L 420.446304 268.234966 
L 438.655265 268.851679 
L 456.864226 266.995391 
L 475.073187 266.997396 
L 493.282148 266.916113 
L 511.491109 266.884829 
L 529.70007 266.912503 
L 547.909031 266.854615 
L 566.117992 266.797262 
L 584.326952 270.172538 
L 602.535913 268.625876 
L 620.744874 266.780417 
L 638.953835 268.681892 
L 657.162796 268.290715 
L 675.371757 268.211036 
L 693.580718 267.865714 
L 711.789679 268.268522 
L 729.99864 267.638173 
L 748.207601 269.415718 
L 766.416562 271.363182 
L 784.625523 270.951015 
L 802.834483 266.115843 
L 821.043444 267.812773 
L 839.252405 267.836837 
L 857.461366 267.91919 
L 875.670327 267.847532 
L 893.879288 267.859029 
L 912.088249 267.878147 
L 930.29721 268.442186 
L 948.506171 43.030822 
" clip-path="url(#p6344175d52)" style="fill: none; stroke: #d9534f; stroke-linecap: square"/>
   </g>
   <g id="line2d_19">
    <path d="M 38.058125 273.99006 
L 993.118125 273.99006 
" clip-path="url(#p6344175d52)" style="fill: none; stroke: #dedede; stroke-width: 2; stroke-linecap: square"/>
   </g>
   <g id="text_15">
    <!-- FastQC: Per Base N Content -->
    <g transform="translate(404.734375 19.3575) scale(0.16 -0.16)">
     <defs>
      <path id="DejaVuSans-46" d="M 628 4666 
L 3309 4666 
L 3309 4134 
L 1259 4134 
L 1259 2759 
L 3109 2759 
L 3109 2228 
L 1259 2228 
L 1259 0 
L 628 0 
L 628 4666 
z
" transform="scale(0.015625)"/>
      <path id="DejaVuSans-51" d="M 2522 4238 
Q 1834 4238 1429 3725 
Q 1025 3213 1025 2328 
Q 1025 1447 1429 934 
Q 1834 422 2522 422 
Q 3209 422 3611 934 
Q 4013 1447 4013 2328 
Q 4013 3213 3611 3725 
Q 3209 4238 2522 4238 
z
M 3406 84 
L 4238 -825 
L 3475 -825 
L 2784 -78 
Q 2681 -84 2626 -87 
Q 2572 -91 2522 -91 
Q 1538 -91 948 567 
Q 359 1225 359 2328 
Q 359 3434 948 4092 
Q 1538 4750 2522 4750 
Q 3503 4750 4090 4092 
Q 4678 3434 4678 2328 
Q 4678 1516 4351 937 
Q 4025 359 3406 84 
z
" transform="scale(0.015625)"/>
      <path id="DejaVuSans-3a" d="M 750 794 
L 1409 794 
L 1409 0 
L 750 0 
L 750 794 
z
M 750 3309 
L 1409 3309 
L 1409 2516 
L 750 2516 
L 750 3309 
z
" transform="scale(0.015625)"/>
      <path id="DejaVuSans-42" d="M 1259 2228 
L 1259 519 
L 2272 519 
Q 2781 519 3026 730 
Q 3272 941 3272 1375 
Q 3272 1813 3026 2020 
Q 2781 2228 2272 2228 
L 1259 2228 
z
M 1259 4147 
L 1259 2741 
L 2194 2741 
Q 2656 2741 2882 2914 
Q 3109 3088 3109 3444 
Q 3109 3797 2882 3972 
Q 2656 4147 2194 4147 
L 1259 4147 
z
M 628 4666 
L 2241 4666 
Q 2963 4666 3353 4366 
Q 3744 4066 3744 3513 
Q 3744 3084 3544 2831 
Q 3344 2578 2956 2516 
Q 3422 2416 3680 2098 
Q 3938 1781 3938 1306 
Q 3938 681 3513 340 
Q 3088 0 2303 0 
L 628 0 
L 628 4666 
z
" transform="scale(0.015625)"/>
     </defs>
     <use xlink:href="#DejaVuSans-46"/>
     <use xlink:href="#DejaVuSans-61" x="48.394531"/>
     <use xlink:href="#DejaVuSans-73" x="109.673828"/>
     <use xlink:href="#DejaVuSans-74" x="161.773438"/>
     <use xlink:href="#DejaVuSans-51" x="200.982422"/>
     <use xlink:href="#DejaVuSans-43" x="279.693359"/>
     <use xlink:href="#DejaVuSans-3a" x="349.517578"/>
     <use xlink:href="#DejaVuSans-20" x="383.208984"/>
     <use xlink:href="#DejaVuSans-50" x="414.996094"/>
     <use xlink:href="#DejaVuSans-65" x="471.673828"/>
     <use xlink:href="#DejaVuSans-72" x="533.197266"/>
     <use xlink:href="#DejaVuSans-20" x="574.310547"/>
     <use xlink:href="#DejaVuSans-42" x="606.097656"/>
     <use xlink:href="#DejaVuSans-61" x="674.701172"/>
     <use xlink:href="#DejaVuSans-73" x="735.980469"/>
     <use xlink:href="#DejaVuSans-65" x="788.080078"/>
     <use xlink:href="#DejaVuSans-20" x="849.603516"/>
     <use xlink:href="#DejaVuSans-4e" x="881.390625"/>
     <use xlink:href="#DejaVuSans-20" x="956.195312"/>
     <use xlink:href="#DejaVuSans-43" x="987.982422"/>
     <use xlink:href="#DejaVuSans-6f" x="1057.806641"/>
     <use xlink:href="#DejaVuSans-6e" x="1118.988281"/>
     <use xlink:href="#DejaVuSans-74" x="1182.367188"/>
     <use xlink:href="#DejaVuSans-65" x="1221.576172"/>
     <use xlink:href="#DejaVuSans-6e" x="1283.099609"/>
     <use xlink:href="#DejaVuSans-74" x="1346.478516"/>
    </g>
   </g>
   <g id="legend_1">
    <g id="line2d_20">
     <path d="M 45.258125 291.525394 
L 53.258125 291.525394 
L 61.258125 291.525394 
" style="fill: none; stroke: #5cb85c; stroke-linecap: square"/>
    </g>
    <g id="text_16">
     <!-- SRR5961980_T1_1 -->
     <g transform="translate(67.658125 294.325394) scale(0.08 -0.08)">
      <defs>
       <path id="DejaVuSans-53" d="M 3425 4513 
L 3425 3897 
Q 3066 4069 2747 4153 
Q 2428 4238 2131 4238 
Q 1616 4238 1336 4038 
Q 1056 3838 1056 3469 
Q 1056 3159 1242 3001 
Q 1428 2844 1947 2747 
L 2328 2669 
Q 3034 2534 3370 2195 
Q 3706 1856 3706 1288 
Q 3706 609 3251 259 
Q 2797 -91 1919 -91 
Q 1588 -91 1214 -16 
Q 841 59 441 206 
L 441 856 
Q 825 641 1194 531 
Q 1563 422 1919 422 
Q 2459 422 2753 634 
Q 3047 847 3047 1241 
Q 3047 1584 2836 1778 
Q 2625 1972 2144 2069 
L 1759 2144 
Q 1053 2284 737 2584 
Q 422 2884 422 3419 
Q 422 4038 858 4394 
Q 1294 4750 2059 4750 
Q 2388 4750 2728 4690 
Q 3069 4631 3425 4513 
z
" transform="scale(0.015625)"/>
       <path id="DejaVuSans-39" d="M 703 97 
L 703 672 
Q 941 559 1184 500 
Q 1428 441 1663 441 
Q 2288 441 2617 861 
Q 2947 1281 2994 2138 
Q 2813 1869 2534 1725 
Q 2256 1581 1919 1581 
Q 1219 1581 811 2004 
Q 403 2428 403 3163 
Q 403 3881 828 4315 
Q 1253 4750 1959 4750 
Q 2769 4750 3195 4129 
Q 3622 3509 3622 2328 
Q 3622 1225 3098 567 
Q 2575 -91 1691 -91 
Q 1453 -91 1209 -44 
Q 966 3 703 97 
z
M 1959 2075 
Q 2384 2075 2632 2365 
Q 2881 2656 2881 3163 
Q 2881 3666 2632 3958 
Q 2384 4250 1959 4250 
Q 1534 4250 1286 3958 
Q 1038 3666 1038 3163 
Q 1038 2656 1286 2365 
Q 1534 2075 1959 2075 
z
" transform="scale(0.015625)"/>
       <path id="DejaVuSans-36" d="M 2113 2584 
Q 1688 2584 1439 2293 
Q 1191 2003 1191 1497 
Q 1191 994 1439 701 
Q 1688 409 2113 409 
Q 2538 409 2786 701 
Q 3034 994 3034 1497 
Q 3034 2003 2786 2293 
Q 2538 2584 2113 2584 
z
M 3366 4563 
L 3366 3988 
Q 3128 4100 2886 4159 
Q 2644 4219 2406 4219 
Q 1781 4219 1451 3797 
Q 1122 3375 1075 2522 
Q 1259 2794 1537 2939 
Q 1816 3084 2150 3084 
Q 2853 3084 3261 2657 
Q 3669 2231 3669 1497 
Q 3669 778 3244 343 
Q 2819 -91 2113 -91 
Q 1303 -91 875 529 
Q 447 1150 447 2328 
Q 447 3434 972 4092 
Q 1497 4750 2381 4750 
Q 2619 4750 2861 4703 
Q 3103 4656 3366 4563 
z
" transform="scale(0.015625)"/>
       <path id="DejaVuSans-38" d="M 2034 2216 
Q 1584 2216 1326 1975 
Q 1069 1734 1069 1313 
Q 1069 891 1326 650 
Q 1584 409 2034 409 
Q 2484 409 2743 651 
Q 3003 894 3003 1313 
Q 3003 1734 2745 1975 
Q 2488 2216 2034 2216 
z
M 1403 2484 
Q 997 2584 770 2862 
Q 544 3141 544 3541 
Q 544 4100 942 4425 
Q 1341 4750 2034 4750 
Q 2731 4750 3128 4425 
Q 3525 4100 3525 3541 
Q 3525 3141 3298 2862 
Q 3072 2584 2669 2484 
Q 3125 2378 3379 2068 
Q 3634 1759 3634 1313 
Q 3634 634 3220 271 
Q 2806 -91 2034 -91 
Q 1263 -91 848 271 
Q 434 634 434 1313 
Q 434 1759 690 2068 
Q 947 2378 1403 2484 
z
M 1172 3481 
Q 1172 3119 1398 2916 
Q 1625 2713 2034 2713 
Q 2441 2713 2670 2916 
Q 2900 3119 2900 3481 
Q 2900 3844 2670 4047 
Q 2441 4250 2034 4250 
Q 1625 4250 1398 4047 
Q 1172 3844 1172 3481 
z
" transform="scale(0.015625)"/>
       <path id="DejaVuSans-5f" d="M 3263 -1063 
L 3263 -1509 
L -63 -1509 
L -63 -1063 
L 3263 -1063 
z
" transform="scale(0.015625)"/>
       <path id="DejaVuSans-54" d="M -19 4666 
L 3928 4666 
L 3928 4134 
L 2272 4134 
L 2272 0 
L 1638 0 
L 1638 4134 
L -19 4134 
L -19 4666 
z
" transform="scale(0.015625)"/>
      </defs>
      <use xlink:href="#DejaVuSans-53"/>
      <use xlink:href="#DejaVuSans-52" x="63.476562"/>
      <use xlink:href="#DejaVuSans-52" x="132.958984"/>
      <use xlink:href="#DejaVuSans-35" x="202.441406"/>
      <use xlink:href="#DejaVuSans-39" x="266.064453"/>
      <use xlink:href="#DejaVuSans-36" x="329.6875"/>
      <use xlink:href="#DejaVuSans-31" x="393.310547"/>
      <use xlink:href="#DejaVuSans-39" x="456.933594"/>
      <use xlink:href="#DejaVuSans-38" x="520.556641"/>
      <use xlink:href="#DejaVuSans-30" x="584.179688"/>
      <use xlink:href="#DejaVuSans-5f" x="647.802734"/>
      <use xlink:href="#DejaVuSans-54" x="697.802734"/>
      <use xlink:href="#DejaVuSans-31" x="758.886719"/>
      <use xlink:href="#DejaVuSans-5f" x="822.509766"/>
      <use xlink:href="#DejaVuSans-31" x="872.509766"/>
     </g>
    </g>
    <g id="line2d_21">
     <path d="M 45.258125 303.490394 
L 53.258125 303.490394 
L 61.258125 303.490394 
" style="fill: none; stroke: #5cb85c; stroke-linecap: square"/>
    </g>
    <g id="text_17">
     <!-- SRR5961980_T1_2 -->
     <g transform="translate(67.658125 306.290394) scale(0.08 -0.08)">
      <use xlink:href="#DejaVuSans-53"/>
      <use xlink:href="#DejaVuSans-52" x="63.476562"/>
      <use xlink:href="#DejaVuSans-52" x="132.958984"/>
      <use xlink:href="#DejaVuSans-35" x="202.441406"/>
      <use xlink:href="#DejaVuSans-39" x="266.064453"/>
      <use xlink:href="#DejaVuSans-36" x="329.6875"/>
      <use xlink:href="#DejaVuSans-31" x="393.310547"/>
      <use xlink:href="#DejaVuSans-39" x="456.933594"/>
      <use xlink:href="#DejaVuSans-38" x="520.556641"/>
      <use xlink:href="#DejaVuSans-30" x="584.179688"/>
      <use xlink:href="#DejaVuSans-5f" x="647.802734"/>
      <use xlink:href="#DejaVuSans-54" x="697.802734"/>
      <use xlink:href="#DejaVuSans-31" x="758.886719"/>
      <use xlink:href="#DejaVuSans-5f" x="822.509766"/>
      <use xlink:href="#DejaVuSans-32" x="872.509766"/>
     </g>
    </g>
    <g id="line2d_22">
     <path d="M 45.258125 315.455394 
L 53.258125 315.455394 
L 61.258125 315.455394 
" style="fill: none; stroke: #5cb85c; stroke-linecap: square"/>
    </g>
    <g id="text_18">
     <!-- SRR5961981_T1_1 -->
     <g transform="translate(67.658125 318.255394) scale(0.08 -0.08)">
      <use xlink:href="#DejaVuSans-53"/>
      <use xlink:href="#DejaVuSans-52" x="63.476562"/>
      <use xlink:href="#DejaVuSans-52" x="132.958984"/>
      <use xlink:href="#DejaVuSans-35" x="202.441406"/>
      <use xlink:href="#DejaVuSans-39" x="266.064453"/>
      <use xlink:href="#DejaVuSans-36" x="329.6875"/>
      <use xlink:href="#DejaVuSans-31" x="393.310547"/>
      <use xlink:href="#DejaVuSans-39" x="456.933594"/>
      <use xlink:href="#DejaVuSans-38" x="520.556641"/>
      <use xlink:href="#DejaVuSans-31" x="584.179688"/>
      <use xlink:href="#DejaVuSans-5f" x="647.802734"/>
      <use xlink:href="#DejaVuSans-54" x="697.802734"/>
      <use xlink:href="#DejaVuSans-31" x="758.886719"/>
      <use xlink:href="#DejaVuSans-5f" x="822.509766"/>
      <use xlink:href="#DejaVuSans-31" x="872.509766"/>
     </g>
    </g>
    <g id="line2d_23">
     <path d="M 256.1 291.525394 
L 264.1 291.525394 
L 272.1 291.525394 
" style="fill: none; stroke: #5cb85c; stroke-linecap: square"/>
    </g>
    <g id="text_19">
     <!-- SRR5961981_T1_2 -->
     <g transform="translate(278.5 294.325394) scale(0.08 -0.08)">
      <use xlink:href="#DejaVuSans-53"/>
      <use xlink:href="#DejaVuSans-52" x="63.476562"/>
      <use xlink:href="#DejaVuSans-52" x="132.958984"/>
      <use xlink:href="#DejaVuSans-35" x="202.441406"/>
      <use xlink:href="#DejaVuSans-39" x="266.064453"/>
      <use xlink:href="#DejaVuSans-36" x="329.6875"/>
      <use xlink:href="#DejaVuSans-31" x="393.310547"/>
      <use xlink:href="#DejaVuSans-39" x="456.933594"/>
      <use xlink:href="#DejaVuSans-38" x="520.556641"/>
      <use xlink:href="#DejaVuSans-31" x="584.179688"/>
      <use xlink:href="#DejaVuSans-5f" x="647.802734"/>
      <use xlink:href="#DejaVuSans-54" x="697.802734"/>
      <use xlink:href="#DejaVuSans-31" x="758.886719"/>
      <use xlink:href="#DejaVuSans-5f" x="822.509766"/>
      <use xlink:href="#DejaVuSans-32" x="872.509766"/>
     </g>
    </g>
    <g id="line2d_24">
     <path d="M 256.1 303.490394 
L 264.1 303.490394 
L 272.1 303.490394 
" style="fill: none; stroke: #5cb85c; stroke-linecap: square"/>
    </g>
    <g id="text_20">
     <!-- SRR5961982_T1_1 -->
     <g transform="translate(278.5 306.290394) scale(0.08 -0.08)">
      <use xlink:href="#DejaVuSans-53"/>
      <use xlink:href="#DejaVuSans-52" x="63.476562"/>
      <use xlink:href="#DejaVuSans-52" x="132.958984"/>
      <use xlink:href="#DejaVuSans-35" x="202.441406"/>
      <use xlink:href="#DejaVuSans-39" x="266.064453"/>
      <use xlink:href="#DejaVuSans-36" x="329.6875"/>
      <use xlink:href="#DejaVuSans-31" x="393.310547"/>
      <use xlink:href="#DejaVuSans-39" x="456.933594"/>
      <use xlink:href="#DejaVuSans-38" x="520.556641"/>
      <use xlink:href="#DejaVuSans-32" x="584.179688"/>
      <use xlink:href="#DejaVuSans-5f" x="647.802734"/>
      <use xlink:href="#DejaVuSans-54" x="697.802734"/>
      <use xlink:href="#DejaVuSans-31" x="758.886719"/>
      <use xlink:href="#DejaVuSans-5f" x="822.509766"/>
      <use xlink:href="#DejaVuSans-31" x="872.509766"/>
     </g>
    </g>
    <g id="line2d_25">
     <path d="M 256.1 315.455394 
L 264.1 315.455394 
L 272.1 315.455394 
" style="fill: none; stroke: #5cb85c; stroke-linecap: square"/>
    </g>
    <g id="text_21">
     <!-- SRR5961982_T1_2 -->
     <g transform="translate(278.5 318.255394) scale(0.08 -0.08)">
      <use xlink:href="#DejaVuSans-53"/>
      <use xlink:href="#DejaVuSans-52" x="63.476562"/>
      <use xlink:href="#DejaVuSans-52" x="132.958984"/>
      <use xlink:href="#DejaVuSans-35" x="202.441406"/>
      <use xlink:href="#DejaVuSans-39" x="266.064453"/>
      <use xlink:href="#DejaVuSans-36" x="329.6875"/>
      <use xlink:href="#DejaVuSans-31" x="393.310547"/>
      <use xlink:href="#DejaVuSans-39" x="456.933594"/>
      <use xlink:href="#DejaVuSans-38" x="520.556641"/>
      <use xlink:href="#DejaVuSans-32" x="584.179688"/>
      <use xlink:href="#DejaVuSans-5f" x="647.802734"/>
      <use xlink:href="#DejaVuSans-54" x="697.802734"/>
      <use xlink:href="#DejaVuSans-31" x="758.886719"/>
      <use xlink:href="#DejaVuSans-5f" x="822.509766"/>
      <use xlink:href="#DejaVuSans-32" x="872.509766"/>
     </g>
    </g>
    <g id="line2d_26">
     <path d="M 466.941875 291.525394 
L 474.941875 291.525394 
L 482.941875 291.525394 
" style="fill: none; stroke: #f0ad4e; stroke-linecap: square"/>
    </g>
    <g id="text_22">
     <!-- SRR5962008_T1_1 -->
     <g transform="translate(489.341875 294.325394) scale(0.08 -0.08)">
      <use xlink:href="#DejaVuSans-53"/>
      <use xlink:href="#DejaVuSans-52" x="63.476562"/>
      <use xlink:href="#DejaVuSans-52" x="132.958984"/>
      <use xlink:href="#DejaVuSans-35" x="202.441406"/>
      <use xlink:href="#DejaVuSans-39" x="266.064453"/>
      <use xlink:href="#DejaVuSans-36" x="329.6875"/>
      <use xlink:href="#DejaVuSans-32" x="393.310547"/>
      <use xlink:href="#DejaVuSans-30" x="456.933594"/>
      <use xlink:href="#DejaVuSans-30" x="520.556641"/>
      <use xlink:href="#DejaVuSans-38" x="584.179688"/>
      <use xlink:href="#DejaVuSans-5f" x="647.802734"/>
      <use xlink:href="#DejaVuSans-54" x="697.802734"/>
      <use xlink:href="#DejaVuSans-31" x="758.886719"/>
      <use xlink:href="#DejaVuSans-5f" x="822.509766"/>
      <use xlink:href="#DejaVuSans-31" x="872.509766"/>
     </g>
    </g>
    <g id="line2d_27">
     <path d="M 466.941875 303.490394 
L 474.941875 303.490394 
L 482.941875 303.490394 
" style="fill: none; stroke: #d9534f; stroke-linecap: square"/>
    </g>
    <g id="text_23">
     <!-- SRR5962008_T1_2 -->
     <g transform="translate(489.341875 306.290394) scale(0.08 -0.08)">
      <use xlink:href="#DejaVuSans-53"/>
      <use xlink:href="#DejaVuSans-52" x="63.476562"/>
      <use xlink:href="#DejaVuSans-52" x="132.958984"/>
      <use xlink:href="#DejaVuSans-35" x="202.441406"/>
      <use xlink:href="#DejaVuSans-39" x="266.064453"/>
      <use xlink:href="#DejaVuSans-36" x="329.6875"/>
      <use xlink:href="#DejaVuSans-32" x="393.310547"/>
      <use xlink:href="#DejaVuSans-30" x="456.933594"/>
      <use xlink:href="#DejaVuSans-30" x="520.556641"/>
      <use xlink:href="#DejaVuSans-38" x="584.179688"/>
      <use xlink:href="#DejaVuSans-5f" x="647.802734"/>
      <use xlink:href="#DejaVuSans-54" x="697.802734"/>
      <use xlink:href="#DejaVuSans-31" x="758.886719"/>
      <use xlink:href="#DejaVuSans-5f" x="822.509766"/>
      <use xlink:href="#DejaVuSans-32" x="872.509766"/>
     </g>
    </g>
    <g id="line2d_28">
     <path d="M 677.78375 291.525394 
L 685.78375 291.525394 
L 693.78375 291.525394 
" style="fill: none; stroke: #f0ad4e; stroke-linecap: square"/>
    </g>
    <g id="text_24">
     <!-- SRR5962009_T1_1 -->
     <g transform="translate(700.18375 294.325394) scale(0.08 -0.08)">
      <use xlink:href="#DejaVuSans-53"/>
      <use xlink:href="#DejaVuSans-52" x="63.476562"/>
      <use xlink:href="#DejaVuSans-52" x="132.958984"/>
      <use xlink:href="#DejaVuSans-35" x="202.441406"/>
      <use xlink:href="#DejaVuSans-39" x="266.064453"/>
      <use xlink:href="#DejaVuSans-36" x="329.6875"/>
      <use xlink:href="#DejaVuSans-32" x="393.310547"/>
      <use xlink:href="#DejaVuSans-30" x="456.933594"/>
      <use xlink:href="#DejaVuSans-30" x="520.556641"/>
      <use xlink:href="#DejaVuSans-39" x="584.179688"/>
      <use xlink:href="#DejaVuSans-5f" x="647.802734"/>
      <use xlink:href="#DejaVuSans-54" x="697.802734"/>
      <use xlink:href="#DejaVuSans-31" x="758.886719"/>
      <use xlink:href="#DejaVuSans-5f" x="822.509766"/>
      <use xlink:href="#DejaVuSans-31" x="872.509766"/>
     </g>
    </g>
    <g id="line2d_29">
     <path d="M 677.78375 303.490394 
L 685.78375 303.490394 
L 693.78375 303.490394 
" style="fill: none; stroke: #d9534f; stroke-linecap: square"/>
    </g>
    <g id="text_25">
     <!-- SRR5962009_T1_2 -->
     <g transform="translate(700.18375 306.290394) scale(0.08 -0.08)">
      <use xlink:href="#DejaVuSans-53"/>
      <use xlink:href="#DejaVuSans-52" x="63.476562"/>
      <use xlink:href="#DejaVuSans-52" x="132.958984"/>
      <use xlink:href="#DejaVuSans-35" x="202.441406"/>
      <use xlink:href="#DejaVuSans-39" x="266.064453"/>
      <use xlink:href="#DejaVuSans-36" x="329.6875"/>
      <use xlink:href="#DejaVuSans-32" x="393.310547"/>
      <use xlink:href="#DejaVuSans-30" x="456.933594"/>
      <use xlink:href="#DejaVuSans-30" x="520.556641"/>
      <use xlink:href="#DejaVuSans-39" x="584.179688"/>
      <use xlink:href="#DejaVuSans-5f" x="647.802734"/>
      <use xlink:href="#DejaVuSans-54" x="697.802734"/>
      <use xlink:href="#DejaVuSans-31" x="758.886719"/>
      <use xlink:href="#DejaVuSans-5f" x="822.509766"/>
      <use xlink:href="#DejaVuSans-32" x="872.509766"/>
     </g>
    </g>
    <g id="line2d_30">
     <path d="M 888.625625 291.525394 
L 896.625625 291.525394 
L 904.625625 291.525394 
" style="fill: none; stroke: #f0ad4e; stroke-linecap: square"/>
    </g>
    <g id="text_26">
     <!-- SRR5962010_T1_1 -->
     <g transform="translate(911.025625 294.325394) scale(0.08 -0.08)">
      <use xlink:href="#DejaVuSans-53"/>
      <use xlink:href="#DejaVuSans-52" x="63.476562"/>
      <use xlink:href="#DejaVuSans-52" x="132.958984"/>
      <use xlink:href="#DejaVuSans-35" x="202.441406"/>
      <use xlink:href="#DejaVuSans-39" x="266.064453"/>
      <use xlink:href="#DejaVuSans-36" x="329.6875"/>
      <use xlink:href="#DejaVuSans-32" x="393.310547"/>
      <use xlink:href="#DejaVuSans-30" x="456.933594"/>
      <use xlink:href="#DejaVuSans-31" x="520.556641"/>
      <use xlink:href="#DejaVuSans-30" x="584.179688"/>
      <use xlink:href="#DejaVuSans-5f" x="647.802734"/>
      <use xlink:href="#DejaVuSans-54" x="697.802734"/>
      <use xlink:href="#DejaVuSans-31" x="758.886719"/>
      <use xlink:href="#DejaVuSans-5f" x="822.509766"/>
      <use xlink:href="#DejaVuSans-31" x="872.509766"/>
     </g>
    </g>
    <g id="line2d_31">
     <path d="M 888.625625 303.490394 
L 896.625625 303.490394 
L 904.625625 303.490394 
" style="fill: none; stroke: #d9534f; stroke-linecap: square"/>
    </g>
    <g id="text_27">
     <!-- SRR5962010_T1_2 -->
     <g transform="translate(911.025625 306.290394) scale(0.08 -0.08)">
      <use xlink:href="#DejaVuSans-53"/>
      <use xlink:href="#DejaVuSans-52" x="63.476562"/>
      <use xlink:href="#DejaVuSans-52" x="132.958984"/>
      <use xlink:href="#DejaVuSans-35" x="202.441406"/>
      <use xlink:href="#DejaVuSans-39" x="266.064453"/>
      <use xlink:href="#DejaVuSans-36" x="329.6875"/>
      <use xlink:href="#DejaVuSans-32" x="393.310547"/>
      <use xlink:href="#DejaVuSans-30" x="456.933594"/>
      <use xlink:href="#DejaVuSans-31" x="520.556641"/>
      <use xlink:href="#DejaVuSans-30" x="584.179688"/>
      <use xlink:href="#DejaVuSans-5f" x="647.802734"/>
      <use xlink:href="#DejaVuSans-54" x="697.802734"/>
      <use xlink:href="#DejaVuSans-31" x="758.886719"/>
      <use xlink:href="#DejaVuSans-5f" x="822.509766"/>
      <use xlink:href="#DejaVuSans-32" x="872.509766"/>
     </g>
    </g>
   </g>
  </g>
 </g>
 <defs>
  <clipPath id="p6344175d52">
   <rect x="38.058125" y="31.48286" width="955.06" height="242.5072"/>
  </clipPath>
 </defs>
</svg>
