<?xml version="1.0" encoding="utf-8" standalone="no"?>
<!DOCTYPE svg PUBLIC "-//W3C//DTD SVG 1.1//EN"
  "http://www.w3.org/Graphics/SVG/1.1/DTD/svg11.dtd">
<svg xmlns:xlink="http://www.w3.org/1999/xlink" width="1000.158125pt" height="330.541644pt" viewBox="0 0 1000.158125 330.541644" xmlns="http://www.w3.org/2000/svg" version="1.1">
 <metadata>
  <rdf:RDF xmlns:dc="http://purl.org/dc/elements/1.1/" xmlns:cc="http://creativecommons.org/ns#" xmlns:rdf="http://www.w3.org/1999/02/22-rdf-syntax-ns#">
   <cc:Work>
    <dc:type rdf:resource="http://purl.org/dc/dcmitype/StillImage"/>
    <dc:date>2025-08-20T15:20:33.979087</dc:date>
    <dc:format>image/svg+xml</dc:format>
    <dc:creator>
     <cc:Agent>
      <dc:title>Matplotlib v3.6.2, https://matplotlib.org/</dc:title>
     </cc:Agent>
    </dc:creator>
   </cc:Work>
  </rdf:RDF>
 </metadata>
 <defs>
  <style type="text/css">*{stroke-linejoin: round; stroke-linecap: butt}</style>
 </defs>
 <g id="figure_1">
  <g id="axes_1">
   <g id="patch_1">
    <path d="M 58.418125 273.99006 
L 992.958125 273.99006 
L 992.958125 31.48286 
L 58.418125 31.48286 
z
" style="fill: #ffffff"/>
   </g>
   <g id="patch_2">
    <path d="M 698.984098 273.99006 
L 2346.153743 273.99006 
L 2346.153743 31.48286 
L 698.984098 31.48286 
z
" clip-path="url(#p7fb531c6a7)" style="fill: #c3e6c3"/>
   </g>
   <g id="patch_3">
    <path d="M 515.965249 273.99006 
L 698.984098 273.99006 
L 698.984098 31.48286 
L 515.965249 31.48286 
z
" clip-path="url(#p7fb531c6a7)" style="fill: #e6dcc3"/>
   </g>
   <g id="patch_4">
    <path d="M 58.418125 273.99006 
L 515.965249 273.99006 
L 515.965249 31.48286 
L 58.418125 31.48286 
z
" clip-path="url(#p7fb531c6a7)" style="fill: #e6c3c3"/>
   </g>
   <g id="matplotlib.axis_1">
    <g id="xtick_1">
     <g id="text_1">
      <!-- 0 -->
      <g transform="translate(55.873125 287.06881) scale(0.08 -0.08)">
       <defs>
        <path id="DejaVuSans-30" d="M 2034 4250 
Q 1547 4250 1301 3770 
Q 1056 3291 1056 2328 
Q 1056 1369 1301 889 
Q 1547 409 2034 409 
Q 2525 409 2770 889 
Q 3016 1369 3016 2328 
Q 3016 3291 2770 3770 
Q 2525 4250 2034 4250 
z
M 2034 4750 
Q 2819 4750 3233 4129 
Q 3647 3509 3647 2328 
Q 3647 1150 3233 529 
Q 2819 -91 2034 -91 
Q 1250 -91 836 529 
Q 422 1150 422 2328 
Q 422 3509 836 4129 
Q 1250 4750 2034 4750 
z
" transform="scale(0.015625)"/>
       </defs>
       <use xlink:href="#DejaVuSans-30"/>
      </g>
     </g>
    </g>
    <g id="xtick_2">
     <g id="text_2">
      <!-- 5 -->
      <g transform="translate(170.259906 287.06881) scale(0.08 -0.08)">
       <defs>
        <path id="DejaVuSans-35" d="M 691 4666 
L 3169 4666 
L 3169 4134 
L 1269 4134 
L 1269 2991 
Q 1406 3038 1543 3061 
Q 1681 3084 1819 3084 
Q 2600 3084 3056 2656 
Q 3513 2228 3513 1497 
Q 3513 744 3044 326 
Q 2575 -91 1722 -91 
Q 1428 -91 1123 -41 
Q 819 9 494 109 
L 494 744 
Q 775 591 1075 516 
Q 1375 441 1709 441 
Q 2250 441 2565 725 
Q 2881 1009 2881 1497 
Q 2881 1984 2565 2268 
Q 2250 2553 1709 2553 
Q 1456 2553 1204 2497 
Q 953 2441 691 2322 
L 691 4666 
z
" transform="scale(0.015625)"/>
       </defs>
       <use xlink:href="#DejaVuSans-35"/>
      </g>
     </g>
    </g>
    <g id="xtick_3">
     <g id="text_3">
      <!-- 10 -->
      <g transform="translate(282.101687 287.06881) scale(0.08 -0.08)">
       <defs>
        <path id="DejaVuSans-31" d="M 794 531 
L 1825 531 
L 1825 4091 
L 703 3866 
L 703 4441 
L 1819 4666 
L 2450 4666 
L 2450 531 
L 3481 531 
L 3481 0 
L 794 0 
L 794 531 
z
" transform="scale(0.015625)"/>
       </defs>
       <use xlink:href="#DejaVuSans-31"/>
       <use xlink:href="#DejaVuSans-30" x="63.623047"/>
      </g>
     </g>
    </g>
    <g id="xtick_4">
     <g id="text_4">
      <!-- 15 -->
      <g transform="translate(396.488468 287.06881) scale(0.08 -0.08)">
       <use xlink:href="#DejaVuSans-31"/>
       <use xlink:href="#DejaVuSans-35" x="63.623047"/>
      </g>
     </g>
    </g>
    <g id="xtick_5">
     <g id="text_5">
      <!-- 20 -->
      <g transform="translate(510.875249 287.06881) scale(0.08 -0.08)">
       <defs>
        <path id="DejaVuSans-32" d="M 1228 531 
L 3431 531 
L 3431 0 
L 469 0 
L 469 531 
Q 828 903 1448 1529 
Q 2069 2156 2228 2338 
Q 2531 2678 2651 2914 
Q 2772 3150 2772 3378 
Q 2772 3750 2511 3984 
Q 2250 4219 1831 4219 
Q 1534 4219 1204 4116 
Q 875 4013 500 3803 
L 500 4441 
Q 881 4594 1212 4672 
Q 1544 4750 1819 4750 
Q 2544 4750 2975 4387 
Q 3406 4025 3406 3419 
Q 3406 3131 3298 2873 
Q 3191 2616 2906 2266 
Q 2828 2175 2409 1742 
Q 1991 1309 1228 531 
z
" transform="scale(0.015625)"/>
       </defs>
       <use xlink:href="#DejaVuSans-32"/>
       <use xlink:href="#DejaVuSans-30" x="63.623047"/>
      </g>
     </g>
    </g>
    <g id="xtick_6">
     <g id="text_6">
      <!-- 25 -->
      <g transform="translate(625.26203 287.06881) scale(0.08 -0.08)">
       <use xlink:href="#DejaVuSans-32"/>
       <use xlink:href="#DejaVuSans-35" x="63.623047"/>
      </g>
     </g>
    </g>
    <g id="xtick_7">
     <g id="text_7">
      <!-- 30 -->
      <g transform="translate(739.64881 287.06881) scale(0.08 -0.08)">
       <defs>
        <path id="DejaVuSans-33" d="M 2597 2516 
Q 3050 2419 3304 2112 
Q 3559 1806 3559 1356 
Q 3559 666 3084 287 
Q 2609 -91 1734 -91 
Q 1441 -91 1130 -33 
Q 819 25 488 141 
L 488 750 
Q 750 597 1062 519 
Q 1375 441 1716 441 
Q 2309 441 2620 675 
Q 2931 909 2931 1356 
Q 2931 1769 2642 2001 
Q 2353 2234 1838 2234 
L 1294 2234 
L 1294 2753 
L 1863 2753 
Q 2328 2753 2575 2939 
Q 2822 3125 2822 3475 
Q 2822 3834 2567 4026 
Q 2313 4219 1838 4219 
Q 1578 4219 1281 4162 
Q 984 4106 628 3988 
L 628 4550 
Q 988 4650 1302 4700 
Q 1616 4750 1894 4750 
Q 2613 4750 3031 4423 
Q 3450 4097 3450 3541 
Q 3450 3153 3228 2886 
Q 3006 2619 2597 2516 
z
" transform="scale(0.015625)"/>
       </defs>
       <use xlink:href="#DejaVuSans-33"/>
       <use xlink:href="#DejaVuSans-30" x="63.623047"/>
      </g>
     </g>
    </g>
    <g id="xtick_8">
     <g id="text_8">
      <!-- 35 -->
      <g transform="translate(854.035591 287.06881) scale(0.08 -0.08)">
       <use xlink:href="#DejaVuSans-33"/>
       <use xlink:href="#DejaVuSans-35" x="63.623047"/>
      </g>
     </g>
    </g>
    <g id="xtick_9">
     <g id="text_9">
      <!-- 40 -->
      <g transform="translate(968.422372 287.06881) scale(0.08 -0.08)">
       <defs>
        <path id="DejaVuSans-34" d="M 2419 4116 
L 825 1625 
L 2419 1625 
L 2419 4116 
z
M 2253 4666 
L 3047 4666 
L 3047 1625 
L 3713 1625 
L 3713 1100 
L 3047 1100 
L 3047 0 
L 2419 0 
L 2419 1100 
L 313 1100 
L 313 1709 
L 2253 4666 
z
" transform="scale(0.015625)"/>
       </defs>
       <use xlink:href="#DejaVuSans-34"/>
       <use xlink:href="#DejaVuSans-30" x="63.623047"/>
      </g>
     </g>
    </g>
    <g id="text_10">
     <!-- Mean Sequence Quality (Phred Score) -->
     <g transform="translate(430.895938 300.330997) scale(0.1 -0.1)">
      <defs>
       <path id="DejaVuSans-4d" d="M 628 4666 
L 1569 4666 
L 2759 1491 
L 3956 4666 
L 4897 4666 
L 4897 0 
L 4281 0 
L 4281 4097 
L 3078 897 
L 2444 897 
L 1241 4097 
L 1241 0 
L 628 0 
L 628 4666 
z
" transform="scale(0.015625)"/>
       <path id="DejaVuSans-65" d="M 3597 1894 
L 3597 1613 
L 953 1613 
Q 991 1019 1311 708 
Q 1631 397 2203 397 
Q 2534 397 2845 478 
Q 3156 559 3463 722 
L 3463 178 
Q 3153 47 2828 -22 
Q 2503 -91 2169 -91 
Q 1331 -91 842 396 
Q 353 884 353 1716 
Q 353 2575 817 3079 
Q 1281 3584 2069 3584 
Q 2775 3584 3186 3129 
Q 3597 2675 3597 1894 
z
M 3022 2063 
Q 3016 2534 2758 2815 
Q 2500 3097 2075 3097 
Q 1594 3097 1305 2825 
Q 1016 2553 972 2059 
L 3022 2063 
z
" transform="scale(0.015625)"/>
       <path id="DejaVuSans-61" d="M 2194 1759 
Q 1497 1759 1228 1600 
Q 959 1441 959 1056 
Q 959 750 1161 570 
Q 1363 391 1709 391 
Q 2188 391 2477 730 
Q 2766 1069 2766 1631 
L 2766 1759 
L 2194 1759 
z
M 3341 1997 
L 3341 0 
L 2766 0 
L 2766 531 
Q 2569 213 2275 61 
Q 1981 -91 1556 -91 
Q 1019 -91 701 211 
Q 384 513 384 1019 
Q 384 1609 779 1909 
Q 1175 2209 1959 2209 
L 2766 2209 
L 2766 2266 
Q 2766 2663 2505 2880 
Q 2244 3097 1772 3097 
Q 1472 3097 1187 3025 
Q 903 2953 641 2809 
L 641 3341 
Q 956 3463 1253 3523 
Q 1550 3584 1831 3584 
Q 2591 3584 2966 3190 
Q 3341 2797 3341 1997 
z
" transform="scale(0.015625)"/>
       <path id="DejaVuSans-6e" d="M 3513 2113 
L 3513 0 
L 2938 0 
L 2938 2094 
Q 2938 2591 2744 2837 
Q 2550 3084 2163 3084 
Q 1697 3084 1428 2787 
Q 1159 2491 1159 1978 
L 1159 0 
L 581 0 
L 581 3500 
L 1159 3500 
L 1159 2956 
Q 1366 3272 1645 3428 
Q 1925 3584 2291 3584 
Q 2894 3584 3203 3211 
Q 3513 2838 3513 2113 
z
" transform="scale(0.015625)"/>
       <path id="DejaVuSans-20" transform="scale(0.015625)"/>
       <path id="DejaVuSans-53" d="M 3425 4513 
L 3425 3897 
Q 3066 4069 2747 4153 
Q 2428 4238 2131 4238 
Q 1616 4238 1336 4038 
Q 1056 3838 1056 3469 
Q 1056 3159 1242 3001 
Q 1428 2844 1947 2747 
L 2328 2669 
Q 3034 2534 3370 2195 
Q 3706 1856 3706 1288 
Q 3706 609 3251 259 
Q 2797 -91 1919 -91 
Q 1588 -91 1214 -16 
Q 841 59 441 206 
L 441 856 
Q 825 641 1194 531 
Q 1563 422 1919 422 
Q 2459 422 2753 634 
Q 3047 847 3047 1241 
Q 3047 1584 2836 1778 
Q 2625 1972 2144 2069 
L 1759 2144 
Q 1053 2284 737 2584 
Q 422 2884 422 3419 
Q 422 4038 858 4394 
Q 1294 4750 2059 4750 
Q 2388 4750 2728 4690 
Q 3069 4631 3425 4513 
z
" transform="scale(0.015625)"/>
       <path id="DejaVuSans-71" d="M 947 1747 
Q 947 1113 1208 752 
Q 1469 391 1925 391 
Q 2381 391 2643 752 
Q 2906 1113 2906 1747 
Q 2906 2381 2643 2742 
Q 2381 3103 1925 3103 
Q 1469 3103 1208 2742 
Q 947 2381 947 1747 
z
M 2906 525 
Q 2725 213 2448 61 
Q 2172 -91 1784 -91 
Q 1150 -91 751 415 
Q 353 922 353 1747 
Q 353 2572 751 3078 
Q 1150 3584 1784 3584 
Q 2172 3584 2448 3432 
Q 2725 3281 2906 2969 
L 2906 3500 
L 3481 3500 
L 3481 -1331 
L 2906 -1331 
L 2906 525 
z
" transform="scale(0.015625)"/>
       <path id="DejaVuSans-75" d="M 544 1381 
L 544 3500 
L 1119 3500 
L 1119 1403 
Q 1119 906 1312 657 
Q 1506 409 1894 409 
Q 2359 409 2629 706 
Q 2900 1003 2900 1516 
L 2900 3500 
L 3475 3500 
L 3475 0 
L 2900 0 
L 2900 538 
Q 2691 219 2414 64 
Q 2138 -91 1772 -91 
Q 1169 -91 856 284 
Q 544 659 544 1381 
z
M 1991 3584 
L 1991 3584 
z
" transform="scale(0.015625)"/>
       <path id="DejaVuSans-63" d="M 3122 3366 
L 3122 2828 
Q 2878 2963 2633 3030 
Q 2388 3097 2138 3097 
Q 1578 3097 1268 2742 
Q 959 2388 959 1747 
Q 959 1106 1268 751 
Q 1578 397 2138 397 
Q 2388 397 2633 464 
Q 2878 531 3122 666 
L 3122 134 
Q 2881 22 2623 -34 
Q 2366 -91 2075 -91 
Q 1284 -91 818 406 
Q 353 903 353 1747 
Q 353 2603 823 3093 
Q 1294 3584 2113 3584 
Q 2378 3584 2631 3529 
Q 2884 3475 3122 3366 
z
" transform="scale(0.015625)"/>
       <path id="DejaVuSans-51" d="M 2522 4238 
Q 1834 4238 1429 3725 
Q 1025 3213 1025 2328 
Q 1025 1447 1429 934 
Q 1834 422 2522 422 
Q 3209 422 3611 934 
Q 4013 1447 4013 2328 
Q 4013 3213 3611 3725 
Q 3209 4238 2522 4238 
z
M 3406 84 
L 4238 -825 
L 3475 -825 
L 2784 -78 
Q 2681 -84 2626 -87 
Q 2572 -91 2522 -91 
Q 1538 -91 948 567 
Q 359 1225 359 2328 
Q 359 3434 948 4092 
Q 1538 4750 2522 4750 
Q 3503 4750 4090 4092 
Q 4678 3434 4678 2328 
Q 4678 1516 4351 937 
Q 4025 359 3406 84 
z
" transform="scale(0.015625)"/>
       <path id="DejaVuSans-6c" d="M 603 4863 
L 1178 4863 
L 1178 0 
L 603 0 
L 603 4863 
z
" transform="scale(0.015625)"/>
       <path id="DejaVuSans-69" d="M 603 3500 
L 1178 3500 
L 1178 0 
L 603 0 
L 603 3500 
z
M 603 4863 
L 1178 4863 
L 1178 4134 
L 603 4134 
L 603 4863 
z
" transform="scale(0.015625)"/>
       <path id="DejaVuSans-74" d="M 1172 4494 
L 1172 3500 
L 2356 3500 
L 2356 3053 
L 1172 3053 
L 1172 1153 
Q 1172 725 1289 603 
Q 1406 481 1766 481 
L 2356 481 
L 2356 0 
L 1766 0 
Q 1100 0 847 248 
Q 594 497 594 1153 
L 594 3053 
L 172 3053 
L 172 3500 
L 594 3500 
L 594 4494 
L 1172 4494 
z
" transform="scale(0.015625)"/>
       <path id="DejaVuSans-79" d="M 2059 -325 
Q 1816 -950 1584 -1140 
Q 1353 -1331 966 -1331 
L 506 -1331 
L 506 -850 
L 844 -850 
Q 1081 -850 1212 -737 
Q 1344 -625 1503 -206 
L 1606 56 
L 191 3500 
L 800 3500 
L 1894 763 
L 2988 3500 
L 3597 3500 
L 2059 -325 
z
" transform="scale(0.015625)"/>
       <path id="DejaVuSans-28" d="M 1984 4856 
Q 1566 4138 1362 3434 
Q 1159 2731 1159 2009 
Q 1159 1288 1364 580 
Q 1569 -128 1984 -844 
L 1484 -844 
Q 1016 -109 783 600 
Q 550 1309 550 2009 
Q 550 2706 781 3412 
Q 1013 4119 1484 4856 
L 1984 4856 
z
" transform="scale(0.015625)"/>
       <path id="DejaVuSans-50" d="M 1259 4147 
L 1259 2394 
L 2053 2394 
Q 2494 2394 2734 2622 
Q 2975 2850 2975 3272 
Q 2975 3691 2734 3919 
Q 2494 4147 2053 4147 
L 1259 4147 
z
M 628 4666 
L 2053 4666 
Q 2838 4666 3239 4311 
Q 3641 3956 3641 3272 
Q 3641 2581 3239 2228 
Q 2838 1875 2053 1875 
L 1259 1875 
L 1259 0 
L 628 0 
L 628 4666 
z
" transform="scale(0.015625)"/>
       <path id="DejaVuSans-68" d="M 3513 2113 
L 3513 0 
L 2938 0 
L 2938 2094 
Q 2938 2591 2744 2837 
Q 2550 3084 2163 3084 
Q 1697 3084 1428 2787 
Q 1159 2491 1159 1978 
L 1159 0 
L 581 0 
L 581 4863 
L 1159 4863 
L 1159 2956 
Q 1366 3272 1645 3428 
Q 1925 3584 2291 3584 
Q 2894 3584 3203 3211 
Q 3513 2838 3513 2113 
z
" transform="scale(0.015625)"/>
       <path id="DejaVuSans-72" d="M 2631 2963 
Q 2534 3019 2420 3045 
Q 2306 3072 2169 3072 
Q 1681 3072 1420 2755 
Q 1159 2438 1159 1844 
L 1159 0 
L 581 0 
L 581 3500 
L 1159 3500 
L 1159 2956 
Q 1341 3275 1631 3429 
Q 1922 3584 2338 3584 
Q 2397 3584 2469 3576 
Q 2541 3569 2628 3553 
L 2631 2963 
z
" transform="scale(0.015625)"/>
       <path id="DejaVuSans-64" d="M 2906 2969 
L 2906 4863 
L 3481 4863 
L 3481 0 
L 2906 0 
L 2906 525 
Q 2725 213 2448 61 
Q 2172 -91 1784 -91 
Q 1150 -91 751 415 
Q 353 922 353 1747 
Q 353 2572 751 3078 
Q 1150 3584 1784 3584 
Q 2172 3584 2448 3432 
Q 2725 3281 2906 2969 
z
M 947 1747 
Q 947 1113 1208 752 
Q 1469 391 1925 391 
Q 2381 391 2643 752 
Q 2906 1113 2906 1747 
Q 2906 2381 2643 2742 
Q 2381 3103 1925 3103 
Q 1469 3103 1208 2742 
Q 947 2381 947 1747 
z
" transform="scale(0.015625)"/>
       <path id="DejaVuSans-6f" d="M 1959 3097 
Q 1497 3097 1228 2736 
Q 959 2375 959 1747 
Q 959 1119 1226 758 
Q 1494 397 1959 397 
Q 2419 397 2687 759 
Q 2956 1122 2956 1747 
Q 2956 2369 2687 2733 
Q 2419 3097 1959 3097 
z
M 1959 3584 
Q 2709 3584 3137 3096 
Q 3566 2609 3566 1747 
Q 3566 888 3137 398 
Q 2709 -91 1959 -91 
Q 1206 -91 779 398 
Q 353 888 353 1747 
Q 353 2609 779 3096 
Q 1206 3584 1959 3584 
z
" transform="scale(0.015625)"/>
       <path id="DejaVuSans-29" d="M 513 4856 
L 1013 4856 
Q 1481 4119 1714 3412 
Q 1947 2706 1947 2009 
Q 1947 1309 1714 600 
Q 1481 -109 1013 -844 
L 513 -844 
Q 928 -128 1133 580 
Q 1338 1288 1338 2009 
Q 1338 2731 1133 3434 
Q 928 4138 513 4856 
z
" transform="scale(0.015625)"/>
      </defs>
      <use xlink:href="#DejaVuSans-4d"/>
      <use xlink:href="#DejaVuSans-65" x="86.279297"/>
      <use xlink:href="#DejaVuSans-61" x="147.802734"/>
      <use xlink:href="#DejaVuSans-6e" x="209.082031"/>
      <use xlink:href="#DejaVuSans-20" x="272.460938"/>
      <use xlink:href="#DejaVuSans-53" x="304.248047"/>
      <use xlink:href="#DejaVuSans-65" x="367.724609"/>
      <use xlink:href="#DejaVuSans-71" x="429.248047"/>
      <use xlink:href="#DejaVuSans-75" x="492.724609"/>
      <use xlink:href="#DejaVuSans-65" x="556.103516"/>
      <use xlink:href="#DejaVuSans-6e" x="617.626953"/>
      <use xlink:href="#DejaVuSans-63" x="681.005859"/>
      <use xlink:href="#DejaVuSans-65" x="735.986328"/>
      <use xlink:href="#DejaVuSans-20" x="797.509766"/>
      <use xlink:href="#DejaVuSans-51" x="829.296875"/>
      <use xlink:href="#DejaVuSans-75" x="908.007812"/>
      <use xlink:href="#DejaVuSans-61" x="971.386719"/>
      <use xlink:href="#DejaVuSans-6c" x="1032.666016"/>
      <use xlink:href="#DejaVuSans-69" x="1060.449219"/>
      <use xlink:href="#DejaVuSans-74" x="1088.232422"/>
      <use xlink:href="#DejaVuSans-79" x="1127.441406"/>
      <use xlink:href="#DejaVuSans-20" x="1186.621094"/>
      <use xlink:href="#DejaVuSans-28" x="1218.408203"/>
      <use xlink:href="#DejaVuSans-50" x="1257.421875"/>
      <use xlink:href="#DejaVuSans-68" x="1317.724609"/>
      <use xlink:href="#DejaVuSans-72" x="1381.103516"/>
      <use xlink:href="#DejaVuSans-65" x="1419.966797"/>
      <use xlink:href="#DejaVuSans-64" x="1481.490234"/>
      <use xlink:href="#DejaVuSans-20" x="1544.966797"/>
      <use xlink:href="#DejaVuSans-53" x="1576.753906"/>
      <use xlink:href="#DejaVuSans-63" x="1640.230469"/>
      <use xlink:href="#DejaVuSans-6f" x="1695.210938"/>
      <use xlink:href="#DejaVuSans-72" x="1756.392578"/>
      <use xlink:href="#DejaVuSans-65" x="1795.255859"/>
      <use xlink:href="#DejaVuSans-29" x="1856.779297"/>
     </g>
    </g>
   </g>
   <g id="matplotlib.axis_2">
    <g id="ytick_1">
     <g id="line2d_1">
      <path d="M 58.418125 273.99006 
L 992.958125 273.99006 
" clip-path="url(#p7fb531c6a7)" style="fill: none; stroke: #dedede; stroke-linecap: square"/>
     </g>
     <g id="text_11">
      <!-- 0 -->
      <g transform="translate(46.328125 277.029435) scale(0.08 -0.08)">
       <use xlink:href="#DejaVuSans-30"/>
      </g>
     </g>
    </g>
    <g id="ytick_2">
     <g id="line2d_2">
      <path d="M 58.418125 222.947655 
L 992.958125 222.947655 
" clip-path="url(#p7fb531c6a7)" style="fill: none; stroke: #dedede; stroke-linecap: square"/>
     </g>
     <g id="text_12">
      <!-- 200000 -->
      <g transform="translate(20.878125 225.98703) scale(0.08 -0.08)">
       <use xlink:href="#DejaVuSans-32"/>
       <use xlink:href="#DejaVuSans-30" x="63.623047"/>
       <use xlink:href="#DejaVuSans-30" x="127.246094"/>
       <use xlink:href="#DejaVuSans-30" x="190.869141"/>
       <use xlink:href="#DejaVuSans-30" x="254.492188"/>
       <use xlink:href="#DejaVuSans-30" x="318.115234"/>
      </g>
     </g>
    </g>
    <g id="ytick_3">
     <g id="line2d_3">
      <path d="M 58.418125 171.90525 
L 992.958125 171.90525 
" clip-path="url(#p7fb531c6a7)" style="fill: none; stroke: #dedede; stroke-linecap: square"/>
     </g>
     <g id="text_13">
      <!-- 400000 -->
      <g transform="translate(20.878125 174.944625) scale(0.08 -0.08)">
       <use xlink:href="#DejaVuSans-34"/>
       <use xlink:href="#DejaVuSans-30" x="63.623047"/>
       <use xlink:href="#DejaVuSans-30" x="127.246094"/>
       <use xlink:href="#DejaVuSans-30" x="190.869141"/>
       <use xlink:href="#DejaVuSans-30" x="254.492188"/>
       <use xlink:href="#DejaVuSans-30" x="318.115234"/>
      </g>
     </g>
    </g>
    <g id="ytick_4">
     <g id="line2d_4">
      <path d="M 58.418125 120.862845 
L 992.958125 120.862845 
" clip-path="url(#p7fb531c6a7)" style="fill: none; stroke: #dedede; stroke-linecap: square"/>
     </g>
     <g id="text_14">
      <!-- 600000 -->
      <g transform="translate(20.878125 123.90222) scale(0.08 -0.08)">
       <defs>
        <path id="DejaVuSans-36" d="M 2113 2584 
Q 1688 2584 1439 2293 
Q 1191 2003 1191 1497 
Q 1191 994 1439 701 
Q 1688 409 2113 409 
Q 2538 409 2786 701 
Q 3034 994 3034 1497 
Q 3034 2003 2786 2293 
Q 2538 2584 2113 2584 
z
M 3366 4563 
L 3366 3988 
Q 3128 4100 2886 4159 
Q 2644 4219 2406 4219 
Q 1781 4219 1451 3797 
Q 1122 3375 1075 2522 
Q 1259 2794 1537 2939 
Q 1816 3084 2150 3084 
Q 2853 3084 3261 2657 
Q 3669 2231 3669 1497 
Q 3669 778 3244 343 
Q 2819 -91 2113 -91 
Q 1303 -91 875 529 
Q 447 1150 447 2328 
Q 447 3434 972 4092 
Q 1497 4750 2381 4750 
Q 2619 4750 2861 4703 
Q 3103 4656 3366 4563 
z
" transform="scale(0.015625)"/>
       </defs>
       <use xlink:href="#DejaVuSans-36"/>
       <use xlink:href="#DejaVuSans-30" x="63.623047"/>
       <use xlink:href="#DejaVuSans-30" x="127.246094"/>
       <use xlink:href="#DejaVuSans-30" x="190.869141"/>
       <use xlink:href="#DejaVuSans-30" x="254.492188"/>
       <use xlink:href="#DejaVuSans-30" x="318.115234"/>
      </g>
     </g>
    </g>
    <g id="ytick_5">
     <g id="line2d_5">
      <path d="M 58.418125 69.82044 
L 992.958125 69.82044 
" clip-path="url(#p7fb531c6a7)" style="fill: none; stroke: #dedede; stroke-linecap: square"/>
     </g>
     <g id="text_15">
      <!-- 800000 -->
      <g transform="translate(20.878125 72.859815) scale(0.08 -0.08)">
       <defs>
        <path id="DejaVuSans-38" d="M 2034 2216 
Q 1584 2216 1326 1975 
Q 1069 1734 1069 1313 
Q 1069 891 1326 650 
Q 1584 409 2034 409 
Q 2484 409 2743 651 
Q 3003 894 3003 1313 
Q 3003 1734 2745 1975 
Q 2488 2216 2034 2216 
z
M 1403 2484 
Q 997 2584 770 2862 
Q 544 3141 544 3541 
Q 544 4100 942 4425 
Q 1341 4750 2034 4750 
Q 2731 4750 3128 4425 
Q 3525 4100 3525 3541 
Q 3525 3141 3298 2862 
Q 3072 2584 2669 2484 
Q 3125 2378 3379 2068 
Q 3634 1759 3634 1313 
Q 3634 634 3220 271 
Q 2806 -91 2034 -91 
Q 1263 -91 848 271 
Q 434 634 434 1313 
Q 434 1759 690 2068 
Q 947 2378 1403 2484 
z
M 1172 3481 
Q 1172 3119 1398 2916 
Q 1625 2713 2034 2713 
Q 2441 2713 2670 2916 
Q 2900 3119 2900 3481 
Q 2900 3844 2670 4047 
Q 2441 4250 2034 4250 
Q 1625 4250 1398 4047 
Q 1172 3844 1172 3481 
z
" transform="scale(0.015625)"/>
       </defs>
       <use xlink:href="#DejaVuSans-38"/>
       <use xlink:href="#DejaVuSans-30" x="63.623047"/>
       <use xlink:href="#DejaVuSans-30" x="127.246094"/>
       <use xlink:href="#DejaVuSans-30" x="190.869141"/>
       <use xlink:href="#DejaVuSans-30" x="254.492188"/>
       <use xlink:href="#DejaVuSans-30" x="318.115234"/>
      </g>
     </g>
    </g>
    <g id="text_16">
     <!-- Count -->
     <g transform="translate(14.798438 167.584897) rotate(-90) scale(0.1 -0.1)">
      <defs>
       <path id="DejaVuSans-43" d="M 4122 4306 
L 4122 3641 
Q 3803 3938 3442 4084 
Q 3081 4231 2675 4231 
Q 1875 4231 1450 3742 
Q 1025 3253 1025 2328 
Q 1025 1406 1450 917 
Q 1875 428 2675 428 
Q 3081 428 3442 575 
Q 3803 722 4122 1019 
L 4122 359 
Q 3791 134 3420 21 
Q 3050 -91 2638 -91 
Q 1578 -91 968 557 
Q 359 1206 359 2328 
Q 359 3453 968 4101 
Q 1578 4750 2638 4750 
Q 3056 4750 3426 4639 
Q 3797 4528 4122 4306 
z
" transform="scale(0.015625)"/>
      </defs>
      <use xlink:href="#DejaVuSans-43"/>
      <use xlink:href="#DejaVuSans-6f" x="69.824219"/>
      <use xlink:href="#DejaVuSans-75" x="131.005859"/>
      <use xlink:href="#DejaVuSans-6e" x="194.384766"/>
      <use xlink:href="#DejaVuSans-74" x="257.763672"/>
     </g>
    </g>
   </g>
   <g id="line2d_6">
    <path d="M 104.172837 273.933913 
L 127.050194 273.981383 
L 149.92755 273.963773 
L 172.804906 273.962752 
L 195.682262 273.943356 
L 218.559618 273.930085 
L 241.436974 273.905585 
L 264.314331 273.877256 
L 287.191687 273.813708 
L 310.069043 273.705243 
L 332.946399 273.545225 
L 355.823755 273.331358 
L 378.701112 273.054453 
L 401.578468 272.770657 
L 424.455824 272.500643 
L 447.33318 272.299536 
L 470.210536 272.243134 
L 493.087892 272.177289 
L 515.965249 271.974395 
L 538.842605 271.665334 
L 561.719961 271.217437 
L 584.597317 270.656991 
L 607.474673 269.986804 
L 630.35203 268.926398 
L 653.229386 267.631197 
L 676.106742 265.939141 
L 698.984098 264.224372 
L 721.861454 262.066554 
L 744.73881 259.579513 
L 767.616167 256.454187 
L 790.493523 252.753867 
L 813.370879 247.890292 
L 836.248235 240.968942 
L 859.125591 231.810148 
L 882.002948 218.440866 
L 904.880304 194.009929 
L 927.75766 145.246823 
L 950.635016 60.808648 
" clip-path="url(#p7fb531c6a7)" style="fill: none; stroke: #5cb85c; stroke-linecap: square"/>
   </g>
   <g id="line2d_7">
    <path d="M 104.172837 265.570871 
L 127.050194 273.493162 
L 149.92755 272.795923 
L 172.804906 272.967681 
L 195.682262 272.91281 
L 218.559618 272.849262 
L 241.436974 272.885247 
L 264.314331 272.603238 
L 287.191687 272.251045 
L 310.069043 272.010636 
L 332.946399 271.584942 
L 355.823755 271.276135 
L 378.701112 271.779669 
L 401.578468 271.629859 
L 424.455824 271.332792 
L 447.33318 271.030877 
L 470.210536 270.887703 
L 493.087892 270.749122 
L 515.965249 270.51688 
L 538.842605 270.19863 
L 561.719961 269.653497 
L 584.597317 269.068551 
L 607.474673 268.186028 
L 630.35203 267.2078 
L 653.229386 266.063175 
L 676.106742 264.690134 
L 698.984098 263.111903 
L 721.861454 261.252938 
L 744.73881 259.1431 
L 767.616167 256.237001 
L 790.493523 252.659694 
L 813.370879 247.993653 
L 836.248235 241.349463 
L 859.125591 231.746855 
L 882.002948 220.008633 
L 904.880304 198.04279 
L 927.75766 150.251275 
L 950.635016 95.198214 
" clip-path="url(#p7fb531c6a7)" style="fill: none; stroke: #5cb85c; stroke-linecap: square"/>
   </g>
   <g id="line2d_8">
    <path d="M 104.172837 273.962497 
L 127.050194 273.983935 
L 149.92755 273.979086 
L 172.804906 273.976279 
L 195.682262 273.970153 
L 218.559618 273.9602 
L 241.436974 273.945143 
L 264.314331 273.937742 
L 287.191687 273.899715 
L 310.069043 273.849693 
L 332.946399 273.774151 
L 355.823755 273.666962 
L 378.701112 273.525574 
L 401.578468 273.380614 
L 424.455824 273.242289 
L 447.33318 273.158579 
L 470.210536 273.092735 
L 493.087892 273.012598 
L 515.965249 272.870445 
L 538.842605 272.721911 
L 561.719961 272.477418 
L 584.597317 272.169888 
L 607.474673 271.673756 
L 630.35203 271.063544 
L 653.229386 270.358903 
L 676.106742 269.413343 
L 698.984098 268.232987 
L 721.861454 266.988829 
L 744.73881 265.465723 
L 767.616167 263.436277 
L 790.493523 261.073779 
L 813.370879 258.124549 
L 836.248235 253.325798 
L 859.125591 247.451582 
L 882.002948 238.531922 
L 904.880304 220.393493 
L 927.75766 176.525098 
L 950.635016 96.219062 
" clip-path="url(#p7fb531c6a7)" style="fill: none; stroke: #5cb85c; stroke-linecap: square"/>
   </g>
   <g id="line2d_9">
    <path d="M 104.172837 269.409004 
L 127.050194 273.724895 
L 149.92755 273.296394 
L 172.804906 273.400775 
L 195.682262 273.397713 
L 218.559618 273.30992 
L 241.436974 273.35254 
L 264.314331 273.18997 
L 287.191687 273.010556 
L 310.069043 272.832163 
L 332.946399 272.699198 
L 355.823755 272.482267 
L 378.701112 272.819147 
L 401.578468 272.701494 
L 424.455824 272.566998 
L 447.33318 272.399323 
L 470.210536 272.29928 
L 493.087892 272.15432 
L 515.965249 272.035136 
L 538.842605 271.848576 
L 561.719961 271.525733 
L 584.597317 271.158993 
L 607.474673 270.661585 
L 630.35203 270.072811 
L 653.229386 269.381186 
L 676.106742 268.496111 
L 698.984098 267.544936 
L 721.861454 266.245396 
L 744.73881 264.780989 
L 767.616167 263.031511 
L 790.493523 260.625882 
L 813.370879 257.202979 
L 836.248235 252.428472 
L 859.125591 245.81108 
L 882.002948 236.535654 
L 904.880304 218.610072 
L 927.75766 177.928509 
L 950.635016 129.864684 
" clip-path="url(#p7fb531c6a7)" style="fill: none; stroke: #5cb85c; stroke-linecap: square"/>
   </g>
   <g id="line2d_10">
    <path d="M 104.172837 273.953309 
L 127.050194 273.984956 
L 149.92755 273.977555 
L 172.804906 273.975768 
L 195.682262 273.968112 
L 218.559618 273.957138 
L 241.436974 273.94795 
L 264.314331 273.926512 
L 287.191687 273.890272 
L 310.069043 273.84612 
L 332.946399 273.759604 
L 355.823755 273.63506 
L 378.701112 273.481933 
L 401.578468 273.279039 
L 424.455824 273.151944 
L 447.33318 273.052411 
L 470.210536 272.992947 
L 493.087892 272.92506 
L 515.965249 272.766063 
L 538.842605 272.630801 
L 561.719961 272.342156 
L 584.597317 271.97414 
L 607.474673 271.502508 
L 630.35203 270.843041 
L 653.229386 270.108796 
L 676.106742 269.065744 
L 698.984098 267.839705 
L 721.861454 266.518728 
L 744.73881 264.744749 
L 767.616167 262.674469 
L 790.493523 260.241788 
L 813.370879 256.868651 
L 836.248235 252.012987 
L 859.125591 245.412694 
L 882.002948 235.641646 
L 904.880304 216.459655 
L 927.75766 169.405959 
L 950.635016 83.162415 
" clip-path="url(#p7fb531c6a7)" style="fill: none; stroke: #5cb85c; stroke-linecap: square"/>
   </g>
   <g id="line2d_11">
    <path d="M 104.172837 268.641837 
L 127.050194 273.665686 
L 149.92755 273.241778 
L 172.804906 273.350754 
L 195.682262 273.322681 
L 218.559618 273.261174 
L 241.436974 273.283378 
L 264.314331 273.121318 
L 287.191687 272.892648 
L 310.069043 272.69001 
L 332.946399 272.54607 
L 355.823755 272.305916 
L 378.701112 272.641775 
L 401.578468 272.544794 
L 424.455824 272.388605 
L 447.33318 272.172695 
L 470.210536 272.065251 
L 493.087892 271.979244 
L 515.965249 271.804679 
L 538.842605 271.586218 
L 561.719961 271.271286 
L 584.597317 270.791488 
L 607.474673 270.291527 
L 630.35203 269.621341 
L 653.229386 268.913893 
L 676.106742 268.01376 
L 698.984098 266.903588 
L 721.861454 265.622168 
L 744.73881 264.139131 
L 767.616167 262.182931 
L 790.493523 259.576961 
L 813.370879 256.074686 
L 836.248235 250.896434 
L 859.125591 243.491457 
L 882.002948 233.772218 
L 904.880304 214.929914 
L 927.75766 171.612267 
L 950.635016 120.310822 
" clip-path="url(#p7fb531c6a7)" style="fill: none; stroke: #5cb85c; stroke-linecap: square"/>
   </g>
   <g id="line2d_12">
    <path d="M 104.172837 273.805286 
L 127.050194 273.982404 
L 149.92755 273.970153 
L 172.804906 273.973216 
L 195.682262 273.961731 
L 218.559618 273.950502 
L 241.436974 273.932893 
L 264.314331 273.918345 
L 287.191687 273.893335 
L 310.069043 273.848417 
L 332.946399 273.766749 
L 355.823755 273.61643 
L 378.701112 273.426041 
L 401.578468 273.243054 
L 424.455824 273.023572 
L 447.33318 272.8707 
L 470.210536 272.80996 
L 493.087892 272.737224 
L 515.965249 272.556024 
L 538.842605 272.291879 
L 561.719961 271.922332 
L 584.597317 271.331772 
L 607.474673 270.65597 
L 630.35203 269.566725 
L 653.229386 268.252638 
L 676.106742 266.491165 
L 698.984098 264.341769 
L 721.861454 261.827931 
L 744.73881 258.616088 
L 767.616167 255.005348 
L 790.493523 250.541179 
L 813.370879 244.97526 
L 836.248235 237.348504 
L 859.125591 227.556019 
L 882.002948 213.747262 
L 904.880304 189.901016 
L 927.75766 126.042884 
L 950.635016 66.637436 
" clip-path="url(#p7fb531c6a7)" style="fill: none; stroke: #5cb85c; stroke-linecap: square"/>
   </g>
   <g id="line2d_13">
    <path d="M 104.172837 252.926646 
L 127.050194 273.397458 
L 149.92755 272.675463 
L 172.804906 273.031484 
L 195.682262 272.986311 
L 218.559618 272.987842 
L 241.436974 272.935269 
L 264.314331 272.824507 
L 287.191687 272.360021 
L 310.069043 272.631566 
L 332.946399 272.379162 
L 355.823755 272.141559 
L 378.701112 271.954744 
L 401.578468 271.82382 
L 424.455824 271.58239 
L 447.33318 271.296297 
L 470.210536 271.059971 
L 493.087892 270.756268 
L 515.965249 270.395654 
L 538.842605 269.75303 
L 561.719961 269.105812 
L 584.597317 268.322311 
L 607.474673 267.441575 
L 630.35203 266.188994 
L 653.229386 265.283502 
L 676.106742 264.038067 
L 698.984098 262.280677 
L 721.861454 260.120818 
L 744.73881 257.333137 
L 767.616167 254.093731 
L 790.493523 250.001916 
L 813.370879 244.178233 
L 836.248235 236.867174 
L 859.125591 226.784257 
L 882.002948 212.896129 
L 904.880304 187.158762 
L 927.75766 97.571175 
L 950.635016 172.773481 
" clip-path="url(#p7fb531c6a7)" style="fill: none; stroke: #5cb85c; stroke-linecap: square"/>
   </g>
   <g id="line2d_14">
    <path d="M 104.172837 273.8035 
L 127.050194 273.984956 
L 149.92755 273.97143 
L 172.804906 273.968877 
L 195.682262 273.960455 
L 218.559618 273.94795 
L 241.436974 273.941059 
L 264.314331 273.924215 
L 287.191687 273.891293 
L 310.069043 273.835912 
L 332.946399 273.753223 
L 355.823755 273.621789 
L 378.701112 273.432932 
L 401.578468 273.238461 
L 424.455824 273.049348 
L 447.33318 272.947264 
L 470.210536 272.87121 
L 493.087892 272.789543 
L 515.965249 272.609873 
L 538.842605 272.363849 
L 561.719961 271.995068 
L 584.597317 271.467544 
L 607.474673 270.765966 
L 630.35203 269.72266 
L 653.229386 268.346556 
L 676.106742 266.63 
L 698.984098 264.550022 
L 721.861454 262.02572 
L 744.73881 259.01626 
L 767.616167 255.504798 
L 790.493523 251.14399 
L 813.370879 245.78811 
L 836.248235 238.196063 
L 859.125591 228.554153 
L 882.002948 215.075385 
L 904.880304 191.210509 
L 927.75766 127.126259 
L 950.635016 65.362397 
" clip-path="url(#p7fb531c6a7)" style="fill: none; stroke: #5cb85c; stroke-linecap: square"/>
   </g>
   <g id="line2d_15">
    <path d="M 104.172837 252.547146 
L 127.050194 273.372957 
L 149.92755 272.653259 
L 172.804906 273.055218 
L 195.682262 273.023572 
L 218.559618 272.986822 
L 241.436974 272.897242 
L 264.314331 272.758407 
L 287.191687 272.307702 
L 310.069043 272.590222 
L 332.946399 272.387073 
L 355.823755 272.143091 
L 378.701112 271.990219 
L 401.578468 271.772268 
L 424.455824 271.541045 
L 447.33318 271.228155 
L 470.210536 271.099273 
L 493.087892 270.717731 
L 515.965249 270.310413 
L 538.842605 269.804072 
L 561.719961 269.146136 
L 584.597317 268.348088 
L 607.474673 267.355823 
L 630.35203 266.306902 
L 653.229386 265.294986 
L 676.106742 264.111568 
L 698.984098 262.346522 
L 721.861454 260.284153 
L 744.73881 257.668741 
L 767.616167 254.389266 
L 790.493523 250.360744 
L 813.370879 244.869092 
L 836.248235 237.852548 
L 859.125591 227.933477 
L 882.002948 214.200008 
L 904.880304 189.501098 
L 927.75766 99.578162 
L 950.635016 171.655398 
" clip-path="url(#p7fb531c6a7)" style="fill: none; stroke: #5cb85c; stroke-linecap: square"/>
   </g>
   <g id="line2d_16">
    <path d="M 104.172837 273.790229 
L 127.050194 273.982914 
L 149.92755 273.974237 
L 172.804906 273.972195 
L 195.682262 273.956117 
L 218.559618 273.944632 
L 241.436974 273.932382 
L 264.314331 273.90584 
L 287.191687 273.880319 
L 310.069043 273.823151 
L 332.946399 273.723363 
L 355.823755 273.568195 
L 378.701112 273.373978 
L 401.578468 273.14199 
L 424.455824 272.943435 
L 447.33318 272.763001 
L 470.210536 272.688989 
L 493.087892 272.559086 
L 515.965249 272.347771 
L 538.842605 272.073162 
L 561.719961 271.586218 
L 584.597317 271.013012 
L 607.474673 270.122067 
L 630.35203 268.913638 
L 653.229386 267.249145 
L 676.106742 265.18499 
L 698.984098 262.632104 
L 721.861454 259.370494 
L 744.73881 255.620154 
L 767.616167 251.251179 
L 790.493523 245.973394 
L 813.370879 239.619125 
L 836.248235 230.560885 
L 859.125591 219.482897 
L 882.002948 203.82666 
L 904.880304 178.573175 
L 927.75766 118.203025 
L 950.635016 43.030579 
" clip-path="url(#p7fb531c6a7)" style="fill: none; stroke: #5cb85c; stroke-linecap: square"/>
   </g>
   <g id="line2d_17">
    <path d="M 104.172837 245.664077 
L 127.050194 273.355348 
L 149.92755 272.621613 
L 172.804906 272.856408 
L 195.682262 272.897497 
L 218.559618 272.94267 
L 241.436974 272.88831 
L 264.314331 272.810215 
L 287.191687 272.561894 
L 310.069043 272.321229 
L 332.946399 272.13033 
L 355.823755 271.934072 
L 378.701112 271.755168 
L 401.578468 271.448659 
L 424.455824 271.177623 
L 447.33318 270.714414 
L 470.210536 270.256563 
L 493.087892 269.685909 
L 515.965249 269.223465 
L 538.842605 268.81436 
L 561.719961 267.94179 
L 584.597317 267.057736 
L 607.474673 265.905709 
L 630.35203 264.650831 
L 653.229386 263.311478 
L 676.106742 261.594922 
L 698.984098 259.632087 
L 721.861454 257.025351 
L 744.73881 253.782627 
L 767.616167 250.072865 
L 790.493523 245.015839 
L 813.370879 238.452551 
L 836.248235 229.732467 
L 859.125591 218.29514 
L 882.002948 203.358346 
L 904.880304 176.039685 
L 927.75766 89.29567 
L 950.635016 171.33281 
" clip-path="url(#p7fb531c6a7)" style="fill: none; stroke: #5cb85c; stroke-linecap: square"/>
   </g>
   <g id="line2d_18">
    <path d="M 58.418125 273.99006 
L 992.958125 273.99006 
" clip-path="url(#p7fb531c6a7)" style="fill: none; stroke: #dedede; stroke-width: 2; stroke-linecap: square"/>
   </g>
   <g id="text_17">
    <!-- FastQC: Per Sequence Quality Scores -->
    <g transform="translate(377.495625 19.3575) scale(0.16 -0.16)">
     <defs>
      <path id="DejaVuSans-46" d="M 628 4666 
L 3309 4666 
L 3309 4134 
L 1259 4134 
L 1259 2759 
L 3109 2759 
L 3109 2228 
L 1259 2228 
L 1259 0 
L 628 0 
L 628 4666 
z
" transform="scale(0.015625)"/>
      <path id="DejaVuSans-73" d="M 2834 3397 
L 2834 2853 
Q 2591 2978 2328 3040 
Q 2066 3103 1784 3103 
Q 1356 3103 1142 2972 
Q 928 2841 928 2578 
Q 928 2378 1081 2264 
Q 1234 2150 1697 2047 
L 1894 2003 
Q 2506 1872 2764 1633 
Q 3022 1394 3022 966 
Q 3022 478 2636 193 
Q 2250 -91 1575 -91 
Q 1294 -91 989 -36 
Q 684 19 347 128 
L 347 722 
Q 666 556 975 473 
Q 1284 391 1588 391 
Q 1994 391 2212 530 
Q 2431 669 2431 922 
Q 2431 1156 2273 1281 
Q 2116 1406 1581 1522 
L 1381 1569 
Q 847 1681 609 1914 
Q 372 2147 372 2553 
Q 372 3047 722 3315 
Q 1072 3584 1716 3584 
Q 2034 3584 2315 3537 
Q 2597 3491 2834 3397 
z
" transform="scale(0.015625)"/>
      <path id="DejaVuSans-3a" d="M 750 794 
L 1409 794 
L 1409 0 
L 750 0 
L 750 794 
z
M 750 3309 
L 1409 3309 
L 1409 2516 
L 750 2516 
L 750 3309 
z
" transform="scale(0.015625)"/>
     </defs>
     <use xlink:href="#DejaVuSans-46"/>
     <use xlink:href="#DejaVuSans-61" x="48.394531"/>
     <use xlink:href="#DejaVuSans-73" x="109.673828"/>
     <use xlink:href="#DejaVuSans-74" x="161.773438"/>
     <use xlink:href="#DejaVuSans-51" x="200.982422"/>
     <use xlink:href="#DejaVuSans-43" x="279.693359"/>
     <use xlink:href="#DejaVuSans-3a" x="349.517578"/>
     <use xlink:href="#DejaVuSans-20" x="383.208984"/>
     <use xlink:href="#DejaVuSans-50" x="414.996094"/>
     <use xlink:href="#DejaVuSans-65" x="471.673828"/>
     <use xlink:href="#DejaVuSans-72" x="533.197266"/>
     <use xlink:href="#DejaVuSans-20" x="574.310547"/>
     <use xlink:href="#DejaVuSans-53" x="606.097656"/>
     <use xlink:href="#DejaVuSans-65" x="669.574219"/>
     <use xlink:href="#DejaVuSans-71" x="731.097656"/>
     <use xlink:href="#DejaVuSans-75" x="794.574219"/>
     <use xlink:href="#DejaVuSans-65" x="857.953125"/>
     <use xlink:href="#DejaVuSans-6e" x="919.476562"/>
     <use xlink:href="#DejaVuSans-63" x="982.855469"/>
     <use xlink:href="#DejaVuSans-65" x="1037.835938"/>
     <use xlink:href="#DejaVuSans-20" x="1099.359375"/>
     <use xlink:href="#DejaVuSans-51" x="1131.146484"/>
     <use xlink:href="#DejaVuSans-75" x="1209.857422"/>
     <use xlink:href="#DejaVuSans-61" x="1273.236328"/>
     <use xlink:href="#DejaVuSans-6c" x="1334.515625"/>
     <use xlink:href="#DejaVuSans-69" x="1362.298828"/>
     <use xlink:href="#DejaVuSans-74" x="1390.082031"/>
     <use xlink:href="#DejaVuSans-79" x="1429.291016"/>
     <use xlink:href="#DejaVuSans-20" x="1488.470703"/>
     <use xlink:href="#DejaVuSans-53" x="1520.257812"/>
     <use xlink:href="#DejaVuSans-63" x="1583.734375"/>
     <use xlink:href="#DejaVuSans-6f" x="1638.714844"/>
     <use xlink:href="#DejaVuSans-72" x="1699.896484"/>
     <use xlink:href="#DejaVuSans-65" x="1738.759766"/>
     <use xlink:href="#DejaVuSans-73" x="1800.283203"/>
    </g>
   </g>
   <g id="legend_1">
    <g id="line2d_19">
     <path d="M 65.618125 291.525394 
L 73.618125 291.525394 
L 81.618125 291.525394 
" style="fill: none; stroke: #5cb85c; stroke-linecap: square"/>
    </g>
    <g id="text_18">
     <!-- SRR5961980_T1_1 -->
     <g transform="translate(88.018125 294.325394) scale(0.08 -0.08)">
      <defs>
       <path id="DejaVuSans-52" d="M 2841 2188 
Q 3044 2119 3236 1894 
Q 3428 1669 3622 1275 
L 4263 0 
L 3584 0 
L 2988 1197 
Q 2756 1666 2539 1819 
Q 2322 1972 1947 1972 
L 1259 1972 
L 1259 0 
L 628 0 
L 628 4666 
L 2053 4666 
Q 2853 4666 3247 4331 
Q 3641 3997 3641 3322 
Q 3641 2881 3436 2590 
Q 3231 2300 2841 2188 
z
M 1259 4147 
L 1259 2491 
L 2053 2491 
Q 2509 2491 2742 2702 
Q 2975 2913 2975 3322 
Q 2975 3731 2742 3939 
Q 2509 4147 2053 4147 
L 1259 4147 
z
" transform="scale(0.015625)"/>
       <path id="DejaVuSans-39" d="M 703 97 
L 703 672 
Q 941 559 1184 500 
Q 1428 441 1663 441 
Q 2288 441 2617 861 
Q 2947 1281 2994 2138 
Q 2813 1869 2534 1725 
Q 2256 1581 1919 1581 
Q 1219 1581 811 2004 
Q 403 2428 403 3163 
Q 403 3881 828 4315 
Q 1253 4750 1959 4750 
Q 2769 4750 3195 4129 
Q 3622 3509 3622 2328 
Q 3622 1225 3098 567 
Q 2575 -91 1691 -91 
Q 1453 -91 1209 -44 
Q 966 3 703 97 
z
M 1959 2075 
Q 2384 2075 2632 2365 
Q 2881 2656 2881 3163 
Q 2881 3666 2632 3958 
Q 2384 4250 1959 4250 
Q 1534 4250 1286 3958 
Q 1038 3666 1038 3163 
Q 1038 2656 1286 2365 
Q 1534 2075 1959 2075 
z
" transform="scale(0.015625)"/>
       <path id="DejaVuSans-5f" d="M 3263 -1063 
L 3263 -1509 
L -63 -1509 
L -63 -1063 
L 3263 -1063 
z
" transform="scale(0.015625)"/>
       <path id="DejaVuSans-54" d="M -19 4666 
L 3928 4666 
L 3928 4134 
L 2272 4134 
L 2272 0 
L 1638 0 
L 1638 4134 
L -19 4134 
L -19 4666 
z
" transform="scale(0.015625)"/>
      </defs>
      <use xlink:href="#DejaVuSans-53"/>
      <use xlink:href="#DejaVuSans-52" x="63.476562"/>
      <use xlink:href="#DejaVuSans-52" x="132.958984"/>
      <use xlink:href="#DejaVuSans-35" x="202.441406"/>
      <use xlink:href="#DejaVuSans-39" x="266.064453"/>
      <use xlink:href="#DejaVuSans-36" x="329.6875"/>
      <use xlink:href="#DejaVuSans-31" x="393.310547"/>
      <use xlink:href="#DejaVuSans-39" x="456.933594"/>
      <use xlink:href="#DejaVuSans-38" x="520.556641"/>
      <use xlink:href="#DejaVuSans-30" x="584.179688"/>
      <use xlink:href="#DejaVuSans-5f" x="647.802734"/>
      <use xlink:href="#DejaVuSans-54" x="697.802734"/>
      <use xlink:href="#DejaVuSans-31" x="758.886719"/>
      <use xlink:href="#DejaVuSans-5f" x="822.509766"/>
      <use xlink:href="#DejaVuSans-31" x="872.509766"/>
     </g>
    </g>
    <g id="line2d_20">
     <path d="M 65.618125 303.490394 
L 73.618125 303.490394 
L 81.618125 303.490394 
" style="fill: none; stroke: #5cb85c; stroke-linecap: square"/>
    </g>
    <g id="text_19">
     <!-- SRR5961980_T1_2 -->
     <g transform="translate(88.018125 306.290394) scale(0.08 -0.08)">
      <use xlink:href="#DejaVuSans-53"/>
      <use xlink:href="#DejaVuSans-52" x="63.476562"/>
      <use xlink:href="#DejaVuSans-52" x="132.958984"/>
      <use xlink:href="#DejaVuSans-35" x="202.441406"/>
      <use xlink:href="#DejaVuSans-39" x="266.064453"/>
      <use xlink:href="#DejaVuSans-36" x="329.6875"/>
      <use xlink:href="#DejaVuSans-31" x="393.310547"/>
      <use xlink:href="#DejaVuSans-39" x="456.933594"/>
      <use xlink:href="#DejaVuSans-38" x="520.556641"/>
      <use xlink:href="#DejaVuSans-30" x="584.179688"/>
      <use xlink:href="#DejaVuSans-5f" x="647.802734"/>
      <use xlink:href="#DejaVuSans-54" x="697.802734"/>
      <use xlink:href="#DejaVuSans-31" x="758.886719"/>
      <use xlink:href="#DejaVuSans-5f" x="822.509766"/>
      <use xlink:href="#DejaVuSans-32" x="872.509766"/>
     </g>
    </g>
    <g id="line2d_21">
     <path d="M 65.618125 315.455394 
L 73.618125 315.455394 
L 81.618125 315.455394 
" style="fill: none; stroke: #5cb85c; stroke-linecap: square"/>
    </g>
    <g id="text_20">
     <!-- SRR5961981_T1_1 -->
     <g transform="translate(88.018125 318.255394) scale(0.08 -0.08)">
      <use xlink:href="#DejaVuSans-53"/>
      <use xlink:href="#DejaVuSans-52" x="63.476562"/>
      <use xlink:href="#DejaVuSans-52" x="132.958984"/>
      <use xlink:href="#DejaVuSans-35" x="202.441406"/>
      <use xlink:href="#DejaVuSans-39" x="266.064453"/>
      <use xlink:href="#DejaVuSans-36" x="329.6875"/>
      <use xlink:href="#DejaVuSans-31" x="393.310547"/>
      <use xlink:href="#DejaVuSans-39" x="456.933594"/>
      <use xlink:href="#DejaVuSans-38" x="520.556641"/>
      <use xlink:href="#DejaVuSans-31" x="584.179688"/>
      <use xlink:href="#DejaVuSans-5f" x="647.802734"/>
      <use xlink:href="#DejaVuSans-54" x="697.802734"/>
      <use xlink:href="#DejaVuSans-31" x="758.886719"/>
      <use xlink:href="#DejaVuSans-5f" x="822.509766"/>
      <use xlink:href="#DejaVuSans-31" x="872.509766"/>
     </g>
    </g>
    <g id="line2d_22">
     <path d="M 271.33 291.525394 
L 279.33 291.525394 
L 287.33 291.525394 
" style="fill: none; stroke: #5cb85c; stroke-linecap: square"/>
    </g>
    <g id="text_21">
     <!-- SRR5961981_T1_2 -->
     <g transform="translate(293.73 294.325394) scale(0.08 -0.08)">
      <use xlink:href="#DejaVuSans-53"/>
      <use xlink:href="#DejaVuSans-52" x="63.476562"/>
      <use xlink:href="#DejaVuSans-52" x="132.958984"/>
      <use xlink:href="#DejaVuSans-35" x="202.441406"/>
      <use xlink:href="#DejaVuSans-39" x="266.064453"/>
      <use xlink:href="#DejaVuSans-36" x="329.6875"/>
      <use xlink:href="#DejaVuSans-31" x="393.310547"/>
      <use xlink:href="#DejaVuSans-39" x="456.933594"/>
      <use xlink:href="#DejaVuSans-38" x="520.556641"/>
      <use xlink:href="#DejaVuSans-31" x="584.179688"/>
      <use xlink:href="#DejaVuSans-5f" x="647.802734"/>
      <use xlink:href="#DejaVuSans-54" x="697.802734"/>
      <use xlink:href="#DejaVuSans-31" x="758.886719"/>
      <use xlink:href="#DejaVuSans-5f" x="822.509766"/>
      <use xlink:href="#DejaVuSans-32" x="872.509766"/>
     </g>
    </g>
    <g id="line2d_23">
     <path d="M 271.33 303.490394 
L 279.33 303.490394 
L 287.33 303.490394 
" style="fill: none; stroke: #5cb85c; stroke-linecap: square"/>
    </g>
    <g id="text_22">
     <!-- SRR5961982_T1_1 -->
     <g transform="translate(293.73 306.290394) scale(0.08 -0.08)">
      <use xlink:href="#DejaVuSans-53"/>
      <use xlink:href="#DejaVuSans-52" x="63.476562"/>
      <use xlink:href="#DejaVuSans-52" x="132.958984"/>
      <use xlink:href="#DejaVuSans-35" x="202.441406"/>
      <use xlink:href="#DejaVuSans-39" x="266.064453"/>
      <use xlink:href="#DejaVuSans-36" x="329.6875"/>
      <use xlink:href="#DejaVuSans-31" x="393.310547"/>
      <use xlink:href="#DejaVuSans-39" x="456.933594"/>
      <use xlink:href="#DejaVuSans-38" x="520.556641"/>
      <use xlink:href="#DejaVuSans-32" x="584.179688"/>
      <use xlink:href="#DejaVuSans-5f" x="647.802734"/>
      <use xlink:href="#DejaVuSans-54" x="697.802734"/>
      <use xlink:href="#DejaVuSans-31" x="758.886719"/>
      <use xlink:href="#DejaVuSans-5f" x="822.509766"/>
      <use xlink:href="#DejaVuSans-31" x="872.509766"/>
     </g>
    </g>
    <g id="line2d_24">
     <path d="M 271.33 315.455394 
L 279.33 315.455394 
L 287.33 315.455394 
" style="fill: none; stroke: #5cb85c; stroke-linecap: square"/>
    </g>
    <g id="text_23">
     <!-- SRR5961982_T1_2 -->
     <g transform="translate(293.73 318.255394) scale(0.08 -0.08)">
      <use xlink:href="#DejaVuSans-53"/>
      <use xlink:href="#DejaVuSans-52" x="63.476562"/>
      <use xlink:href="#DejaVuSans-52" x="132.958984"/>
      <use xlink:href="#DejaVuSans-35" x="202.441406"/>
      <use xlink:href="#DejaVuSans-39" x="266.064453"/>
      <use xlink:href="#DejaVuSans-36" x="329.6875"/>
      <use xlink:href="#DejaVuSans-31" x="393.310547"/>
      <use xlink:href="#DejaVuSans-39" x="456.933594"/>
      <use xlink:href="#DejaVuSans-38" x="520.556641"/>
      <use xlink:href="#DejaVuSans-32" x="584.179688"/>
      <use xlink:href="#DejaVuSans-5f" x="647.802734"/>
      <use xlink:href="#DejaVuSans-54" x="697.802734"/>
      <use xlink:href="#DejaVuSans-31" x="758.886719"/>
      <use xlink:href="#DejaVuSans-5f" x="822.509766"/>
      <use xlink:href="#DejaVuSans-32" x="872.509766"/>
     </g>
    </g>
    <g id="line2d_25">
     <path d="M 477.041875 291.525394 
L 485.041875 291.525394 
L 493.041875 291.525394 
" style="fill: none; stroke: #5cb85c; stroke-linecap: square"/>
    </g>
    <g id="text_24">
     <!-- SRR5962008_T1_1 -->
     <g transform="translate(499.441875 294.325394) scale(0.08 -0.08)">
      <use xlink:href="#DejaVuSans-53"/>
      <use xlink:href="#DejaVuSans-52" x="63.476562"/>
      <use xlink:href="#DejaVuSans-52" x="132.958984"/>
      <use xlink:href="#DejaVuSans-35" x="202.441406"/>
      <use xlink:href="#DejaVuSans-39" x="266.064453"/>
      <use xlink:href="#DejaVuSans-36" x="329.6875"/>
      <use xlink:href="#DejaVuSans-32" x="393.310547"/>
      <use xlink:href="#DejaVuSans-30" x="456.933594"/>
      <use xlink:href="#DejaVuSans-30" x="520.556641"/>
      <use xlink:href="#DejaVuSans-38" x="584.179688"/>
      <use xlink:href="#DejaVuSans-5f" x="647.802734"/>
      <use xlink:href="#DejaVuSans-54" x="697.802734"/>
      <use xlink:href="#DejaVuSans-31" x="758.886719"/>
      <use xlink:href="#DejaVuSans-5f" x="822.509766"/>
      <use xlink:href="#DejaVuSans-31" x="872.509766"/>
     </g>
    </g>
    <g id="line2d_26">
     <path d="M 477.041875 303.490394 
L 485.041875 303.490394 
L 493.041875 303.490394 
" style="fill: none; stroke: #5cb85c; stroke-linecap: square"/>
    </g>
    <g id="text_25">
     <!-- SRR5962008_T1_2 -->
     <g transform="translate(499.441875 306.290394) scale(0.08 -0.08)">
      <use xlink:href="#DejaVuSans-53"/>
      <use xlink:href="#DejaVuSans-52" x="63.476562"/>
      <use xlink:href="#DejaVuSans-52" x="132.958984"/>
      <use xlink:href="#DejaVuSans-35" x="202.441406"/>
      <use xlink:href="#DejaVuSans-39" x="266.064453"/>
      <use xlink:href="#DejaVuSans-36" x="329.6875"/>
      <use xlink:href="#DejaVuSans-32" x="393.310547"/>
      <use xlink:href="#DejaVuSans-30" x="456.933594"/>
      <use xlink:href="#DejaVuSans-30" x="520.556641"/>
      <use xlink:href="#DejaVuSans-38" x="584.179688"/>
      <use xlink:href="#DejaVuSans-5f" x="647.802734"/>
      <use xlink:href="#DejaVuSans-54" x="697.802734"/>
      <use xlink:href="#DejaVuSans-31" x="758.886719"/>
      <use xlink:href="#DejaVuSans-5f" x="822.509766"/>
      <use xlink:href="#DejaVuSans-32" x="872.509766"/>
     </g>
    </g>
    <g id="line2d_27">
     <path d="M 682.75375 291.525394 
L 690.75375 291.525394 
L 698.75375 291.525394 
" style="fill: none; stroke: #5cb85c; stroke-linecap: square"/>
    </g>
    <g id="text_26">
     <!-- SRR5962009_T1_1 -->
     <g transform="translate(705.15375 294.325394) scale(0.08 -0.08)">
      <use xlink:href="#DejaVuSans-53"/>
      <use xlink:href="#DejaVuSans-52" x="63.476562"/>
      <use xlink:href="#DejaVuSans-52" x="132.958984"/>
      <use xlink:href="#DejaVuSans-35" x="202.441406"/>
      <use xlink:href="#DejaVuSans-39" x="266.064453"/>
      <use xlink:href="#DejaVuSans-36" x="329.6875"/>
      <use xlink:href="#DejaVuSans-32" x="393.310547"/>
      <use xlink:href="#DejaVuSans-30" x="456.933594"/>
      <use xlink:href="#DejaVuSans-30" x="520.556641"/>
      <use xlink:href="#DejaVuSans-39" x="584.179688"/>
      <use xlink:href="#DejaVuSans-5f" x="647.802734"/>
      <use xlink:href="#DejaVuSans-54" x="697.802734"/>
      <use xlink:href="#DejaVuSans-31" x="758.886719"/>
      <use xlink:href="#DejaVuSans-5f" x="822.509766"/>
      <use xlink:href="#DejaVuSans-31" x="872.509766"/>
     </g>
    </g>
    <g id="line2d_28">
     <path d="M 682.75375 303.490394 
L 690.75375 303.490394 
L 698.75375 303.490394 
" style="fill: none; stroke: #5cb85c; stroke-linecap: square"/>
    </g>
    <g id="text_27">
     <!-- SRR5962009_T1_2 -->
     <g transform="translate(705.15375 306.290394) scale(0.08 -0.08)">
      <use xlink:href="#DejaVuSans-53"/>
      <use xlink:href="#DejaVuSans-52" x="63.476562"/>
      <use xlink:href="#DejaVuSans-52" x="132.958984"/>
      <use xlink:href="#DejaVuSans-35" x="202.441406"/>
      <use xlink:href="#DejaVuSans-39" x="266.064453"/>
      <use xlink:href="#DejaVuSans-36" x="329.6875"/>
      <use xlink:href="#DejaVuSans-32" x="393.310547"/>
      <use xlink:href="#DejaVuSans-30" x="456.933594"/>
      <use xlink:href="#DejaVuSans-30" x="520.556641"/>
      <use xlink:href="#DejaVuSans-39" x="584.179688"/>
      <use xlink:href="#DejaVuSans-5f" x="647.802734"/>
      <use xlink:href="#DejaVuSans-54" x="697.802734"/>
      <use xlink:href="#DejaVuSans-31" x="758.886719"/>
      <use xlink:href="#DejaVuSans-5f" x="822.509766"/>
      <use xlink:href="#DejaVuSans-32" x="872.509766"/>
     </g>
    </g>
    <g id="line2d_29">
     <path d="M 888.465625 291.525394 
L 896.465625 291.525394 
L 904.465625 291.525394 
" style="fill: none; stroke: #5cb85c; stroke-linecap: square"/>
    </g>
    <g id="text_28">
     <!-- SRR5962010_T1_1 -->
     <g transform="translate(910.865625 294.325394) scale(0.08 -0.08)">
      <use xlink:href="#DejaVuSans-53"/>
      <use xlink:href="#DejaVuSans-52" x="63.476562"/>
      <use xlink:href="#DejaVuSans-52" x="132.958984"/>
      <use xlink:href="#DejaVuSans-35" x="202.441406"/>
      <use xlink:href="#DejaVuSans-39" x="266.064453"/>
      <use xlink:href="#DejaVuSans-36" x="329.6875"/>
      <use xlink:href="#DejaVuSans-32" x="393.310547"/>
      <use xlink:href="#DejaVuSans-30" x="456.933594"/>
      <use xlink:href="#DejaVuSans-31" x="520.556641"/>
      <use xlink:href="#DejaVuSans-30" x="584.179688"/>
      <use xlink:href="#DejaVuSans-5f" x="647.802734"/>
      <use xlink:href="#DejaVuSans-54" x="697.802734"/>
      <use xlink:href="#DejaVuSans-31" x="758.886719"/>
      <use xlink:href="#DejaVuSans-5f" x="822.509766"/>
      <use xlink:href="#DejaVuSans-31" x="872.509766"/>
     </g>
    </g>
    <g id="line2d_30">
     <path d="M 888.465625 303.490394 
L 896.465625 303.490394 
L 904.465625 303.490394 
" style="fill: none; stroke: #5cb85c; stroke-linecap: square"/>
    </g>
    <g id="text_29">
     <!-- SRR5962010_T1_2 -->
     <g transform="translate(910.865625 306.290394) scale(0.08 -0.08)">
      <use xlink:href="#DejaVuSans-53"/>
      <use xlink:href="#DejaVuSans-52" x="63.476562"/>
      <use xlink:href="#DejaVuSans-52" x="132.958984"/>
      <use xlink:href="#DejaVuSans-35" x="202.441406"/>
      <use xlink:href="#DejaVuSans-39" x="266.064453"/>
      <use xlink:href="#DejaVuSans-36" x="329.6875"/>
      <use xlink:href="#DejaVuSans-32" x="393.310547"/>
      <use xlink:href="#DejaVuSans-30" x="456.933594"/>
      <use xlink:href="#DejaVuSans-31" x="520.556641"/>
      <use xlink:href="#DejaVuSans-30" x="584.179688"/>
      <use xlink:href="#DejaVuSans-5f" x="647.802734"/>
      <use xlink:href="#DejaVuSans-54" x="697.802734"/>
      <use xlink:href="#DejaVuSans-31" x="758.886719"/>
      <use xlink:href="#DejaVuSans-5f" x="822.509766"/>
      <use xlink:href="#DejaVuSans-32" x="872.509766"/>
     </g>
    </g>
   </g>
  </g>
 </g>
 <defs>
  <clipPath id="p7fb531c6a7">
   <rect x="58.418125" y="31.48286" width="934.54" height="242.5072"/>
  </clipPath>
 </defs>
</svg>
