<?xml version="1.0" encoding="utf-8" standalone="no"?>
<!DOCTYPE svg PUBLIC "-//W3C//DTD SVG 1.1//EN"
  "http://www.w3.org/Graphics/SVG/1.1/DTD/svg11.dtd">
<svg xmlns:xlink="http://www.w3.org/1999/xlink" width="1000.280625pt" height="330.541644pt" viewBox="0 0 1000.280625 330.541644" xmlns="http://www.w3.org/2000/svg" version="1.1">
 <metadata>
  <rdf:RDF xmlns:dc="http://purl.org/dc/elements/1.1/" xmlns:cc="http://creativecommons.org/ns#" xmlns:rdf="http://www.w3.org/1999/02/22-rdf-syntax-ns#">
   <cc:Work>
    <dc:type rdf:resource="http://purl.org/dc/dcmitype/StillImage"/>
    <dc:date>2025-08-20T15:20:35.176311</dc:date>
    <dc:format>image/svg+xml</dc:format>
    <dc:creator>
     <cc:Agent>
      <dc:title>Matplotlib v3.6.2, https://matplotlib.org/</dc:title>
     </cc:Agent>
    </dc:creator>
   </cc:Work>
  </rdf:RDF>
 </metadata>
 <defs>
  <style type="text/css">*{stroke-linejoin: round; stroke-linecap: butt}</style>
 </defs>
 <g id="figure_1">
  <g id="axes_1">
   <g id="patch_1">
    <path d="M 40.600625 273.99006 
L 985.445625 273.99006 
L 985.445625 31.48286 
L 40.600625 31.48286 
z
" style="fill: #ffffff"/>
   </g>
   <g id="matplotlib.axis_1">
    <g id="xtick_1">
     <g id="text_1">
      <!-- 0 -->
      <g transform="translate(38.055625 287.06881) scale(0.08 -0.08)">
       <defs>
        <path id="DejaVuSans-30" d="M 2034 4250 
Q 1547 4250 1301 3770 
Q 1056 3291 1056 2328 
Q 1056 1369 1301 889 
Q 1547 409 2034 409 
Q 2525 409 2770 889 
Q 3016 1369 3016 2328 
Q 3016 3291 2770 3770 
Q 2525 4250 2034 4250 
z
M 2034 4750 
Q 2819 4750 3233 4129 
Q 3647 3509 3647 2328 
Q 3647 1150 3233 529 
Q 2819 -91 2034 -91 
Q 1250 -91 836 529 
Q 422 1150 422 2328 
Q 422 3509 836 4129 
Q 1250 4750 2034 4750 
z
" transform="scale(0.015625)"/>
       </defs>
       <use xlink:href="#DejaVuSans-30"/>
      </g>
     </g>
    </g>
    <g id="xtick_2">
     <g id="text_2">
      <!-- 20 -->
      <g transform="translate(224.479625 287.06881) scale(0.08 -0.08)">
       <defs>
        <path id="DejaVuSans-32" d="M 1228 531 
L 3431 531 
L 3431 0 
L 469 0 
L 469 531 
Q 828 903 1448 1529 
Q 2069 2156 2228 2338 
Q 2531 2678 2651 2914 
Q 2772 3150 2772 3378 
Q 2772 3750 2511 3984 
Q 2250 4219 1831 4219 
Q 1534 4219 1204 4116 
Q 875 4013 500 3803 
L 500 4441 
Q 881 4594 1212 4672 
Q 1544 4750 1819 4750 
Q 2544 4750 2975 4387 
Q 3406 4025 3406 3419 
Q 3406 3131 3298 2873 
Q 3191 2616 2906 2266 
Q 2828 2175 2409 1742 
Q 1991 1309 1228 531 
z
" transform="scale(0.015625)"/>
       </defs>
       <use xlink:href="#DejaVuSans-32"/>
       <use xlink:href="#DejaVuSans-30" x="63.623047"/>
      </g>
     </g>
    </g>
    <g id="xtick_3">
     <g id="text_3">
      <!-- 40 -->
      <g transform="translate(413.448625 287.06881) scale(0.08 -0.08)">
       <defs>
        <path id="DejaVuSans-34" d="M 2419 4116 
L 825 1625 
L 2419 1625 
L 2419 4116 
z
M 2253 4666 
L 3047 4666 
L 3047 1625 
L 3713 1625 
L 3713 1100 
L 3047 1100 
L 3047 0 
L 2419 0 
L 2419 1100 
L 313 1100 
L 313 1709 
L 2253 4666 
z
" transform="scale(0.015625)"/>
       </defs>
       <use xlink:href="#DejaVuSans-34"/>
       <use xlink:href="#DejaVuSans-30" x="63.623047"/>
      </g>
     </g>
    </g>
    <g id="xtick_4">
     <g id="text_4">
      <!-- 60 -->
      <g transform="translate(602.417625 287.06881) scale(0.08 -0.08)">
       <defs>
        <path id="DejaVuSans-36" d="M 2113 2584 
Q 1688 2584 1439 2293 
Q 1191 2003 1191 1497 
Q 1191 994 1439 701 
Q 1688 409 2113 409 
Q 2538 409 2786 701 
Q 3034 994 3034 1497 
Q 3034 2003 2786 2293 
Q 2538 2584 2113 2584 
z
M 3366 4563 
L 3366 3988 
Q 3128 4100 2886 4159 
Q 2644 4219 2406 4219 
Q 1781 4219 1451 3797 
Q 1122 3375 1075 2522 
Q 1259 2794 1537 2939 
Q 1816 3084 2150 3084 
Q 2853 3084 3261 2657 
Q 3669 2231 3669 1497 
Q 3669 778 3244 343 
Q 2819 -91 2113 -91 
Q 1303 -91 875 529 
Q 447 1150 447 2328 
Q 447 3434 972 4092 
Q 1497 4750 2381 4750 
Q 2619 4750 2861 4703 
Q 3103 4656 3366 4563 
z
" transform="scale(0.015625)"/>
       </defs>
       <use xlink:href="#DejaVuSans-36"/>
       <use xlink:href="#DejaVuSans-30" x="63.623047"/>
      </g>
     </g>
    </g>
    <g id="xtick_5">
     <g id="text_5">
      <!-- 80 -->
      <g transform="translate(791.386625 287.06881) scale(0.08 -0.08)">
       <defs>
        <path id="DejaVuSans-38" d="M 2034 2216 
Q 1584 2216 1326 1975 
Q 1069 1734 1069 1313 
Q 1069 891 1326 650 
Q 1584 409 2034 409 
Q 2484 409 2743 651 
Q 3003 894 3003 1313 
Q 3003 1734 2745 1975 
Q 2488 2216 2034 2216 
z
M 1403 2484 
Q 997 2584 770 2862 
Q 544 3141 544 3541 
Q 544 4100 942 4425 
Q 1341 4750 2034 4750 
Q 2731 4750 3128 4425 
Q 3525 4100 3525 3541 
Q 3525 3141 3298 2862 
Q 3072 2584 2669 2484 
Q 3125 2378 3379 2068 
Q 3634 1759 3634 1313 
Q 3634 634 3220 271 
Q 2806 -91 2034 -91 
Q 1263 -91 848 271 
Q 434 634 434 1313 
Q 434 1759 690 2068 
Q 947 2378 1403 2484 
z
M 1172 3481 
Q 1172 3119 1398 2916 
Q 1625 2713 2034 2713 
Q 2441 2713 2670 2916 
Q 2900 3119 2900 3481 
Q 2900 3844 2670 4047 
Q 2441 4250 2034 4250 
Q 1625 4250 1398 4047 
Q 1172 3844 1172 3481 
z
" transform="scale(0.015625)"/>
       </defs>
       <use xlink:href="#DejaVuSans-38"/>
       <use xlink:href="#DejaVuSans-30" x="63.623047"/>
      </g>
     </g>
    </g>
    <g id="xtick_6">
     <g id="text_6">
      <!-- 100 -->
      <g transform="translate(977.810625 287.06881) scale(0.08 -0.08)">
       <defs>
        <path id="DejaVuSans-31" d="M 794 531 
L 1825 531 
L 1825 4091 
L 703 3866 
L 703 4441 
L 1819 4666 
L 2450 4666 
L 2450 531 
L 3481 531 
L 3481 0 
L 794 0 
L 794 531 
z
" transform="scale(0.015625)"/>
       </defs>
       <use xlink:href="#DejaVuSans-31"/>
       <use xlink:href="#DejaVuSans-30" x="63.623047"/>
       <use xlink:href="#DejaVuSans-30" x="127.246094"/>
      </g>
     </g>
    </g>
    <g id="text_7">
     <!-- % GC -->
     <g transform="translate(499.317656 300.330997) scale(0.1 -0.1)">
      <defs>
       <path id="DejaVuSans-25" d="M 4653 2053 
Q 4381 2053 4226 1822 
Q 4072 1591 4072 1178 
Q 4072 772 4226 539 
Q 4381 306 4653 306 
Q 4919 306 5073 539 
Q 5228 772 5228 1178 
Q 5228 1588 5073 1820 
Q 4919 2053 4653 2053 
z
M 4653 2450 
Q 5147 2450 5437 2106 
Q 5728 1763 5728 1178 
Q 5728 594 5436 251 
Q 5144 -91 4653 -91 
Q 4153 -91 3862 251 
Q 3572 594 3572 1178 
Q 3572 1766 3864 2108 
Q 4156 2450 4653 2450 
z
M 1428 4353 
Q 1159 4353 1004 4120 
Q 850 3888 850 3481 
Q 850 3069 1003 2837 
Q 1156 2606 1428 2606 
Q 1700 2606 1854 2837 
Q 2009 3069 2009 3481 
Q 2009 3884 1853 4118 
Q 1697 4353 1428 4353 
z
M 4250 4750 
L 4750 4750 
L 1831 -91 
L 1331 -91 
L 4250 4750 
z
M 1428 4750 
Q 1922 4750 2215 4408 
Q 2509 4066 2509 3481 
Q 2509 2891 2217 2550 
Q 1925 2209 1428 2209 
Q 931 2209 642 2551 
Q 353 2894 353 3481 
Q 353 4063 643 4406 
Q 934 4750 1428 4750 
z
" transform="scale(0.015625)"/>
       <path id="DejaVuSans-20" transform="scale(0.015625)"/>
       <path id="DejaVuSans-47" d="M 3809 666 
L 3809 1919 
L 2778 1919 
L 2778 2438 
L 4434 2438 
L 4434 434 
Q 4069 175 3628 42 
Q 3188 -91 2688 -91 
Q 1594 -91 976 548 
Q 359 1188 359 2328 
Q 359 3472 976 4111 
Q 1594 4750 2688 4750 
Q 3144 4750 3555 4637 
Q 3966 4525 4313 4306 
L 4313 3634 
Q 3963 3931 3569 4081 
Q 3175 4231 2741 4231 
Q 1884 4231 1454 3753 
Q 1025 3275 1025 2328 
Q 1025 1384 1454 906 
Q 1884 428 2741 428 
Q 3075 428 3337 486 
Q 3600 544 3809 666 
z
" transform="scale(0.015625)"/>
       <path id="DejaVuSans-43" d="M 4122 4306 
L 4122 3641 
Q 3803 3938 3442 4084 
Q 3081 4231 2675 4231 
Q 1875 4231 1450 3742 
Q 1025 3253 1025 2328 
Q 1025 1406 1450 917 
Q 1875 428 2675 428 
Q 3081 428 3442 575 
Q 3803 722 4122 1019 
L 4122 359 
Q 3791 134 3420 21 
Q 3050 -91 2638 -91 
Q 1578 -91 968 557 
Q 359 1206 359 2328 
Q 359 3453 968 4101 
Q 1578 4750 2638 4750 
Q 3056 4750 3426 4639 
Q 3797 4528 4122 4306 
z
" transform="scale(0.015625)"/>
      </defs>
      <use xlink:href="#DejaVuSans-25"/>
      <use xlink:href="#DejaVuSans-20" x="95.019531"/>
      <use xlink:href="#DejaVuSans-47" x="126.806641"/>
      <use xlink:href="#DejaVuSans-43" x="204.296875"/>
     </g>
    </g>
   </g>
   <g id="matplotlib.axis_2">
    <g id="ytick_1">
     <g id="line2d_1">
      <path d="M 40.600625 273.99006 
L 985.445625 273.99006 
" clip-path="url(#p85ea0081bb)" style="fill: none; stroke: #dedede; stroke-linecap: square"/>
     </g>
     <g id="text_8">
      <!-- 0.0 -->
      <g transform="translate(20.878125 277.029435) scale(0.08 -0.08)">
       <defs>
        <path id="DejaVuSans-2e" d="M 684 794 
L 1344 794 
L 1344 0 
L 684 0 
L 684 794 
z
" transform="scale(0.015625)"/>
       </defs>
       <use xlink:href="#DejaVuSans-30"/>
       <use xlink:href="#DejaVuSans-2e" x="63.623047"/>
       <use xlink:href="#DejaVuSans-30" x="95.410156"/>
      </g>
     </g>
    </g>
    <g id="ytick_2">
     <g id="line2d_2">
      <path d="M 40.600625 242.432661 
L 985.445625 242.432661 
" clip-path="url(#p85ea0081bb)" style="fill: none; stroke: #dedede; stroke-linecap: square"/>
     </g>
     <g id="text_9">
      <!-- 0.5 -->
      <g transform="translate(20.878125 245.472036) scale(0.08 -0.08)">
       <defs>
        <path id="DejaVuSans-35" d="M 691 4666 
L 3169 4666 
L 3169 4134 
L 1269 4134 
L 1269 2991 
Q 1406 3038 1543 3061 
Q 1681 3084 1819 3084 
Q 2600 3084 3056 2656 
Q 3513 2228 3513 1497 
Q 3513 744 3044 326 
Q 2575 -91 1722 -91 
Q 1428 -91 1123 -41 
Q 819 9 494 109 
L 494 744 
Q 775 591 1075 516 
Q 1375 441 1709 441 
Q 2250 441 2565 725 
Q 2881 1009 2881 1497 
Q 2881 1984 2565 2268 
Q 2250 2553 1709 2553 
Q 1456 2553 1204 2497 
Q 953 2441 691 2322 
L 691 4666 
z
" transform="scale(0.015625)"/>
       </defs>
       <use xlink:href="#DejaVuSans-30"/>
       <use xlink:href="#DejaVuSans-2e" x="63.623047"/>
       <use xlink:href="#DejaVuSans-35" x="95.410156"/>
      </g>
     </g>
    </g>
    <g id="ytick_3">
     <g id="line2d_3">
      <path d="M 40.600625 210.875262 
L 985.445625 210.875262 
" clip-path="url(#p85ea0081bb)" style="fill: none; stroke: #dedede; stroke-linecap: square"/>
     </g>
     <g id="text_10">
      <!-- 1.0 -->
      <g transform="translate(20.878125 213.914637) scale(0.08 -0.08)">
       <use xlink:href="#DejaVuSans-31"/>
       <use xlink:href="#DejaVuSans-2e" x="63.623047"/>
       <use xlink:href="#DejaVuSans-30" x="95.410156"/>
      </g>
     </g>
    </g>
    <g id="ytick_4">
     <g id="line2d_4">
      <path d="M 40.600625 179.317864 
L 985.445625 179.317864 
" clip-path="url(#p85ea0081bb)" style="fill: none; stroke: #dedede; stroke-linecap: square"/>
     </g>
     <g id="text_11">
      <!-- 1.5 -->
      <g transform="translate(20.878125 182.357239) scale(0.08 -0.08)">
       <use xlink:href="#DejaVuSans-31"/>
       <use xlink:href="#DejaVuSans-2e" x="63.623047"/>
       <use xlink:href="#DejaVuSans-35" x="95.410156"/>
      </g>
     </g>
    </g>
    <g id="ytick_5">
     <g id="line2d_5">
      <path d="M 40.600625 147.760465 
L 985.445625 147.760465 
" clip-path="url(#p85ea0081bb)" style="fill: none; stroke: #dedede; stroke-linecap: square"/>
     </g>
     <g id="text_12">
      <!-- 2.0 -->
      <g transform="translate(20.878125 150.79984) scale(0.08 -0.08)">
       <use xlink:href="#DejaVuSans-32"/>
       <use xlink:href="#DejaVuSans-2e" x="63.623047"/>
       <use xlink:href="#DejaVuSans-30" x="95.410156"/>
      </g>
     </g>
    </g>
    <g id="ytick_6">
     <g id="line2d_6">
      <path d="M 40.600625 116.203066 
L 985.445625 116.203066 
" clip-path="url(#p85ea0081bb)" style="fill: none; stroke: #dedede; stroke-linecap: square"/>
     </g>
     <g id="text_13">
      <!-- 2.5 -->
      <g transform="translate(20.878125 119.242441) scale(0.08 -0.08)">
       <use xlink:href="#DejaVuSans-32"/>
       <use xlink:href="#DejaVuSans-2e" x="63.623047"/>
       <use xlink:href="#DejaVuSans-35" x="95.410156"/>
      </g>
     </g>
    </g>
    <g id="ytick_7">
     <g id="line2d_7">
      <path d="M 40.600625 84.645667 
L 985.445625 84.645667 
" clip-path="url(#p85ea0081bb)" style="fill: none; stroke: #dedede; stroke-linecap: square"/>
     </g>
     <g id="text_14">
      <!-- 3.0 -->
      <g transform="translate(20.878125 87.685042) scale(0.08 -0.08)">
       <defs>
        <path id="DejaVuSans-33" d="M 2597 2516 
Q 3050 2419 3304 2112 
Q 3559 1806 3559 1356 
Q 3559 666 3084 287 
Q 2609 -91 1734 -91 
Q 1441 -91 1130 -33 
Q 819 25 488 141 
L 488 750 
Q 750 597 1062 519 
Q 1375 441 1716 441 
Q 2309 441 2620 675 
Q 2931 909 2931 1356 
Q 2931 1769 2642 2001 
Q 2353 2234 1838 2234 
L 1294 2234 
L 1294 2753 
L 1863 2753 
Q 2328 2753 2575 2939 
Q 2822 3125 2822 3475 
Q 2822 3834 2567 4026 
Q 2313 4219 1838 4219 
Q 1578 4219 1281 4162 
Q 984 4106 628 3988 
L 628 4550 
Q 988 4650 1302 4700 
Q 1616 4750 1894 4750 
Q 2613 4750 3031 4423 
Q 3450 4097 3450 3541 
Q 3450 3153 3228 2886 
Q 3006 2619 2597 2516 
z
" transform="scale(0.015625)"/>
       </defs>
       <use xlink:href="#DejaVuSans-33"/>
       <use xlink:href="#DejaVuSans-2e" x="63.623047"/>
       <use xlink:href="#DejaVuSans-30" x="95.410156"/>
      </g>
     </g>
    </g>
    <g id="ytick_8">
     <g id="line2d_8">
      <path d="M 40.600625 53.088269 
L 985.445625 53.088269 
" clip-path="url(#p85ea0081bb)" style="fill: none; stroke: #dedede; stroke-linecap: square"/>
     </g>
     <g id="text_15">
      <!-- 3.5 -->
      <g transform="translate(20.878125 56.127644) scale(0.08 -0.08)">
       <use xlink:href="#DejaVuSans-33"/>
       <use xlink:href="#DejaVuSans-2e" x="63.623047"/>
       <use xlink:href="#DejaVuSans-35" x="95.410156"/>
      </g>
     </g>
    </g>
    <g id="text_16">
     <!-- Percentage -->
     <g transform="translate(14.798438 180.859116) rotate(-90) scale(0.1 -0.1)">
      <defs>
       <path id="DejaVuSans-50" d="M 1259 4147 
L 1259 2394 
L 2053 2394 
Q 2494 2394 2734 2622 
Q 2975 2850 2975 3272 
Q 2975 3691 2734 3919 
Q 2494 4147 2053 4147 
L 1259 4147 
z
M 628 4666 
L 2053 4666 
Q 2838 4666 3239 4311 
Q 3641 3956 3641 3272 
Q 3641 2581 3239 2228 
Q 2838 1875 2053 1875 
L 1259 1875 
L 1259 0 
L 628 0 
L 628 4666 
z
" transform="scale(0.015625)"/>
       <path id="DejaVuSans-65" d="M 3597 1894 
L 3597 1613 
L 953 1613 
Q 991 1019 1311 708 
Q 1631 397 2203 397 
Q 2534 397 2845 478 
Q 3156 559 3463 722 
L 3463 178 
Q 3153 47 2828 -22 
Q 2503 -91 2169 -91 
Q 1331 -91 842 396 
Q 353 884 353 1716 
Q 353 2575 817 3079 
Q 1281 3584 2069 3584 
Q 2775 3584 3186 3129 
Q 3597 2675 3597 1894 
z
M 3022 2063 
Q 3016 2534 2758 2815 
Q 2500 3097 2075 3097 
Q 1594 3097 1305 2825 
Q 1016 2553 972 2059 
L 3022 2063 
z
" transform="scale(0.015625)"/>
       <path id="DejaVuSans-72" d="M 2631 2963 
Q 2534 3019 2420 3045 
Q 2306 3072 2169 3072 
Q 1681 3072 1420 2755 
Q 1159 2438 1159 1844 
L 1159 0 
L 581 0 
L 581 3500 
L 1159 3500 
L 1159 2956 
Q 1341 3275 1631 3429 
Q 1922 3584 2338 3584 
Q 2397 3584 2469 3576 
Q 2541 3569 2628 3553 
L 2631 2963 
z
" transform="scale(0.015625)"/>
       <path id="DejaVuSans-63" d="M 3122 3366 
L 3122 2828 
Q 2878 2963 2633 3030 
Q 2388 3097 2138 3097 
Q 1578 3097 1268 2742 
Q 959 2388 959 1747 
Q 959 1106 1268 751 
Q 1578 397 2138 397 
Q 2388 397 2633 464 
Q 2878 531 3122 666 
L 3122 134 
Q 2881 22 2623 -34 
Q 2366 -91 2075 -91 
Q 1284 -91 818 406 
Q 353 903 353 1747 
Q 353 2603 823 3093 
Q 1294 3584 2113 3584 
Q 2378 3584 2631 3529 
Q 2884 3475 3122 3366 
z
" transform="scale(0.015625)"/>
       <path id="DejaVuSans-6e" d="M 3513 2113 
L 3513 0 
L 2938 0 
L 2938 2094 
Q 2938 2591 2744 2837 
Q 2550 3084 2163 3084 
Q 1697 3084 1428 2787 
Q 1159 2491 1159 1978 
L 1159 0 
L 581 0 
L 581 3500 
L 1159 3500 
L 1159 2956 
Q 1366 3272 1645 3428 
Q 1925 3584 2291 3584 
Q 2894 3584 3203 3211 
Q 3513 2838 3513 2113 
z
" transform="scale(0.015625)"/>
       <path id="DejaVuSans-74" d="M 1172 4494 
L 1172 3500 
L 2356 3500 
L 2356 3053 
L 1172 3053 
L 1172 1153 
Q 1172 725 1289 603 
Q 1406 481 1766 481 
L 2356 481 
L 2356 0 
L 1766 0 
Q 1100 0 847 248 
Q 594 497 594 1153 
L 594 3053 
L 172 3053 
L 172 3500 
L 594 3500 
L 594 4494 
L 1172 4494 
z
" transform="scale(0.015625)"/>
       <path id="DejaVuSans-61" d="M 2194 1759 
Q 1497 1759 1228 1600 
Q 959 1441 959 1056 
Q 959 750 1161 570 
Q 1363 391 1709 391 
Q 2188 391 2477 730 
Q 2766 1069 2766 1631 
L 2766 1759 
L 2194 1759 
z
M 3341 1997 
L 3341 0 
L 2766 0 
L 2766 531 
Q 2569 213 2275 61 
Q 1981 -91 1556 -91 
Q 1019 -91 701 211 
Q 384 513 384 1019 
Q 384 1609 779 1909 
Q 1175 2209 1959 2209 
L 2766 2209 
L 2766 2266 
Q 2766 2663 2505 2880 
Q 2244 3097 1772 3097 
Q 1472 3097 1187 3025 
Q 903 2953 641 2809 
L 641 3341 
Q 956 3463 1253 3523 
Q 1550 3584 1831 3584 
Q 2591 3584 2966 3190 
Q 3341 2797 3341 1997 
z
" transform="scale(0.015625)"/>
       <path id="DejaVuSans-67" d="M 2906 1791 
Q 2906 2416 2648 2759 
Q 2391 3103 1925 3103 
Q 1463 3103 1205 2759 
Q 947 2416 947 1791 
Q 947 1169 1205 825 
Q 1463 481 1925 481 
Q 2391 481 2648 825 
Q 2906 1169 2906 1791 
z
M 3481 434 
Q 3481 -459 3084 -895 
Q 2688 -1331 1869 -1331 
Q 1566 -1331 1297 -1286 
Q 1028 -1241 775 -1147 
L 775 -588 
Q 1028 -725 1275 -790 
Q 1522 -856 1778 -856 
Q 2344 -856 2625 -561 
Q 2906 -266 2906 331 
L 2906 616 
Q 2728 306 2450 153 
Q 2172 0 1784 0 
Q 1141 0 747 490 
Q 353 981 353 1791 
Q 353 2603 747 3093 
Q 1141 3584 1784 3584 
Q 2172 3584 2450 3431 
Q 2728 3278 2906 2969 
L 2906 3500 
L 3481 3500 
L 3481 434 
z
" transform="scale(0.015625)"/>
      </defs>
      <use xlink:href="#DejaVuSans-50"/>
      <use xlink:href="#DejaVuSans-65" x="56.677734"/>
      <use xlink:href="#DejaVuSans-72" x="118.201172"/>
      <use xlink:href="#DejaVuSans-63" x="157.064453"/>
      <use xlink:href="#DejaVuSans-65" x="212.044922"/>
      <use xlink:href="#DejaVuSans-6e" x="273.568359"/>
      <use xlink:href="#DejaVuSans-74" x="336.947266"/>
      <use xlink:href="#DejaVuSans-61" x="376.15625"/>
      <use xlink:href="#DejaVuSans-67" x="437.435547"/>
      <use xlink:href="#DejaVuSans-65" x="500.912109"/>
     </g>
    </g>
   </g>
   <g id="line2d_9">
    <path d="M 40.600625 273.677554 
L 50.049075 273.723103 
L 59.497525 273.768653 
L 68.945975 273.735212 
L 78.394425 273.70177 
L 87.842875 273.604905 
L 97.291325 273.508039 
L 106.739775 273.468832 
L 116.188225 273.429624 
L 125.636675 273.249155 
L 135.085125 273.068685 
L 144.533575 272.889945 
L 153.982025 272.711206 
L 163.430475 272.426952 
L 172.878925 272.142698 
L 182.327375 271.336639 
L 191.775825 270.53058 
L 201.224275 268.997454 
L 210.672725 267.464328 
L 220.121175 264.792457 
L 229.569625 262.120586 
L 239.018075 257.7922 
L 248.466525 253.463814 
L 257.914975 246.762226 
L 267.363425 240.060637 
L 276.811875 231.521489 
L 286.260325 222.98234 
L 295.708775 212.308115 
L 305.157225 201.633891 
L 314.605675 189.370036 
L 324.054125 177.106181 
L 333.502575 163.014567 
L 342.951025 148.922954 
L 352.399475 136.07214 
L 361.847925 123.221327 
L 371.296375 111.07913 
L 380.744825 98.936933 
L 390.193275 88.425304 
L 399.641725 77.913676 
L 409.090175 69.641483 
L 418.538625 61.369291 
L 427.987075 59.354721 
L 437.435525 57.340151 
L 446.883975 60.639918 
L 456.332425 63.939684 
L 465.780875 69.702601 
L 475.229325 75.465517 
L 484.677775 82.69064 
L 494.126225 89.915764 
L 503.574675 98.31711 
L 513.023125 106.718456 
L 522.471575 115.515336 
L 531.920025 124.312216 
L 541.368475 132.861743 
L 550.816925 141.41127 
L 560.265375 148.819746 
L 569.713825 156.228222 
L 579.162275 157.475941 
L 588.610725 158.723659 
L 598.059175 159.676746 
L 607.507625 160.629833 
L 616.956075 163.827545 
L 626.404525 167.025257 
L 635.852975 182.783763 
L 645.301425 198.54227 
L 654.749875 215.939416 
L 664.198325 233.336562 
L 673.646775 237.18408 
L 683.095225 241.031598 
L 692.543675 241.511889 
L 701.992125 241.99218 
L 711.440575 240.583019 
L 720.889025 239.173857 
L 730.337475 229.342016 
L 739.785925 219.510175 
L 749.234375 243.254314 
L 758.682825 266.998452 
L 768.131275 269.398177 
L 777.579725 271.797903 
L 787.028175 272.376789 
L 796.476625 272.955676 
L 805.925075 273.188037 
L 815.373525 273.420399 
L 824.821975 273.565697 
L 834.270425 273.710995 
L 843.718875 273.806708 
L 853.167325 273.90242 
L 862.615775 273.92087 
L 872.064225 273.939321 
L 881.512675 273.960654 
L 890.961125 273.981988 
L 900.409575 273.983141 
L 909.858025 273.984294 
L 919.306475 273.984294 
L 928.754925 273.984294 
L 938.203375 273.986024 
L 947.651825 273.987754 
L 957.100275 273.988907 
L 966.548725 273.99006 
L 975.997175 273.99006 
L 985.445625 273.99006 
" clip-path="url(#p85ea0081bb)" style="fill: none; stroke: #f0ad4e; stroke-linecap: square"/>
   </g>
   <g id="line2d_10">
    <path d="M 40.600625 263.17017 
L 50.049075 265.930829 
L 59.497525 268.691488 
L 68.945975 270.090283 
L 78.394425 271.489078 
L 87.842875 271.648347 
L 97.291325 271.807616 
L 106.739775 271.57506 
L 116.188225 271.342505 
L 125.636675 271.175157 
L 135.085125 271.00781 
L 144.533575 270.443444 
L 153.982025 269.879079 
L 163.430475 268.867491 
L 172.878925 267.855904 
L 182.327375 266.114911 
L 191.775825 264.373919 
L 201.224275 261.543435 
L 210.672725 258.712952 
L 220.121175 254.140899 
L 229.569625 249.568846 
L 239.018075 242.805694 
L 248.466525 236.042541 
L 257.914975 227.114256 
L 267.363425 218.185971 
L 276.811875 207.314145 
L 286.260325 196.442319 
L 295.708775 184.635078 
L 305.157225 172.827837 
L 314.605675 159.863588 
L 324.054125 146.89934 
L 333.502575 134.236318 
L 342.951025 121.573295 
L 352.399475 108.949513 
L 361.847925 96.32573 
L 371.296375 86.012499 
L 380.744825 75.699268 
L 390.193275 70.429549 
L 399.641725 65.15983 
L 409.090175 62.338579 
L 418.538625 59.517329 
L 427.987075 62.318382 
L 437.435525 65.119435 
L 446.883975 70.257585 
L 456.332425 75.395734 
L 465.780875 83.77408 
L 475.229325 92.152426 
L 484.677775 99.131977 
L 494.126225 106.111528 
L 503.574675 117.08607 
L 513.023125 128.060613 
L 522.471575 138.853958 
L 531.920025 149.647304 
L 541.368475 157.065998 
L 550.816925 164.484691 
L 560.265375 172.407736 
L 569.713825 180.330781 
L 579.162275 187.350726 
L 588.610725 194.370671 
L 598.059175 201.199609 
L 607.507625 208.028546 
L 616.956075 211.511108 
L 626.404525 214.99367 
L 635.852975 210.775933 
L 645.301425 206.558195 
L 654.749875 213.724137 
L 664.198325 220.890078 
L 673.646775 222.730325 
L 683.095225 224.570572 
L 692.543675 219.686329 
L 701.992125 214.802086 
L 711.440575 224.636357 
L 720.889025 234.470627 
L 730.337475 248.948506 
L 739.785925 263.426385 
L 749.234375 267.224022 
L 758.682825 271.021659 
L 768.131275 271.790881 
L 777.579725 272.560103 
L 787.028175 272.871139 
L 796.476625 273.182175 
L 805.925075 273.354716 
L 815.373525 273.527257 
L 824.821975 273.604583 
L 834.270425 273.68191 
L 843.718875 273.726343 
L 853.167325 273.770777 
L 862.615775 273.797899 
L 872.064225 273.825021 
L 881.512675 273.835985 
L 890.961125 273.846949 
L 900.409575 273.8683 
L 909.858025 273.889651 
L 919.306475 273.900039 
L 928.754925 273.910426 
L 938.203375 273.919659 
L 947.651825 273.928892 
L 957.100275 273.935816 
L 966.548725 273.942741 
L 975.997175 273.956013 
L 985.445625 273.969286 
" clip-path="url(#p85ea0081bb)" style="fill: none; stroke: #f0ad4e; stroke-linecap: square"/>
   </g>
   <g id="line2d_11">
    <path d="M 40.600625 273.777681 
L 50.049075 273.823075 
L 59.497525 273.868469 
L 68.945975 273.823886 
L 78.394425 273.779302 
L 87.842875 273.692567 
L 97.291325 273.605832 
L 106.739775 273.553954 
L 116.188225 273.502075 
L 125.636675 273.339953 
L 135.085125 273.177832 
L 144.533575 272.945188 
L 153.982025 272.712544 
L 163.430475 272.243202 
L 172.878925 271.773861 
L 182.327375 270.793027 
L 191.775825 269.812192 
L 201.224275 267.835122 
L 210.672725 265.858052 
L 220.121175 262.515109 
L 229.569625 259.172167 
L 239.018075 253.746775 
L 248.466525 248.321384 
L 257.914975 240.066163 
L 267.363425 231.810943 
L 276.811875 221.77482 
L 286.260325 211.738697 
L 295.708775 199.236707 
L 305.157225 186.734718 
L 314.605675 171.970325 
L 324.054125 157.205931 
L 333.502575 142.518546 
L 342.951025 127.831161 
L 352.399475 114.636102 
L 361.847925 101.441044 
L 371.296375 90.41517 
L 380.744825 79.389295 
L 390.193275 70.827666 
L 399.641725 62.266036 
L 409.090175 56.748235 
L 418.538625 51.230435 
L 427.987075 50.871336 
L 437.435525 50.512237 
L 446.883975 56.82119 
L 456.332425 63.130143 
L 465.780875 70.505044 
L 475.229325 77.879945 
L 484.677775 87.086007 
L 494.126225 96.292069 
L 503.574675 105.608374 
L 513.023125 114.924678 
L 522.471575 124.323665 
L 531.920025 133.722651 
L 541.368475 142.732546 
L 550.816925 151.742441 
L 560.265375 159.143282 
L 569.713825 166.544122 
L 579.162275 169.778444 
L 588.610725 173.012765 
L 598.059175 175.336775 
L 607.507625 177.660785 
L 616.956075 181.208811 
L 626.404525 184.756837 
L 635.852975 199.088366 
L 645.301425 213.419895 
L 654.749875 226.705741 
L 664.198325 239.991588 
L 673.646775 243.505568 
L 683.095225 247.019549 
L 692.543675 247.696406 
L 701.992125 248.373262 
L 711.440575 248.494853 
L 720.889025 248.616444 
L 730.337475 242.762242 
L 739.785925 236.908039 
L 749.234375 253.030199 
L 758.682825 269.152358 
L 768.131275 270.818155 
L 777.579725 272.483952 
L 787.028175 272.898983 
L 796.476625 273.314014 
L 805.925075 273.473703 
L 815.373525 273.633393 
L 824.821975 273.721749 
L 834.270425 273.810105 
L 843.718875 273.862795 
L 853.167325 273.915484 
L 862.615775 273.937371 
L 872.064225 273.959257 
L 881.512675 273.966552 
L 890.961125 273.973848 
L 900.409575 273.977901 
L 909.858025 273.981954 
L 919.306475 273.985196 
L 928.754925 273.988439 
L 938.203375 273.989249 
L 947.651825 273.99006 
L 957.100275 273.99006 
L 966.548725 273.99006 
L 975.997175 273.99006 
L 985.445625 273.99006 
" clip-path="url(#p85ea0081bb)" style="fill: none; stroke: #f0ad4e; stroke-linecap: square"/>
   </g>
   <g id="line2d_12">
    <path d="M 40.600625 266.920963 
L 50.049075 268.575502 
L 59.497525 270.23004 
L 68.945975 271.070286 
L 78.394425 271.910532 
L 87.842875 271.903233 
L 97.291325 271.895933 
L 106.739775 271.688305 
L 116.188225 271.480677 
L 125.636675 271.240606 
L 135.085125 271.000536 
L 144.533575 270.445779 
L 153.982025 269.891022 
L 163.430475 268.724734 
L 172.878925 267.558447 
L 182.327375 265.641129 
L 191.775825 263.723811 
L 201.224275 260.422033 
L 210.672725 257.120255 
L 220.121175 251.753549 
L 229.569625 246.386842 
L 239.018075 238.681883 
L 248.466525 230.976924 
L 257.914975 220.620649 
L 267.363425 210.264373 
L 276.811875 197.579577 
L 286.260325 184.894782 
L 295.708775 171.774453 
L 305.157225 158.654125 
L 314.605675 144.22882 
L 324.054125 129.803515 
L 333.502575 115.959731 
L 342.951025 102.115948 
L 352.399475 91.003775 
L 361.847925 79.891602 
L 371.296375 71.051987 
L 380.744825 62.212371 
L 390.193275 58.715131 
L 399.641725 55.217891 
L 409.090175 54.964033 
L 418.538625 54.710175 
L 427.987075 58.340427 
L 437.435525 61.970679 
L 446.883975 69.88651 
L 456.332425 77.802342 
L 465.780875 86.63628 
L 475.229325 95.470218 
L 484.677775 104.371473 
L 494.126225 113.272728 
L 503.574675 124.635515 
L 513.023125 135.998302 
L 522.471575 146.370798 
L 531.920025 156.743295 
L 541.368475 164.4296 
L 550.816925 172.115905 
L 560.265375 179.793288 
L 569.713825 187.470671 
L 579.162275 194.259957 
L 588.610725 201.049242 
L 598.059175 207.852315 
L 607.507625 214.655388 
L 616.956075 218.712252 
L 626.404525 222.769115 
L 635.852975 221.12431 
L 645.301425 219.479504 
L 654.749875 225.454496 
L 664.198325 231.429489 
L 673.646775 233.242993 
L 683.095225 235.056497 
L 692.543675 231.826092 
L 701.992125 228.595686 
L 711.440575 235.949461 
L 720.889025 243.303236 
L 730.337475 254.326194 
L 739.785925 265.349151 
L 749.234375 268.423835 
L 758.682825 271.49852 
L 768.131275 272.183855 
L 777.579725 272.869191 
L 787.028175 273.114128 
L 796.476625 273.359064 
L 805.925075 273.504242 
L 815.373525 273.64942 
L 824.821975 273.71917 
L 834.270425 273.78892 
L 843.718875 273.809196 
L 853.167325 273.829472 
L 862.615775 273.857859 
L 872.064225 273.886246 
L 881.512675 273.904089 
L 890.961125 273.921932 
L 900.409575 273.932476 
L 909.858025 273.943019 
L 919.306475 273.940586 
L 928.754925 273.938153 
L 938.203375 273.953563 
L 947.651825 273.968973 
L 957.100275 273.96654 
L 966.548725 273.964106 
L 975.997175 273.968162 
L 985.445625 273.972217 
" clip-path="url(#p85ea0081bb)" style="fill: none; stroke: #f0ad4e; stroke-linecap: square"/>
   </g>
   <g id="line2d_13">
    <path d="M 40.600625 273.786334 
L 50.049075 273.796898 
L 59.497525 273.807461 
L 68.945975 273.796143 
L 78.394425 273.784825 
L 87.842875 273.665608 
L 97.291325 273.546391 
L 106.739775 273.504136 
L 116.188225 273.461882 
L 125.636675 273.296638 
L 135.085125 273.131394 
L 144.533575 272.868814 
L 153.982025 272.606234 
L 163.430475 272.188973 
L 172.878925 271.771713 
L 182.327375 270.793074 
L 191.775825 269.814436 
L 201.224275 268.186139 
L 210.672725 266.557842 
L 220.121175 263.277857 
L 229.569625 259.997872 
L 239.018075 254.836064 
L 248.466525 249.674256 
L 257.914975 242.337865 
L 267.363425 235.001473 
L 276.811875 225.406743 
L 286.260325 215.812013 
L 295.708775 203.633739 
L 305.157225 191.455465 
L 314.605675 177.814137 
L 324.054125 164.17281 
L 333.502575 149.852397 
L 342.951025 135.531983 
L 352.399475 121.540549 
L 361.847925 107.549116 
L 371.296375 96.222717 
L 380.744825 84.896318 
L 390.193275 75.958792 
L 399.641725 67.021267 
L 409.090175 60.406216 
L 418.538625 53.791164 
L 427.987075 52.654827 
L 437.435525 51.51849 
L 446.883975 56.136274 
L 456.332425 60.754058 
L 465.780875 67.759207 
L 475.229325 74.764356 
L 484.677775 82.876415 
L 494.126225 90.988473 
L 503.574675 99.945617 
L 513.023125 108.90276 
L 522.471575 117.98063 
L 531.920025 127.0585 
L 541.368475 135.45502 
L 550.816925 143.851541 
L 560.265375 152.720403 
L 569.713825 161.589265 
L 579.162275 165.209548 
L 588.610725 168.82983 
L 598.059175 170.162348 
L 607.507625 171.494865 
L 616.956075 178.017863 
L 626.404525 184.540861 
L 635.852975 198.46665 
L 645.301425 212.392439 
L 654.749875 225.696487 
L 664.198325 239.000534 
L 673.646775 242.553663 
L 683.095225 246.106792 
L 692.543675 247.421955 
L 701.992125 248.737118 
L 711.440575 248.888026 
L 720.889025 249.038934 
L 730.337475 243.303676 
L 739.785925 237.568418 
L 749.234375 253.280203 
L 758.682825 268.991988 
L 768.131275 270.635375 
L 777.579725 272.278763 
L 787.028175 272.688479 
L 796.476625 273.098194 
L 805.925075 273.324556 
L 815.373525 273.550918 
L 824.821975 273.641463 
L 834.270425 273.732007 
L 843.718875 273.794634 
L 853.167325 273.857261 
L 862.615775 273.90857 
L 872.064225 273.959878 
L 881.512675 273.968933 
L 890.961125 273.977987 
L 900.409575 273.982515 
L 909.858025 273.987042 
L 919.306475 273.987796 
L 928.754925 273.988551 
L 938.203375 273.989305 
L 947.651825 273.99006 
L 957.100275 273.99006 
L 966.548725 273.99006 
L 975.997175 273.99006 
L 985.445625 273.99006 
" clip-path="url(#p85ea0081bb)" style="fill: none; stroke: #f0ad4e; stroke-linecap: square"/>
   </g>
   <g id="line2d_14">
    <path d="M 40.600625 264.619407 
L 50.049075 267.065895 
L 59.497525 269.512383 
L 68.945975 270.519672 
L 78.394425 271.52696 
L 87.842875 271.637958 
L 97.291325 271.748956 
L 106.739775 271.538286 
L 116.188225 271.327617 
L 125.636675 271.082213 
L 135.085125 270.836809 
L 144.533575 270.16327 
L 153.982025 269.48973 
L 163.430475 268.430341 
L 172.878925 267.370951 
L 182.327375 265.514187 
L 191.775825 263.657424 
L 201.224275 260.30785 
L 210.672725 256.958276 
L 220.121175 251.767795 
L 229.569625 246.577314 
L 239.018075 238.900325 
L 248.466525 231.223337 
L 257.914975 221.068902 
L 267.363425 210.914467 
L 276.811875 199.311016 
L 286.260325 187.707565 
L 295.708775 174.612814 
L 305.157225 161.518063 
L 314.605675 147.337494 
L 324.054125 133.156925 
L 333.502575 120.406495 
L 342.951025 107.656064 
L 352.399475 95.793618 
L 361.847925 83.931172 
L 371.296375 75.077 
L 380.744825 66.222828 
L 390.193275 60.845085 
L 399.641725 55.467342 
L 409.090175 55.121511 
L 418.538625 54.775681 
L 427.987075 58.562451 
L 437.435525 62.349222 
L 446.883975 68.44732 
L 456.332425 74.545417 
L 465.780875 83.784685 
L 475.229325 93.023952 
L 484.677775 101.853206 
L 494.126225 110.68246 
L 503.574675 121.528557 
L 513.023125 132.374653 
L 522.471575 142.358438 
L 531.920025 152.342223 
L 541.368475 160.297085 
L 550.816925 168.251946 
L 560.265375 176.265704 
L 569.713825 184.279462 
L 579.162275 191.499622 
L 588.610725 198.719781 
L 598.059175 205.980716 
L 607.507625 213.241651 
L 616.956075 217.883182 
L 626.404525 222.524713 
L 635.852975 220.453504 
L 645.301425 218.382296 
L 654.749875 224.817918 
L 664.198325 231.25354 
L 673.646775 234.194611 
L 683.095225 237.135683 
L 692.543675 234.530626 
L 701.992125 231.925569 
L 711.440575 238.679084 
L 720.889025 245.432599 
L 730.337475 255.756929 
L 739.785925 266.081259 
L 749.234375 268.844129 
L 758.682825 271.607 
L 768.131275 272.216356 
L 777.579725 272.825713 
L 787.028175 273.128504 
L 796.476625 273.431294 
L 805.925075 273.549088 
L 815.373525 273.666882 
L 824.821975 273.698596 
L 834.270425 273.730309 
L 843.718875 273.791472 
L 853.167325 273.852634 
L 862.615775 273.869246 
L 872.064225 273.885858 
L 881.512675 273.897939 
L 890.961125 273.910021 
L 900.409575 273.910776 
L 909.858025 273.911531 
L 919.306475 273.925877 
L 928.754925 273.940224 
L 938.203375 273.94702 
L 947.651825 273.953816 
L 957.100275 273.962877 
L 966.548725 273.971938 
L 975.997175 273.972693 
L 985.445625 273.973448 
" clip-path="url(#p85ea0081bb)" style="fill: none; stroke: #f0ad4e; stroke-linecap: square"/>
   </g>
   <g id="line2d_15">
    <path d="M 40.600625 273.830594 
L 50.049075 273.804017 
L 59.497525 273.777439 
L 68.945975 273.772456 
L 78.394425 273.767473 
L 87.842875 273.639014 
L 97.291325 273.510556 
L 106.739775 273.464045 
L 116.188225 273.417534 
L 125.636675 273.263606 
L 135.085125 273.109677 
L 144.533575 272.889859 
L 153.982025 272.67004 
L 163.430475 272.188321 
L 172.878925 271.706602 
L 182.327375 270.81127 
L 191.775825 269.915937 
L 201.224275 268.032804 
L 210.672725 266.149671 
L 220.121175 262.876198 
L 229.569625 259.602725 
L 239.018075 254.300496 
L 248.466525 248.998267 
L 257.914975 241.350012 
L 267.363425 233.701757 
L 276.811875 223.517003 
L 286.260325 213.33225 
L 295.708775 201.007447 
L 305.157225 188.682643 
L 314.605675 174.277036 
L 324.054125 159.871429 
L 333.502575 144.735492 
L 342.951025 129.599555 
L 352.399475 115.661825 
L 361.847925 101.724094 
L 371.296375 90.333936 
L 380.744825 78.943778 
L 390.193275 69.423464 
L 399.641725 59.90315 
L 409.090175 54.275899 
L 418.538625 48.648648 
L 427.987075 48.30923 
L 437.435525 47.969812 
L 446.883975 53.399392 
L 456.332425 58.828972 
L 465.780875 66.550316 
L 475.229325 74.271659 
L 484.677775 84.278675 
L 494.126225 94.285691 
L 503.574675 103.602797 
L 513.023125 112.919903 
L 522.471575 123.090814 
L 531.920025 133.261726 
L 541.368475 142.5517 
L 550.816925 151.841675 
L 560.265375 159.231906 
L 569.713825 166.622137 
L 579.162275 170.022961 
L 588.610725 173.423785 
L 598.059175 175.644675 
L 607.507625 177.865565 
L 616.956075 184.085274 
L 626.404525 190.304984 
L 635.852975 204.526209 
L 645.301425 218.747434 
L 654.749875 230.777115 
L 664.198325 242.806796 
L 673.646775 244.285728 
L 683.095225 245.76466 
L 692.543675 246.563649 
L 701.992125 247.362638 
L 711.440575 246.084699 
L 720.889025 244.80676 
L 730.337475 241.242041 
L 739.785925 237.677321 
L 749.234375 253.437832 
L 758.682825 269.198342 
L 768.131275 270.87716 
L 777.579725 272.555978 
L 787.028175 272.892073 
L 796.476625 273.228169 
L 805.925075 273.395386 
L 815.373525 273.562604 
L 824.821975 273.660609 
L 834.270425 273.758613 
L 843.718875 273.828933 
L 853.167325 273.899253 
L 862.615775 273.927492 
L 872.064225 273.955731 
L 881.512675 273.969019 
L 890.961125 273.982308 
L 900.409575 273.984523 
L 909.858025 273.986738 
L 919.306475 273.988399 
L 928.754925 273.99006 
L 938.203375 273.99006 
L 947.651825 273.99006 
L 957.100275 273.99006 
L 966.548725 273.99006 
L 975.997175 273.99006 
L 985.445625 273.99006 
" clip-path="url(#p85ea0081bb)" style="fill: none; stroke: #f0ad4e; stroke-linecap: square"/>
   </g>
   <g id="line2d_16">
    <path d="M 40.600625 256.183681 
L 50.049075 263.807699 
L 59.497525 271.431717 
L 68.945975 271.824839 
L 78.394425 272.217961 
L 87.842875 272.210753 
L 97.291325 272.203545 
L 106.739775 271.977874 
L 116.188225 271.752203 
L 125.636675 271.452787 
L 135.085125 271.153371 
L 144.533575 270.55842 
L 153.982025 269.96347 
L 163.430475 268.776341 
L 172.878925 267.589212 
L 182.327375 265.504389 
L 191.775825 263.419567 
L 201.224275 259.890894 
L 210.672725 256.362222 
L 220.121175 250.912296 
L 229.569625 245.462371 
L 239.018075 237.622663 
L 248.466525 229.782954 
L 257.914975 219.627208 
L 267.363425 209.471462 
L 276.811875 197.291885 
L 286.260325 185.112309 
L 295.708775 171.410701 
L 305.157225 157.709093 
L 314.605675 143.221796 
L 324.054125 128.734498 
L 333.502575 114.88041 
L 342.951025 101.026322 
L 352.399475 89.178875 
L 361.847925 77.331428 
L 371.296375 68.752606 
L 380.744825 60.173784 
L 390.193275 55.537827 
L 399.641725 50.901869 
L 409.090175 51.424738 
L 418.538625 51.947607 
L 427.987075 55.835025 
L 437.435525 59.722442 
L 446.883975 67.726829 
L 456.332425 75.731216 
L 465.780875 85.033073 
L 475.229325 94.334929 
L 484.677775 102.831135 
L 494.126225 111.32734 
L 503.574675 123.622247 
L 513.023125 135.917155 
L 522.471575 146.543095 
L 531.920025 157.169035 
L 541.368475 165.307605 
L 550.816925 173.446175 
L 560.265375 182.028878 
L 569.713825 190.611582 
L 579.162275 198.252234 
L 588.610725 205.892886 
L 598.059175 212.314805 
L 607.507625 218.736723 
L 616.956075 221.010066 
L 626.404525 223.28341 
L 635.852975 223.865608 
L 645.301425 224.447805 
L 654.749875 231.258964 
L 664.198325 238.070123 
L 673.646775 235.993618 
L 683.095225 233.917113 
L 692.543675 230.690628 
L 701.992125 227.464144 
L 711.440575 237.521748 
L 720.889025 247.579353 
L 730.337475 257.832687 
L 739.785925 268.086021 
L 749.234375 270.076582 
L 758.682825 272.067144 
L 768.131275 272.54621 
L 777.579725 273.025275 
L 787.028175 273.269244 
L 796.476625 273.513212 
L 805.925075 273.606364 
L 815.373525 273.699516 
L 824.821975 273.756072 
L 834.270425 273.812628 
L 843.718875 273.850333 
L 853.167325 273.888037 
L 862.615775 273.897463 
L 872.064225 273.906889 
L 881.512675 273.912434 
L 890.961125 273.917978 
L 900.409575 273.926295 
L 909.858025 273.934613 
L 919.306475 273.939603 
L 928.754925 273.944593 
L 938.203375 273.95291 
L 947.651825 273.961227 
L 957.100275 273.968436 
L 966.548725 273.975644 
L 975.997175 273.980634 
L 985.445625 273.985624 
" clip-path="url(#p85ea0081bb)" style="fill: none; stroke: #f0ad4e; stroke-linecap: square"/>
   </g>
   <g id="line2d_17">
    <path d="M 40.600625 273.848966 
L 50.049075 273.837768 
L 59.497525 273.82657 
L 68.945975 273.805854 
L 78.394425 273.785138 
L 87.842875 273.66532 
L 97.291325 273.545503 
L 106.739775 273.519748 
L 116.188225 273.493992 
L 125.636675 273.307547 
L 135.085125 273.121102 
L 144.533575 272.921779 
L 153.982025 272.722456 
L 163.430475 272.265581 
L 172.878925 271.808706 
L 182.327375 270.836167 
L 191.775825 269.863628 
L 201.224275 268.059644 
L 210.672725 266.25566 
L 220.121175 262.932679 
L 229.569625 259.609697 
L 239.018075 254.236378 
L 248.466525 248.863058 
L 257.914975 241.006041 
L 267.363425 233.149024 
L 276.811875 222.788713 
L 286.260325 212.428402 
L 295.708775 199.574875 
L 305.157225 186.721348 
L 314.605675 171.841559 
L 324.054125 156.961769 
L 333.502575 141.162071 
L 342.951025 125.362373 
L 352.399475 111.032401 
L 361.847925 96.702429 
L 371.296375 84.413837 
L 380.744825 72.125245 
L 390.193275 63.270494 
L 399.641725 54.415742 
L 409.090175 48.723282 
L 418.538625 43.030822 
L 427.987075 43.701017 
L 437.435525 44.371212 
L 446.883975 49.267501 
L 456.332425 54.163789 
L 465.780875 63.23578 
L 475.229325 72.307771 
L 484.677775 82.184892 
L 494.126225 92.062013 
L 503.574675 102.537662 
L 513.023125 113.013312 
L 522.471575 123.586383 
L 531.920025 134.159455 
L 541.368475 144.130638 
L 550.816925 154.101822 
L 560.265375 161.941482 
L 569.713825 169.781142 
L 579.162275 172.879606 
L 588.610725 175.978069 
L 598.059175 179.619071 
L 607.507625 183.260073 
L 616.956075 190.282285 
L 626.404525 197.304498 
L 635.852975 209.406085 
L 645.301425 221.507672 
L 654.749875 232.934024 
L 664.198325 244.360377 
L 673.646775 246.915741 
L 683.095225 249.471105 
L 692.543675 250.943631 
L 701.992125 252.416157 
L 711.440575 250.805337 
L 720.889025 249.194517 
L 730.337475 245.926405 
L 739.785925 242.658294 
L 749.234375 256.42501 
L 758.682825 270.191727 
L 768.131275 271.532118 
L 777.579725 272.872508 
L 787.028175 273.179891 
L 796.476625 273.487274 
L 805.925075 273.605972 
L 815.373525 273.724669 
L 824.821975 273.782339 
L 834.270425 273.840008 
L 843.718875 273.889839 
L 853.167325 273.939669 
L 862.615775 273.959826 
L 872.064225 273.979982 
L 881.512675 273.982221 
L 890.961125 273.984461 
L 900.409575 273.986141 
L 909.858025 273.98782 
L 919.306475 273.98782 
L 928.754925 273.98782 
L 938.203375 273.98838 
L 947.651825 273.98894 
L 957.100275 273.9895 
L 966.548725 273.99006 
L 975.997175 273.99006 
L 985.445625 273.99006 
" clip-path="url(#p85ea0081bb)" style="fill: none; stroke: #f0ad4e; stroke-linecap: square"/>
   </g>
   <g id="line2d_18">
    <path d="M 40.600625 255.241784 
L 50.049075 263.290377 
L 59.497525 271.33897 
L 68.945975 271.746053 
L 78.394425 272.153137 
L 87.842875 272.089215 
L 97.291325 272.025293 
L 106.739775 271.819508 
L 116.188225 271.613723 
L 125.636675 271.33168 
L 135.085125 271.049638 
L 144.533575 270.302757 
L 153.982025 269.555876 
L 163.430475 268.382287 
L 172.878925 267.208697 
L 182.327375 264.923758 
L 191.775825 262.638819 
L 201.224275 258.938619 
L 210.672725 255.238419 
L 220.121175 249.413086 
L 229.569625 243.587753 
L 239.018075 235.192073 
L 248.466525 226.796393 
L 257.914975 215.872982 
L 267.363425 204.949571 
L 276.811875 191.738417 
L 286.260325 178.527263 
L 295.708775 163.737679 
L 305.157225 148.948095 
L 314.605675 134.245422 
L 324.054125 119.54275 
L 333.502575 106.037217 
L 342.951025 92.531685 
L 352.399475 80.657851 
L 361.847925 68.784018 
L 371.296375 60.152835 
L 380.744825 51.521653 
L 390.193275 48.481983 
L 399.641725 45.442313 
L 409.090175 46.277226 
L 418.538625 47.11214 
L 427.987075 52.427217 
L 437.435525 57.742294 
L 446.883975 66.635334 
L 456.332425 75.528373 
L 465.780875 85.647149 
L 475.229325 95.765925 
L 484.677775 105.732746 
L 494.126225 115.699566 
L 503.574675 127.599193 
L 513.023125 139.49882 
L 522.471575 150.941459 
L 531.920025 162.384098 
L 541.368475 171.230037 
L 550.816925 180.075976 
L 560.265375 188.212041 
L 569.713825 196.348107 
L 579.162275 203.715424 
L 588.610725 211.082741 
L 598.059175 217.31684 
L 607.507625 223.550939 
L 616.956075 226.016991 
L 626.404525 228.483043 
L 635.852975 229.831578 
L 645.301425 231.180112 
L 654.749875 237.400193 
L 664.198325 243.620274 
L 673.646775 242.242022 
L 683.095225 240.863769 
L 692.543675 237.991754 
L 701.992125 235.11974 
L 711.440575 243.817088 
L 720.889025 252.514435 
L 730.337475 260.920208 
L 739.785925 269.32598 
L 749.234375 270.855067 
L 758.682825 272.384154 
L 768.131275 272.837778 
L 777.579725 273.291401 
L 787.028175 273.462421 
L 796.476625 273.633441 
L 805.925075 273.690635 
L 815.373525 273.747828 
L 824.821975 273.79605 
L 834.270425 273.844272 
L 843.718875 273.863337 
L 853.167325 273.882402 
L 862.615775 273.898102 
L 872.064225 273.913802 
L 881.512675 273.922773 
L 890.961125 273.931745 
L 900.409575 273.939034 
L 909.858025 273.946324 
L 919.306475 273.954174 
L 928.754925 273.962024 
L 938.203375 273.96707 
L 947.651825 273.972117 
L 957.100275 273.974921 
L 966.548725 273.977724 
L 975.997175 273.981649 
L 985.445625 273.985574 
" clip-path="url(#p85ea0081bb)" style="fill: none; stroke: #f0ad4e; stroke-linecap: square"/>
   </g>
   <g id="line2d_19">
    <path d="M 40.600625 273.834095 
L 50.049075 273.809082 
L 59.497525 273.784068 
L 68.945975 273.75317 
L 78.394425 273.722271 
L 87.842875 273.588867 
L 97.291325 273.455463 
L 106.739775 273.435354 
L 116.188225 273.415245 
L 125.636675 273.224458 
L 135.085125 273.03367 
L 144.533575 272.822774 
L 153.982025 272.611878 
L 163.430475 272.078751 
L 172.878925 271.545625 
L 182.327375 270.616701 
L 191.775825 269.687777 
L 201.224275 267.715161 
L 210.672725 265.742545 
L 220.121175 262.418722 
L 229.569625 259.094899 
L 239.018075 253.365878 
L 248.466525 247.636857 
L 257.914975 239.767975 
L 267.363425 231.899093 
L 276.811875 221.12818 
L 286.260325 210.357267 
L 295.708775 197.499953 
L 305.157225 184.642638 
L 314.605675 169.954941 
L 324.054125 155.267243 
L 333.502575 139.260218 
L 342.951025 123.253193 
L 352.399475 109.006416 
L 361.847925 94.759638 
L 371.296375 82.816044 
L 380.744825 70.87245 
L 390.193275 62.535672 
L 399.641725 54.198895 
L 409.090175 48.851939 
L 418.538625 43.504984 
L 427.987075 44.075384 
L 437.435525 44.645785 
L 446.883975 49.940262 
L 456.332425 55.234739 
L 465.780875 64.561748 
L 475.229325 73.888757 
L 484.677775 84.408066 
L 494.126225 94.927374 
L 503.574675 104.688928 
L 513.023125 114.450481 
L 522.471575 125.039435 
L 531.920025 135.628388 
L 541.368475 145.851952 
L 550.816925 156.075515 
L 560.265375 163.659443 
L 569.713825 171.24337 
L 579.162275 174.853619 
L 588.610725 178.463869 
L 598.059175 181.761207 
L 607.507625 185.058545 
L 616.956075 192.576261 
L 626.404525 200.093976 
L 635.852975 211.681009 
L 645.301425 223.268041 
L 654.749875 233.963423 
L 664.198325 244.658806 
L 673.646775 246.270446 
L 683.095225 247.882085 
L 692.543675 249.13373 
L 701.992125 250.385375 
L 711.440575 250.180364 
L 720.889025 249.975353 
L 730.337475 246.00658 
L 739.785925 242.037807 
L 749.234375 255.565575 
L 758.682825 269.093343 
L 768.131275 270.801113 
L 777.579725 272.508882 
L 787.028175 272.806589 
L 796.476625 273.104296 
L 805.925075 273.266146 
L 815.373525 273.427997 
L 824.821975 273.553554 
L 834.270425 273.679111 
L 843.718875 273.754641 
L 853.167325 273.830171 
L 862.615775 273.884121 
L 872.064225 273.938072 
L 881.512675 273.950333 
L 890.961125 273.962594 
L 900.409575 273.970442 
L 909.858025 273.978289 
L 919.306475 273.982213 
L 928.754925 273.986136 
L 938.203375 273.987608 
L 947.651825 273.989079 
L 957.100275 273.988589 
L 966.548725 273.988098 
L 975.997175 273.989079 
L 985.445625 273.99006 
" clip-path="url(#p85ea0081bb)" style="fill: none; stroke: #f0ad4e; stroke-linecap: square"/>
   </g>
   <g id="line2d_20">
    <path d="M 40.600625 264.015252 
L 50.049075 262.683117 
L 59.497525 261.350983 
L 68.945975 261.728438 
L 78.394425 262.105892 
L 87.842875 263.705042 
L 97.291325 265.304192 
L 106.739775 266.213224 
L 116.188225 267.122256 
L 125.636675 267.432956 
L 135.085125 267.743657 
L 144.533575 267.616039 
L 153.982025 267.488421 
L 163.430475 266.452753 
L 172.878925 265.417085 
L 182.327375 263.601966 
L 191.775825 261.786847 
L 201.224275 258.706349 
L 210.672725 255.62585 
L 220.121175 250.003792 
L 229.569625 244.381734 
L 239.018075 236.124368 
L 248.466525 227.867002 
L 257.914975 217.338037 
L 267.363425 206.809073 
L 276.811875 194.092444 
L 286.260325 181.375815 
L 295.708775 166.361573 
L 305.157225 151.347332 
L 314.605675 137.061985 
L 324.054125 122.776638 
L 333.502575 108.811317 
L 342.951025 94.845996 
L 352.399475 82.991278 
L 361.847925 71.136561 
L 371.296375 62.996995 
L 380.744825 54.85743 
L 390.193275 51.138842 
L 399.641725 47.420254 
L 409.090175 48.064233 
L 418.538625 48.708212 
L 427.987075 53.458051 
L 437.435525 58.20789 
L 446.883975 66.970819 
L 456.332425 75.733749 
L 465.780875 86.146385 
L 475.229325 96.55902 
L 484.677775 106.863181 
L 494.126225 117.167342 
L 503.574675 129.583087 
L 513.023125 141.998833 
L 522.471575 152.27747 
L 531.920025 162.556107 
L 541.368475 171.604213 
L 550.816925 180.652319 
L 560.265375 188.707952 
L 569.713825 196.763584 
L 579.162275 203.762932 
L 588.610725 210.762281 
L 598.059175 216.673933 
L 607.507625 222.585585 
L 616.956075 225.190953 
L 626.404525 227.796321 
L 635.852975 228.85015 
L 645.301425 229.903979 
L 654.749875 236.260821 
L 664.198325 242.617663 
L 673.646775 242.629443 
L 683.095225 242.641223 
L 692.543675 241.002806 
L 701.992125 239.364389 
L 711.440575 246.796657 
L 720.889025 254.228925 
L 730.337475 261.569406 
L 739.785925 268.909887 
L 749.234375 270.495294 
L 758.682825 272.0807 
L 768.131275 272.527854 
L 777.579725 272.975007 
L 787.028175 273.18165 
L 796.476625 273.388293 
L 805.925075 273.512966 
L 815.373525 273.637638 
L 824.821975 273.700466 
L 834.270425 273.763293 
L 843.718875 273.798633 
L 853.167325 273.833974 
L 862.615775 273.859988 
L 872.064225 273.886002 
L 881.512675 273.904654 
L 890.961125 273.923306 
L 900.409575 273.939013 
L 909.858025 273.95472 
L 919.306475 273.95472 
L 928.754925 273.95472 
L 938.203375 273.959137 
L 947.651825 273.963555 
L 957.100275 273.968463 
L 966.548725 273.973372 
L 975.997175 273.981225 
L 985.445625 273.989078 
" clip-path="url(#p85ea0081bb)" style="fill: none; stroke: #f0ad4e; stroke-linecap: square"/>
   </g>
   <g id="line2d_21">
    <path d="M 40.600625 273.99006 
L 985.445625 273.99006 
" clip-path="url(#p85ea0081bb)" style="fill: none; stroke: #dedede; stroke-width: 2; stroke-linecap: square"/>
   </g>
   <g id="text_17">
    <!-- FastQC: Per Sequence GC Content -->
    <g transform="translate(376.386875 19.3575) scale(0.16 -0.16)">
     <defs>
      <path id="DejaVuSans-46" d="M 628 4666 
L 3309 4666 
L 3309 4134 
L 1259 4134 
L 1259 2759 
L 3109 2759 
L 3109 2228 
L 1259 2228 
L 1259 0 
L 628 0 
L 628 4666 
z
" transform="scale(0.015625)"/>
      <path id="DejaVuSans-73" d="M 2834 3397 
L 2834 2853 
Q 2591 2978 2328 3040 
Q 2066 3103 1784 3103 
Q 1356 3103 1142 2972 
Q 928 2841 928 2578 
Q 928 2378 1081 2264 
Q 1234 2150 1697 2047 
L 1894 2003 
Q 2506 1872 2764 1633 
Q 3022 1394 3022 966 
Q 3022 478 2636 193 
Q 2250 -91 1575 -91 
Q 1294 -91 989 -36 
Q 684 19 347 128 
L 347 722 
Q 666 556 975 473 
Q 1284 391 1588 391 
Q 1994 391 2212 530 
Q 2431 669 2431 922 
Q 2431 1156 2273 1281 
Q 2116 1406 1581 1522 
L 1381 1569 
Q 847 1681 609 1914 
Q 372 2147 372 2553 
Q 372 3047 722 3315 
Q 1072 3584 1716 3584 
Q 2034 3584 2315 3537 
Q 2597 3491 2834 3397 
z
" transform="scale(0.015625)"/>
      <path id="DejaVuSans-51" d="M 2522 4238 
Q 1834 4238 1429 3725 
Q 1025 3213 1025 2328 
Q 1025 1447 1429 934 
Q 1834 422 2522 422 
Q 3209 422 3611 934 
Q 4013 1447 4013 2328 
Q 4013 3213 3611 3725 
Q 3209 4238 2522 4238 
z
M 3406 84 
L 4238 -825 
L 3475 -825 
L 2784 -78 
Q 2681 -84 2626 -87 
Q 2572 -91 2522 -91 
Q 1538 -91 948 567 
Q 359 1225 359 2328 
Q 359 3434 948 4092 
Q 1538 4750 2522 4750 
Q 3503 4750 4090 4092 
Q 4678 3434 4678 2328 
Q 4678 1516 4351 937 
Q 4025 359 3406 84 
z
" transform="scale(0.015625)"/>
      <path id="DejaVuSans-3a" d="M 750 794 
L 1409 794 
L 1409 0 
L 750 0 
L 750 794 
z
M 750 3309 
L 1409 3309 
L 1409 2516 
L 750 2516 
L 750 3309 
z
" transform="scale(0.015625)"/>
      <path id="DejaVuSans-53" d="M 3425 4513 
L 3425 3897 
Q 3066 4069 2747 4153 
Q 2428 4238 2131 4238 
Q 1616 4238 1336 4038 
Q 1056 3838 1056 3469 
Q 1056 3159 1242 3001 
Q 1428 2844 1947 2747 
L 2328 2669 
Q 3034 2534 3370 2195 
Q 3706 1856 3706 1288 
Q 3706 609 3251 259 
Q 2797 -91 1919 -91 
Q 1588 -91 1214 -16 
Q 841 59 441 206 
L 441 856 
Q 825 641 1194 531 
Q 1563 422 1919 422 
Q 2459 422 2753 634 
Q 3047 847 3047 1241 
Q 3047 1584 2836 1778 
Q 2625 1972 2144 2069 
L 1759 2144 
Q 1053 2284 737 2584 
Q 422 2884 422 3419 
Q 422 4038 858 4394 
Q 1294 4750 2059 4750 
Q 2388 4750 2728 4690 
Q 3069 4631 3425 4513 
z
" transform="scale(0.015625)"/>
      <path id="DejaVuSans-71" d="M 947 1747 
Q 947 1113 1208 752 
Q 1469 391 1925 391 
Q 2381 391 2643 752 
Q 2906 1113 2906 1747 
Q 2906 2381 2643 2742 
Q 2381 3103 1925 3103 
Q 1469 3103 1208 2742 
Q 947 2381 947 1747 
z
M 2906 525 
Q 2725 213 2448 61 
Q 2172 -91 1784 -91 
Q 1150 -91 751 415 
Q 353 922 353 1747 
Q 353 2572 751 3078 
Q 1150 3584 1784 3584 
Q 2172 3584 2448 3432 
Q 2725 3281 2906 2969 
L 2906 3500 
L 3481 3500 
L 3481 -1331 
L 2906 -1331 
L 2906 525 
z
" transform="scale(0.015625)"/>
      <path id="DejaVuSans-75" d="M 544 1381 
L 544 3500 
L 1119 3500 
L 1119 1403 
Q 1119 906 1312 657 
Q 1506 409 1894 409 
Q 2359 409 2629 706 
Q 2900 1003 2900 1516 
L 2900 3500 
L 3475 3500 
L 3475 0 
L 2900 0 
L 2900 538 
Q 2691 219 2414 64 
Q 2138 -91 1772 -91 
Q 1169 -91 856 284 
Q 544 659 544 1381 
z
M 1991 3584 
L 1991 3584 
z
" transform="scale(0.015625)"/>
      <path id="DejaVuSans-6f" d="M 1959 3097 
Q 1497 3097 1228 2736 
Q 959 2375 959 1747 
Q 959 1119 1226 758 
Q 1494 397 1959 397 
Q 2419 397 2687 759 
Q 2956 1122 2956 1747 
Q 2956 2369 2687 2733 
Q 2419 3097 1959 3097 
z
M 1959 3584 
Q 2709 3584 3137 3096 
Q 3566 2609 3566 1747 
Q 3566 888 3137 398 
Q 2709 -91 1959 -91 
Q 1206 -91 779 398 
Q 353 888 353 1747 
Q 353 2609 779 3096 
Q 1206 3584 1959 3584 
z
" transform="scale(0.015625)"/>
     </defs>
     <use xlink:href="#DejaVuSans-46"/>
     <use xlink:href="#DejaVuSans-61" x="48.394531"/>
     <use xlink:href="#DejaVuSans-73" x="109.673828"/>
     <use xlink:href="#DejaVuSans-74" x="161.773438"/>
     <use xlink:href="#DejaVuSans-51" x="200.982422"/>
     <use xlink:href="#DejaVuSans-43" x="279.693359"/>
     <use xlink:href="#DejaVuSans-3a" x="349.517578"/>
     <use xlink:href="#DejaVuSans-20" x="383.208984"/>
     <use xlink:href="#DejaVuSans-50" x="414.996094"/>
     <use xlink:href="#DejaVuSans-65" x="471.673828"/>
     <use xlink:href="#DejaVuSans-72" x="533.197266"/>
     <use xlink:href="#DejaVuSans-20" x="574.310547"/>
     <use xlink:href="#DejaVuSans-53" x="606.097656"/>
     <use xlink:href="#DejaVuSans-65" x="669.574219"/>
     <use xlink:href="#DejaVuSans-71" x="731.097656"/>
     <use xlink:href="#DejaVuSans-75" x="794.574219"/>
     <use xlink:href="#DejaVuSans-65" x="857.953125"/>
     <use xlink:href="#DejaVuSans-6e" x="919.476562"/>
     <use xlink:href="#DejaVuSans-63" x="982.855469"/>
     <use xlink:href="#DejaVuSans-65" x="1037.835938"/>
     <use xlink:href="#DejaVuSans-20" x="1099.359375"/>
     <use xlink:href="#DejaVuSans-47" x="1131.146484"/>
     <use xlink:href="#DejaVuSans-43" x="1208.636719"/>
     <use xlink:href="#DejaVuSans-20" x="1278.460938"/>
     <use xlink:href="#DejaVuSans-43" x="1310.248047"/>
     <use xlink:href="#DejaVuSans-6f" x="1380.072266"/>
     <use xlink:href="#DejaVuSans-6e" x="1441.253906"/>
     <use xlink:href="#DejaVuSans-74" x="1504.632812"/>
     <use xlink:href="#DejaVuSans-65" x="1543.841797"/>
     <use xlink:href="#DejaVuSans-6e" x="1605.365234"/>
     <use xlink:href="#DejaVuSans-74" x="1668.744141"/>
    </g>
   </g>
   <g id="legend_1">
    <g id="line2d_22">
     <path d="M 47.800625 291.525394 
L 55.800625 291.525394 
L 63.800625 291.525394 
" style="fill: none; stroke: #f0ad4e; stroke-linecap: square"/>
    </g>
    <g id="text_18">
     <!-- SRR5961980_T1_1 -->
     <g transform="translate(70.200625 294.325394) scale(0.08 -0.08)">
      <defs>
       <path id="DejaVuSans-52" d="M 2841 2188 
Q 3044 2119 3236 1894 
Q 3428 1669 3622 1275 
L 4263 0 
L 3584 0 
L 2988 1197 
Q 2756 1666 2539 1819 
Q 2322 1972 1947 1972 
L 1259 1972 
L 1259 0 
L 628 0 
L 628 4666 
L 2053 4666 
Q 2853 4666 3247 4331 
Q 3641 3997 3641 3322 
Q 3641 2881 3436 2590 
Q 3231 2300 2841 2188 
z
M 1259 4147 
L 1259 2491 
L 2053 2491 
Q 2509 2491 2742 2702 
Q 2975 2913 2975 3322 
Q 2975 3731 2742 3939 
Q 2509 4147 2053 4147 
L 1259 4147 
z
" transform="scale(0.015625)"/>
       <path id="DejaVuSans-39" d="M 703 97 
L 703 672 
Q 941 559 1184 500 
Q 1428 441 1663 441 
Q 2288 441 2617 861 
Q 2947 1281 2994 2138 
Q 2813 1869 2534 1725 
Q 2256 1581 1919 1581 
Q 1219 1581 811 2004 
Q 403 2428 403 3163 
Q 403 3881 828 4315 
Q 1253 4750 1959 4750 
Q 2769 4750 3195 4129 
Q 3622 3509 3622 2328 
Q 3622 1225 3098 567 
Q 2575 -91 1691 -91 
Q 1453 -91 1209 -44 
Q 966 3 703 97 
z
M 1959 2075 
Q 2384 2075 2632 2365 
Q 2881 2656 2881 3163 
Q 2881 3666 2632 3958 
Q 2384 4250 1959 4250 
Q 1534 4250 1286 3958 
Q 1038 3666 1038 3163 
Q 1038 2656 1286 2365 
Q 1534 2075 1959 2075 
z
" transform="scale(0.015625)"/>
       <path id="DejaVuSans-5f" d="M 3263 -1063 
L 3263 -1509 
L -63 -1509 
L -63 -1063 
L 3263 -1063 
z
" transform="scale(0.015625)"/>
       <path id="DejaVuSans-54" d="M -19 4666 
L 3928 4666 
L 3928 4134 
L 2272 4134 
L 2272 0 
L 1638 0 
L 1638 4134 
L -19 4134 
L -19 4666 
z
" transform="scale(0.015625)"/>
      </defs>
      <use xlink:href="#DejaVuSans-53"/>
      <use xlink:href="#DejaVuSans-52" x="63.476562"/>
      <use xlink:href="#DejaVuSans-52" x="132.958984"/>
      <use xlink:href="#DejaVuSans-35" x="202.441406"/>
      <use xlink:href="#DejaVuSans-39" x="266.064453"/>
      <use xlink:href="#DejaVuSans-36" x="329.6875"/>
      <use xlink:href="#DejaVuSans-31" x="393.310547"/>
      <use xlink:href="#DejaVuSans-39" x="456.933594"/>
      <use xlink:href="#DejaVuSans-38" x="520.556641"/>
      <use xlink:href="#DejaVuSans-30" x="584.179688"/>
      <use xlink:href="#DejaVuSans-5f" x="647.802734"/>
      <use xlink:href="#DejaVuSans-54" x="697.802734"/>
      <use xlink:href="#DejaVuSans-31" x="758.886719"/>
      <use xlink:href="#DejaVuSans-5f" x="822.509766"/>
      <use xlink:href="#DejaVuSans-31" x="872.509766"/>
     </g>
    </g>
    <g id="line2d_23">
     <path d="M 47.800625 303.490394 
L 55.800625 303.490394 
L 63.800625 303.490394 
" style="fill: none; stroke: #f0ad4e; stroke-linecap: square"/>
    </g>
    <g id="text_19">
     <!-- SRR5961980_T1_2 -->
     <g transform="translate(70.200625 306.290394) scale(0.08 -0.08)">
      <use xlink:href="#DejaVuSans-53"/>
      <use xlink:href="#DejaVuSans-52" x="63.476562"/>
      <use xlink:href="#DejaVuSans-52" x="132.958984"/>
      <use xlink:href="#DejaVuSans-35" x="202.441406"/>
      <use xlink:href="#DejaVuSans-39" x="266.064453"/>
      <use xlink:href="#DejaVuSans-36" x="329.6875"/>
      <use xlink:href="#DejaVuSans-31" x="393.310547"/>
      <use xlink:href="#DejaVuSans-39" x="456.933594"/>
      <use xlink:href="#DejaVuSans-38" x="520.556641"/>
      <use xlink:href="#DejaVuSans-30" x="584.179688"/>
      <use xlink:href="#DejaVuSans-5f" x="647.802734"/>
      <use xlink:href="#DejaVuSans-54" x="697.802734"/>
      <use xlink:href="#DejaVuSans-31" x="758.886719"/>
      <use xlink:href="#DejaVuSans-5f" x="822.509766"/>
      <use xlink:href="#DejaVuSans-32" x="872.509766"/>
     </g>
    </g>
    <g id="line2d_24">
     <path d="M 47.800625 315.455394 
L 55.800625 315.455394 
L 63.800625 315.455394 
" style="fill: none; stroke: #f0ad4e; stroke-linecap: square"/>
    </g>
    <g id="text_20">
     <!-- SRR5961981_T1_1 -->
     <g transform="translate(70.200625 318.255394) scale(0.08 -0.08)">
      <use xlink:href="#DejaVuSans-53"/>
      <use xlink:href="#DejaVuSans-52" x="63.476562"/>
      <use xlink:href="#DejaVuSans-52" x="132.958984"/>
      <use xlink:href="#DejaVuSans-35" x="202.441406"/>
      <use xlink:href="#DejaVuSans-39" x="266.064453"/>
      <use xlink:href="#DejaVuSans-36" x="329.6875"/>
      <use xlink:href="#DejaVuSans-31" x="393.310547"/>
      <use xlink:href="#DejaVuSans-39" x="456.933594"/>
      <use xlink:href="#DejaVuSans-38" x="520.556641"/>
      <use xlink:href="#DejaVuSans-31" x="584.179688"/>
      <use xlink:href="#DejaVuSans-5f" x="647.802734"/>
      <use xlink:href="#DejaVuSans-54" x="697.802734"/>
      <use xlink:href="#DejaVuSans-31" x="758.886719"/>
      <use xlink:href="#DejaVuSans-5f" x="822.509766"/>
      <use xlink:href="#DejaVuSans-31" x="872.509766"/>
     </g>
    </g>
    <g id="line2d_25">
     <path d="M 256.08875 291.525394 
L 264.08875 291.525394 
L 272.08875 291.525394 
" style="fill: none; stroke: #f0ad4e; stroke-linecap: square"/>
    </g>
    <g id="text_21">
     <!-- SRR5961981_T1_2 -->
     <g transform="translate(278.48875 294.325394) scale(0.08 -0.08)">
      <use xlink:href="#DejaVuSans-53"/>
      <use xlink:href="#DejaVuSans-52" x="63.476562"/>
      <use xlink:href="#DejaVuSans-52" x="132.958984"/>
      <use xlink:href="#DejaVuSans-35" x="202.441406"/>
      <use xlink:href="#DejaVuSans-39" x="266.064453"/>
      <use xlink:href="#DejaVuSans-36" x="329.6875"/>
      <use xlink:href="#DejaVuSans-31" x="393.310547"/>
      <use xlink:href="#DejaVuSans-39" x="456.933594"/>
      <use xlink:href="#DejaVuSans-38" x="520.556641"/>
      <use xlink:href="#DejaVuSans-31" x="584.179688"/>
      <use xlink:href="#DejaVuSans-5f" x="647.802734"/>
      <use xlink:href="#DejaVuSans-54" x="697.802734"/>
      <use xlink:href="#DejaVuSans-31" x="758.886719"/>
      <use xlink:href="#DejaVuSans-5f" x="822.509766"/>
      <use xlink:href="#DejaVuSans-32" x="872.509766"/>
     </g>
    </g>
    <g id="line2d_26">
     <path d="M 256.08875 303.490394 
L 264.08875 303.490394 
L 272.08875 303.490394 
" style="fill: none; stroke: #f0ad4e; stroke-linecap: square"/>
    </g>
    <g id="text_22">
     <!-- SRR5961982_T1_1 -->
     <g transform="translate(278.48875 306.290394) scale(0.08 -0.08)">
      <use xlink:href="#DejaVuSans-53"/>
      <use xlink:href="#DejaVuSans-52" x="63.476562"/>
      <use xlink:href="#DejaVuSans-52" x="132.958984"/>
      <use xlink:href="#DejaVuSans-35" x="202.441406"/>
      <use xlink:href="#DejaVuSans-39" x="266.064453"/>
      <use xlink:href="#DejaVuSans-36" x="329.6875"/>
      <use xlink:href="#DejaVuSans-31" x="393.310547"/>
      <use xlink:href="#DejaVuSans-39" x="456.933594"/>
      <use xlink:href="#DejaVuSans-38" x="520.556641"/>
      <use xlink:href="#DejaVuSans-32" x="584.179688"/>
      <use xlink:href="#DejaVuSans-5f" x="647.802734"/>
      <use xlink:href="#DejaVuSans-54" x="697.802734"/>
      <use xlink:href="#DejaVuSans-31" x="758.886719"/>
      <use xlink:href="#DejaVuSans-5f" x="822.509766"/>
      <use xlink:href="#DejaVuSans-31" x="872.509766"/>
     </g>
    </g>
    <g id="line2d_27">
     <path d="M 256.08875 315.455394 
L 264.08875 315.455394 
L 272.08875 315.455394 
" style="fill: none; stroke: #f0ad4e; stroke-linecap: square"/>
    </g>
    <g id="text_23">
     <!-- SRR5961982_T1_2 -->
     <g transform="translate(278.48875 318.255394) scale(0.08 -0.08)">
      <use xlink:href="#DejaVuSans-53"/>
      <use xlink:href="#DejaVuSans-52" x="63.476562"/>
      <use xlink:href="#DejaVuSans-52" x="132.958984"/>
      <use xlink:href="#DejaVuSans-35" x="202.441406"/>
      <use xlink:href="#DejaVuSans-39" x="266.064453"/>
      <use xlink:href="#DejaVuSans-36" x="329.6875"/>
      <use xlink:href="#DejaVuSans-31" x="393.310547"/>
      <use xlink:href="#DejaVuSans-39" x="456.933594"/>
      <use xlink:href="#DejaVuSans-38" x="520.556641"/>
      <use xlink:href="#DejaVuSans-32" x="584.179688"/>
      <use xlink:href="#DejaVuSans-5f" x="647.802734"/>
      <use xlink:href="#DejaVuSans-54" x="697.802734"/>
      <use xlink:href="#DejaVuSans-31" x="758.886719"/>
      <use xlink:href="#DejaVuSans-5f" x="822.509766"/>
      <use xlink:href="#DejaVuSans-32" x="872.509766"/>
     </g>
    </g>
    <g id="line2d_28">
     <path d="M 464.376875 291.525394 
L 472.376875 291.525394 
L 480.376875 291.525394 
" style="fill: none; stroke: #f0ad4e; stroke-linecap: square"/>
    </g>
    <g id="text_24">
     <!-- SRR5962008_T1_1 -->
     <g transform="translate(486.776875 294.325394) scale(0.08 -0.08)">
      <use xlink:href="#DejaVuSans-53"/>
      <use xlink:href="#DejaVuSans-52" x="63.476562"/>
      <use xlink:href="#DejaVuSans-52" x="132.958984"/>
      <use xlink:href="#DejaVuSans-35" x="202.441406"/>
      <use xlink:href="#DejaVuSans-39" x="266.064453"/>
      <use xlink:href="#DejaVuSans-36" x="329.6875"/>
      <use xlink:href="#DejaVuSans-32" x="393.310547"/>
      <use xlink:href="#DejaVuSans-30" x="456.933594"/>
      <use xlink:href="#DejaVuSans-30" x="520.556641"/>
      <use xlink:href="#DejaVuSans-38" x="584.179688"/>
      <use xlink:href="#DejaVuSans-5f" x="647.802734"/>
      <use xlink:href="#DejaVuSans-54" x="697.802734"/>
      <use xlink:href="#DejaVuSans-31" x="758.886719"/>
      <use xlink:href="#DejaVuSans-5f" x="822.509766"/>
      <use xlink:href="#DejaVuSans-31" x="872.509766"/>
     </g>
    </g>
    <g id="line2d_29">
     <path d="M 464.376875 303.490394 
L 472.376875 303.490394 
L 480.376875 303.490394 
" style="fill: none; stroke: #f0ad4e; stroke-linecap: square"/>
    </g>
    <g id="text_25">
     <!-- SRR5962008_T1_2 -->
     <g transform="translate(486.776875 306.290394) scale(0.08 -0.08)">
      <use xlink:href="#DejaVuSans-53"/>
      <use xlink:href="#DejaVuSans-52" x="63.476562"/>
      <use xlink:href="#DejaVuSans-52" x="132.958984"/>
      <use xlink:href="#DejaVuSans-35" x="202.441406"/>
      <use xlink:href="#DejaVuSans-39" x="266.064453"/>
      <use xlink:href="#DejaVuSans-36" x="329.6875"/>
      <use xlink:href="#DejaVuSans-32" x="393.310547"/>
      <use xlink:href="#DejaVuSans-30" x="456.933594"/>
      <use xlink:href="#DejaVuSans-30" x="520.556641"/>
      <use xlink:href="#DejaVuSans-38" x="584.179688"/>
      <use xlink:href="#DejaVuSans-5f" x="647.802734"/>
      <use xlink:href="#DejaVuSans-54" x="697.802734"/>
      <use xlink:href="#DejaVuSans-31" x="758.886719"/>
      <use xlink:href="#DejaVuSans-5f" x="822.509766"/>
      <use xlink:href="#DejaVuSans-32" x="872.509766"/>
     </g>
    </g>
    <g id="line2d_30">
     <path d="M 672.665 291.525394 
L 680.665 291.525394 
L 688.665 291.525394 
" style="fill: none; stroke: #f0ad4e; stroke-linecap: square"/>
    </g>
    <g id="text_26">
     <!-- SRR5962009_T1_1 -->
     <g transform="translate(695.065 294.325394) scale(0.08 -0.08)">
      <use xlink:href="#DejaVuSans-53"/>
      <use xlink:href="#DejaVuSans-52" x="63.476562"/>
      <use xlink:href="#DejaVuSans-52" x="132.958984"/>
      <use xlink:href="#DejaVuSans-35" x="202.441406"/>
      <use xlink:href="#DejaVuSans-39" x="266.064453"/>
      <use xlink:href="#DejaVuSans-36" x="329.6875"/>
      <use xlink:href="#DejaVuSans-32" x="393.310547"/>
      <use xlink:href="#DejaVuSans-30" x="456.933594"/>
      <use xlink:href="#DejaVuSans-30" x="520.556641"/>
      <use xlink:href="#DejaVuSans-39" x="584.179688"/>
      <use xlink:href="#DejaVuSans-5f" x="647.802734"/>
      <use xlink:href="#DejaVuSans-54" x="697.802734"/>
      <use xlink:href="#DejaVuSans-31" x="758.886719"/>
      <use xlink:href="#DejaVuSans-5f" x="822.509766"/>
      <use xlink:href="#DejaVuSans-31" x="872.509766"/>
     </g>
    </g>
    <g id="line2d_31">
     <path d="M 672.665 303.490394 
L 680.665 303.490394 
L 688.665 303.490394 
" style="fill: none; stroke: #f0ad4e; stroke-linecap: square"/>
    </g>
    <g id="text_27">
     <!-- SRR5962009_T1_2 -->
     <g transform="translate(695.065 306.290394) scale(0.08 -0.08)">
      <use xlink:href="#DejaVuSans-53"/>
      <use xlink:href="#DejaVuSans-52" x="63.476562"/>
      <use xlink:href="#DejaVuSans-52" x="132.958984"/>
      <use xlink:href="#DejaVuSans-35" x="202.441406"/>
      <use xlink:href="#DejaVuSans-39" x="266.064453"/>
      <use xlink:href="#DejaVuSans-36" x="329.6875"/>
      <use xlink:href="#DejaVuSans-32" x="393.310547"/>
      <use xlink:href="#DejaVuSans-30" x="456.933594"/>
      <use xlink:href="#DejaVuSans-30" x="520.556641"/>
      <use xlink:href="#DejaVuSans-39" x="584.179688"/>
      <use xlink:href="#DejaVuSans-5f" x="647.802734"/>
      <use xlink:href="#DejaVuSans-54" x="697.802734"/>
      <use xlink:href="#DejaVuSans-31" x="758.886719"/>
      <use xlink:href="#DejaVuSans-5f" x="822.509766"/>
      <use xlink:href="#DejaVuSans-32" x="872.509766"/>
     </g>
    </g>
    <g id="line2d_32">
     <path d="M 880.953125 291.525394 
L 888.953125 291.525394 
L 896.953125 291.525394 
" style="fill: none; stroke: #f0ad4e; stroke-linecap: square"/>
    </g>
    <g id="text_28">
     <!-- SRR5962010_T1_1 -->
     <g transform="translate(903.353125 294.325394) scale(0.08 -0.08)">
      <use xlink:href="#DejaVuSans-53"/>
      <use xlink:href="#DejaVuSans-52" x="63.476562"/>
      <use xlink:href="#DejaVuSans-52" x="132.958984"/>
      <use xlink:href="#DejaVuSans-35" x="202.441406"/>
      <use xlink:href="#DejaVuSans-39" x="266.064453"/>
      <use xlink:href="#DejaVuSans-36" x="329.6875"/>
      <use xlink:href="#DejaVuSans-32" x="393.310547"/>
      <use xlink:href="#DejaVuSans-30" x="456.933594"/>
      <use xlink:href="#DejaVuSans-31" x="520.556641"/>
      <use xlink:href="#DejaVuSans-30" x="584.179688"/>
      <use xlink:href="#DejaVuSans-5f" x="647.802734"/>
      <use xlink:href="#DejaVuSans-54" x="697.802734"/>
      <use xlink:href="#DejaVuSans-31" x="758.886719"/>
      <use xlink:href="#DejaVuSans-5f" x="822.509766"/>
      <use xlink:href="#DejaVuSans-31" x="872.509766"/>
     </g>
    </g>
    <g id="line2d_33">
     <path d="M 880.953125 303.490394 
L 888.953125 303.490394 
L 896.953125 303.490394 
" style="fill: none; stroke: #f0ad4e; stroke-linecap: square"/>
    </g>
    <g id="text_29">
     <!-- SRR5962010_T1_2 -->
     <g transform="translate(903.353125 306.290394) scale(0.08 -0.08)">
      <use xlink:href="#DejaVuSans-53"/>
      <use xlink:href="#DejaVuSans-52" x="63.476562"/>
      <use xlink:href="#DejaVuSans-52" x="132.958984"/>
      <use xlink:href="#DejaVuSans-35" x="202.441406"/>
      <use xlink:href="#DejaVuSans-39" x="266.064453"/>
      <use xlink:href="#DejaVuSans-36" x="329.6875"/>
      <use xlink:href="#DejaVuSans-32" x="393.310547"/>
      <use xlink:href="#DejaVuSans-30" x="456.933594"/>
      <use xlink:href="#DejaVuSans-31" x="520.556641"/>
      <use xlink:href="#DejaVuSans-30" x="584.179688"/>
      <use xlink:href="#DejaVuSans-5f" x="647.802734"/>
      <use xlink:href="#DejaVuSans-54" x="697.802734"/>
      <use xlink:href="#DejaVuSans-31" x="758.886719"/>
      <use xlink:href="#DejaVuSans-5f" x="822.509766"/>
      <use xlink:href="#DejaVuSans-32" x="872.509766"/>
     </g>
    </g>
   </g>
  </g>
 </g>
 <defs>
  <clipPath id="p85ea0081bb">
   <rect x="40.600625" y="31.48286" width="944.845" height="242.5072"/>
  </clipPath>
 </defs>
</svg>
